<svg xmlns="http://www.w3.org/2000/svg" xmlns:xlink="http://www.w3.org/1999/xlink" width="120" zoomAndPan="magnify" viewBox="0 0 90 89.999999" height="120" preserveAspectRatio="xMidYMid meet" version="1.0"><defs><g/><clipPath id="5c0fdf5601"><path d="M 5.753906 26.761719 L 80 26.761719 L 80 65.761719 L 5.753906 65.761719 Z M 5.753906 26.761719 " clip-rule="nonzero"/></clipPath><clipPath id="b544e5ccd5"><path d="M 20 42 L 32 42 L 32 54 L 20 54 Z M 20 42 " clip-rule="nonzero"/></clipPath><clipPath id="ca10d9c816"><path d="M 20.246094 42.167969 L 31.765625 41.84375 L 32.078125 52.804688 L 20.558594 53.132812 Z M 20.246094 42.167969 " clip-rule="nonzero"/></clipPath><clipPath id="c19f308d87"><path d="M 25.996094 42.007812 L 27.472656 46.15625 L 31.867188 46.03125 L 28.386719 48.71875 L 29.863281 52.867188 L 26.234375 50.378906 L 22.753906 53.070312 L 23.992188 48.84375 L 20.363281 46.355469 L 24.757812 46.230469 Z M 25.996094 42.007812 " clip-rule="nonzero"/></clipPath><clipPath id="7e07bbd577"><path d="M 20.246094 42.167969 L 31.746094 41.84375 L 32.058594 52.804688 L 20.558594 53.132812 Z M 20.246094 42.167969 " clip-rule="nonzero"/></clipPath><linearGradient x1="-4.458287" gradientTransform="matrix(0.0428219, -0.00121887, 0.00121887, 0.0428219, 20.245541, 42.169683)" y1="0" x2="271.262424" gradientUnits="userSpaceOnUse" y2="0" id="e5dd8ee2ae"><stop stop-opacity="1" stop-color="rgb(100%, 19.198608%, 19.198608%)" offset="0"/><stop stop-opacity="1" stop-color="rgb(100%, 19.198608%, 19.198608%)" offset="0.015625"/><stop stop-opacity="1" stop-color="rgb(100%, 19.338989%, 19.239807%)" offset="0.0234375"/><stop stop-opacity="1" stop-color="rgb(100%, 19.631958%, 19.325256%)" offset="0.03125"/><stop stop-opacity="1" stop-color="rgb(100%, 19.934082%, 19.413757%)" offset="0.0390625"/><stop stop-opacity="1" stop-color="rgb(100%, 20.236206%, 19.502258%)" offset="0.046875"/><stop stop-opacity="1" stop-color="rgb(100%, 20.53833%, 19.589233%)" offset="0.0546875"/><stop stop-opacity="1" stop-color="rgb(100%, 20.840454%, 19.677734%)" offset="0.0625"/><stop stop-opacity="1" stop-color="rgb(100%, 21.144104%, 19.766235%)" offset="0.0703125"/><stop stop-opacity="1" stop-color="rgb(100%, 21.446228%, 19.854736%)" offset="0.078125"/><stop stop-opacity="1" stop-color="rgb(100%, 21.748352%, 19.943237%)" offset="0.0859375"/><stop stop-opacity="1" stop-color="rgb(100%, 22.050476%, 20.031738%)" offset="0.09375"/><stop stop-opacity="1" stop-color="rgb(100%, 22.3526%, 20.118713%)" offset="0.101562"/><stop stop-opacity="1" stop-color="rgb(100%, 22.654724%, 20.207214%)" offset="0.109375"/><stop stop-opacity="1" stop-color="rgb(100%, 22.956848%, 20.295715%)" offset="0.117187"/><stop stop-opacity="1" stop-color="rgb(100%, 23.260498%, 20.384216%)" offset="0.125"/><stop stop-opacity="1" stop-color="rgb(100%, 23.562622%, 20.472717%)" offset="0.132812"/><stop stop-opacity="1" stop-color="rgb(100%, 23.864746%, 20.559692%)" offset="0.140625"/><stop stop-opacity="1" stop-color="rgb(100%, 24.16687%, 20.648193%)" offset="0.148438"/><stop stop-opacity="1" stop-color="rgb(100%, 24.468994%, 20.736694%)" offset="0.15625"/><stop stop-opacity="1" stop-color="rgb(100%, 24.771118%, 20.825195%)" offset="0.164062"/><stop stop-opacity="1" stop-color="rgb(100%, 25.074768%, 20.913696%)" offset="0.171875"/><stop stop-opacity="1" stop-color="rgb(100%, 25.376892%, 21.002197%)" offset="0.179687"/><stop stop-opacity="1" stop-color="rgb(100%, 25.679016%, 21.089172%)" offset="0.1875"/><stop stop-opacity="1" stop-color="rgb(100%, 25.98114%, 21.177673%)" offset="0.195312"/><stop stop-opacity="1" stop-color="rgb(100%, 26.283264%, 21.266174%)" offset="0.203125"/><stop stop-opacity="1" stop-color="rgb(100%, 26.585388%, 21.354675%)" offset="0.210938"/><stop stop-opacity="1" stop-color="rgb(100%, 26.889038%, 21.443176%)" offset="0.21875"/><stop stop-opacity="1" stop-color="rgb(100%, 27.191162%, 21.530151%)" offset="0.226562"/><stop stop-opacity="1" stop-color="rgb(100%, 27.493286%, 21.618652%)" offset="0.234375"/><stop stop-opacity="1" stop-color="rgb(100%, 27.79541%, 21.707153%)" offset="0.242188"/><stop stop-opacity="1" stop-color="rgb(100%, 28.097534%, 21.795654%)" offset="0.25"/><stop stop-opacity="1" stop-color="rgb(100%, 28.399658%, 21.884155%)" offset="0.257812"/><stop stop-opacity="1" stop-color="rgb(100%, 28.701782%, 21.972656%)" offset="0.265625"/><stop stop-opacity="1" stop-color="rgb(100%, 29.005432%, 22.059631%)" offset="0.273438"/><stop stop-opacity="1" stop-color="rgb(100%, 29.307556%, 22.148132%)" offset="0.28125"/><stop stop-opacity="1" stop-color="rgb(100%, 29.60968%, 22.236633%)" offset="0.289062"/><stop stop-opacity="1" stop-color="rgb(100%, 29.911804%, 22.325134%)" offset="0.296875"/><stop stop-opacity="1" stop-color="rgb(100%, 30.213928%, 22.413635%)" offset="0.304688"/><stop stop-opacity="1" stop-color="rgb(100%, 30.516052%, 22.50061%)" offset="0.3125"/><stop stop-opacity="1" stop-color="rgb(100%, 30.819702%, 22.589111%)" offset="0.320312"/><stop stop-opacity="1" stop-color="rgb(100%, 31.121826%, 22.677612%)" offset="0.328125"/><stop stop-opacity="1" stop-color="rgb(100%, 31.42395%, 22.766113%)" offset="0.335938"/><stop stop-opacity="1" stop-color="rgb(100%, 31.726074%, 22.854614%)" offset="0.34375"/><stop stop-opacity="1" stop-color="rgb(100%, 32.028198%, 22.943115%)" offset="0.351562"/><stop stop-opacity="1" stop-color="rgb(100%, 32.330322%, 23.03009%)" offset="0.359375"/><stop stop-opacity="1" stop-color="rgb(100%, 32.633972%, 23.118591%)" offset="0.367187"/><stop stop-opacity="1" stop-color="rgb(100%, 32.936096%, 23.207092%)" offset="0.375"/><stop stop-opacity="1" stop-color="rgb(100%, 33.23822%, 23.295593%)" offset="0.382812"/><stop stop-opacity="1" stop-color="rgb(100%, 33.540344%, 23.384094%)" offset="0.390625"/><stop stop-opacity="1" stop-color="rgb(100%, 33.842468%, 23.471069%)" offset="0.398437"/><stop stop-opacity="1" stop-color="rgb(100%, 34.144592%, 23.55957%)" offset="0.40625"/><stop stop-opacity="1" stop-color="rgb(100%, 34.446716%, 23.648071%)" offset="0.414062"/><stop stop-opacity="1" stop-color="rgb(100%, 34.750366%, 23.736572%)" offset="0.421875"/><stop stop-opacity="1" stop-color="rgb(100%, 35.05249%, 23.825073%)" offset="0.429688"/><stop stop-opacity="1" stop-color="rgb(100%, 35.354614%, 23.913574%)" offset="0.4375"/><stop stop-opacity="1" stop-color="rgb(100%, 35.656738%, 24.000549%)" offset="0.445312"/><stop stop-opacity="1" stop-color="rgb(100%, 35.958862%, 24.08905%)" offset="0.453125"/><stop stop-opacity="1" stop-color="rgb(100%, 36.260986%, 24.177551%)" offset="0.460938"/><stop stop-opacity="1" stop-color="rgb(100%, 36.564636%, 24.266052%)" offset="0.46875"/><stop stop-opacity="1" stop-color="rgb(100%, 36.86676%, 24.354553%)" offset="0.476562"/><stop stop-opacity="1" stop-color="rgb(100%, 37.168884%, 24.441528%)" offset="0.484375"/><stop stop-opacity="1" stop-color="rgb(100%, 37.471008%, 24.530029%)" offset="0.492187"/><stop stop-opacity="1" stop-color="rgb(100%, 37.773132%, 24.61853%)" offset="0.5"/><stop stop-opacity="1" stop-color="rgb(100%, 38.075256%, 24.707031%)" offset="0.507812"/><stop stop-opacity="1" stop-color="rgb(100%, 38.378906%, 24.795532%)" offset="0.515625"/><stop stop-opacity="1" stop-color="rgb(100%, 38.68103%, 24.884033%)" offset="0.523437"/><stop stop-opacity="1" stop-color="rgb(100%, 38.983154%, 24.971008%)" offset="0.53125"/><stop stop-opacity="1" stop-color="rgb(100%, 39.285278%, 25.059509%)" offset="0.539062"/><stop stop-opacity="1" stop-color="rgb(100%, 39.587402%, 25.14801%)" offset="0.546875"/><stop stop-opacity="1" stop-color="rgb(100%, 39.889526%, 25.236511%)" offset="0.554687"/><stop stop-opacity="1" stop-color="rgb(100%, 40.19165%, 25.325012%)" offset="0.5625"/><stop stop-opacity="1" stop-color="rgb(100%, 40.4953%, 25.411987%)" offset="0.570312"/><stop stop-opacity="1" stop-color="rgb(100%, 40.797424%, 25.500488%)" offset="0.578125"/><stop stop-opacity="1" stop-color="rgb(100%, 41.099548%, 25.588989%)" offset="0.585938"/><stop stop-opacity="1" stop-color="rgb(100%, 41.401672%, 25.67749%)" offset="0.59375"/><stop stop-opacity="1" stop-color="rgb(100%, 41.703796%, 25.765991%)" offset="0.601562"/><stop stop-opacity="1" stop-color="rgb(100%, 42.00592%, 25.854492%)" offset="0.609375"/><stop stop-opacity="1" stop-color="rgb(100%, 42.30957%, 25.941467%)" offset="0.617187"/><stop stop-opacity="1" stop-color="rgb(100%, 42.611694%, 26.029968%)" offset="0.625"/><stop stop-opacity="1" stop-color="rgb(100%, 42.913818%, 26.118469%)" offset="0.632813"/><stop stop-opacity="1" stop-color="rgb(100%, 43.215942%, 26.20697%)" offset="0.640625"/><stop stop-opacity="1" stop-color="rgb(100%, 43.518066%, 26.295471%)" offset="0.648438"/><stop stop-opacity="1" stop-color="rgb(100%, 43.82019%, 26.382446%)" offset="0.65625"/><stop stop-opacity="1" stop-color="rgb(100%, 44.122314%, 26.470947%)" offset="0.664062"/><stop stop-opacity="1" stop-color="rgb(100%, 44.425964%, 26.559448%)" offset="0.671875"/><stop stop-opacity="1" stop-color="rgb(100%, 44.728088%, 26.647949%)" offset="0.679687"/><stop stop-opacity="1" stop-color="rgb(100%, 45.030212%, 26.73645%)" offset="0.6875"/><stop stop-opacity="1" stop-color="rgb(100%, 45.332336%, 26.824951%)" offset="0.695312"/><stop stop-opacity="1" stop-color="rgb(100%, 45.63446%, 26.911926%)" offset="0.703125"/><stop stop-opacity="1" stop-color="rgb(100%, 45.936584%, 27.000427%)" offset="0.710937"/><stop stop-opacity="1" stop-color="rgb(100%, 46.240234%, 27.088928%)" offset="0.71875"/><stop stop-opacity="1" stop-color="rgb(100%, 46.542358%, 27.177429%)" offset="0.726562"/><stop stop-opacity="1" stop-color="rgb(100%, 46.844482%, 27.26593%)" offset="0.734375"/><stop stop-opacity="1" stop-color="rgb(100%, 47.146606%, 27.352905%)" offset="0.742188"/><stop stop-opacity="1" stop-color="rgb(100%, 47.44873%, 27.441406%)" offset="0.75"/><stop stop-opacity="1" stop-color="rgb(100%, 47.750854%, 27.529907%)" offset="0.757812"/><stop stop-opacity="1" stop-color="rgb(100%, 48.054504%, 27.618408%)" offset="0.765625"/><stop stop-opacity="1" stop-color="rgb(100%, 48.356628%, 27.706909%)" offset="0.773437"/><stop stop-opacity="1" stop-color="rgb(100%, 48.658752%, 27.79541%)" offset="0.78125"/><stop stop-opacity="1" stop-color="rgb(100%, 48.960876%, 27.882385%)" offset="0.789062"/><stop stop-opacity="1" stop-color="rgb(100%, 49.263%, 27.970886%)" offset="0.796875"/><stop stop-opacity="1" stop-color="rgb(100%, 49.565125%, 28.059387%)" offset="0.804688"/><stop stop-opacity="1" stop-color="rgb(100%, 49.867249%, 28.147888%)" offset="0.8125"/><stop stop-opacity="1" stop-color="rgb(100%, 50.170898%, 28.236389%)" offset="0.820312"/><stop stop-opacity="1" stop-color="rgb(100%, 50.473022%, 28.323364%)" offset="0.828125"/><stop stop-opacity="1" stop-color="rgb(100%, 50.775146%, 28.411865%)" offset="0.835937"/><stop stop-opacity="1" stop-color="rgb(100%, 51.077271%, 28.500366%)" offset="0.84375"/><stop stop-opacity="1" stop-color="rgb(100%, 51.379395%, 28.588867%)" offset="0.851562"/><stop stop-opacity="1" stop-color="rgb(100%, 51.681519%, 28.677368%)" offset="0.859375"/><stop stop-opacity="1" stop-color="rgb(100%, 51.985168%, 28.765869%)" offset="0.867187"/><stop stop-opacity="1" stop-color="rgb(100%, 52.287292%, 28.852844%)" offset="0.875"/><stop stop-opacity="1" stop-color="rgb(100%, 52.589417%, 28.941345%)" offset="0.882812"/><stop stop-opacity="1" stop-color="rgb(100%, 52.891541%, 29.029846%)" offset="0.890625"/><stop stop-opacity="1" stop-color="rgb(100%, 53.193665%, 29.118347%)" offset="0.898438"/><stop stop-opacity="1" stop-color="rgb(100%, 53.495789%, 29.206848%)" offset="0.90625"/><stop stop-opacity="1" stop-color="rgb(100%, 53.799438%, 29.293823%)" offset="0.914062"/><stop stop-opacity="1" stop-color="rgb(100%, 54.101562%, 29.382324%)" offset="0.921875"/><stop stop-opacity="1" stop-color="rgb(100%, 54.403687%, 29.470825%)" offset="0.929687"/><stop stop-opacity="1" stop-color="rgb(100%, 54.705811%, 29.559326%)" offset="0.9375"/><stop stop-opacity="1" stop-color="rgb(100%, 55.007935%, 29.647827%)" offset="0.945312"/><stop stop-opacity="1" stop-color="rgb(100%, 55.310059%, 29.736328%)" offset="0.953125"/><stop stop-opacity="1" stop-color="rgb(100%, 55.612183%, 29.823303%)" offset="0.960937"/><stop stop-opacity="1" stop-color="rgb(100%, 55.915833%, 29.911804%)" offset="0.96875"/><stop stop-opacity="1" stop-color="rgb(100%, 56.217957%, 30.000305%)" offset="0.976563"/><stop stop-opacity="1" stop-color="rgb(100%, 56.520081%, 30.088806%)" offset="0.984375"/><stop stop-opacity="1" stop-color="rgb(100%, 56.784058%, 30.1651%)" offset="1"/></linearGradient></defs><rect x="-9" width="108" fill="#ffffff" y="-9" height="107.999999" fill-opacity="1"/><rect x="-9" width="108" fill="#000000" y="-9" height="107.999999" fill-opacity="1"/><g clip-path="url(#5c0fdf5601)"><path fill="#ff7445" d="M 18.925781 58.667969 L 21.792969 49.914062 L 14.328125 44.511719 L 23.539062 44.535156 L 26.367188 35.765625 L 29.195312 44.535156 L 79.746094 41.730469 L 31.207031 41.765625 L 26.367188 26.761719 L 21.527344 41.765625 L 5.761719 41.730469 L 18.539062 50.972656 L 13.628906 65.957031 L 26.367188 56.660156 L 66.292969 52.273438 L 26.367188 53.238281 Z M 18.925781 58.667969 " fill-opacity="1" fill-rule="nonzero"/></g><g clip-path="url(#b544e5ccd5)"><g clip-path="url(#ca10d9c816)"><g clip-path="url(#c19f308d87)"><g clip-path="url(#7e07bbd577)"><path fill="url(#e5dd8ee2ae)" d="M 20.050781 42.015625 L 20.375 53.398438 L 32.179688 53.0625 L 31.855469 41.679688 Z M 20.050781 42.015625 " fill-rule="nonzero"/></g></g></g></g><g fill="#0097b2" fill-opacity="1"><g transform="translate(32.36986, 51.266356)"><g><path d="M 5.015625 -3.171875 C 5.253906 -3.066406 5.441406 -2.925781 5.578125 -2.75 C 5.722656 -2.570312 5.800781 -2.351562 5.8125 -2.09375 C 5.84375 -1.5 5.617188 -1.035156 5.140625 -0.703125 C 4.671875 -0.378906 4.046875 -0.195312 3.265625 -0.15625 L 0.015625 0 L 0.859375 -5.703125 L 3.859375 -5.84375 C 4.515625 -5.875 5.019531 -5.78125 5.375 -5.5625 C 5.726562 -5.351562 5.914062 -5.035156 5.9375 -4.609375 C 5.957031 -4.296875 5.882812 -4.015625 5.71875 -3.765625 C 5.550781 -3.515625 5.316406 -3.316406 5.015625 -3.171875 Z M 2.53125 -4.453125 L 2.40625 -3.59375 L 3.375 -3.640625 C 3.789062 -3.660156 3.988281 -3.835938 3.96875 -4.171875 C 3.96875 -4.285156 3.921875 -4.367188 3.828125 -4.421875 C 3.742188 -4.484375 3.617188 -4.507812 3.453125 -4.5 Z M 3.3125 -1.5 C 3.507812 -1.507812 3.660156 -1.5625 3.765625 -1.65625 C 3.878906 -1.75 3.929688 -1.878906 3.921875 -2.046875 C 3.910156 -2.171875 3.859375 -2.257812 3.765625 -2.3125 C 3.679688 -2.375 3.578125 -2.398438 3.453125 -2.390625 L 2.21875 -2.328125 L 2.09375 -1.4375 Z M 3.3125 -1.5 "/></g></g></g><g fill="#0097b2" fill-opacity="1"><g transform="translate(38.595108, 50.954663)"><g><path d="M 3.1875 -0.03125 C 2.613281 0 2.101562 -0.078125 1.65625 -0.265625 C 1.21875 -0.460938 0.875 -0.742188 0.625 -1.109375 C 0.375 -1.484375 0.234375 -1.914062 0.203125 -2.40625 C 0.171875 -3.0625 0.289062 -3.65625 0.5625 -4.1875 C 0.84375 -4.71875 1.25 -5.132812 1.78125 -5.4375 C 2.3125 -5.75 2.921875 -5.921875 3.609375 -5.953125 C 4.179688 -5.984375 4.6875 -5.90625 5.125 -5.71875 C 5.570312 -5.53125 5.914062 -5.25 6.15625 -4.875 C 6.40625 -4.507812 6.546875 -4.082031 6.578125 -3.59375 C 6.609375 -2.9375 6.488281 -2.34375 6.21875 -1.8125 C 5.945312 -1.28125 5.546875 -0.859375 5.015625 -0.546875 C 4.484375 -0.242188 3.875 -0.0703125 3.1875 -0.03125 Z M 3.28125 -1.578125 C 3.582031 -1.585938 3.835938 -1.675781 4.046875 -1.84375 C 4.265625 -2.007812 4.425781 -2.226562 4.53125 -2.5 C 4.632812 -2.769531 4.679688 -3.0625 4.671875 -3.375 C 4.648438 -3.707031 4.535156 -3.96875 4.328125 -4.15625 C 4.117188 -4.351562 3.84375 -4.441406 3.5 -4.421875 C 3.195312 -4.398438 2.941406 -4.304688 2.734375 -4.140625 C 2.523438 -3.972656 2.363281 -3.753906 2.25 -3.484375 C 2.144531 -3.210938 2.101562 -2.921875 2.125 -2.609375 C 2.144531 -2.273438 2.253906 -2.015625 2.453125 -1.828125 C 2.660156 -1.640625 2.9375 -1.554688 3.28125 -1.578125 Z M 3.28125 -1.578125 "/></g></g></g><g fill="#0097b2" fill-opacity="1"><g transform="translate(45.424359, 50.612729)"><g><path d="M 5.828125 -4.09375 C 5.847656 -3.59375 5.734375 -3.148438 5.484375 -2.765625 C 5.242188 -2.378906 4.890625 -2.078125 4.421875 -1.859375 L 5.4375 -0.265625 L 3.46875 -0.171875 L 2.59375 -1.5625 L 2.125 -1.53125 L 1.921875 -0.09375 L 0.015625 0 L 0.859375 -5.703125 L 3.390625 -5.828125 C 4.140625 -5.859375 4.722656 -5.722656 5.140625 -5.421875 C 5.566406 -5.117188 5.796875 -4.675781 5.828125 -4.09375 Z M 3.90625 -3.8125 C 3.894531 -4.1875 3.65625 -4.363281 3.1875 -4.34375 L 2.546875 -4.3125 L 2.34375 -2.984375 L 3.125 -3.015625 C 3.382812 -3.035156 3.582031 -3.113281 3.71875 -3.25 C 3.863281 -3.382812 3.925781 -3.570312 3.90625 -3.8125 Z M 3.90625 -3.8125 "/></g></g></g><g fill="#0097b2" fill-opacity="1"><g transform="translate(51.424112, 50.312326)"><g><path d="M 3.21875 -0.03125 C 2.644531 -0.0078125 2.132812 -0.09375 1.6875 -0.28125 C 1.238281 -0.46875 0.882812 -0.742188 0.625 -1.109375 C 0.375 -1.484375 0.234375 -1.914062 0.203125 -2.40625 C 0.171875 -3.0625 0.289062 -3.648438 0.5625 -4.171875 C 0.84375 -4.703125 1.25 -5.125 1.78125 -5.4375 C 2.3125 -5.75 2.921875 -5.921875 3.609375 -5.953125 C 4.148438 -5.984375 4.632812 -5.910156 5.0625 -5.734375 C 5.488281 -5.566406 5.804688 -5.304688 6.015625 -4.953125 L 4.734375 -3.828125 C 4.441406 -4.242188 4.046875 -4.441406 3.546875 -4.421875 C 3.253906 -4.410156 3 -4.320312 2.78125 -4.15625 C 2.5625 -4 2.390625 -3.785156 2.265625 -3.515625 C 2.148438 -3.253906 2.101562 -2.957031 2.125 -2.625 C 2.144531 -2.289062 2.265625 -2.023438 2.484375 -1.828125 C 2.703125 -1.640625 2.984375 -1.554688 3.328125 -1.578125 C 3.804688 -1.597656 4.21875 -1.835938 4.5625 -2.296875 L 5.734375 -1.28125 C 5.429688 -0.863281 5.070312 -0.554688 4.65625 -0.359375 C 4.25 -0.171875 3.769531 -0.0625 3.21875 -0.03125 Z M 3.21875 -0.03125 "/></g></g></g><g fill="#0097b2" fill-opacity="1"><g transform="translate(57.415815, 50.012327)"><g><path d="M 2.515625 -4.34375 L 2.421875 -3.671875 L 4.8125 -3.796875 L 4.59375 -2.40625 L 2.203125 -2.28125 L 2.09375 -1.546875 L 4.921875 -1.6875 L 4.703125 -0.234375 L 0.015625 0 L 0.859375 -5.703125 L 5.453125 -5.921875 L 5.234375 -4.46875 Z M 2.515625 -4.34375 "/></g></g></g><g fill="#0097b2" fill-opacity="1"><g transform="translate(62.835728, 49.740956)"><g><path d="M 0.859375 -5.703125 L 2.765625 -5.796875 L 2.140625 -1.578125 L 4.6875 -1.703125 L 4.46875 -0.21875 L 0.015625 0 Z M 0.859375 -5.703125 "/></g></g></g><g fill="#0097b2" fill-opacity="1"><g transform="translate(67.804651, 49.492167)"><g><path d="M 0.859375 -5.703125 L 2.765625 -5.796875 L 2.140625 -1.578125 L 4.6875 -1.703125 L 4.46875 -0.21875 L 0.015625 0 Z M 0.859375 -5.703125 "/></g></g></g><g fill="#0097b2" fill-opacity="1"><g transform="translate(72.773574, 49.243377)"><g><path d="M 2.515625 -4.34375 L 2.421875 -3.671875 L 4.8125 -3.796875 L 4.59375 -2.40625 L 2.203125 -2.28125 L 2.09375 -1.546875 L 4.921875 -1.6875 L 4.703125 -0.234375 L 0.015625 0 L 0.859375 -5.703125 L 5.453125 -5.921875 L 5.234375 -4.46875 Z M 2.515625 -4.34375 "/></g></g></g><g fill="#000000" fill-opacity="1"><g transform="translate(66.0896, 52.445149)"><g><path d="M 0.859375 -0.296875 L 0.3125 -0.265625 L 0.1875 -0.015625 L -0.109375 0 L 0.578125 -1.1875 L 0.84375 -1.203125 L 1.203125 -0.0625 L 0.921875 -0.046875 Z M 0.8125 -0.5 L 0.6875 -0.9375 L 0.4375 -0.46875 Z M 0.8125 -0.5 "/></g></g></g><g fill="#000000" fill-opacity="1"><g transform="translate(68.198597, 52.339177)"><g><path d="M 0.921875 -0.640625 L 1.171875 -0.65625 L 1.09375 -0.1875 C 1.039062 -0.125 0.972656 -0.0820312 0.890625 -0.0625 C 0.816406 -0.0390625 0.738281 -0.0234375 0.65625 -0.015625 C 0.539062 -0.015625 0.4375 -0.03125 0.34375 -0.0625 C 0.257812 -0.101562 0.191406 -0.15625 0.140625 -0.21875 C 0.0859375 -0.289062 0.0546875 -0.378906 0.046875 -0.484375 C 0.046875 -0.617188 0.0703125 -0.738281 0.125 -0.84375 C 0.1875 -0.957031 0.269531 -1.046875 0.375 -1.109375 C 0.476562 -1.171875 0.601562 -1.207031 0.75 -1.21875 C 0.863281 -1.21875 0.960938 -1.203125 1.046875 -1.171875 C 1.128906 -1.148438 1.195312 -1.109375 1.25 -1.046875 L 1.0625 -0.890625 C 1.019531 -0.921875 0.972656 -0.945312 0.921875 -0.96875 C 0.878906 -0.988281 0.820312 -1 0.75 -1 C 0.664062 -0.988281 0.585938 -0.960938 0.515625 -0.921875 C 0.453125 -0.878906 0.40625 -0.820312 0.375 -0.75 C 0.34375 -0.675781 0.328125 -0.597656 0.328125 -0.515625 C 0.335938 -0.421875 0.367188 -0.347656 0.421875 -0.296875 C 0.484375 -0.253906 0.566406 -0.234375 0.671875 -0.234375 C 0.742188 -0.242188 0.8125 -0.265625 0.875 -0.296875 Z M 0.921875 -0.640625 "/></g></g></g><g fill="#000000" fill-opacity="1"><g transform="translate(70.315877, 52.232788)"><g><path d="M 0.453125 -0.96875 L 0.421875 -0.703125 L 0.953125 -0.734375 L 0.921875 -0.53125 L 0.375 -0.5 L 0.34375 -0.234375 L 0.96875 -0.265625 L 0.953125 -0.046875 L 0.046875 0 L 0.21875 -1.171875 L 1.09375 -1.21875 L 1.0625 -1 Z M 0.453125 -0.96875 "/></g></g></g><g fill="#000000" fill-opacity="1"><g transform="translate(72.267488, 52.134724)"><g><path d="M 1.28125 -1.21875 L 1.109375 -0.0625 L 0.890625 -0.046875 L 0.421875 -0.734375 L 0.3125 -0.015625 L 0.046875 0 L 0.21875 -1.171875 L 0.4375 -1.1875 L 0.921875 -0.484375 L 1.015625 -1.203125 Z M 1.28125 -1.21875 "/></g></g></g><g fill="#000000" fill-opacity="1"><g transform="translate(74.446068, 52.025255)"><g><path d="M 0.65625 -0.015625 C 0.539062 -0.015625 0.4375 -0.03125 0.34375 -0.0625 C 0.257812 -0.101562 0.191406 -0.15625 0.140625 -0.21875 C 0.0859375 -0.289062 0.0546875 -0.378906 0.046875 -0.484375 C 0.046875 -0.617188 0.0703125 -0.738281 0.125 -0.84375 C 0.1875 -0.957031 0.269531 -1.046875 0.375 -1.109375 C 0.476562 -1.171875 0.601562 -1.207031 0.75 -1.21875 C 0.84375 -1.21875 0.929688 -1.203125 1.015625 -1.171875 C 1.109375 -1.148438 1.175781 -1.101562 1.21875 -1.03125 L 1.015625 -0.859375 C 0.953125 -0.953125 0.859375 -1 0.734375 -1 C 0.648438 -0.988281 0.578125 -0.960938 0.515625 -0.921875 C 0.453125 -0.878906 0.40625 -0.820312 0.375 -0.75 C 0.34375 -0.675781 0.328125 -0.597656 0.328125 -0.515625 C 0.335938 -0.421875 0.367188 -0.347656 0.421875 -0.296875 C 0.484375 -0.253906 0.566406 -0.234375 0.671875 -0.234375 C 0.785156 -0.242188 0.882812 -0.296875 0.96875 -0.390625 L 1.125 -0.25 C 1.019531 -0.101562 0.863281 -0.0234375 0.65625 -0.015625 Z M 0.65625 -0.015625 "/></g></g></g><g fill="#000000" fill-opacity="1"><g transform="translate(76.500395, 51.92203)"><g><path d="M 0.671875 -0.4375 L 0.609375 -0.03125 L 0.34375 -0.015625 L 0.40625 -0.4375 L 0.0625 -1.15625 L 0.328125 -1.171875 L 0.5625 -0.671875 L 0.953125 -1.203125 L 1.21875 -1.21875 Z M 0.671875 -0.4375 "/></g></g></g></svg>