<svg xmlns="http://www.w3.org/2000/svg" xmlns:xlink="http://www.w3.org/1999/xlink" width="140" zoomAndPan="magnify" viewBox="0 0 104.88 104.999996" height="140" preserveAspectRatio="xMidYMid meet" version="1.0"><defs><clipPath id="62287b6c04"><path d="M 32 4.820312 L 72 4.820312 L 72 29 L 32 29 Z M 32 4.820312 " clip-rule="nonzero"/></clipPath><clipPath id="ffe1af166c"><path d="M 32 4.820312 L 71 4.820312 L 71 29 L 32 29 Z M 32 4.820312 " clip-rule="nonzero"/></clipPath><clipPath id="13d7244d31"><path d="M 7.78125 29 L 96.929688 29 L 96.929688 86 L 7.78125 86 Z M 7.78125 29 " clip-rule="nonzero"/></clipPath><clipPath id="1d766951c5"><path d="M 8 29 L 96.929688 29 L 96.929688 86 L 8 86 Z M 8 29 " clip-rule="nonzero"/></clipPath><clipPath id="64001f8c83"><path d="M 7.78125 20 L 96.929688 20 L 96.929688 54 L 7.78125 54 Z M 7.78125 20 " clip-rule="nonzero"/></clipPath><clipPath id="c8e090d341"><path d="M 82 20 L 96.929688 20 L 96.929688 54 L 82 54 Z M 82 20 " clip-rule="nonzero"/></clipPath><clipPath id="fb68254ed9"><path d="M 11 75 L 36 75 L 36 99.960938 L 11 99.960938 Z M 11 75 " clip-rule="nonzero"/></clipPath><clipPath id="d582306dc9"><path d="M 11 80 L 36 80 L 36 99.960938 L 11 99.960938 Z M 11 80 " clip-rule="nonzero"/></clipPath></defs><g clip-path="url(#62287b6c04)"><path fill="#ffda2d" d="M 32.847656 25.992188 L 32.847656 12.957031 C 32.847656 10.71875 33.761719 8.679688 35.238281 7.207031 C 36.710938 5.734375 38.75 4.820312 40.992188 4.820312 L 63.714844 4.820312 C 65.957031 4.820312 67.996094 5.734375 69.46875 7.207031 C 70.945312 8.683594 71.859375 10.71875 71.859375 12.957031 L 71.859375 28.019531 L 65.441406 28.019531 L 65.441406 12.957031 C 65.441406 12.488281 65.246094 12.058594 64.933594 11.742188 C 64.617188 11.429688 64.1875 11.234375 63.714844 11.234375 L 40.992188 11.234375 C 40.519531 11.234375 40.089844 11.429688 39.773438 11.742188 C 39.460938 12.058594 39.265625 12.488281 39.265625 12.957031 L 39.265625 25.992188 Z M 32.847656 25.992188 " fill-opacity="1" fill-rule="evenodd"/></g><g clip-path="url(#ffe1af166c)"><path fill="#ffc700" d="M 32.847656 25.992188 L 32.847656 12.957031 C 32.847656 10.714844 33.761719 8.679688 35.238281 7.207031 C 36.710938 5.734375 38.75 4.820312 40.992188 4.820312 L 63.714844 4.820312 C 65.957031 4.820312 67.996094 5.734375 69.46875 7.207031 C 69.828125 7.566406 70.152344 7.957031 70.4375 8.375 C 69.128906 7.476562 67.550781 6.953125 65.851562 6.953125 L 43.125 6.953125 C 40.882812 6.953125 38.84375 7.867188 37.371094 9.339844 C 35.898438 10.8125 34.980469 12.847656 34.980469 15.089844 L 34.980469 25.992188 Z M 67.578125 28.019531 L 67.578125 14.683594 C 67.578125 14.214844 67.382812 13.78125 67.066406 13.46875 C 66.753906 13.152344 66.320312 12.957031 65.851562 12.957031 L 65.441406 12.957031 L 65.441406 28.019531 Z M 67.578125 28.019531 " fill-opacity="1" fill-rule="evenodd"/></g><g clip-path="url(#13d7244d31)"><path fill="#64b5f6" d="M 96.929688 29.195312 L 96.929688 78.542969 C 96.929688 82.253906 93.890625 85.289062 90.179688 85.289062 L 14.53125 85.289062 C 10.816406 85.289062 7.777344 82.253906 7.777344 78.542969 L 7.78125 30.472656 Z M 96.929688 29.195312 " fill-opacity="1" fill-rule="evenodd"/></g><g clip-path="url(#1d766951c5)"><path fill="#42a5f5" d="M 96.929688 29.195312 L 96.929688 78.542969 C 96.929688 82.25 93.890625 85.289062 90.179688 85.289062 L 14.53125 85.289062 C 11.472656 85.289062 8.871094 83.230469 8.050781 80.429688 C 8.648438 80.605469 9.28125 80.699219 9.9375 80.699219 L 85.585938 80.699219 C 89.300781 80.699219 92.335938 77.660156 92.335938 73.949219 L 92.335938 29.261719 Z M 96.929688 29.195312 " fill-opacity="1" fill-rule="evenodd"/></g><path fill="#ffda2d" d="M 61.746094 48.359375 L 61.746094 62.433594 C 61.746094 63.449219 60.914062 64.28125 59.898438 64.28125 L 44.808594 64.28125 C 43.792969 64.28125 42.960938 63.449219 42.960938 62.433594 L 42.960938 49.914062 Z M 61.746094 48.359375 " fill-opacity="1" fill-rule="evenodd"/><path fill="#ffc700" d="M 61.746094 48.359375 L 61.746094 62.433594 C 61.746094 63.449219 60.914062 64.28125 59.898438 64.28125 L 44.808594 64.28125 C 43.792969 64.28125 42.960938 63.449219 42.960938 62.433594 L 42.960938 61.984375 L 57.605469 61.984375 C 58.617188 61.984375 59.453125 61.152344 59.453125 60.140625 L 59.453125 48.550781 Z M 61.746094 48.359375 " fill-opacity="1" fill-rule="evenodd"/><g clip-path="url(#64001f8c83)"><path fill="#42a5f5" d="M 11.742188 20.28125 L 92.964844 20.28125 C 95.144531 20.28125 96.929688 22.0625 96.929688 24.242188 L 96.929688 44.308594 C 96.929688 49.460938 92.710938 53.675781 87.554688 53.675781 L 17.152344 53.675781 C 11.996094 53.675781 7.777344 49.460938 7.777344 44.308594 L 7.777344 24.242188 C 7.777344 22.0625 9.5625 20.28125 11.742188 20.28125 Z M 11.742188 20.28125 " fill-opacity="1" fill-rule="evenodd"/></g><g clip-path="url(#c8e090d341)"><path fill="#2d90f1" d="M 88.375 20.28125 L 92.96875 20.28125 C 95.144531 20.28125 96.929688 22.0625 96.929688 24.242188 L 96.929688 44.308594 C 96.929688 49.460938 92.710938 53.675781 87.554688 53.675781 L 82.964844 53.675781 C 88.117188 53.675781 92.335938 49.460938 92.335938 44.308594 L 92.335938 24.242188 C 92.335938 22.0625 90.554688 20.28125 88.375 20.28125 Z M 88.375 20.28125 " fill-opacity="1" fill-rule="evenodd"/></g><path fill="#2d90f1" d="M 28.550781 30.851562 L 76.15625 30.851562 C 76.660156 30.851562 77.074219 31.261719 77.074219 31.769531 L 77.074219 42.191406 C 77.074219 42.695312 76.660156 43.109375 76.15625 43.109375 L 28.550781 43.109375 C 28.046875 43.109375 27.632812 42.695312 27.632812 42.191406 L 27.632812 31.769531 C 27.632812 31.261719 28.046875 30.851562 28.550781 30.851562 Z M 28.550781 30.851562 " fill-opacity="1" fill-rule="evenodd"/><path fill="#1d83d4" d="M 28.550781 30.847656 L 76.15625 30.847656 C 76.660156 30.847656 77.074219 31.261719 77.074219 31.769531 L 77.074219 33.144531 L 30.847656 33.144531 C 30.34375 33.144531 29.929688 33.558594 29.929688 34.0625 L 29.929688 43.109375 L 28.550781 43.109375 C 28.046875 43.109375 27.632812 42.695312 27.632812 42.191406 L 27.632812 31.769531 C 27.632812 31.261719 28.046875 30.847656 28.550781 30.847656 Z M 28.550781 30.847656 " fill-opacity="1" fill-rule="evenodd"/><path fill="#da8c36" d="M 32.117188 82.253906 L 28.398438 78.277344 L 35.914062 70.761719 L 39.902344 74.46875 Z M 32.117188 82.253906 " fill-opacity="1" fill-rule="evenodd"/><path fill="#c97629" d="M 32.117188 82.253906 L 28.398438 78.277344 L 28.4375 78.238281 L 30.519531 80.460938 L 38.148438 72.835938 L 39.902344 74.46875 Z M 32.117188 82.253906 " fill-opacity="1" fill-rule="evenodd"/><g clip-path="url(#fb68254ed9)"><path fill="#8d9ca8" d="M 28.75 75.589844 L 34.933594 81.773438 C 35.105469 81.945312 35.105469 82.222656 34.933594 82.394531 L 19.238281 98.082031 C 17.367188 99.953125 14.304688 99.953125 12.433594 98.082031 C 10.5625 96.210938 10.5625 93.152344 12.433594 91.28125 L 28.125 75.589844 C 28.296875 75.421875 28.578125 75.421875 28.75 75.589844 Z M 28.75 75.589844 " fill-opacity="1" fill-rule="evenodd"/></g><g clip-path="url(#d582306dc9)"><path fill="#7a8c98" d="M 33.765625 80.609375 L 34.933594 81.773438 C 35.105469 81.945312 35.105469 82.222656 34.933594 82.394531 L 19.238281 98.082031 C 17.367188 99.953125 14.304688 99.953125 12.433594 98.082031 C 12.234375 97.882812 12.054688 97.671875 11.898438 97.449219 C 13.773438 98.765625 16.398438 98.585938 18.070312 96.914062 L 33.765625 81.226562 C 33.933594 81.058594 33.9375 80.78125 33.765625 80.609375 Z M 33.765625 80.609375 " fill-opacity="1" fill-rule="evenodd"/></g><path fill="#7a8c98" d="M 34.933594 81.773438 C 35.105469 81.945312 35.105469 82.222656 34.933594 82.394531 L 30.859375 86.464844 L 24.054688 79.664062 L 28.125 75.589844 C 28.296875 75.421875 28.578125 75.421875 28.75 75.589844 C 30.808594 77.652344 32.871094 79.714844 34.933594 81.773438 Z M 34.933594 81.773438 " fill-opacity="1" fill-rule="evenodd"/><path fill="#596c76" d="M 34.933594 81.773438 C 35.105469 81.945312 35.105469 82.222656 34.933594 82.394531 L 30.859375 86.464844 L 29.691406 85.296875 L 33.765625 81.226562 C 33.933594 81.058594 33.9375 80.78125 33.769531 80.609375 Z M 34.933594 81.773438 " fill-opacity="1" fill-rule="evenodd"/><path fill="#ffda2d" d="M 72.671875 47.863281 C 73.007812 48.527344 73.3125 49.207031 73.582031 49.902344 C 73.855469 50.597656 74.089844 51.304688 74.292969 52.023438 C 74.496094 52.742188 74.660156 53.46875 74.792969 54.203125 C 74.921875 54.9375 75.015625 55.679688 75.074219 56.421875 C 75.132812 57.167969 75.152344 57.910156 75.136719 58.65625 C 75.121094 59.402344 75.070312 60.148438 74.980469 60.886719 C 74.890625 61.628906 74.765625 62.363281 74.605469 63.089844 C 74.445312 63.820312 74.25 64.539062 74.015625 65.25 C 73.785156 65.957031 73.519531 66.65625 73.21875 67.335938 C 72.917969 68.019531 72.585938 68.6875 72.222656 69.339844 C 71.855469 69.988281 71.460938 70.621094 71.03125 71.230469 C 70.605469 71.84375 70.148438 72.433594 69.664062 73 C 69.175781 73.566406 68.664062 74.109375 68.125 74.625 C 67.585938 75.140625 67.023438 75.628906 66.4375 76.089844 C 65.851562 76.550781 65.242188 76.984375 64.613281 77.386719 C 63.984375 77.785156 63.335938 78.15625 62.671875 78.492188 C 62.007812 78.832031 61.324219 79.136719 60.628906 79.40625 C 59.933594 79.679688 59.226562 79.914062 58.507812 80.117188 C 57.789062 80.320312 57.0625 80.484375 56.328125 80.613281 C 55.59375 80.746094 54.855469 80.839844 54.109375 80.894531 C 53.367188 80.953125 52.621094 80.976562 51.875 80.960938 C 51.128906 80.945312 50.382812 80.890625 49.644531 80.804688 C 48.902344 80.714844 48.167969 80.589844 47.4375 80.429688 C 46.710938 80.269531 45.988281 80.070312 45.28125 79.839844 C 44.570312 79.609375 43.875 79.34375 43.191406 79.042969 C 42.507812 78.742188 41.839844 78.410156 41.1875 78.046875 C 40.539062 77.679688 39.90625 77.285156 39.292969 76.855469 C 38.683594 76.429688 38.09375 75.972656 37.527344 75.488281 C 36.960938 75.003906 36.417969 74.492188 35.902344 73.953125 C 35.382812 73.414062 34.894531 72.851562 34.433594 72.265625 C 33.972656 71.675781 33.539062 71.070312 33.140625 70.441406 C 32.738281 69.8125 32.367188 69.164062 32.03125 68.5 C 31.691406 67.835938 31.386719 67.152344 31.117188 66.457031 C 30.84375 65.765625 30.609375 65.058594 30.40625 64.339844 C 30.203125 63.621094 30.039062 62.894531 29.910156 62.160156 C 29.777344 61.425781 29.683594 60.683594 29.625 59.941406 C 29.570312 59.195312 29.546875 58.453125 29.5625 57.707031 C 29.578125 56.960938 29.632812 56.214844 29.71875 55.476562 C 29.808594 54.734375 29.933594 54 30.09375 53.269531 C 30.253906 52.542969 30.449219 51.824219 30.683594 51.113281 C 30.914062 50.40625 31.179688 49.707031 31.480469 49.027344 C 31.78125 48.34375 32.113281 47.675781 32.476562 47.023438 C 32.84375 46.375 33.242188 45.742188 33.667969 45.132812 C 34.09375 44.519531 34.550781 43.929688 35.039062 43.363281 C 35.523438 42.796875 36.035156 42.253906 36.574219 41.738281 C 37.113281 41.222656 37.675781 40.734375 38.261719 40.273438 C 38.847656 39.8125 39.457031 39.378906 40.085938 38.976562 C 40.714844 38.578125 41.363281 38.207031 42.027344 37.867188 C 42.695312 37.53125 43.375 37.226562 44.070312 36.957031 C 44.765625 36.683594 45.472656 36.449219 46.191406 36.246094 C 46.910156 36.042969 47.636719 35.878906 48.371094 35.75 C 49.105469 35.617188 49.84375 35.523438 50.589844 35.464844 C 51.335938 35.410156 52.078125 35.386719 52.824219 35.402344 C 53.570312 35.417969 54.316406 35.472656 55.058594 35.558594 C 55.796875 35.648438 56.53125 35.773438 57.261719 35.933594 C 57.992188 36.09375 58.710938 36.289062 59.417969 36.523438 C 60.128906 36.753906 60.824219 37.019531 61.507812 37.320312 C 62.191406 37.621094 62.859375 37.953125 63.511719 38.316406 C 64.160156 38.683594 64.792969 39.078125 65.40625 39.507812 C 66.015625 39.933594 66.605469 40.390625 67.171875 40.875 C 67.742188 41.359375 68.28125 41.871094 68.796875 42.410156 C 69.316406 42.949219 69.804688 43.511719 70.265625 44.097656 C 70.726562 44.683594 71.160156 45.292969 71.558594 45.921875 C 71.960938 46.550781 72.332031 47.199219 72.671875 47.863281 Z M 72.671875 47.863281 " fill-opacity="1" fill-rule="nonzero"/><path fill="#ffc700" d="M 60.679688 36.972656 C 67.175781 39.527344 72.417969 45.023438 74.363281 52.285156 C 77.621094 64.4375 70.40625 76.929688 58.25 80.1875 C 52.039062 81.851562 45.742188 80.78125 40.628906 77.71875 C 45.011719 79.441406 49.960938 79.828125 54.855469 78.519531 C 67.015625 75.261719 74.230469 62.769531 70.972656 50.613281 C 69.378906 44.667969 65.574219 39.90625 60.679688 36.972656 Z M 60.679688 36.972656 " fill-opacity="1" fill-rule="evenodd"/><path fill="#eff4f7" d="M 55.769531 41.6875 C 56.308594 41.796875 56.84375 41.9375 57.371094 42.101562 C 57.898438 42.265625 58.414062 42.453125 58.921875 42.667969 C 59.429688 42.886719 59.925781 43.125 60.414062 43.386719 C 60.898438 43.652344 61.367188 43.9375 61.824219 44.25 C 62.28125 44.558594 62.722656 44.890625 63.144531 45.246094 C 63.570312 45.597656 63.976562 45.972656 64.363281 46.363281 C 64.75 46.757812 65.117188 47.167969 65.464844 47.597656 C 65.808594 48.027344 66.136719 48.472656 66.4375 48.933594 C 66.742188 49.394531 67.019531 49.871094 67.277344 50.359375 C 67.535156 50.847656 67.765625 51.347656 67.972656 51.859375 C 68.179688 52.371094 68.363281 52.890625 68.515625 53.421875 C 68.671875 53.949219 68.804688 54.484375 68.90625 55.027344 C 69.011719 55.570312 69.085938 56.117188 69.136719 56.664062 C 69.1875 57.214844 69.210938 57.765625 69.203125 58.316406 C 69.199219 58.867188 69.167969 59.417969 69.109375 59.96875 C 69.050781 60.515625 68.96875 61.0625 68.855469 61.601562 C 68.742188 62.140625 68.605469 62.675781 68.441406 63.203125 C 68.277344 63.730469 68.085938 64.246094 67.871094 64.753906 C 67.65625 65.261719 67.417969 65.757812 67.152344 66.242188 C 66.886719 66.726562 66.601562 67.199219 66.289062 67.65625 C 65.980469 68.113281 65.648438 68.550781 65.292969 68.976562 C 64.941406 69.398438 64.566406 69.804688 64.175781 70.191406 C 63.78125 70.578125 63.371094 70.945312 62.941406 71.292969 C 62.511719 71.640625 62.066406 71.964844 61.605469 72.265625 C 61.140625 72.570312 60.667969 72.847656 60.179688 73.105469 C 59.691406 73.363281 59.1875 73.59375 58.675781 73.800781 C 58.167969 74.007812 57.644531 74.191406 57.117188 74.34375 C 56.585938 74.5 56.050781 74.632812 55.507812 74.734375 C 54.964844 74.839844 54.421875 74.914062 53.871094 74.964844 C 53.320312 75.015625 52.769531 75.035156 52.21875 75.03125 C 51.664062 75.027344 51.117188 74.996094 50.566406 74.9375 C 50.015625 74.878906 49.472656 74.792969 48.933594 74.683594 C 48.390625 74.570312 47.859375 74.433594 47.332031 74.269531 C 46.804688 74.105469 46.285156 73.914062 45.777344 73.699219 C 45.269531 73.484375 44.773438 73.246094 44.289062 72.980469 C 43.804688 72.714844 43.332031 72.429688 42.875 72.121094 C 42.417969 71.808594 41.980469 71.476562 41.554688 71.125 C 41.132812 70.769531 40.726562 70.398438 40.339844 70.003906 C 39.953125 69.609375 39.585938 69.199219 39.238281 68.769531 C 38.890625 68.339844 38.566406 67.894531 38.261719 67.433594 C 37.960938 66.972656 37.679688 66.5 37.421875 66.007812 C 37.167969 65.519531 36.933594 65.019531 36.726562 64.507812 C 36.519531 63.996094 36.339844 63.476562 36.183594 62.949219 C 36.027344 62.417969 35.898438 61.882812 35.792969 61.339844 C 35.691406 60.800781 35.613281 60.253906 35.5625 59.703125 C 35.515625 59.15625 35.492188 58.605469 35.496094 58.050781 C 35.5 57.5 35.53125 56.949219 35.589844 56.402344 C 35.648438 55.851562 35.734375 55.308594 35.847656 54.765625 C 35.957031 54.226562 36.097656 53.695312 36.261719 53.167969 C 36.425781 52.640625 36.613281 52.121094 36.828125 51.613281 C 37.046875 51.105469 37.285156 50.609375 37.546875 50.125 C 37.8125 49.640625 38.101562 49.171875 38.410156 48.714844 C 38.71875 48.257812 39.050781 47.816406 39.40625 47.394531 C 39.757812 46.96875 40.132812 46.566406 40.527344 46.175781 C 40.917969 45.789062 41.332031 45.421875 41.761719 45.078125 C 42.191406 44.730469 42.636719 44.40625 43.097656 44.101562 C 43.558594 43.800781 44.035156 43.519531 44.523438 43.261719 C 45.011719 43.007812 45.511719 42.773438 46.023438 42.566406 C 46.535156 42.359375 47.054688 42.179688 47.585938 42.023438 C 48.113281 41.867188 48.648438 41.738281 49.191406 41.632812 C 49.734375 41.53125 50.28125 41.453125 50.832031 41.40625 C 51.378906 41.355469 51.929688 41.332031 52.484375 41.335938 C 53.035156 41.339844 53.585938 41.371094 54.132812 41.429688 C 54.683594 41.488281 55.226562 41.574219 55.769531 41.6875 Z M 55.769531 41.6875 " fill-opacity="1" fill-rule="nonzero"/><path fill="#e2e3e3" d="M 47.988281 41.90625 C 53.011719 40.558594 58.117188 41.632812 62.0625 44.410156 C 58.605469 42.8125 54.589844 42.367188 50.625 43.429688 C 41.632812 45.835938 36.296875 55.074219 38.707031 64.0625 C 39.769531 68.027344 42.160156 71.28125 45.277344 73.472656 C 40.898438 71.445312 37.417969 67.566406 36.070312 62.542969 C 33.660156 53.554688 38.996094 44.316406 47.988281 41.90625 Z M 47.988281 41.90625 " fill-opacity="1" fill-rule="evenodd"/><path fill="#64b5f6" d="M 63.746094 70.605469 C 62.292969 65.691406 57.726562 62.078125 52.355469 62.078125 C 47.097656 62.078125 42.449219 65.582031 40.964844 70.609375 C 43.964844 73.355469 47.964844 75.03125 52.355469 75.03125 C 56.742188 75.03125 60.742188 73.355469 63.746094 70.605469 Z M 63.746094 70.605469 " fill-opacity="1" fill-rule="evenodd"/><path fill="#42a5f5" d="M 63.746094 70.605469 C 62.292969 65.691406 57.726562 62.078125 52.355469 62.078125 C 51.988281 62.078125 51.628906 62.097656 51.269531 62.128906 C 56.613281 62.738281 60.90625 66.945312 61.644531 72.246094 C 62.386719 71.753906 63.089844 71.207031 63.746094 70.605469 Z M 63.746094 70.605469 " fill-opacity="1" fill-rule="evenodd"/><path fill="#42a5f5" d="M 44.378906 73.03125 C 43.207031 72.03125 42.183594 70.851562 41.320312 69.574219 C 41.191406 69.902344 41.066406 70.261719 40.964844 70.609375 C 41.992188 71.550781 43.136719 72.363281 44.378906 73.03125 Z M 44.378906 73.03125 " fill-opacity="1" fill-rule="evenodd"/><path fill="#ffd6bd" d="M 52.355469 60.152344 C 55.875 60.152344 58.746094 57.28125 58.746094 53.761719 C 58.746094 50.246094 55.875 47.375 52.355469 47.375 C 48.835938 47.375 45.964844 50.246094 45.964844 53.761719 C 45.964844 57.28125 48.835938 60.152344 52.355469 60.152344 Z M 52.355469 60.152344 " fill-opacity="1" fill-rule="evenodd"/><path fill="#f9c6aa" d="M 52.355469 47.375 C 52.09375 47.375 51.835938 47.390625 51.582031 47.421875 C 54.746094 47.804688 57.199219 50.496094 57.199219 53.765625 C 57.199219 57.03125 54.746094 59.726562 51.582031 60.105469 C 51.835938 60.136719 52.09375 60.152344 52.355469 60.152344 C 55.882812 60.152344 58.746094 57.292969 58.746094 53.765625 C 58.746094 50.234375 55.882812 47.375 52.355469 47.375 Z M 52.355469 47.375 " fill-opacity="1" fill-rule="evenodd"/></svg>