<svg xmlns="http://www.w3.org/2000/svg" xmlns:xlink="http://www.w3.org/1999/xlink" width="200" zoomAndPan="magnify" viewBox="0 0 150 149.999998" height="200" preserveAspectRatio="xMidYMid meet" version="1.0"><defs><clipPath id="c218eccdc4"><path d="M 47 9.53125 L 103 9.53125 L 103 43 L 47 43 Z M 47 9.53125 " clip-rule="nonzero"/></clipPath><clipPath id="a75b12c9bc"><path d="M 47 9.53125 L 101 9.53125 L 101 43 L 47 43 Z M 47 9.53125 " clip-rule="nonzero"/></clipPath><clipPath id="26afc7f93f"><path d="M 11.21875 44 L 138.71875 44 L 138.71875 125 L 11.21875 125 Z M 11.21875 44 " clip-rule="nonzero"/></clipPath><clipPath id="91e8a447e8"><path d="M 11.21875 31 L 138.71875 31 L 138.71875 80 L 11.21875 80 Z M 11.21875 31 " clip-rule="nonzero"/></clipPath><clipPath id="8bfb3e12ad"><path d="M 118 31 L 138.71875 31 L 138.71875 80 L 118 80 Z M 118 31 " clip-rule="nonzero"/></clipPath></defs><g clip-path="url(#c218eccdc4)"><path fill="#ffda2d" d="M 47.074219 39.90625 L 47.074219 21.210938 C 47.074219 17.992188 48.382812 15.074219 50.488281 12.957031 C 52.597656 10.84375 55.511719 9.53125 58.71875 9.53125 L 91.21875 9.53125 C 94.425781 9.53125 97.339844 10.84375 99.449219 12.957031 C 101.554688 15.074219 102.867188 17.996094 102.867188 21.210938 L 102.867188 42.816406 L 93.6875 42.816406 L 93.6875 21.210938 C 93.6875 20.535156 93.410156 19.917969 92.960938 19.464844 C 92.507812 19.015625 91.894531 18.734375 91.21875 18.734375 L 58.71875 18.734375 C 58.042969 18.734375 57.425781 19.015625 56.976562 19.464844 C 56.527344 19.914062 56.25 20.53125 56.25 21.210938 L 56.25 39.90625 Z M 47.074219 39.90625 " fill-opacity="1" fill-rule="evenodd"/></g><g clip-path="url(#a75b12c9bc)"><path fill="#ffc700" d="M 47.074219 39.90625 L 47.074219 21.210938 C 47.074219 17.992188 48.382812 15.074219 50.488281 12.957031 C 52.597656 10.84375 55.511719 9.53125 58.71875 9.53125 L 91.21875 9.53125 C 94.425781 9.53125 97.339844 10.84375 99.445312 12.957031 C 99.957031 13.472656 100.421875 14.03125 100.832031 14.628906 C 98.960938 13.34375 96.699219 12.589844 94.269531 12.589844 L 61.769531 12.589844 C 58.5625 12.589844 55.648438 13.902344 53.539062 16.019531 C 51.433594 18.132812 50.125 21.050781 50.125 24.269531 L 50.125 39.90625 Z M 96.738281 42.816406 L 96.738281 23.683594 C 96.738281 23.007812 96.460938 22.390625 96.011719 21.941406 C 95.5625 21.488281 94.945312 21.210938 94.269531 21.210938 L 93.6875 21.210938 L 93.6875 42.816406 Z M 96.738281 42.816406 " fill-opacity="1" fill-rule="evenodd"/></g><g clip-path="url(#26afc7f93f)"><path fill="#64b5f6" d="M 138.71875 44.503906 L 138.71875 115.300781 C 138.71875 120.625 134.375 124.984375 129.066406 124.984375 L 20.871094 124.984375 C 15.5625 124.984375 11.21875 120.625 11.21875 115.300781 L 11.21875 46.335938 Z M 138.71875 44.503906 " fill-opacity="1" fill-rule="evenodd"/><path fill="#42a5f5" d="M 138.71875 44.503906 L 138.71875 115.300781 C 138.71875 120.625 134.375 124.984375 129.066406 124.984375 L 20.871094 124.984375 C 16.5 124.984375 12.78125 122.027344 11.605469 118.007812 C 12.464844 118.261719 13.371094 118.398438 14.304688 118.398438 L 122.496094 118.398438 C 127.808594 118.398438 132.152344 114.039062 132.152344 108.714844 L 132.152344 44.597656 Z M 138.71875 44.503906 " fill-opacity="1" fill-rule="evenodd"/></g><path fill="#ffda2d" d="M 88.40625 72 L 88.40625 92.191406 C 88.40625 93.648438 87.210938 94.84375 85.761719 94.84375 L 64.175781 94.84375 C 62.726562 94.84375 61.535156 93.648438 61.535156 92.191406 L 61.535156 74.230469 Z M 88.40625 72 " fill-opacity="1" fill-rule="evenodd"/><path fill="#ffc700" d="M 88.40625 72 L 88.40625 92.191406 C 88.40625 93.648438 87.210938 94.84375 85.761719 94.84375 L 64.175781 94.84375 C 62.726562 94.84375 61.535156 93.648438 61.535156 92.191406 L 61.535156 91.550781 L 82.476562 91.550781 C 83.929688 91.550781 85.121094 90.355469 85.121094 88.898438 L 85.121094 72.273438 Z M 88.40625 72 " fill-opacity="1" fill-rule="evenodd"/><g clip-path="url(#91e8a447e8)"><path fill="#42a5f5" d="M 16.882812 31.714844 L 133.054688 31.714844 C 136.167969 31.714844 138.71875 34.273438 138.71875 37.398438 L 138.71875 66.1875 C 138.71875 73.578125 132.6875 79.628906 125.3125 79.628906 L 24.625 79.628906 C 17.25 79.628906 11.21875 73.578125 11.21875 66.1875 L 11.21875 37.398438 C 11.21875 34.273438 13.769531 31.714844 16.882812 31.714844 Z M 16.882812 31.714844 " fill-opacity="1" fill-rule="evenodd"/></g><g clip-path="url(#8bfb3e12ad)"><path fill="#2d90f1" d="M 126.484375 31.714844 L 133.054688 31.714844 C 136.167969 31.714844 138.71875 34.273438 138.71875 37.398438 L 138.71875 66.1875 C 138.71875 73.578125 132.6875 79.628906 125.3125 79.628906 L 118.746094 79.628906 C 126.121094 79.628906 132.152344 73.578125 132.152344 66.1875 L 132.152344 37.398438 C 132.152344 34.273438 129.601562 31.714844 126.484375 31.714844 Z M 126.484375 31.714844 " fill-opacity="1" fill-rule="evenodd"/></g><path fill="#2d90f1" d="M 40.929688 46.878906 L 109.007812 46.878906 C 109.730469 46.878906 110.324219 47.472656 110.324219 48.195312 L 110.324219 63.148438 C 110.324219 63.871094 109.730469 64.464844 109.007812 64.464844 L 40.929688 64.464844 C 40.207031 64.464844 39.613281 63.875 39.613281 63.148438 L 39.613281 48.195312 C 39.613281 47.46875 40.207031 46.878906 40.929688 46.878906 Z M 40.929688 46.878906 " fill-opacity="1" fill-rule="evenodd"/><path fill="#1d83d4" d="M 40.929688 46.878906 L 109.007812 46.878906 C 109.730469 46.878906 110.324219 47.46875 110.324219 48.195312 L 110.324219 50.171875 L 44.210938 50.171875 C 43.488281 50.171875 42.898438 50.761719 42.898438 51.488281 L 42.898438 64.464844 L 40.929688 64.464844 C 40.207031 64.464844 39.613281 63.871094 39.613281 63.148438 L 39.613281 48.195312 C 39.613281 47.46875 40.207031 46.878906 40.929688 46.878906 Z M 40.929688 46.878906 " fill-opacity="1" fill-rule="evenodd"/><path fill="#da8c36" d="M 46.027344 120.625 L 40.707031 114.925781 L 51.460938 104.140625 L 57.160156 109.460938 Z M 46.027344 120.625 " fill-opacity="1" fill-rule="evenodd"/><path fill="#c97629" d="M 46.027344 120.625 L 40.707031 114.925781 L 40.765625 114.867188 L 43.742188 118.054688 L 54.648438 107.117188 L 57.160156 109.460938 Z M 46.027344 120.625 " fill-opacity="1" fill-rule="evenodd"/><path fill="#8d9ca8" d="M 41.207031 111.070312 L 50.054688 119.9375 C 50.300781 120.183594 50.300781 120.585938 50.054688 120.832031 L 27.609375 143.339844 C 24.929688 146.023438 20.550781 146.023438 17.875 143.339844 C 15.195312 140.65625 15.195312 136.261719 17.875 133.578125 L 40.320312 111.070312 C 40.566406 110.824219 40.964844 110.824219 41.207031 111.070312 Z M 41.207031 111.070312 " fill-opacity="1" fill-rule="evenodd"/><path fill="#7a8c98" d="M 48.386719 118.265625 L 50.054688 119.9375 C 50.300781 120.183594 50.296875 120.585938 50.054688 120.832031 L 27.609375 143.339844 C 24.929688 146.023438 20.550781 146.023438 17.875 143.339844 C 17.589844 143.054688 17.335938 142.75 17.109375 142.429688 C 19.792969 144.316406 23.546875 144.0625 25.9375 141.664062 L 48.382812 119.15625 C 48.625 118.910156 48.628906 118.511719 48.386719 118.265625 Z M 48.386719 118.265625 " fill-opacity="1" fill-rule="evenodd"/><path fill="#7a8c98" d="M 50.054688 119.9375 C 50.300781 120.183594 50.300781 120.585938 50.054688 120.832031 L 44.230469 126.671875 L 34.496094 116.910156 L 40.320312 111.070312 C 40.566406 110.824219 40.964844 110.824219 41.207031 111.070312 C 44.15625 114.027344 47.105469 116.984375 50.054688 119.9375 Z M 50.054688 119.9375 " fill-opacity="1" fill-rule="evenodd"/><path fill="#596c76" d="M 50.054688 119.9375 C 50.300781 120.183594 50.300781 120.585938 50.054688 120.832031 L 44.230469 126.671875 L 42.558594 124.996094 L 48.382812 119.15625 C 48.628906 118.910156 48.628906 118.511719 48.386719 118.265625 Z M 50.054688 119.9375 " fill-opacity="1" fill-rule="evenodd"/><path fill="#ffda2d" d="M 104.023438 71.289062 C 104.507812 72.242188 104.945312 73.21875 105.332031 74.214844 C 105.71875 75.210938 106.058594 76.226562 106.347656 77.257812 C 106.636719 78.289062 106.871094 79.332031 107.058594 80.382812 C 107.246094 81.4375 107.378906 82.5 107.460938 83.566406 C 107.542969 84.632812 107.574219 85.703125 107.550781 86.773438 C 107.53125 87.84375 107.457031 88.910156 107.328125 89.972656 C 107.203125 91.035156 107.023438 92.089844 106.792969 93.136719 C 106.5625 94.179688 106.28125 95.210938 105.953125 96.230469 C 105.621094 97.25 105.242188 98.246094 104.8125 99.226562 C 104.382812 100.207031 103.90625 101.164062 103.382812 102.097656 C 102.859375 103.03125 102.292969 103.9375 101.683594 104.8125 C 101.070312 105.691406 100.417969 106.535156 99.722656 107.351562 C 99.027344 108.164062 98.296875 108.941406 97.527344 109.679688 C 96.753906 110.421875 95.949219 111.125 95.113281 111.785156 C 94.273438 112.449219 93.402344 113.066406 92.503906 113.640625 C 91.601562 114.21875 90.675781 114.75 89.726562 115.234375 C 88.773438 115.71875 87.800781 116.15625 86.804688 116.542969 C 85.8125 116.933594 84.800781 117.273438 83.773438 117.5625 C 82.746094 117.851562 81.703125 118.089844 80.652344 118.277344 C 79.601562 118.460938 78.546875 118.597656 77.480469 118.679688 C 76.417969 118.761719 75.351562 118.792969 74.28125 118.769531 C 73.214844 118.75 72.152344 118.671875 71.09375 118.546875 C 70.03125 118.417969 68.980469 118.242188 67.9375 118.011719 C 66.894531 117.777344 65.867188 117.496094 64.851562 117.164062 C 63.835938 116.832031 62.839844 116.453125 61.863281 116.023438 C 60.886719 115.59375 59.933594 115.113281 59 114.589844 C 58.070312 114.066406 57.167969 113.496094 56.292969 112.882812 C 55.417969 112.269531 54.574219 111.617188 53.761719 110.921875 C 52.953125 110.222656 52.175781 109.488281 51.4375 108.714844 C 50.699219 107.945312 50 107.136719 49.339844 106.296875 C 48.679688 105.453125 48.0625 104.582031 47.488281 103.679688 C 46.914062 102.777344 46.386719 101.847656 45.902344 100.894531 C 45.417969 99.941406 44.984375 98.964844 44.59375 97.964844 C 44.207031 96.96875 43.867188 95.957031 43.582031 94.925781 C 43.292969 93.894531 43.054688 92.851562 42.867188 91.796875 C 42.679688 90.742188 42.546875 89.683594 42.464844 88.617188 C 42.382812 87.546875 42.351562 86.480469 42.375 85.410156 C 42.398438 84.339844 42.472656 83.273438 42.597656 82.207031 C 42.726562 81.144531 42.902344 80.089844 43.132812 79.046875 C 43.363281 78 43.644531 76.96875 43.976562 75.953125 C 44.304688 74.933594 44.6875 73.933594 45.117188 72.953125 C 45.542969 71.972656 46.019531 71.019531 46.542969 70.085938 C 47.066406 69.152344 47.632812 68.246094 48.246094 67.367188 C 48.855469 66.492188 49.507812 65.644531 50.203125 64.832031 C 50.898438 64.019531 51.628906 63.242188 52.402344 62.5 C 53.171875 61.757812 53.976562 61.058594 54.816406 60.394531 C 55.652344 59.734375 56.523438 59.117188 57.421875 58.539062 C 58.324219 57.964844 59.25 57.433594 60.199219 56.949219 C 61.152344 56.464844 62.125 56.027344 63.121094 55.636719 C 64.117188 55.25 65.125 54.910156 66.15625 54.621094 C 67.183594 54.332031 68.222656 54.09375 69.273438 53.90625 C 70.324219 53.71875 71.382812 53.585938 72.445312 53.5 C 73.511719 53.417969 74.578125 53.390625 75.644531 53.410156 C 76.710938 53.433594 77.773438 53.507812 78.835938 53.636719 C 79.894531 53.761719 80.945312 53.941406 81.988281 54.171875 C 83.03125 54.402344 84.058594 54.683594 85.074219 55.015625 C 86.089844 55.347656 87.085938 55.730469 88.0625 56.160156 C 89.039062 56.589844 89.996094 57.066406 90.925781 57.589844 C 91.855469 58.117188 92.757812 58.683594 93.632812 59.296875 C 94.507812 59.910156 95.351562 60.566406 96.164062 61.261719 C 96.972656 61.957031 97.75 62.691406 98.488281 63.464844 C 99.226562 64.238281 99.925781 65.046875 100.585938 65.886719 C 101.246094 66.726562 101.863281 67.601562 102.4375 68.503906 C 103.011719 69.40625 103.542969 70.332031 104.023438 71.289062 Z M 104.023438 71.289062 " fill-opacity="1" fill-rule="nonzero"/><path fill="#ffc700" d="M 86.875 55.664062 C 96.167969 59.328125 103.664062 67.214844 106.449219 77.628906 C 111.109375 95.066406 100.789062 112.992188 83.398438 117.664062 C 74.519531 120.050781 65.511719 118.515625 58.199219 114.121094 C 64.464844 116.59375 71.546875 117.148438 78.550781 115.269531 C 95.9375 110.59375 106.257812 92.671875 101.597656 75.234375 C 99.320312 66.703125 93.875 59.871094 86.875 55.664062 Z M 86.875 55.664062 " fill-opacity="1" fill-rule="evenodd"/><path fill="#eff4f7" d="M 79.851562 62.425781 C 80.625 62.585938 81.390625 62.785156 82.144531 63.019531 C 82.898438 63.253906 83.636719 63.527344 84.363281 63.835938 C 85.089844 64.144531 85.800781 64.488281 86.496094 64.867188 C 87.1875 65.246094 87.859375 65.65625 88.515625 66.101562 C 89.167969 66.546875 89.796875 67.023438 90.402344 67.53125 C 91.007812 68.039062 91.589844 68.574219 92.144531 69.136719 C 92.695312 69.703125 93.222656 70.292969 93.71875 70.90625 C 94.214844 71.523438 94.679688 72.164062 95.113281 72.824219 C 95.546875 73.484375 95.945312 74.167969 96.3125 74.867188 C 96.679688 75.570312 97.011719 76.285156 97.308594 77.019531 C 97.601562 77.753906 97.863281 78.5 98.085938 79.261719 C 98.308594 80.019531 98.496094 80.789062 98.644531 81.566406 C 98.789062 82.34375 98.898438 83.125 98.972656 83.914062 C 99.042969 84.703125 99.074219 85.492188 99.070312 86.285156 C 99.0625 87.078125 99.019531 87.867188 98.933594 88.652344 C 98.851562 89.441406 98.730469 90.222656 98.570312 90.996094 C 98.410156 91.773438 98.210938 92.539062 97.976562 93.292969 C 97.742188 94.050781 97.46875 94.792969 97.160156 95.519531 C 96.855469 96.25 96.511719 96.960938 96.132812 97.65625 C 95.753906 98.351562 95.34375 99.027344 94.902344 99.683594 C 94.457031 100.335938 93.984375 100.96875 93.476562 101.578125 C 92.972656 102.183594 92.4375 102.765625 91.875 103.320312 C 91.3125 103.878906 90.722656 104.402344 90.109375 104.902344 C 89.496094 105.398438 88.859375 105.863281 88.199219 106.300781 C 87.539062 106.734375 86.859375 107.136719 86.160156 107.503906 C 85.460938 107.871094 84.746094 108.203125 84.011719 108.5 C 83.28125 108.796875 82.535156 109.058594 81.78125 109.28125 C 81.023438 109.503906 80.257812 109.691406 79.480469 109.839844 C 78.707031 109.988281 77.925781 110.097656 77.136719 110.167969 C 76.351562 110.242188 75.5625 110.273438 74.773438 110.265625 C 73.984375 110.261719 73.199219 110.214844 72.414062 110.132812 C 71.628906 110.046875 70.847656 109.925781 70.074219 109.765625 C 69.300781 109.605469 68.539062 109.40625 67.785156 109.171875 C 67.03125 108.933594 66.292969 108.664062 65.5625 108.355469 C 64.835938 108.046875 64.128906 107.703125 63.433594 107.324219 C 62.742188 106.945312 62.066406 106.53125 61.414062 106.085938 C 60.761719 105.644531 60.132812 105.167969 59.527344 104.660156 C 58.917969 104.152344 58.339844 103.617188 57.785156 103.054688 C 57.230469 102.488281 56.707031 101.898438 56.210938 101.28125 C 55.714844 100.667969 55.25 100.027344 54.816406 99.367188 C 54.382812 98.703125 53.984375 98.023438 53.617188 97.320312 C 53.25 96.621094 52.917969 95.902344 52.621094 95.167969 C 52.324219 94.4375 52.066406 93.6875 51.84375 92.929688 C 51.617188 92.171875 51.433594 91.402344 51.285156 90.625 C 51.136719 89.847656 51.027344 89.0625 50.957031 88.273438 C 50.886719 87.488281 50.851562 86.695312 50.859375 85.90625 C 50.867188 85.113281 50.910156 84.324219 50.992188 83.535156 C 51.078125 82.75 51.199219 81.96875 51.359375 81.191406 C 51.519531 80.417969 51.71875 79.652344 51.953125 78.894531 C 52.1875 78.140625 52.457031 77.398438 52.765625 76.667969 C 53.074219 75.941406 53.417969 75.226562 53.792969 74.53125 C 54.171875 73.835938 54.582031 73.164062 55.027344 72.507812 C 55.472656 71.851562 55.945312 71.222656 56.449219 70.613281 C 56.957031 70.003906 57.492188 69.425781 58.054688 68.867188 C 58.617188 68.3125 59.203125 67.785156 59.820312 67.289062 C 60.433594 66.792969 61.070312 66.324219 61.730469 65.890625 C 62.390625 65.457031 63.070312 65.054688 63.769531 64.6875 C 64.46875 64.320312 65.183594 63.988281 65.914062 63.691406 C 66.648438 63.394531 67.390625 63.132812 68.148438 62.910156 C 68.90625 62.683594 69.671875 62.5 70.449219 62.351562 C 71.222656 62.203125 72.003906 62.09375 72.789062 62.019531 C 73.578125 61.949219 74.363281 61.917969 75.152344 61.921875 C 75.941406 61.929688 76.730469 61.972656 77.515625 62.058594 C 78.300781 62.140625 79.078125 62.265625 79.851562 62.425781 Z M 79.851562 62.425781 " fill-opacity="1" fill-rule="nonzero"/><path fill="#e2e3e3" d="M 68.722656 62.742188 C 75.910156 60.808594 83.210938 62.347656 88.851562 66.332031 C 83.910156 64.039062 78.167969 63.398438 72.496094 64.925781 C 59.636719 68.378906 52.003906 81.632812 55.449219 94.53125 C 56.96875 100.21875 60.390625 104.886719 64.847656 108.03125 C 58.582031 105.121094 53.605469 99.554688 51.679688 92.347656 C 48.234375 79.449219 55.863281 66.195312 68.722656 62.742188 Z M 68.722656 62.742188 " fill-opacity="1" fill-rule="evenodd"/><path fill="#64b5f6" d="M 91.257812 103.917969 C 89.183594 96.867188 82.652344 91.683594 74.96875 91.683594 C 67.449219 91.683594 60.800781 96.710938 58.679688 103.917969 C 62.972656 107.859375 68.691406 110.261719 74.96875 110.261719 C 81.246094 110.261719 86.964844 107.859375 91.257812 103.917969 Z M 91.257812 103.917969 " fill-opacity="1" fill-rule="evenodd"/><path fill="#42a5f5" d="M 91.257812 103.917969 C 89.183594 96.867188 82.652344 91.683594 74.96875 91.683594 C 74.445312 91.683594 73.929688 91.707031 73.417969 91.757812 C 81.058594 92.628906 87.199219 98.664062 88.253906 106.269531 C 89.316406 105.566406 90.324219 104.777344 91.257812 103.917969 Z M 91.257812 103.917969 " fill-opacity="1" fill-rule="evenodd"/><path fill="#42a5f5" d="M 63.5625 107.394531 C 61.886719 105.960938 60.421875 104.269531 59.191406 102.433594 C 59.003906 102.90625 58.824219 103.425781 58.679688 103.917969 C 60.148438 105.269531 61.789062 106.4375 63.5625 107.394531 Z M 63.5625 107.394531 " fill-opacity="1" fill-rule="evenodd"/><path fill="#ffd6bd" d="M 74.96875 88.917969 C 80.003906 88.917969 84.109375 84.800781 84.109375 79.753906 C 84.109375 74.703125 80.003906 70.585938 74.96875 70.585938 C 69.933594 70.585938 65.828125 74.703125 65.828125 79.753906 C 65.828125 84.800781 69.933594 88.917969 74.96875 88.917969 Z M 74.96875 88.917969 " fill-opacity="1" fill-rule="evenodd"/><path fill="#f9c6aa" d="M 74.96875 70.585938 C 74.59375 70.585938 74.226562 70.609375 73.867188 70.65625 C 78.390625 71.199219 81.902344 75.066406 81.902344 79.753906 C 81.902344 84.441406 78.390625 88.304688 73.867188 88.851562 C 74.226562 88.894531 74.59375 88.917969 74.96875 88.917969 C 80.015625 88.917969 84.109375 84.816406 84.109375 79.753906 C 84.109375 74.691406 80.015625 70.585938 74.96875 70.585938 Z M 74.96875 70.585938 " fill-opacity="1" fill-rule="evenodd"/></svg>