<svg xmlns="http://www.w3.org/2000/svg" xmlns:xlink="http://www.w3.org/1999/xlink" width="200" zoomAndPan="magnify" viewBox="0 0 150 149.999998" height="200" preserveAspectRatio="xMidYMid meet" version="1.0"><defs><clipPath id="f9e84d45e3"><path d="M 25 10.9375 L 111 10.9375 L 111 122 L 25 122 Z M 25 10.9375 " clip-rule="nonzero"/></clipPath><clipPath id="f1a14e56e2"><path d="M 5.460938 121.496094 L 32.757812 121.496094 L 32.757812 139.175781 L 5.460938 139.175781 Z M 5.460938 121.496094 " clip-rule="nonzero"/></clipPath><clipPath id="2173feab43"><path d="M 18.121094 128.046875 L 32 128.046875 L 32 139.175781 L 18.121094 139.175781 Z M 18.121094 128.046875 " clip-rule="nonzero"/></clipPath></defs><path fill="#de9d66" d="M 47.050781 84.414062 C 48.035156 85.070312 49.203125 85.972656 48.613281 87.714844 C 48.136719 89.121094 46.238281 89.625 44.855469 89.382812 C 45.433594 87.640625 47.050781 84.414062 47.050781 84.414062 " fill-opacity="1" fill-rule="nonzero"/><path fill="#de9d66" d="M 42.375 108.140625 L 42.402344 108.148438 C 42.410156 108.925781 42.15625 110.453125 40.558594 111.089844 C 40.304688 109.820312 40.878906 107.847656 41.113281 107.121094 C 41.464844 107.671875 41.816406 107.894531 42.375 108.140625 " fill-opacity="1" fill-rule="nonzero"/><path fill="#de9d66" d="M 45.570312 100.386719 C 45.742188 101.382812 45.492188 102.773438 44.976562 103.96875 C 44.863281 105.261719 45.207031 106.8125 44.625 107.515625 C 44.039062 108.21875 43.152344 108.480469 42.375 108.140625 C 41.601562 107.800781 41.230469 107.511719 40.699219 106.324219 C 40.757812 103.226562 41.921875 98.375 41.921875 98.375 L 42.285156 98.289062 C 43.609375 99.738281 44.707031 100.296875 45.570312 100.386719 " fill-opacity="1" fill-rule="nonzero"/><path fill="#b87b47" d="M 42.375 108.140625 L 42.402344 108.148438 C 42.402344 108.277344 42.398438 108.429688 42.378906 108.589844 C 42.292969 108.566406 42.210938 108.539062 42.128906 108.503906 C 41.617188 108.28125 41.28125 108.078125 40.960938 107.625 C 41.015625 107.425781 41.070312 107.25 41.113281 107.121094 C 41.464844 107.671875 41.816406 107.894531 42.375 108.140625 " fill-opacity="1" fill-rule="nonzero"/><path fill="#e8c6a7" d="M 44.910156 103.539062 C 45.09375 103.832031 45.488281 106.15625 44.824219 107.28125 C 44.792969 107.339844 44.703125 107.296875 44.730469 107.234375 C 44.90625 106.765625 44.90625 106.339844 44.421875 105.578125 C 44.371094 105.5 44.351562 105.402344 44.367188 105.308594 C 44.476562 104.628906 44.679688 103.546875 44.910156 103.539062 " fill-opacity="1" fill-rule="nonzero"/><path fill="#de9d66" d="M 44.554688 90.714844 C 45.65625 90.867188 46.296875 91.027344 46.84375 92.238281 C 47.386719 93.449219 47.363281 94.824219 47.5 95.917969 C 48.234375 97.070312 48.472656 98.105469 47.792969 99.234375 C 47.167969 100.269531 45.203125 101.769531 41.894531 97.847656 C 43.207031 94.679688 44.554688 90.714844 44.554688 90.714844 " fill-opacity="1" fill-rule="nonzero"/><path fill="#b87b47" d="M 45.566406 100.386719 C 45.589844 100.507812 45.605469 100.628906 45.613281 100.761719 C 44.683594 100.804688 43.4375 100.289062 41.882812 98.550781 C 41.90625 98.4375 41.921875 98.375 41.921875 98.375 L 42.285156 98.289062 C 43.609375 99.738281 44.703125 100.296875 45.566406 100.386719 " fill-opacity="1" fill-rule="nonzero"/><path fill="#e8c6a7" d="M 47.464844 95.894531 C 47.5 96.175781 47.503906 96.4375 47.488281 96.585938 C 47.484375 96.640625 47.507812 96.6875 47.546875 96.722656 C 47.765625 96.917969 48.0625 97.238281 48.164062 97.621094 C 48.171875 97.652344 48.21875 97.648438 48.222656 97.617188 C 48.238281 97.011719 47.925781 96.339844 47.5625 95.855469 C 47.53125 95.808594 47.460938 95.835938 47.464844 95.894531 " fill-opacity="1" fill-rule="nonzero"/><path fill="#b87b47" d="M 44.554688 90.714844 C 45.335938 90.820312 45.886719 90.9375 46.332031 91.421875 L 40.972656 108.449219 C 40.828125 108.542969 41.742188 103.769531 40.9375 103.625 C 40.828125 101.289062 41.917969 93.945312 44.554688 90.714844 " fill-opacity="1" fill-rule="nonzero"/><path fill="#b87b47" d="M 47.050781 84.414062 C 47.421875 84.660156 47.820312 84.945312 48.140625 85.292969 L 46.988281 89.195312 C 46.300781 89.441406 45.519531 89.5 44.855469 89.382812 C 45.433594 87.640625 47.050781 84.414062 47.050781 84.414062 " fill-opacity="1" fill-rule="nonzero"/><path fill="#916138" d="M 33.433594 85.757812 C 34.375 85 36.800781 84.914062 38.871094 86.699219 C 40.9375 88.484375 35.664062 101.691406 32.820312 103.503906 C 29.980469 105.3125 27.695312 102.488281 28.09375 101.007812 C 28.488281 99.523438 31.644531 87.195312 33.433594 85.757812 " fill-opacity="1" fill-rule="nonzero"/><path fill="#fabb85" d="M 18.007812 131.824219 C 13.78125 129.992188 9.519531 128.101562 8.867188 127.65625 C 11.101562 124.707031 14.230469 118.476562 15.761719 112.371094 C 17.71875 104.570312 19.214844 98.351562 20.015625 94.804688 C 20.402344 93.085938 20.625 92.003906 22.972656 90.164062 C 25.316406 88.328125 30.035156 83.460938 31.628906 82.566406 C 33.21875 81.671875 37.378906 81.386719 39.777344 81.554688 C 39.546875 83.316406 39.273438 87.457031 39.144531 88.390625 C 38.339844 88.867188 36.144531 87.269531 35.929688 87.214844 C 35.660156 89.289062 34.21875 90.984375 33.175781 91.507812 C 33.601562 93.382812 34.203125 96.839844 30.589844 100.285156 L 18.007812 131.824219 " fill-opacity="1" fill-rule="nonzero"/><path fill="#fad5b4" d="M 32.234375 83.035156 C 30.640625 83.929688 25.925781 88.796875 23.578125 90.632812 C 21.230469 92.472656 21.007812 93.550781 20.621094 95.273438 C 19.824219 98.820312 18.328125 105.035156 16.371094 112.839844 C 14.855469 118.882812 11.777344 125.042969 9.546875 128.027344 C 9.21875 127.863281 8.984375 127.738281 8.867188 127.65625 C 11.101562 124.707031 14.230469 118.476562 15.761719 112.371094 C 17.71875 104.570312 19.214844 98.351562 20.015625 94.804688 C 20.402344 93.085938 20.625 92.003906 22.972656 90.164062 C 25.316406 88.328125 30.035156 83.460938 31.628906 82.566406 C 33.21875 81.671875 37.378906 81.386719 39.777344 81.554688 C 39.757812 81.6875 39.742188 81.832031 39.722656 81.988281 C 37.285156 81.910156 33.691406 82.21875 32.234375 83.035156 " fill-opacity="1" fill-rule="nonzero"/><path fill="#cf8b50" d="M 31.207031 88.882812 C 32.097656 89.375 32.703125 90.015625 33.378906 91.398438 C 33.308594 91.4375 33.242188 91.476562 33.175781 91.507812 C 33.207031 91.632812 33.234375 91.769531 33.265625 91.90625 C 32.796875 90.699219 32.238281 89.675781 31.140625 88.992188 C 31.074219 88.949219 31.132812 88.84375 31.207031 88.882812 Z M 34.644531 83.746094 C 34.625 83.71875 34.628906 83.679688 34.65625 83.65625 C 34.683594 83.632812 34.722656 83.636719 34.746094 83.664062 C 35.792969 84.929688 36.03125 86.054688 36.117188 87.3125 C 36.027344 87.257812 35.960938 87.222656 35.929688 87.214844 C 35.890625 87.515625 35.828125 87.804688 35.742188 88.085938 C 35.769531 86.535156 35.769531 85.285156 34.644531 83.746094 " fill-opacity="1" fill-rule="nonzero"/><g clip-path="url(#f9e84d45e3)"><path fill="#f2f2f2" d="M 110.875 111.230469 L 40.199219 121.539062 L 25.671875 21.246094 L 96.347656 10.941406 L 110.875 111.230469 " fill-opacity="1" fill-rule="nonzero"/></g><path fill="#7e93a6" d="M 108.765625 107.460938 L 81.59375 111.421875 L 68.226562 19.121094 L 95.394531 15.15625 L 108.765625 107.460938 " fill-opacity="1" fill-rule="nonzero"/><path fill="#f2f2f2" d="M 101.691406 58.617188 L 74.519531 62.578125 L 74.460938 62.167969 L 101.628906 58.207031 L 101.691406 58.617188 " fill-opacity="1" fill-rule="nonzero"/><path fill="#f2f2f2" d="M 70.949219 23.667969 L 94.378906 20.25 L 97.785156 43.757812 L 74.355469 47.175781 L 70.949219 23.667969 " fill-opacity="1" fill-rule="nonzero"/><path fill="#fabb85" d="M 85.550781 26.582031 C 85.777344 26.988281 86.246094 27.910156 86.421875 28.078125 C 86.597656 28.246094 86.710938 28.539062 86.769531 28.820312 C 86.824219 29.101562 87.121094 30.414062 87.160156 30.980469 C 87.199219 31.550781 87.214844 32.414062 87.226562 32.894531 C 87.242188 33.375 87.28125 33.894531 87.140625 34.183594 C 87.003906 34.46875 86.683594 35.230469 86.121094 35.757812 C 85.582031 36.261719 85.101562 36.671875 84.511719 36.757812 C 84.179688 36.808594 83.824219 36.859375 83.492188 36.773438 C 83.160156 36.6875 82.199219 36.171875 81.902344 35.96875 C 81.609375 35.761719 81.265625 35.476562 81.054688 35.046875 C 80.839844 34.617188 80.382812 33.273438 80.28125 32.953125 C 80.183594 32.632812 80.015625 32.222656 79.945312 31.945312 C 79.878906 31.675781 79.925781 31.480469 80.007812 31.242188 C 80.085938 31 80.171875 30.710938 80.195312 30.546875 C 80.421875 30.210938 80.828125 29.503906 81.117188 29.308594 C 81.40625 29.117188 81.859375 28.65625 81.894531 28.304688 C 81.929688 27.953125 82.207031 27.300781 82.5 26.917969 C 82.796875 26.535156 83.097656 26.175781 84.277344 26.164062 C 84.421875 26.285156 84.753906 26.382812 84.941406 26.386719 C 85.070312 26.492188 85.292969 26.609375 85.550781 26.582031 " fill-opacity="1" fill-rule="nonzero"/><path fill="#edaa72" d="M 87.910156 30.066406 C 87.886719 29.941406 87.863281 29.769531 87.832031 29.679688 C 87.800781 29.582031 87.746094 29.496094 87.699219 29.480469 C 87.648438 29.46875 87.613281 29.589844 87.601562 29.6875 C 87.589844 29.785156 87.550781 30.042969 87.546875 30.148438 C 87.539062 30.25 87.515625 30.34375 87.445312 30.445312 C 87.375 30.546875 87.359375 30.8125 87.144531 30.828125 C 87.152344 30.882812 87.15625 30.933594 87.160156 30.980469 C 87.191406 31.421875 87.207031 32.042969 87.21875 32.519531 C 87.269531 32.570312 87.328125 32.589844 87.402344 32.578125 C 87.507812 32.558594 87.613281 32.492188 87.652344 32.289062 C 87.691406 32.082031 87.761719 31.84375 87.828125 31.71875 C 87.890625 31.589844 88.007812 31.171875 87.996094 30.960938 C 87.988281 30.75 87.929688 30.195312 87.910156 30.066406 " fill-opacity="1" fill-rule="nonzero"/><path fill="#edaa72" d="M 80.28125 32.953125 C 80.230469 32.785156 80.160156 32.59375 80.09375 32.410156 C 79.976562 32.449219 79.847656 32.320312 79.796875 32.230469 C 79.746094 32.132812 79.617188 31.796875 79.570312 31.695312 C 79.527344 31.59375 79.300781 31.171875 79.257812 31.050781 C 79.148438 31.085938 79.125 31.167969 79.128906 31.339844 C 79.132812 31.511719 79.34375 32.191406 79.40625 32.425781 C 79.46875 32.660156 79.671875 32.988281 79.78125 33.117188 C 79.890625 33.246094 80.058594 33.480469 80.117188 33.566406 C 80.175781 33.652344 80.34375 33.882812 80.433594 33.894531 C 80.503906 33.902344 80.550781 33.871094 80.574219 33.808594 C 80.441406 33.4375 80.328125 33.09375 80.28125 32.953125 " fill-opacity="1" fill-rule="nonzero"/><path fill="#edaa72" d="M 87.046875 34.382812 C 86.878906 34.738281 86.578125 35.328125 86.121094 35.757812 C 85.582031 36.261719 85.101562 36.671875 84.511719 36.757812 C 84.179688 36.808594 83.824219 36.859375 83.492188 36.773438 C 83.160156 36.6875 82.199219 36.171875 81.902344 35.96875 C 81.835938 35.921875 81.769531 35.871094 81.699219 35.8125 C 81.796875 36.292969 82.011719 37.386719 82.058594 37.554688 C 82.433594 37.945312 84.363281 39.28125 84.949219 39.429688 C 85.886719 38.5625 86.640625 37.597656 87.011719 36.894531 C 87.386719 36.191406 87.296875 35.953125 87.292969 35.878906 C 87.265625 35.71875 87.121094 34.800781 87.046875 34.382812 " fill-opacity="1" fill-rule="nonzero"/><path fill="#3e1e0e" d="M 87.949219 27.5 C 87.789062 26.984375 87.460938 26.328125 87.042969 26 C 86.667969 25.707031 86.371094 25.46875 85.785156 25.425781 C 85.6875 25.019531 85.328125 24.320312 84.605469 23.949219 C 83.882812 23.578125 83.160156 23.617188 82.578125 23.757812 C 81.992188 23.898438 81.207031 24.183594 80.289062 25.070312 C 79.371094 25.957031 79.195312 26.429688 78.945312 26.921875 C 78.691406 27.414062 78.367188 28.214844 78.375 28.546875 C 78.386719 28.878906 78.4375 29.832031 78.691406 30.359375 C 78.898438 30.792969 79.03125 31.070312 79.132812 31.230469 C 79.144531 31.128906 79.175781 31.078125 79.257812 31.050781 C 79.300781 31.171875 79.527344 31.59375 79.570312 31.695312 C 79.617188 31.796875 79.746094 32.132812 79.796875 32.230469 C 79.847656 32.320312 79.976562 32.449219 80.09375 32.410156 C 80.035156 32.242188 79.980469 32.078125 79.945312 31.945312 C 79.878906 31.675781 79.925781 31.480469 80.007812 31.242188 C 80.085938 31 80.171875 30.710938 80.195312 30.546875 C 80.421875 30.210938 80.828125 29.503906 81.117188 29.308594 C 81.40625 29.117188 81.859375 28.65625 81.894531 28.304688 C 81.929688 27.953125 82.207031 27.300781 82.5 26.917969 C 82.796875 26.535156 83.097656 26.175781 84.277344 26.164062 C 84.421875 26.285156 84.753906 26.382812 84.941406 26.386719 C 85.070312 26.492188 85.292969 26.609375 85.550781 26.582031 C 85.777344 26.988281 86.246094 27.910156 86.421875 28.078125 C 86.597656 28.246094 86.710938 28.539062 86.769531 28.820312 C 86.820312 29.078125 87.074219 30.203125 87.144531 30.828125 C 87.359375 30.8125 87.375 30.546875 87.445312 30.445312 C 87.515625 30.34375 87.539062 30.25 87.546875 30.148438 C 87.550781 30.042969 87.589844 29.785156 87.601562 29.6875 C 87.613281 29.589844 87.648438 29.46875 87.699219 29.480469 C 87.746094 29.496094 87.800781 29.582031 87.832031 29.679688 C 87.898438 29.554688 87.921875 29.417969 87.902344 29.234375 C 87.878906 29.023438 87.992188 28.710938 88.039062 28.578125 C 88.089844 28.445312 88.109375 28.019531 87.949219 27.5 " fill-opacity="1" fill-rule="nonzero"/><path fill="#2d0b00" d="M 84.605469 23.949219 C 83.882812 23.578125 83.160156 23.617188 82.578125 23.757812 C 82.199219 23.847656 81.738281 24 81.207031 24.335938 C 81.339844 24.472656 80.972656 24.828125 80.894531 25.015625 C 80.804688 25.226562 81.226562 25.140625 81.757812 25.050781 C 82.289062 24.964844 82.121094 25.492188 82.175781 25.628906 C 82.226562 25.765625 81.71875 26.238281 81.652344 26.367188 C 81.582031 26.492188 81.480469 26.789062 81.601562 26.90625 C 81.71875 27.027344 81.773438 26.914062 81.863281 27.195312 C 81.914062 27.355469 82.109375 27.292969 82.335938 27.160156 C 82.390625 27.070312 82.445312 26.988281 82.5 26.917969 C 82.796875 26.535156 83.097656 26.175781 84.277344 26.164062 C 84.421875 26.285156 84.753906 26.382812 84.941406 26.386719 C 85.070312 26.492188 85.292969 26.609375 85.550781 26.582031 C 85.519531 26.238281 85.726562 25.585938 85.785156 25.425781 C 85.6875 25.019531 85.328125 24.320312 84.605469 23.949219 " fill-opacity="1" fill-rule="nonzero"/><path fill="#2d0b00" d="M 87.980469 27.613281 C 87.863281 27.527344 87.75 27.4375 87.640625 27.332031 C 87.5625 27.226562 87.492188 27.097656 87.375 27.046875 C 87.355469 27.039062 87.335938 27.03125 87.316406 27.035156 C 87.296875 27.042969 87.285156 27.054688 87.273438 27.070312 C 87.152344 27.238281 87.289062 27.46875 87.269531 27.675781 C 87.25 27.855469 87.113281 28.003906 87.097656 28.183594 C 87.085938 28.324219 87.152344 28.46875 87.136719 28.609375 C 87.117188 28.757812 87.011719 28.875 86.925781 28.992188 C 86.890625 29.035156 86.859375 29.082031 86.832031 29.128906 C 86.929688 29.582031 87.089844 30.351562 87.144531 30.828125 C 87.359375 30.8125 87.375 30.546875 87.445312 30.445312 C 87.515625 30.34375 87.539062 30.25 87.546875 30.148438 C 87.550781 30.042969 87.589844 29.785156 87.601562 29.6875 C 87.613281 29.589844 87.648438 29.46875 87.699219 29.480469 C 87.746094 29.496094 87.800781 29.582031 87.832031 29.679688 C 87.898438 29.554688 87.921875 29.417969 87.902344 29.234375 C 87.878906 29.023438 87.992188 28.710938 88.039062 28.578125 C 88.085938 28.453125 88.109375 28.078125 87.980469 27.613281 Z M 81.339844 28.757812 C 81.027344 28.800781 80.695312 28.859375 80.464844 29.074219 C 80.367188 29.164062 80.292969 29.273438 80.195312 29.355469 C 80.09375 29.4375 79.949219 29.488281 79.832031 29.429688 C 79.703125 29.359375 79.667969 29.1875 79.6875 29.042969 C 79.703125 28.898438 79.761719 28.757812 79.757812 28.613281 C 79.753906 28.464844 79.664062 28.304688 79.515625 28.296875 C 79.421875 28.292969 79.3125 28.347656 79.25 28.28125 C 79.195312 28.222656 79.230469 28.125 79.28125 28.066406 C 79.332031 28.007812 79.402344 27.953125 79.414062 27.875 C 79.433594 27.75 79.300781 27.65625 79.261719 27.535156 C 79.203125 27.363281 79.34375 27.183594 79.332031 27.003906 C 79.324219 26.867188 79.226562 26.746094 79.109375 26.675781 C 79.03125 26.746094 78.988281 26.832031 78.945312 26.921875 C 78.691406 27.414062 78.367188 28.214844 78.375 28.546875 C 78.386719 28.878906 78.4375 29.832031 78.691406 30.359375 C 78.898438 30.792969 79.03125 31.070312 79.132812 31.230469 C 79.144531 31.128906 79.175781 31.078125 79.257812 31.050781 C 79.300781 31.171875 79.527344 31.59375 79.570312 31.695312 C 79.617188 31.796875 79.746094 32.132812 79.796875 32.230469 C 79.847656 32.320312 79.976562 32.449219 80.09375 32.410156 C 80.035156 32.242188 79.980469 32.078125 79.945312 31.945312 C 79.878906 31.675781 79.925781 31.480469 80.007812 31.242188 C 80.085938 31 80.171875 30.710938 80.195312 30.546875 C 80.421875 30.210938 80.828125 29.503906 81.117188 29.308594 C 81.265625 29.210938 81.460938 29.039062 81.617188 28.847656 C 81.605469 28.824219 81.59375 28.808594 81.574219 28.789062 C 81.511719 28.738281 81.417969 28.746094 81.339844 28.757812 " fill-opacity="1" fill-rule="nonzero"/><path fill="#e0e0e0" d="M 85.144531 39.242188 C 85.082031 39.304688 85.015625 39.367188 84.949219 39.429688 C 84.894531 39.414062 84.828125 39.390625 84.753906 39.359375 C 84.136719 39.933594 82.855469 40.933594 82.265625 41.214844 C 82.566406 42.152344 82.875 44.703125 82.972656 45.917969 L 89.183594 45.011719 C 89.046875 44.019531 88.722656 42.058594 88.683594 41.429688 C 88.640625 40.761719 88.605469 39.65625 88.5625 39.257812 C 88.523438 39.722656 88.441406 39.972656 88.425781 40.03125 C 87.453125 39.921875 85.902344 39.660156 85.144531 39.242188 " fill-opacity="1" fill-rule="nonzero"/><path fill="#f0f0f0" d="M 82.058594 37.554688 C 82.027344 37.4375 81.910156 36.875 81.8125 36.382812 C 81.726562 36.488281 81.632812 36.703125 81.625 36.96875 C 81.617188 37.28125 81.527344 37.679688 81.539062 37.847656 C 81.546875 38.015625 81.742188 38.976562 81.863281 39.511719 C 81.980469 40.042969 82.226562 41.046875 82.265625 41.214844 C 82.855469 40.933594 84.136719 39.933594 84.753906 39.359375 C 84.015625 39.039062 82.398438 37.910156 82.058594 37.554688 " fill-opacity="1" fill-rule="nonzero"/><path fill="#f0f0f0" d="M 88.269531 37.707031 C 88.160156 37.285156 87.910156 36.378906 87.769531 36.097656 C 87.648438 35.847656 87.347656 35.382812 87.1875 35.222656 C 87.234375 35.527344 87.277344 35.796875 87.292969 35.878906 C 87.296875 35.953125 87.386719 36.191406 87.011719 36.894531 C 86.667969 37.546875 85.992188 38.425781 85.144531 39.242188 C 85.902344 39.660156 87.453125 39.921875 88.425781 40.03125 C 88.441406 39.972656 88.523438 39.722656 88.5625 39.257812 C 88.511719 38.820312 88.378906 38.128906 88.269531 37.707031 " fill-opacity="1" fill-rule="nonzero"/><path fill="#d1000c" d="M 85.082031 41.550781 C 85.113281 41.777344 84.996094 42.246094 84.921875 42.621094 C 84.828125 43.070312 84.679688 44.457031 84.796875 45.652344 L 87.175781 45.304688 C 87.039062 44.40625 86.902344 43.757812 86.722656 43.402344 C 86.53125 43.027344 85.992188 42.117188 85.890625 41.460938 C 85.605469 41.300781 85.082031 41.550781 85.082031 41.550781 " fill-opacity="1" fill-rule="nonzero"/><path fill="#fe000e" d="M 85.144531 39.242188 C 85.082031 39.304688 84.828125 39.390625 84.753906 39.359375 C 84.507812 39.585938 84.160156 39.878906 83.792969 40.167969 C 84.175781 40.46875 84.65625 40.945312 85.074219 41.636719 C 85.222656 41.566406 85.703125 41.460938 85.9375 41.511719 C 85.953125 40.546875 85.953125 40.152344 86.421875 39.6875 C 85.921875 39.566406 85.464844 39.417969 85.144531 39.242188 " fill-opacity="1" fill-rule="nonzero"/><path fill="#252e46" d="M 81.625 36.96875 C 81.632812 36.808594 81.667969 36.667969 81.710938 36.558594 C 81.570312 36.664062 81.351562 37.003906 81.277344 37.117188 C 81.191406 37.25 80.851562 37.515625 80.683594 37.613281 C 80.519531 37.707031 79.976562 38.085938 79.738281 38.347656 C 79.496094 38.613281 79.011719 39.347656 78.953125 40.359375 C 79.394531 40.539062 79.890625 40.734375 80.105469 40.941406 C 79.617188 41.519531 79.414062 41.757812 79.113281 41.964844 C 79.492188 42.652344 80.417969 44.835938 80.753906 46.242188 L 82.972656 45.917969 C 82.875 44.703125 82.566406 42.152344 82.265625 41.214844 C 82.226562 41.046875 81.980469 40.042969 81.863281 39.511719 C 81.742188 38.976562 81.546875 38.015625 81.539062 37.847656 C 81.527344 37.679688 81.617188 37.28125 81.625 36.96875 " fill-opacity="1" fill-rule="nonzero"/><path fill="#252e46" d="M 90.703125 39.171875 C 90.847656 38.882812 91.230469 38.414062 91.65625 38.15625 C 91.171875 37.390625 90.625 36.847656 90.28125 36.613281 C 89.941406 36.375 89.363281 36.210938 88.933594 36.144531 C 88.5 36.074219 88.125 35.867188 87.90625 35.691406 C 87.695312 35.523438 87.503906 35.390625 87.261719 35.308594 C 87.429688 35.507812 87.667969 35.882812 87.769531 36.097656 C 87.910156 36.378906 88.160156 37.285156 88.269531 37.707031 C 88.378906 38.128906 88.511719 38.820312 88.5625 39.257812 C 88.605469 39.65625 88.640625 40.761719 88.683594 41.429688 C 88.722656 42.058594 89.046875 44.019531 89.183594 45.011719 L 91.746094 44.640625 C 91.753906 43.109375 91.890625 40.734375 92.058594 40.023438 C 91.871094 39.921875 91.199219 39.59375 90.703125 39.171875 " fill-opacity="1" fill-rule="nonzero"/><path fill="#1e273a" d="M 90.78125 39.980469 C 90.738281 40.066406 90.8125 40.109375 90.921875 40.167969 C 91.035156 40.226562 91.304688 40.394531 91.375 40.433594 C 91.445312 40.472656 91.492188 40.457031 91.515625 40.421875 C 91.539062 40.386719 91.527344 40.320312 91.457031 40.28125 C 91.386719 40.242188 90.964844 40.007812 90.910156 39.976562 C 90.855469 39.945312 90.804688 39.9375 90.78125 39.980469 " fill-opacity="1" fill-rule="nonzero"/><path fill="#1e273a" d="M 78.953125 40.359375 C 78.988281 39.753906 79.175781 39.242188 79.375 38.878906 C 78.691406 39.332031 77.824219 39.730469 76.882812 40.117188 C 75.863281 40.535156 74.816406 40.960938 74.503906 41.707031 C 74.199219 42.441406 74.175781 44.203125 74.492188 47.15625 L 80.753906 46.242188 C 80.417969 44.835938 79.492188 42.652344 79.113281 41.964844 C 79.414062 41.757812 79.617188 41.519531 80.105469 40.941406 C 79.890625 40.734375 79.394531 40.539062 78.953125 40.359375 " fill-opacity="1" fill-rule="nonzero"/><path fill="#1e273a" d="M 97.648438 43.777344 C 97.496094 43 97.234375 41.484375 97.015625 40.566406 C 96.757812 39.480469 96.441406 38.777344 95.875 38.355469 C 95.3125 37.933594 94.019531 37.644531 93.472656 37.535156 C 92.96875 37.4375 91.558594 37.191406 90.730469 36.992188 C 91.019531 37.277344 91.347656 37.671875 91.65625 38.15625 C 91.230469 38.414062 90.847656 38.882812 90.703125 39.171875 C 91.199219 39.59375 91.871094 39.921875 92.058594 40.023438 C 91.890625 40.734375 91.753906 43.109375 91.746094 44.640625 L 97.648438 43.777344 " fill-opacity="1" fill-rule="nonzero"/><path fill="#c1c1c1" d="M 47.984375 75.039062 L 48.128906 76.054688 L 62.195312 74.003906 L 62.050781 72.988281 Z M 68.765625 69.976562 L 47.695312 73.046875 L 47.839844 74.0625 L 68.914062 70.988281 Z M 68.476562 67.984375 L 47.40625 71.054688 L 47.554688 72.070312 L 68.625 69 Z M 51.117188 96.667969 L 65.183594 94.617188 L 65.035156 93.601562 L 50.96875 95.652344 Z M 71.753906 90.589844 L 50.679688 93.660156 L 50.828125 94.675781 L 71.898438 91.605469 Z M 71.464844 88.597656 L 50.390625 91.671875 L 50.539062 92.683594 L 71.609375 89.613281 Z M 50.011719 89.035156 L 50.15625 90.050781 L 64.222656 88 L 64.078125 86.984375 Z M 70.792969 83.96875 L 49.722656 87.042969 L 49.867188 88.058594 L 70.941406 84.984375 Z M 70.503906 81.980469 L 49.433594 85.050781 L 49.582031 86.066406 L 70.652344 82.996094 Z M 47.023438 68.421875 L 47.171875 69.4375 L 61.238281 67.382812 L 61.089844 66.371094 Z M 67.808594 63.355469 L 46.738281 66.429688 L 46.882812 67.445312 L 67.953125 64.371094 Z M 67.519531 61.367188 L 46.449219 64.4375 L 46.59375 65.453125 L 67.664062 62.378906 Z M 46.066406 61.804688 L 46.214844 62.816406 L 60.28125 60.765625 L 60.132812 59.75 Z M 66.847656 56.738281 L 45.777344 59.8125 L 45.925781 60.828125 L 66.996094 57.753906 Z M 66.5625 54.746094 L 45.488281 57.820312 L 45.636719 58.835938 L 66.707031 55.761719 Z M 52.304688 41.515625 L 31.234375 44.589844 L 31.382812 45.605469 L 52.453125 42.53125 Z M 31.085938 43.554688 L 64.707031 38.652344 L 64.558594 37.636719 L 30.9375 42.539062 Z M 30.789062 41.503906 L 64.410156 36.601562 L 64.261719 35.585938 L 30.640625 40.488281 Z M 40.957031 111.722656 L 62.324219 108.605469 L 62.175781 107.589844 L 40.8125 110.707031 Z M 40.621094 109.378906 L 74.238281 104.476562 L 74.09375 103.460938 L 40.472656 108.363281 Z M 40.28125 107.035156 L 73.902344 102.132812 L 73.753906 101.121094 L 40.132812 106.023438 Z M 30.34375 38.441406 L 30.492188 39.453125 L 64.113281 34.550781 L 63.964844 33.539062 L 30.34375 38.441406 " fill-opacity="1" fill-rule="nonzero"/><path fill="#7e93a6" d="M 44.429688 71.492188 L 35.324219 72.816406 L 35.472656 73.832031 L 44.578125 72.503906 Z M 47.414062 92.105469 L 38.308594 93.433594 L 38.457031 94.449219 L 47.5625 93.121094 Z M 46.457031 85.484375 L 37.351562 86.8125 L 37.5 87.828125 L 46.605469 86.5 Z M 39.847656 104.058594 L 73.46875 99.15625 L 73.117188 96.726562 L 39.496094 101.628906 Z M 36.871094 83.5 L 70.492188 78.597656 L 70.140625 76.171875 L 36.519531 81.074219 Z M 43.472656 64.871094 L 34.363281 66.199219 L 34.511719 67.214844 L 43.617188 65.886719 Z M 42.511719 58.253906 L 33.40625 59.582031 L 33.554688 60.597656 L 42.660156 59.269531 Z M 32.925781 56.269531 L 66.546875 51.367188 L 66.195312 48.9375 L 32.574219 53.839844 Z M 28.390625 24.941406 L 29.699219 33.988281 L 63.320312 29.085938 L 62.011719 20.039062 L 28.390625 24.941406 " fill-opacity="1" fill-rule="nonzero"/><path fill="#f2f2f2" d="M 31.660156 29.136719 L 32.714844 28.984375 C 33.34375 28.890625 33.664062 28.550781 33.578125 27.96875 C 33.496094 27.402344 33.09375 27.175781 32.46875 27.265625 L 31.414062 27.417969 Z M 33.972656 31.257812 L 32.960938 29.925781 L 32.855469 29.941406 L 31.800781 30.09375 L 32.011719 31.542969 L 30.871094 31.710938 L 30.132812 26.636719 L 32.328125 26.316406 C 33.652344 26.125 34.496094 26.652344 34.65625 27.777344 C 34.769531 28.558594 34.519531 29.171875 33.949219 29.550781 L 35.265625 31.066406 L 33.972656 31.257812 " fill-opacity="1" fill-rule="nonzero"/><path fill="#f2f2f2" d="M 39.214844 25.3125 L 39.351562 26.261719 L 36.644531 26.65625 L 36.800781 27.757812 L 39.234375 27.402344 L 39.375 28.351562 L 36.941406 28.707031 L 37.101562 29.832031 L 39.890625 29.425781 L 40.027344 30.375 L 36.097656 30.945312 L 35.363281 25.875 L 39.214844 25.3125 " fill-opacity="1" fill-rule="nonzero"/><path fill="#f2f2f2" d="M 42.078125 25.84375 C 41.695312 25.898438 41.457031 26.074219 41.496094 26.351562 C 41.632812 27.285156 44.25 26.371094 44.507812 28.195312 C 44.648438 29.1875 43.867188 29.851562 42.75 30.015625 C 41.917969 30.136719 41.042969 29.9375 40.402344 29.535156 L 40.722656 28.535156 C 41.308594 28.921875 42.085938 29.113281 42.621094 29.035156 C 43.089844 28.964844 43.347656 28.75 43.300781 28.4375 C 43.164062 27.484375 40.550781 28.433594 40.292969 26.636719 C 40.15625 25.714844 40.859375 25.023438 42.03125 24.851562 C 42.738281 24.746094 43.476562 24.863281 44.03125 25.121094 L 43.726562 26.136719 C 43.148438 25.894531 42.484375 25.785156 42.078125 25.84375 " fill-opacity="1" fill-rule="nonzero"/><path fill="#f2f2f2" d="M 47.589844 28.300781 C 48.269531 28.203125 48.652344 27.695312 48.546875 26.964844 L 48.121094 24.015625 L 49.261719 23.847656 L 49.6875 26.796875 C 49.882812 28.136719 49.128906 29.097656 47.734375 29.300781 C 46.332031 29.507812 45.316406 28.804688 45.125 27.460938 L 44.695312 24.515625 L 45.835938 24.347656 L 46.265625 27.296875 C 46.371094 28.027344 46.910156 28.402344 47.589844 28.300781 " fill-opacity="1" fill-rule="nonzero"/><path fill="#f2f2f2" d="M 51.558594 23.511719 L 53.480469 26.398438 L 54.496094 23.085938 L 55.769531 22.898438 L 56.503906 27.972656 L 55.476562 28.121094 L 54.980469 24.699219 L 54.058594 27.800781 L 53.316406 27.910156 L 51.550781 25.199219 L 52.046875 28.621094 L 51.015625 28.773438 L 50.28125 23.699219 L 51.558594 23.511719 " fill-opacity="1" fill-rule="nonzero"/><path fill="#f2f2f2" d="M 60.738281 22.175781 L 60.875 23.125 L 58.167969 23.519531 L 58.328125 24.621094 L 60.761719 24.265625 L 60.898438 25.214844 L 58.464844 25.570312 L 58.628906 26.691406 L 61.414062 26.285156 L 61.554688 27.234375 L 57.625 27.808594 L 56.890625 22.734375 L 60.738281 22.175781 " fill-opacity="1" fill-rule="nonzero"/><path fill="#687a8a" d="M 93.355469 51.816406 L 77.886719 54.074219 L 77.738281 53.058594 L 93.207031 50.800781 L 93.355469 51.816406 " fill-opacity="1" fill-rule="nonzero"/><path fill="#405d75" d="M 89.625 49.972656 L 75.097656 52.066406 L 74.953125 51.050781 L 89.480469 48.957031 L 89.625 49.972656 " fill-opacity="1" fill-rule="nonzero"/><path fill="#f2f2f2" d="M 106.6875 93.109375 L 79.515625 97.070312 L 79.457031 96.660156 L 106.625 92.699219 L 106.6875 93.109375 " fill-opacity="1" fill-rule="nonzero"/><path fill="#687a8a" d="M 98.640625 88.300781 L 83.171875 90.558594 L 83.023438 89.542969 L 98.492188 87.289062 L 98.640625 88.300781 " fill-opacity="1" fill-rule="nonzero"/><path fill="#405d75" d="M 94.855469 86.464844 L 80.328125 88.558594 L 80.183594 87.542969 L 94.710938 85.449219 L 94.855469 86.464844 " fill-opacity="1" fill-rule="nonzero"/><path fill="#687a8a" d="M 100.199219 99.078125 L 84.730469 101.335938 L 84.585938 100.316406 L 100.050781 98.0625 L 100.199219 99.078125 " fill-opacity="1" fill-rule="nonzero"/><path fill="#405d75" d="M 96.402344 97.242188 L 81.875 99.339844 L 81.730469 98.324219 L 96.253906 96.226562 L 96.402344 97.242188 " fill-opacity="1" fill-rule="nonzero"/><path fill="#f2f2f2" d="M 105.089844 82.101562 L 77.921875 86.0625 L 77.863281 85.652344 L 105.03125 81.691406 L 105.089844 82.101562 " fill-opacity="1" fill-rule="nonzero"/><path fill="#687a8a" d="M 95.273438 65.054688 L 79.804688 67.308594 L 79.65625 66.292969 L 95.125 64.039062 L 95.273438 65.054688 " fill-opacity="1" fill-rule="nonzero"/><path fill="#c4d4e3" d="M 92.890625 80.988281 L 84.425781 82.222656 L 84.574219 83.238281 L 93.039062 82.003906 Z M 84.277344 81.195312 L 102.433594 78.550781 L 102.285156 77.535156 L 84.132812 80.183594 Z M 83.984375 79.15625 L 102.136719 76.507812 L 101.988281 75.492188 L 83.835938 78.140625 Z M 83.6875 77.113281 L 101.839844 74.46875 L 101.691406 73.453125 L 83.539062 76.097656 Z M 83.390625 75.074219 L 101.542969 72.425781 L 101.398438 71.410156 L 83.246094 74.058594 Z M 83.097656 73.03125 L 101.25 70.382812 L 101.101562 69.367188 L 82.949219 72.015625 Z M 82.800781 70.988281 L 100.953125 68.34375 L 100.804688 67.328125 L 82.652344 69.976562 Z M 82.503906 68.949219 L 100.65625 66.300781 L 100.511719 65.285156 L 82.359375 67.933594 Z M 87.722656 104.964844 L 97.703125 103.507812 L 97.554688 102.492188 L 87.574219 103.949219 Z M 87.433594 102.972656 L 105.585938 100.324219 L 105.4375 99.3125 L 87.285156 101.957031 Z M 95.996094 91.71875 L 86.011719 93.171875 L 86.160156 94.1875 L 96.140625 92.734375 Z M 85.871094 92.199219 L 104.023438 89.550781 L 103.878906 88.535156 L 85.726562 91.183594 Z M 92.90625 56.945312 L 81.015625 58.679688 L 81.164062 59.695312 L 93.050781 57.960938 Z M 80.875 57.703125 L 99.027344 55.054688 L 98.882812 54.039062 L 80.730469 56.6875 Z M 80.441406 54.695312 L 80.585938 55.710938 L 98.742188 53.066406 L 98.59375 52.050781 L 80.441406 54.695312 " fill-opacity="1" fill-rule="nonzero"/><path fill="#405d75" d="M 91.523438 63.210938 L 76.996094 65.304688 L 76.851562 64.289062 L 91.378906 62.195312 L 91.523438 63.210938 " fill-opacity="1" fill-rule="nonzero"/><path fill="#fabb85" d="M 30.589844 100.285156 C 30.851562 100.164062 31.113281 100.023438 31.367188 99.855469 C 32.246094 99.265625 33.046875 98.339844 33.6875 96.707031 C 34.515625 94.609375 34.425781 92.488281 35.113281 90.277344 C 35.796875 88.0625 36.019531 85.433594 39.0625 80.914062 C 39.84375 79.75 41.378906 79.082031 43.269531 79.671875 C 45.332031 80.316406 46.277344 81.78125 46.171875 83.957031 C 46.0625 86.128906 44.855469 90.910156 43.980469 93.332031 C 43.386719 94.960938 42.585938 95.933594 42.128906 98.445312 C 41.667969 100.964844 42.191406 106.035156 41.328125 110.476562 C 40.464844 114.914062 36.59375 120.460938 32.527344 124.355469 C 31.074219 127.339844 26.996094 135.671875 26.996094 135.671875 C 26.996094 135.671875 22.519531 133.78125 18.007812 131.824219 L 30.589844 100.285156 " fill-opacity="1" fill-rule="nonzero"/><path fill="#eba973" d="M 32.070312 124.257812 C 36.136719 120.363281 40.011719 114.816406 40.871094 110.378906 C 41.734375 105.9375 41.210938 100.867188 41.671875 98.347656 C 42.132812 95.835938 42.929688 94.863281 43.523438 93.230469 C 44.398438 90.8125 45.609375 86.03125 45.714844 83.859375 C 45.824219 81.683594 44.875 80.21875 42.8125 79.574219 C 42.730469 79.546875 42.648438 79.527344 42.570312 79.507812 C 42.796875 79.542969 43.027344 79.597656 43.269531 79.671875 C 45.332031 80.316406 46.277344 81.78125 46.171875 83.957031 C 46.0625 86.128906 44.855469 90.910156 43.980469 93.332031 C 43.386719 94.960938 42.585938 95.933594 42.128906 98.445312 C 41.667969 100.964844 42.191406 106.035156 41.328125 110.476562 C 40.464844 114.914062 36.59375 120.460938 32.527344 124.355469 C 31.074219 127.339844 26.996094 135.671875 26.996094 135.671875 C 26.996094 135.671875 26.84375 135.609375 26.578125 135.492188 C 26.984375 134.65625 30.699219 127.074219 32.070312 124.257812 " fill-opacity="1" fill-rule="nonzero"/><path fill="#db985e" d="M 43.375 92.171875 C 40.765625 89.890625 35.707031 89.664062 35.863281 90.335938 C 35.902344 90.488281 36.09375 90.457031 36.332031 90.464844 C 38.15625 90.453125 41.550781 91.621094 43.269531 92.339844 C 43.371094 92.386719 43.460938 92.246094 43.375 92.171875 " fill-opacity="1" fill-rule="nonzero"/><path fill="#fabb85" d="M 31.089844 99.777344 C 31.070312 99.882812 31.203125 99.953125 31.367188 99.855469 C 31.296875 100.027344 30.640625 100.355469 30.460938 100.386719 C 30.488281 100.128906 31.089844 99.777344 31.089844 99.777344 " fill-opacity="1" fill-rule="nonzero"/><path fill="#fad5b4" d="M 45.296875 83.027344 C 45.113281 84.328125 44.460938 86.277344 43.496094 86.695312 C 42.730469 87.027344 39.40625 85.925781 39.082031 84.980469 C 38.679688 83.8125 39.269531 82.125 39.625 81.191406 C 41.527344 80.261719 44.191406 81.375 45.296875 83.027344 " fill-opacity="1" fill-rule="nonzero"/><path fill="#ffe3c9" d="M 43.457031 86.710938 C 42.6875 86.96875 39.902344 86.078125 39.210938 85.207031 C 40.578125 84.714844 42.519531 85.210938 43.457031 86.710938 " fill-opacity="1" fill-rule="nonzero"/><path fill="#eba973" d="M 31.375 126.71875 C 29.832031 129.871094 27.695312 134.238281 27.136719 135.382812 L 9.207031 127.191406 C 10.617188 125.207031 12.308594 122.074219 13.726562 118.558594 C 19.910156 120.488281 26.015625 123.375 31.375 126.71875 " fill-opacity="1" fill-rule="nonzero"/><path fill="#f2f2f2" d="M 6.386719 126.578125 L 29.429688 137.890625 L 33.46875 129.609375 C 26.804688 124.800781 18.609375 120.625 10.429688 118.292969 L 6.386719 126.578125 " fill-opacity="1" fill-rule="nonzero"/><path fill="#e6e6e6" d="M 22.769531 129.25 C 23.480469 128.304688 24.503906 126.640625 25.265625 125.046875 C 27.894531 126.492188 30.425781 128.070312 32.816406 129.773438 L 29.195312 137.203125 L 20.4375 132.902344 C 21.292969 131.59375 21.753906 130.597656 22.769531 129.25 " fill-opacity="1" fill-rule="nonzero"/><path fill="#cccccc" d="M 28.703125 131.710938 C 28.871094 131.660156 28.96875 131.484375 28.917969 131.316406 C 28.871094 131.144531 28.691406 131.050781 28.523438 131.101562 C 28.355469 131.148438 28.257812 131.328125 28.308594 131.496094 C 28.359375 131.664062 28.535156 131.761719 28.703125 131.710938 M 28.203125 130.003906 C 28.035156 130.050781 27.9375 130.230469 27.988281 130.398438 C 28.039062 130.566406 28.214844 130.664062 28.382812 130.613281 C 28.550781 130.566406 28.648438 130.386719 28.597656 130.21875 C 28.546875 130.050781 28.371094 129.953125 28.203125 130.003906 M 29.710938 131.414062 C 29.878906 131.363281 29.972656 131.1875 29.925781 131.019531 C 29.875 130.847656 29.699219 130.753906 29.53125 130.804688 C 29.363281 130.851562 29.265625 131.03125 29.316406 131.199219 C 29.363281 131.367188 29.539062 131.464844 29.710938 131.414062 M 29.207031 129.707031 C 29.039062 129.753906 28.945312 129.933594 28.992188 130.101562 C 29.042969 130.269531 29.21875 130.367188 29.386719 130.316406 C 29.554688 130.269531 29.652344 130.089844 29.601562 129.921875 C 29.554688 129.753906 29.375 129.65625 29.207031 129.707031 M 28.402344 128.816406 C 29.441406 128.511719 30.535156 129.105469 30.839844 130.152344 C 31.148438 131.195312 30.550781 132.292969 29.511719 132.597656 C 28.46875 132.90625 27.378906 132.308594 27.070312 131.265625 C 26.765625 130.222656 27.359375 129.125 28.402344 128.816406 " fill-opacity="1" fill-rule="nonzero"/><path fill="#ffffff" d="M 28.746094 131.628906 C 28.914062 131.578125 29.007812 131.402344 28.960938 131.234375 C 28.910156 131.0625 28.734375 130.964844 28.566406 131.015625 C 28.398438 131.066406 28.300781 131.242188 28.351562 131.410156 C 28.398438 131.582031 28.574219 131.675781 28.746094 131.628906 M 28.242188 129.917969 C 28.074219 129.96875 27.976562 130.144531 28.027344 130.316406 C 28.078125 130.484375 28.253906 130.582031 28.421875 130.53125 C 28.589844 130.480469 28.6875 130.304688 28.636719 130.136719 C 28.589844 129.964844 28.410156 129.871094 28.242188 129.917969 M 29.75 131.332031 C 29.917969 131.28125 30.015625 131.105469 29.964844 130.9375 C 29.914062 130.765625 29.738281 130.667969 29.570312 130.71875 C 29.402344 130.769531 29.304688 130.945312 29.355469 131.113281 C 29.40625 131.285156 29.582031 131.378906 29.75 131.332031 M 29.25 129.621094 C 29.082031 129.671875 28.984375 129.847656 29.035156 130.019531 C 29.082031 130.1875 29.257812 130.285156 29.429688 130.234375 C 29.597656 130.183594 29.691406 130.007812 29.644531 129.839844 C 29.59375 129.667969 29.417969 129.574219 29.25 129.621094 M 28.441406 128.734375 C 29.480469 128.425781 30.574219 129.023438 30.878906 130.070312 C 31.1875 131.113281 30.59375 132.207031 29.550781 132.515625 C 28.511719 132.824219 27.417969 132.226562 27.113281 131.179688 C 26.804688 130.136719 27.402344 129.042969 28.441406 128.734375 " fill-opacity="1" fill-rule="nonzero"/><path fill="#e6e6e6" d="M 30.375 130.285156 C 30.148438 129.5 29.328125 129.054688 28.546875 129.285156 C 28.089844 129.417969 27.75 129.761719 27.59375 130.179688 C 27.734375 129.726562 28.09375 129.351562 28.582031 129.207031 C 29.359375 128.980469 30.179688 129.425781 30.40625 130.207031 C 30.503906 130.527344 30.476562 130.855469 30.367188 131.144531 C 30.453125 130.875 30.460938 130.578125 30.375 130.285156 " fill-opacity="1" fill-rule="nonzero"/><path fill="#cecece" d="M 29.429688 137.890625 L 6.386719 126.578125 L 8.917969 121.390625 C 14.339844 123.621094 18.835938 125.664062 23.554688 128.105469 C 23.273438 128.546875 23.003906 128.9375 22.769531 129.25 C 21.753906 130.597656 21.292969 131.59375 20.4375 132.902344 L 29.195312 137.203125 L 31.511719 132.449219 C 31.660156 132.535156 31.808594 132.617188 31.960938 132.703125 L 29.429688 137.890625 " fill-opacity="1" fill-rule="nonzero"/><path fill="#c3c3c3" d="M 29.195312 137.203125 L 20.4375 132.902344 C 21.292969 131.59375 21.753906 130.597656 22.769531 129.25 C 23.003906 128.9375 23.273438 128.546875 23.554688 128.105469 C 24.726562 128.707031 25.910156 129.335938 27.125 129.996094 C 26.972656 130.390625 26.945312 130.832031 27.070312 131.265625 C 27.324219 132.125 28.105469 132.679688 28.957031 132.679688 C 29.136719 132.679688 29.324219 132.652344 29.511719 132.597656 C 29.933594 132.476562 30.285156 132.21875 30.527344 131.890625 C 30.851562 132.074219 31.179688 132.261719 31.511719 132.449219 L 29.195312 137.203125 " fill-opacity="1" fill-rule="nonzero"/><path fill="#aeaeae" d="M 28.957031 132.679688 C 28.105469 132.679688 27.324219 132.125 27.070312 131.265625 C 26.945312 130.832031 26.972656 130.390625 27.125 129.996094 C 27.125 130 27.128906 130 27.132812 130.003906 C 27.007812 130.371094 26.992188 130.78125 27.113281 131.179688 C 27.363281 132.039062 28.144531 132.597656 28.996094 132.597656 C 29.179688 132.597656 29.367188 132.570312 29.550781 132.515625 C 29.941406 132.402344 30.269531 132.171875 30.511719 131.878906 C 30.519531 131.882812 30.523438 131.886719 30.527344 131.890625 C 30.285156 132.21875 29.933594 132.476562 29.511719 132.597656 C 29.324219 132.652344 29.136719 132.679688 28.957031 132.679688 " fill-opacity="1" fill-rule="nonzero"/><path fill="#c3c3c3" d="M 28.652344 131.640625 C 28.515625 131.640625 28.390625 131.550781 28.351562 131.410156 C 28.332031 131.347656 28.332031 131.285156 28.351562 131.226562 C 28.390625 131.167969 28.453125 131.121094 28.523438 131.101562 C 28.554688 131.089844 28.585938 131.085938 28.613281 131.085938 C 28.75 131.085938 28.878906 131.175781 28.917969 131.316406 C 28.9375 131.378906 28.933594 131.441406 28.917969 131.5 C 28.878906 131.558594 28.816406 131.605469 28.746094 131.628906 C 28.714844 131.636719 28.683594 131.640625 28.652344 131.640625 " fill-opacity="1" fill-rule="nonzero"/><path fill="#aeaeae" d="M 28.917969 131.5 C 28.933594 131.441406 28.9375 131.378906 28.917969 131.316406 C 28.878906 131.175781 28.75 131.085938 28.613281 131.085938 C 28.585938 131.085938 28.554688 131.089844 28.523438 131.101562 C 28.453125 131.121094 28.390625 131.167969 28.351562 131.226562 C 28.382812 131.128906 28.460938 131.046875 28.566406 131.015625 C 28.59375 131.007812 28.625 131.003906 28.65625 131.003906 C 28.792969 131.003906 28.917969 131.09375 28.960938 131.234375 C 28.988281 131.328125 28.96875 131.425781 28.917969 131.5 " fill-opacity="1" fill-rule="nonzero"/><path fill="#d9d9d9" d="M 28.996094 132.597656 C 28.144531 132.597656 27.363281 132.039062 27.113281 131.179688 C 26.992188 130.78125 27.007812 130.371094 27.132812 130.003906 C 28.230469 130.597656 29.351562 131.222656 30.511719 131.878906 C 30.269531 132.171875 29.941406 132.402344 29.550781 132.515625 C 29.367188 132.570312 29.179688 132.597656 28.996094 132.597656 M 28.351562 131.226562 C 28.332031 131.285156 28.332031 131.347656 28.351562 131.410156 C 28.390625 131.550781 28.515625 131.640625 28.652344 131.640625 C 28.683594 131.640625 28.714844 131.636719 28.746094 131.628906 C 28.816406 131.605469 28.878906 131.558594 28.917969 131.5 C 28.96875 131.425781 28.988281 131.328125 28.960938 131.234375 C 28.917969 131.09375 28.792969 131.003906 28.65625 131.003906 C 28.625 131.003906 28.59375 131.007812 28.566406 131.015625 C 28.460938 131.046875 28.382812 131.128906 28.351562 131.226562 " fill-opacity="1" fill-rule="nonzero"/><g clip-path="url(#f1a14e56e2)"><path fill="#424242" d="M 5.683594 125.679688 L 7.710938 121.582031 C 17.265625 125.402344 23.273438 128.335938 32.671875 133.84375 L 30.695312 137.960938 C 30.183594 139.03125 28.898438 139.476562 27.835938 138.957031 L 6.65625 128.554688 C 5.59375 128.03125 5.15625 126.742188 5.683594 125.679688 " fill-opacity="1" fill-rule="nonzero"/></g><g clip-path="url(#2173feab43)"><path fill="#262626" d="M 18.128906 134.1875 C 19.902344 130.636719 21.039062 128.355469 21.160156 128.121094 C 24.476562 129.78125 27.777344 131.582031 32 134.046875 L 29.628906 138.992188 C 29.074219 139.234375 28.421875 139.242188 27.835938 138.957031 L 18.128906 134.1875 " fill-opacity="1" fill-rule="nonzero"/></g><path fill="#2abd46" d="M 67.808594 115.953125 C 67.703125 115.953125 67.601562 115.949219 67.496094 115.945312 C 64.304688 115.824219 61.875 113.839844 60.996094 110.640625 C 60.40625 108.484375 61.027344 105.996094 62.582031 104.296875 C 64.195312 102.539062 66.601562 101.851562 69.355469 102.371094 C 69.683594 102.433594 69.898438 102.75 69.835938 103.078125 C 69.777344 103.40625 69.460938 103.621094 69.132812 103.558594 C 66.148438 103 64.40625 104.097656 63.46875 105.117188 C 62.207031 106.492188 61.679688 108.582031 62.15625 110.320312 C 62.890625 112.984375 64.902344 114.636719 67.542969 114.738281 C 70.25 114.84375 72.796875 113.277344 73.605469 111.023438 C 74.1875 109.394531 74.050781 107.441406 73.207031 105.375 C 72.269531 103.078125 70.59375 101.914062 67.925781 101.707031 C 67.59375 101.679688 67.347656 101.390625 67.371094 101.058594 C 67.398438 100.726562 67.691406 100.476562 68.019531 100.503906 C 71.148438 100.742188 73.210938 102.1875 74.320312 104.917969 C 75.277344 107.265625 75.421875 109.519531 74.738281 111.433594 C 73.773438 114.125 70.949219 115.953125 67.808594 115.953125 " fill-opacity="1" fill-rule="nonzero"/><path fill="#2abd46" d="M 68.738281 113.753906 C 68.519531 113.753906 68.3125 113.636719 68.207031 113.4375 C 66.96875 111.132812 65.347656 109.085938 63.390625 107.351562 C 63.140625 107.132812 63.117188 106.75 63.335938 106.5 C 63.558594 106.25 63.9375 106.226562 64.1875 106.445312 C 65.84375 107.914062 67.269531 109.59375 68.445312 111.457031 C 69.316406 107.140625 70.746094 102.523438 73.976562 99.125 C 74.203125 98.882812 74.585938 98.875 74.828125 99.105469 C 75.066406 99.335938 75.078125 99.71875 74.847656 99.957031 C 71.4375 103.546875 70.144531 108.695312 69.332031 113.257812 C 69.285156 113.511719 69.085938 113.707031 68.832031 113.746094 C 68.800781 113.753906 68.769531 113.753906 68.738281 113.753906 " fill-opacity="1" fill-rule="nonzero"/><path fill="#cc8b54" d="M 97.40625 101.410156 C 98.742188 101.589844 100.105469 102.371094 101.734375 102.78125 C 101.890625 101.753906 101.621094 100.394531 101.527344 99.539062 C 102.011719 99.640625 103.128906 99.472656 103.992188 99.035156 C 104.421875 99.878906 105.234375 101.539062 106.714844 102.007812 C 107.804688 100.097656 109.882812 97.875 110.203125 97.214844 C 110.867188 96.863281 111.597656 96.542969 112.359375 96.25 L 110.542969 95.429688 L 98.335938 96.972656 L 94.152344 99.230469 C 95.257812 99.636719 96.332031 100.28125 97.40625 101.410156 " fill-opacity="1" fill-rule="nonzero"/><path fill="#b57945" d="M 94.78125 98.890625 L 94.152344 99.230469 C 95.257812 99.636719 96.332031 100.28125 97.40625 101.410156 C 98.742188 101.589844 100.105469 102.371094 101.734375 102.78125 C 101.765625 102.585938 101.78125 102.375 101.78125 102.160156 C 100.070312 101.765625 98.65625 100.929688 97.273438 100.746094 C 96.445312 99.878906 95.621094 99.296875 94.78125 98.890625 Z M 111.515625 95.871094 C 111.011719 96.082031 110.523438 96.308594 110.070312 96.550781 C 109.71875 97.269531 107.289062 99.835938 106.316406 101.84375 C 106.445312 101.90625 106.578125 101.960938 106.714844 102.007812 C 107.804688 100.097656 109.882812 97.875 110.203125 97.214844 C 110.867188 96.863281 111.597656 96.542969 112.359375 96.25 L 111.515625 95.871094 " fill-opacity="1" fill-rule="nonzero"/><path fill="#cc8b54" d="M 110.382812 92.417969 C 105.019531 92.71875 100.878906 90.726562 99.605469 89.089844 C 97.816406 91.738281 94.496094 92.300781 92.285156 91.800781 C 91.863281 93.160156 90.550781 94.660156 88.59375 95.757812 C 89.503906 96.34375 90.746094 96.898438 92.113281 96.824219 C 94.914062 96.667969 97.785156 94.300781 99.183594 93.15625 C 101.984375 94.972656 107.441406 94.066406 107.441406 94.066406 L 112.730469 92.96875 L 112.671875 92.753906 C 111.515625 92.746094 110.652344 92.648438 110.382812 92.417969 " fill-opacity="1" fill-rule="nonzero"/><path fill="#b57945" d="M 110.382812 92.417969 C 105.019531 92.71875 100.878906 90.726562 99.605469 89.089844 C 97.816406 91.738281 94.496094 92.300781 92.285156 91.800781 C 91.863281 93.160156 90.550781 94.660156 88.59375 95.757812 C 88.765625 95.871094 88.949219 95.980469 89.144531 96.082031 C 90.84375 95.015625 91.980469 93.648438 92.371094 92.402344 C 94.582031 92.902344 97.902344 92.335938 99.691406 89.6875 C 100.960938 91.328125 105.105469 93.316406 110.46875 93.019531 C 110.601562 93.132812 110.886719 93.214844 111.277344 93.269531 L 112.730469 92.96875 L 112.671875 92.753906 C 111.515625 92.746094 110.652344 92.648438 110.382812 92.417969 " fill-opacity="1" fill-rule="nonzero"/><path fill="#262626" d="M 79.226562 97.835938 L 79.679688 100.863281 L 80.886719 100.890625 C 83.074219 100.9375 85.25 100.800781 87.402344 100.480469 L 107.589844 97.457031 L 106.914062 92.914062 L 86.726562 95.9375 C 84.574219 96.261719 82.453125 96.765625 80.375 97.457031 L 79.226562 97.835938 " fill-opacity="1" fill-rule="nonzero"/><path fill="#b38c51" d="M 105.542969 93.121094 L 106.21875 97.660156 L 107.589844 97.457031 L 106.914062 92.914062 L 105.542969 93.121094 " fill-opacity="1" fill-rule="nonzero"/><path fill="#fcf6c6" d="M 105.96875 95.058594 L 106.210938 96.683594 L 107.3125 96.519531 L 107.070312 94.890625 L 105.96875 95.058594 " fill-opacity="1" fill-rule="nonzero"/><path fill="#b38c51" d="M 74.773438 99.59375 L 74.90625 100.488281 L 79.679688 100.863281 L 79.226562 97.835938 L 74.773438 99.59375 " fill-opacity="1" fill-rule="nonzero"/><path fill="#fcf6c6" d="M 74.980469 100.152344 L 74.992188 100.25 L 79.398438 100.339844 L 79.273438 99.511719 L 74.980469 100.152344 " fill-opacity="1" fill-rule="nonzero"/><path fill="#6e6e6e" d="M 73.628906 100.222656 C 73.644531 100.320312 73.730469 100.394531 73.832031 100.386719 L 74.890625 100.390625 L 74.789062 99.6875 L 73.773438 100.003906 C 73.675781 100.027344 73.613281 100.121094 73.628906 100.222656 " fill-opacity="1" fill-rule="nonzero"/><path fill="#d4d4d4" d="M 74.808594 100.078125 L 74.84375 100.273438 L 73.761719 100.328125 L 73.738281 100.328125 C 73.714844 100.308594 73.695312 100.28125 73.6875 100.25 L 74.808594 100.078125 " fill-opacity="1" fill-rule="nonzero"/><path fill="#fabb85" d="M 81.675781 95.910156 C 82.175781 96.742188 84.890625 97.542969 87.863281 96.140625 C 90.222656 95.023438 91.8125 93.324219 92.285156 91.800781 C 94.496094 92.300781 97.816406 91.738281 99.605469 89.089844 C 100.878906 90.726562 105.019531 92.71875 110.382812 92.417969 C 111.378906 93.261719 120.40625 92.332031 122.585938 91.71875 C 120.824219 87.808594 120.164062 85.382812 116.320312 84.53125 C 112.476562 83.683594 103.496094 81.792969 101.757812 81.421875 C 100.019531 81.050781 98.257812 81.164062 96.269531 82.53125 C 94.277344 83.902344 89.683594 85.777344 88.199219 86.804688 C 86.71875 87.828125 85.851562 90.179688 84.558594 91.5 C 83.269531 92.820312 80.714844 94.304688 81.675781 95.910156 " fill-opacity="1" fill-rule="nonzero"/><path fill="#facba3" d="M 84.691406 92.082031 C 85.980469 90.761719 86.847656 88.414062 88.332031 87.386719 C 89.8125 86.363281 94.410156 84.484375 96.398438 83.117188 C 98.390625 81.75 100.148438 81.636719 101.886719 82.007812 C 103.628906 82.378906 112.605469 84.265625 116.449219 85.117188 C 120.109375 85.925781 120.882812 88.164062 122.46875 91.75 C 122.511719 91.742188 122.550781 91.730469 122.585938 91.71875 C 120.824219 87.808594 120.164062 85.382812 116.320312 84.53125 C 112.476562 83.683594 103.496094 81.792969 101.757812 81.421875 C 100.019531 81.050781 98.257812 81.164062 96.269531 82.53125 C 94.277344 83.902344 89.683594 85.777344 88.199219 86.804688 C 86.71875 87.828125 85.851562 90.179688 84.558594 91.5 C 83.308594 92.777344 80.875 94.210938 81.597656 95.757812 C 81.605469 94.433594 83.601562 93.199219 84.691406 92.082031 " fill-opacity="1" fill-rule="nonzero"/><path fill="#fadabe" d="M 83.648438 92.453125 C 83.410156 93.160156 82.703125 94.210938 82.398438 94.601562 C 82.078125 94.785156 81.6875 94.867188 81.433594 94.835938 C 81.371094 94.832031 81.335938 94.757812 81.367188 94.703125 C 81.917969 93.75 82.878906 92.800781 83.519531 92.355469 C 83.585938 92.3125 83.675781 92.375 83.648438 92.453125 " fill-opacity="1" fill-rule="nonzero"/><path fill="#fabb85" d="M 124.109375 93.671875 C 124.9375 95.285156 129 103.570312 129.722656 104.589844 C 130.445312 105.605469 132.660156 108.773438 134.65625 110.503906 C 135.1875 110.96875 136.117188 111.617188 137.214844 112.328125 L 127 126.214844 C 123.875 123.8125 121.714844 121.847656 120.886719 121.457031 C 119.523438 120.816406 115.679688 119.632812 112.792969 118.300781 C 109.90625 116.96875 107.539062 115.296875 106.121094 114.65625 C 104.707031 114.015625 94.328125 112.613281 92.839844 111.496094 C 91.351562 110.375 90.019531 107.828125 87.433594 106.726562 C 84.851562 105.625 82.46875 104.378906 83.183594 101.425781 C 83.796875 98.894531 86.996094 97.835938 89.769531 98.316406 C 92.539062 98.792969 94.976562 98.855469 97.40625 101.410156 C 99.394531 101.679688 101.441406 103.277344 104.339844 103.003906 C 105.351562 102.910156 105.675781 102.953125 106.289062 102.875 C 107.113281 100.828125 109.832031 97.980469 110.203125 97.214844 C 115.304688 94.511719 124.109375 93.671875 124.109375 93.671875 " fill-opacity="1" fill-rule="nonzero"/><path fill="#f2b075" d="M 112.875 117.707031 C 109.988281 116.375 107.621094 114.703125 106.203125 114.0625 C 104.789062 113.421875 94.414062 112.019531 92.925781 110.902344 C 91.433594 109.78125 90.359375 107.519531 87.039062 106.183594 C 85.660156 105.632812 84.355469 105.007812 83.53125 104.109375 C 84.28125 105.292969 85.820312 106.035156 87.433594 106.726562 C 90.019531 107.828125 91.351562 110.375 92.839844 111.496094 C 94.328125 112.613281 104.707031 114.015625 106.121094 114.65625 C 107.539062 115.296875 109.90625 116.96875 112.792969 118.300781 C 115.679688 119.632812 119.523438 120.816406 120.886719 121.457031 C 121.496094 121.746094 122.828125 122.882812 124.734375 124.425781 C 127.085938 126.324219 127.472656 126.039062 125.058594 124.066406 C 123.023438 122.40625 121.589844 121.15625 120.972656 120.863281 C 119.609375 120.222656 115.761719 119.039062 112.875 117.707031 " fill-opacity="1" fill-rule="nonzero"/><path fill="#facba3" d="M 83.3125 102.011719 C 83.925781 99.476562 87.125 98.421875 89.898438 98.898438 C 92.671875 99.378906 95.105469 99.4375 97.535156 101.996094 C 99.527344 102.261719 101.570312 103.863281 104.472656 103.589844 C 105.484375 103.496094 105.804688 103.535156 106.417969 103.457031 C 107.246094 101.414062 109.960938 98.566406 110.332031 97.800781 C 115.4375 95.097656 123.757812 94.390625 123.757812 94.390625 C 124.582031 96.003906 128.738281 104.398438 129.460938 105.417969 C 130.1875 106.433594 132.652344 109.59375 134.648438 111.320312 C 136.507812 112.933594 136.648438 112.234375 134.65625 110.503906 C 132.660156 108.773438 130.445312 105.605469 129.722656 104.589844 C 129 103.570312 124.9375 95.285156 124.109375 93.671875 C 124.109375 93.671875 115.304688 94.511719 110.203125 97.214844 C 109.832031 97.980469 107.113281 100.828125 106.289062 102.875 C 105.675781 102.953125 105.351562 102.910156 104.339844 103.003906 C 101.441406 103.277344 99.394531 101.679688 97.40625 101.410156 C 94.976562 98.855469 92.539062 98.792969 89.769531 98.316406 C 86.996094 97.835938 83.796875 98.894531 83.183594 101.425781 C 82.996094 102.203125 83.023438 102.863281 83.210938 103.429688 C 83.160156 103.003906 83.1875 102.535156 83.3125 102.011719 " fill-opacity="1" fill-rule="nonzero"/><path fill="#fadabe" d="M 88.992188 101.4375 C 89.636719 102.171875 89.261719 103.195312 89.1875 104.265625 C 89.113281 105.292969 89.03125 106.34375 88.042969 106.203125 C 87.375 106.109375 85.542969 105.378906 84.953125 105.222656 C 83.128906 103.707031 82.4375 100.476562 86.269531 99.558594 C 87.679688 99.699219 88.71875 101.128906 88.992188 101.4375 " fill-opacity="1" fill-rule="nonzero"/><path fill="#b38c51" d="M 124.335938 88.457031 C 124.679688 88.433594 124.988281 88.671875 125.046875 89.019531 L 125.164062 89.742188 C 125.226562 90.113281 124.976562 90.460938 124.609375 90.519531 L 123.132812 90.765625 L 123.136719 90.78125 L 120.171875 91.304688 C 120.664062 91.21875 120.996094 90.746094 120.90625 90.25 C 120.824219 89.769531 120.378906 89.457031 119.902344 89.519531 C 118.296875 89.675781 116.492188 89.921875 114.589844 90.257812 C 113.335938 90.476562 112.132812 90.722656 111.007812 90.976562 C 111.320312 91.296875 111.269531 91.824219 110.898438 92.078125 L 110.609375 92.234375 C 109.738281 92.632812 108.695312 92.476562 107.964844 91.855469 L 107.714844 91.652344 C 107.628906 91.566406 107.5625 91.484375 107.542969 91.367188 C 107.503906 91.140625 107.640625 90.925781 107.855469 90.863281 C 109.707031 90.335938 111.96875 89.816406 114.4375 89.382812 C 118.503906 88.664062 122.167969 88.347656 124.335938 88.457031 " fill-opacity="1" fill-rule="nonzero"/><path fill="#fcf6c6" d="M 124.320312 88.757812 C 124.542969 88.769531 124.792969 88.816406 124.765625 88.964844 C 124.746094 89.097656 124.546875 89.050781 124.304688 89.042969 C 123.398438 89.003906 122.949219 88.9375 119.871094 89.21875 C 118.191406 89.371094 116.398438 89.632812 114.539062 89.960938 C 113.3125 90.175781 112.101562 90.417969 110.941406 90.683594 C 110.941406 90.683594 110.550781 90.769531 110.417969 90.800781 C 109.453125 91.023438 109.128906 91.109375 108.039062 91.40625 C 107.890625 91.445312 107.84375 91.335938 107.839844 91.3125 C 107.828125 91.238281 107.871094 91.171875 107.941406 91.152344 C 109.851562 90.605469 112.117188 90.097656 114.488281 89.679688 C 118.398438 88.992188 122.074219 88.644531 124.320312 88.757812 " fill-opacity="1" fill-rule="nonzero"/><path fill="#262626" d="M 126.171875 90.34375 L 126.757812 94.273438 C 126.757812 94.273438 122.132812 95.238281 120.582031 95.507812 C 117.347656 96.078125 107.589844 97.457031 107.589844 97.457031 L 106.914062 92.914062 C 106.914062 92.914062 116.648438 91.375 119.90625 90.96875 C 121.46875 90.773438 126.171875 90.34375 126.171875 90.34375 " fill-opacity="1" fill-rule="nonzero"/><path fill="#b38c51" d="M 128.402344 90.742188 L 128.773438 93.238281 C 128.816406 93.523438 128.636719 93.792969 128.359375 93.863281 L 126.757812 94.273438 L 126.171875 90.34375 L 127.824219 90.265625 C 128.109375 90.25 128.359375 90.457031 128.402344 90.742188 " fill-opacity="1" fill-rule="nonzero"/><path fill="#fcf6c6" d="M 128.691406 93.316406 L 126.753906 93.605469 L 126.511719 91.980469 L 128.457031 91.691406 L 128.6875 93.25 C 128.691406 93.273438 128.691406 93.292969 128.691406 93.316406 " fill-opacity="1" fill-rule="nonzero"/><path fill="#fcf6c6" d="M 110.652344 91.066406 C 110.816406 91.257812 110.484375 91.816406 109.71875 91.949219 C 108.957031 92.085938 108.492188 91.847656 108.15625 91.65625 C 108.851562 91.476562 110.652344 91.066406 110.652344 91.066406 " fill-opacity="1" fill-rule="nonzero"/><path fill="#fcf6c6" d="M 122.804688 90.398438 C 123.382812 90.355469 124.363281 90.277344 124.582031 90.152344 C 124.796875 90.027344 124.859375 89.832031 124.789062 89.617188 C 124.730469 89.453125 124.578125 89.332031 124.148438 89.304688 C 123.757812 89.28125 122.769531 89.351562 122.6875 89.347656 C 122.964844 89.507812 123.078125 90.136719 122.804688 90.398438 " fill-opacity="1" fill-rule="nonzero"/><path fill="#cf8b50" d="M 132.316406 108.027344 C 130.773438 109.695312 128.550781 112.492188 126.214844 115.761719 C 124.523438 118.132812 123.046875 120.367188 121.953125 122.183594 C 123.101562 123.066406 124.894531 124.605469 127.195312 126.363281 L 137.214844 112.328125 C 136.117188 111.617188 135.1875 110.96875 134.65625 110.503906 C 133.875 109.828125 133.0625 108.929688 132.316406 108.027344 " fill-opacity="1" fill-rule="nonzero"/><path fill="#e6e6e6" d="M 134.765625 106.71875 C 134.234375 106.332031 130.589844 110.519531 126.628906 116.066406 C 122.667969 121.617188 119.894531 126.425781 120.429688 126.808594 L 125.109375 130.171875 L 139.449219 110.082031 L 134.765625 106.71875 " fill-opacity="1" fill-rule="nonzero"/><path fill="#f2f2f2" d="M 139.121094 110.539062 L 134.628906 107.3125 C 133.902344 107.761719 131.625 110.257812 128.550781 114.382812 L 133.726562 118.101562 L 139.121094 110.539062 " fill-opacity="1" fill-rule="nonzero"/><path fill="#e6e6e6" d="M 124.71875 126.113281 C 124.695312 125.945312 124.539062 125.832031 124.371094 125.859375 C 124.203125 125.886719 124.089844 126.042969 124.117188 126.210938 C 124.144531 126.375 124.300781 126.492188 124.46875 126.464844 C 124.632812 126.4375 124.746094 126.28125 124.71875 126.113281 Z M 123.035156 126.382812 C 123.0625 126.546875 123.21875 126.660156 123.386719 126.636719 C 123.550781 126.609375 123.664062 126.453125 123.640625 126.285156 C 123.613281 126.117188 123.457031 126.003906 123.289062 126.03125 C 123.125 126.058594 123.011719 126.214844 123.035156 126.382812 Z M 124.5625 125.117188 C 124.539062 124.949219 124.378906 124.835938 124.214844 124.863281 C 124.046875 124.886719 123.933594 125.042969 123.960938 125.210938 C 123.988281 125.378906 124.144531 125.492188 124.308594 125.464844 C 124.476562 125.441406 124.589844 125.28125 124.5625 125.117188 Z M 122.878906 125.382812 C 122.90625 125.550781 123.0625 125.664062 123.226562 125.636719 C 123.394531 125.613281 123.507812 125.453125 123.480469 125.289062 C 123.457031 125.121094 123.300781 125.007812 123.132812 125.03125 C 122.96875 125.058594 122.851562 125.214844 122.878906 125.382812 Z M 121.933594 126.042969 C 121.773438 125.011719 122.476562 124.042969 123.503906 123.878906 C 124.535156 123.714844 125.5 124.417969 125.664062 125.453125 C 125.828125 126.484375 125.125 127.457031 124.09375 127.621094 C 123.066406 127.78125 122.097656 127.078125 121.933594 126.042969 " fill-opacity="1" fill-rule="nonzero"/><path fill="#ffffff" d="M 124.648438 126.066406 C 124.621094 125.898438 124.464844 125.785156 124.296875 125.8125 C 124.128906 125.835938 124.015625 125.992188 124.042969 126.160156 C 124.070312 126.328125 124.226562 126.441406 124.394531 126.414062 C 124.558594 126.390625 124.671875 126.230469 124.648438 126.066406 Z M 122.960938 126.332031 C 122.988281 126.5 123.144531 126.613281 123.3125 126.585938 C 123.476562 126.558594 123.59375 126.402344 123.566406 126.238281 C 123.539062 126.070312 123.382812 125.957031 123.214844 125.980469 C 123.050781 126.007812 122.9375 126.164062 122.960938 126.332031 Z M 124.488281 125.066406 C 124.464844 124.898438 124.308594 124.785156 124.140625 124.8125 C 123.972656 124.839844 123.859375 124.996094 123.886719 125.164062 C 123.914062 125.328125 124.070312 125.445312 124.234375 125.417969 C 124.402344 125.390625 124.515625 125.234375 124.488281 125.066406 Z M 122.804688 125.335938 C 122.832031 125.5 122.988281 125.613281 123.15625 125.589844 C 123.320312 125.5625 123.433594 125.40625 123.40625 125.238281 C 123.382812 125.070312 123.226562 124.957031 123.058594 124.984375 C 122.894531 125.011719 122.777344 125.167969 122.804688 125.335938 Z M 121.863281 125.996094 C 121.699219 124.960938 122.402344 123.992188 123.429688 123.828125 C 124.460938 123.667969 125.425781 124.371094 125.589844 125.402344 C 125.753906 126.4375 125.050781 127.40625 124.019531 127.570312 C 122.992188 127.734375 122.023438 127.027344 121.863281 125.996094 " fill-opacity="1" fill-rule="nonzero"/><path fill="#e6e6e6" d="M 123.574219 124.339844 C 122.800781 124.460938 122.273438 125.1875 122.398438 125.960938 C 122.46875 126.417969 122.753906 126.785156 123.128906 126.984375 C 122.71875 126.792969 122.40625 126.40625 122.328125 125.921875 C 122.207031 125.148438 122.734375 124.421875 123.503906 124.296875 C 123.820312 124.25 124.128906 124.3125 124.390625 124.453125 C 124.144531 124.339844 123.863281 124.292969 123.574219 124.339844 " fill-opacity="1" fill-rule="nonzero"/><path fill="#262626" d="M 139.007812 108.230469 C 138.421875 107.808594 134.429688 112.394531 130.09375 118.46875 C 125.757812 124.546875 122.71875 129.8125 123.304688 130.234375 L 127.394531 133.089844 C 128.316406 133.734375 129.582031 133.511719 130.238281 132.597656 L 143.550781 113.945312 C 144.214844 113.011719 143.992188 111.710938 143.054688 111.054688 L 139.007812 108.230469 " fill-opacity="1" fill-rule="nonzero"/><path fill="#424242" d="M 143.886719 112.328125 L 138.855469 108.816406 C 138.019531 109.304688 135.136719 112.480469 131.277344 117.789062 L 137.632812 122.234375 L 143.550781 113.945312 C 143.898438 113.457031 144 112.871094 143.886719 112.328125 " fill-opacity="1" fill-rule="nonzero"/></svg>