<svg xmlns="http://www.w3.org/2000/svg" xmlns:xlink="http://www.w3.org/1999/xlink" width="120" zoomAndPan="magnify" viewBox="0 0 90 89.999999" height="120" preserveAspectRatio="xMidYMid meet" version="1.0"><defs><g/><clipPath id="aa51ff7edc"><path d="M 35.644531 15.875 L 41.347656 15.875 L 41.347656 33.542969 L 35.644531 33.542969 Z M 35.644531 15.875 " clip-rule="nonzero"/></clipPath><clipPath id="5f9cfdb29c"><path d="M 35.644531 47.980469 L 41.347656 47.980469 L 41.347656 65.648438 L 35.644531 65.648438 Z M 35.644531 47.980469 " clip-rule="nonzero"/></clipPath><clipPath id="d8765a87f7"><path d="M 41.632812 38.007812 L 59.300781 38.007812 L 59.300781 43.710938 L 41.632812 43.710938 Z M 41.632812 38.007812 " clip-rule="nonzero"/></clipPath></defs><rect x="-9" width="108" fill="#ffffff" y="-9" height="107.999999" fill-opacity="1"/><rect x="-9" width="108" fill="#000000" y="-9" height="107.999999" fill-opacity="1"/><g fill="#f8f8f8" fill-opacity="1"><g transform="translate(16.872319, 62.349743)"><g><path d="M 5.421875 0 L 5.421875 -42.765625 L 14.640625 -42.765625 C 30.941406 -42.765625 39.09375 -35.695312 39.09375 -21.5625 C 39.09375 -14.65625 37.113281 -9.332031 33.15625 -5.59375 C 29.195312 -1.863281 23.40625 0 15.78125 0 Z M 7.28125 -1.625 L 15.59375 -1.625 C 29.976562 -1.625 37.171875 -8.269531 37.171875 -21.5625 C 37.171875 -28.144531 35.351562 -33.050781 31.71875 -36.28125 C 28.082031 -39.519531 22.488281 -41.140625 14.9375 -41.140625 L 7.28125 -41.140625 Z M 7.28125 -1.625 "/></g></g></g><g clip-path="url(#aa51ff7edc)"><path fill="#000000" d="M 35.644531 33.542969 L 35.644531 15.871094 L 41.347656 15.871094 L 41.347656 33.542969 Z M 35.644531 33.542969 " fill-opacity="1" fill-rule="nonzero"/></g><g clip-path="url(#5f9cfdb29c)"><path fill="#000000" d="M 35.644531 65.648438 L 35.644531 47.976562 L 41.347656 47.976562 L 41.347656 65.648438 Z M 35.644531 65.648438 " fill-opacity="1" fill-rule="nonzero"/></g><g clip-path="url(#d8765a87f7)"><path fill="#000000" d="M 41.632812 38.007812 L 59.304688 38.007812 L 59.304688 43.710938 L 41.632812 43.710938 Z M 41.632812 38.007812 " fill-opacity="1" fill-rule="nonzero"/></g><g fill="#f8f8f8" fill-opacity="1"><g transform="translate(32.260652, 62.529743)"><g><path d="M 5.421875 0 L 5.421875 -42.765625 L 7.28125 -42.765625 L 7.28125 -22.640625 L 34.640625 -22.640625 L 34.640625 -42.765625 L 36.5 -42.765625 L 36.5 0 L 34.640625 0 L 34.640625 -20.96875 L 7.28125 -20.96875 L 7.28125 0 Z M 5.421875 0 "/></g></g></g><g fill="#f8f8f8" fill-opacity="1"><g transform="translate(22.170492, 69.025354)"><g><path d="M 0.390625 0 L 0.390625 -3.0625 L 1.046875 -3.0625 C 2.210938 -3.0625 2.796875 -2.554688 2.796875 -1.546875 C 2.796875 -1.046875 2.65625 -0.660156 2.375 -0.390625 C 2.09375 -0.128906 1.675781 0 1.125 0 Z M 0.515625 -0.109375 L 1.109375 -0.109375 C 2.140625 -0.109375 2.65625 -0.585938 2.65625 -1.546875 C 2.65625 -2.015625 2.523438 -2.363281 2.265625 -2.59375 C 2.003906 -2.832031 1.601562 -2.953125 1.0625 -2.953125 L 0.515625 -2.953125 Z M 0.515625 -0.109375 "/></g></g></g><g fill="#f8f8f8" fill-opacity="1"><g transform="translate(26.330783, 69.025354)"><g><path d="M 0.390625 0 L 0.390625 -3.0625 L 0.515625 -3.0625 L 0.515625 0 Z M 0.390625 0 "/></g></g></g><g fill="#f8f8f8" fill-opacity="1"><g transform="translate(28.292199, 69.025354)"><g><path d="M 0.140625 0 L 1.375 -3.0625 L 1.5 -3.0625 L 2.703125 0 L 2.5625 0 L 2.203125 -0.921875 L 0.640625 -0.921875 L 0.28125 0 Z M 0.6875 -1.046875 L 2.15625 -1.046875 L 1.4375 -2.890625 Z M 0.6875 -1.046875 "/></g></g></g><g fill="#f8f8f8" fill-opacity="1"><g transform="translate(32.19761, 69.025354)"><g><path d="M 0.34375 0 L 0.5 -3.0625 L 0.671875 -3.0625 L 1.9375 -0.125 L 3.21875 -3.0625 L 3.375 -3.0625 L 3.515625 0 L 3.390625 0 L 3.265625 -2.875 L 2 0 L 1.859375 0 L 0.609375 -2.875 L 0.46875 0 Z M 0.34375 0 "/></g></g></g><g fill="#f8f8f8" fill-opacity="1"><g transform="translate(37.122539, 69.025354)"><g><path d="M 1.625 0.03125 C 1.351562 0.03125 1.117188 -0.0234375 0.921875 -0.140625 C 0.722656 -0.265625 0.570312 -0.4375 0.46875 -0.65625 C 0.363281 -0.882812 0.3125 -1.15625 0.3125 -1.46875 C 0.3125 -1.789062 0.367188 -2.070312 0.484375 -2.3125 C 0.609375 -2.5625 0.773438 -2.753906 0.984375 -2.890625 C 1.203125 -3.035156 1.441406 -3.109375 1.703125 -3.109375 C 1.960938 -3.109375 2.1875 -3.039062 2.375 -2.90625 C 2.570312 -2.78125 2.722656 -2.601562 2.828125 -2.375 C 2.929688 -2.15625 2.984375 -1.894531 2.984375 -1.59375 C 2.984375 -1.257812 2.921875 -0.96875 2.796875 -0.71875 C 2.679688 -0.476562 2.519531 -0.289062 2.3125 -0.15625 C 2.113281 -0.03125 1.882812 0.03125 1.625 0.03125 Z M 1.625 -0.109375 C 1.863281 -0.109375 2.070312 -0.164062 2.25 -0.28125 C 2.4375 -0.394531 2.582031 -0.5625 2.6875 -0.78125 C 2.789062 -1.007812 2.84375 -1.285156 2.84375 -1.609375 C 2.84375 -1.890625 2.796875 -2.128906 2.703125 -2.328125 C 2.609375 -2.535156 2.476562 -2.691406 2.3125 -2.796875 C 2.144531 -2.910156 1.945312 -2.96875 1.71875 -2.96875 C 1.46875 -2.96875 1.242188 -2.90625 1.046875 -2.78125 C 0.859375 -2.65625 0.707031 -2.476562 0.59375 -2.25 C 0.488281 -2.03125 0.4375 -1.769531 0.4375 -1.46875 C 0.4375 -1.03125 0.539062 -0.691406 0.75 -0.453125 C 0.96875 -0.222656 1.257812 -0.109375 1.625 -0.109375 Z M 1.625 -0.109375 "/></g></g></g><g fill="#f8f8f8" fill-opacity="1"><g transform="translate(41.46859, 69.025354)"><g><path d="M 2.5 -3.0625 L 2.625 -3.0625 L 2.625 0 L 2.515625 0 L 0.515625 -2.8125 L 0.515625 0 L 0.390625 0 L 0.390625 -3.0625 L 0.484375 -3.0625 L 2.5 -0.25 Z M 2.5 -3.0625 "/></g></g></g><g fill="#f8f8f8" fill-opacity="1"><g transform="translate(45.53384, 69.025354)"><g><path d="M 0.390625 0 L 0.390625 -3.0625 L 1.046875 -3.0625 C 2.210938 -3.0625 2.796875 -2.554688 2.796875 -1.546875 C 2.796875 -1.046875 2.65625 -0.660156 2.375 -0.390625 C 2.09375 -0.128906 1.675781 0 1.125 0 Z M 0.515625 -0.109375 L 1.109375 -0.109375 C 2.140625 -0.109375 2.65625 -0.585938 2.65625 -1.546875 C 2.65625 -2.015625 2.523438 -2.363281 2.265625 -2.59375 C 2.003906 -2.832031 1.601562 -2.953125 1.0625 -2.953125 L 0.515625 -2.953125 Z M 0.515625 -0.109375 "/></g></g></g><g fill="#f8f8f8" fill-opacity="1"><g transform="translate(49.694132, 69.025354)"><g/></g></g><g fill="#f8f8f8" fill-opacity="1"><g transform="translate(51.67715, 69.025354)"><g><path d="M 0.390625 0 L 0.390625 -3.0625 L 0.515625 -3.0625 L 0.515625 -1.625 L 2.484375 -1.625 L 2.484375 -3.0625 L 2.609375 -3.0625 L 2.609375 0 L 2.484375 0 L 2.484375 -1.5 L 0.515625 -1.5 L 0.515625 0 Z M 0.390625 0 "/></g></g></g><g fill="#f8f8f8" fill-opacity="1"><g transform="translate(55.733761, 69.025354)"><g><path d="M 1.984375 -2.953125 L 0.515625 -2.953125 L 0.515625 -1.625 L 1.96875 -1.625 L 1.96875 -1.5 L 0.515625 -1.5 L 0.515625 -0.109375 L 2.0625 -0.109375 L 2.046875 0 L 0.390625 0 L 0.390625 -3.0625 L 1.984375 -3.0625 Z M 1.984375 -2.953125 "/></g></g></g><g fill="#f8f8f8" fill-opacity="1"><g transform="translate(59.034375, 69.025354)"><g><path d="M 0.140625 0 L 1.375 -3.0625 L 1.5 -3.0625 L 2.703125 0 L 2.5625 0 L 2.203125 -0.921875 L 0.640625 -0.921875 L 0.28125 0 Z M 0.6875 -1.046875 L 2.15625 -1.046875 L 1.4375 -2.890625 Z M 0.6875 -1.046875 "/></g></g></g><g fill="#f8f8f8" fill-opacity="1"><g transform="translate(62.939787, 69.025354)"><g><path d="M 2.40625 -0.15625 L 2.4375 -0.0625 C 2.40625 -0.03125 2.367188 -0.0078125 2.328125 0 C 2.285156 0.0078125 2.238281 0.015625 2.1875 0.015625 C 2.09375 0.015625 2.003906 -0.00390625 1.921875 -0.046875 C 1.847656 -0.0976562 1.765625 -0.191406 1.671875 -0.328125 L 0.984375 -1.3125 C 0.953125 -1.351562 0.90625 -1.394531 0.84375 -1.4375 C 0.789062 -1.476562 0.71875 -1.5 0.625 -1.5 L 0.515625 -1.5 L 0.515625 0 L 0.390625 0 L 0.390625 -3.0625 L 1.171875 -3.0625 C 1.484375 -3.0625 1.71875 -2.992188 1.875 -2.859375 C 2.039062 -2.722656 2.125 -2.535156 2.125 -2.296875 C 2.125 -2.054688 2.039062 -1.863281 1.875 -1.71875 C 1.707031 -1.570312 1.472656 -1.5 1.171875 -1.5 L 0.921875 -1.5 C 0.960938 -1.488281 1.003906 -1.457031 1.046875 -1.40625 C 1.085938 -1.363281 1.132812 -1.304688 1.1875 -1.234375 L 1.734375 -0.4375 C 1.796875 -0.34375 1.847656 -0.269531 1.890625 -0.21875 C 1.941406 -0.164062 1.988281 -0.128906 2.03125 -0.109375 C 2.082031 -0.0976562 2.140625 -0.09375 2.203125 -0.09375 C 2.242188 -0.09375 2.28125 -0.0976562 2.3125 -0.109375 C 2.351562 -0.128906 2.382812 -0.144531 2.40625 -0.15625 Z M 1.15625 -2.953125 L 0.515625 -2.953125 L 0.515625 -1.625 L 1.140625 -1.625 C 1.410156 -1.625 1.617188 -1.679688 1.765625 -1.796875 C 1.910156 -1.910156 1.984375 -2.070312 1.984375 -2.28125 C 1.984375 -2.476562 1.914062 -2.640625 1.78125 -2.765625 C 1.65625 -2.890625 1.445312 -2.953125 1.15625 -2.953125 Z M 1.15625 -2.953125 "/></g></g></g><g fill="#f8f8f8" fill-opacity="1"><g transform="translate(66.335441, 69.025354)"><g><path d="M 2.1875 -3.0625 L 2.1875 -2.953125 L 1.1875 -2.953125 L 1.1875 0 L 1.0625 0 L 1.0625 -2.953125 L 0.03125 -2.953125 L 0.03125 -3.0625 Z M 2.1875 -3.0625 "/></g></g></g></svg>