<svg xmlns="http://www.w3.org/2000/svg" xmlns:xlink="http://www.w3.org/1999/xlink" width="120" zoomAndPan="magnify" viewBox="0 0 90 89.999999" height="120" preserveAspectRatio="xMidYMid meet" version="1.0"><defs><g/><clipPath id="2e2fe5b677"><path d="M 50 31 L 80 31 L 80 47.996094 L 50 47.996094 Z M 50 31 " clip-rule="nonzero"/></clipPath><clipPath id="3ea6cb70d6"><path d="M 44.25 30 L 53 30 L 53 38 L 44.25 38 Z M 44.25 30 " clip-rule="nonzero"/></clipPath><clipPath id="1a716d059a"><path d="M 51 28.707031 L 83.25 28.707031 L 83.25 47 L 51 47 Z M 51 28.707031 " clip-rule="nonzero"/></clipPath></defs><rect x="-9" width="108" fill="#ffffff" y="-9" height="107.999999" fill-opacity="1"/><rect x="-9" width="108" fill="#000000" y="-9" height="107.999999" fill-opacity="1"/><g clip-path="url(#2e2fe5b677)"><path fill="#ffffff" d="M 50.738281 34.222656 C 53.898438 32.777344 57.375 31.929688 60.4375 31.609375 C 64.730469 31.15625 69.320312 31.542969 73.097656 33.167969 C 75.855469 34.359375 78.554688 36.425781 79.179688 39.476562 C 79.265625 39.898438 79.308594 40.332031 79.308594 40.769531 C 79.308594 43.578125 77.625 46.023438 75.378906 47.96875 C 76.6875 46.300781 77.539062 44.382812 77.539062 42.292969 C 77.539062 41.804688 77.492188 41.324219 77.394531 40.851562 C 76.730469 37.59375 73.945312 35.386719 70.988281 34.109375 C 67.171875 32.464844 62.554688 32.066406 58.214844 32.523438 C 55.789062 32.777344 53.210938 33.335938 50.738281 34.222656 " fill-opacity="1" fill-rule="evenodd"/></g><g clip-path="url(#3ea6cb70d6)"><path fill="#ffffff" d="M 46.117188 37.957031 L 46.152344 37.972656 L 46.179688 37.988281 C 48.128906 34.386719 48.863281 34.453125 52.171875 36.3125 L 52.203125 36.253906 C 48.894531 34.394531 48.445312 33.800781 50.398438 30.199219 L 50.339844 30.164062 C 48.386719 33.765625 47.652344 33.699219 44.34375 31.839844 L 44.3125 31.898438 C 47.621094 33.757812 48.070312 34.351562 46.117188 37.957031 " fill-opacity="1" fill-rule="evenodd"/></g><g clip-path="url(#1a716d059a)"><path fill="#ffffff" d="M 51.070312 32.378906 C 54.542969 30.664062 58.386719 29.601562 61.789062 29.140625 C 66.558594 28.488281 71.683594 28.765625 75.941406 30.453125 C 79.054688 31.6875 82.128906 33.898438 82.921875 37.273438 C 83.03125 37.738281 83.09375 38.222656 83.105469 38.710938 C 83.195312 41.835938 81.402344 44.621094 78.964844 46.859375 C 80.363281 44.957031 81.253906 42.796875 81.183594 40.464844 C 81.171875 39.921875 81.101562 39.386719 80.976562 38.863281 C 80.132812 35.261719 76.957031 32.894531 73.621094 31.570312 C 69.320312 29.867188 64.164062 29.578125 59.34375 30.234375 C 56.648438 30.601562 53.796875 31.304688 51.070312 32.378906 " fill-opacity="1" fill-rule="evenodd"/></g><path stroke-linecap="butt" transform="matrix(0.179143, -0.0175472, 0.0175472, 0.179143, 9.677684, 37.661125)" fill="none" stroke-linejoin="miter" d="M 4.069575 79.001128 L 23.933662 79.006169 C 25.045739 79.006072 25.924815 78.045527 25.924718 76.933449 L 25.92488 64.242811 C 25.924783 63.130734 26.795396 62.256581 27.929071 62.258599 L 60.704008 62.241763 C 61.816085 62.241666 62.708296 61.369628 62.688717 60.233837 L 62.704973 42.70401 C 62.704876 41.591933 61.74433 40.712858 60.632253 40.712955 L 27.924226 40.71454 C 26.790551 40.712521 25.918513 39.82031 25.916301 38.729831 C 25.918319 37.596156 26.81053 36.724118 27.922607 36.724021 L 63.902072 36.715798 C 65.014149 36.715701 65.884762 35.841547 65.884665 34.72947 L 65.903037 17.178045 C 65.883457 16.042254 65.009304 15.171641 63.897227 15.171738 L 3.998362 15.170192 C 2.864687 15.168173 1.994074 16.042327 1.992055 17.176002 L 1.996855 77.010072 C 1.996953 78.122149 2.957498 79.001225 4.069575 79.001128 Z M 4.069575 79.001128 " stroke="#373737" stroke-width="16.057234" stroke-opacity="1" stroke-miterlimit="4"/><path stroke-linecap="butt" transform="matrix(0.179722, -0.0100064, 0.0100064, 0.179722, 22.202306, 36.464828)" fill="none" stroke-linejoin="miter" d="M 4.061304 78.993853 L 23.948896 78.992656 C 25.056368 79.010847 25.931622 78.124973 25.928145 77.016295 L 25.921077 65.822376 C 25.9176 64.713697 26.791647 63.849492 27.921994 63.847222 C 29.030672 63.843745 29.91172 64.805669 29.915197 65.914348 L 29.92709 77.021595 C 29.908899 78.129068 30.881443 79.009146 31.990122 79.00567 L 51.856046 79.003266 C 52.986393 79.000996 53.861646 78.115122 53.858169 77.006444 L 53.851662 31.44952 C 53.854008 22.038395 46.998129 15.179648 37.565337 15.176095 L 18.265188 15.16653 C 8.854064 15.164184 1.995317 22.020062 1.991764 31.452855 L 1.976604 77.008572 C 1.980081 78.117251 2.952625 78.99733 4.061304 78.993853 Z M 27.923114 44.698748 C 26.792768 44.701019 25.928562 43.826972 25.926292 42.696625 L 25.933084 36.328648 C 25.930813 35.198302 26.806067 34.312429 27.936413 34.310158 C 29.043885 34.328349 29.908091 35.202396 29.910361 36.332743 L 29.925237 42.701926 C 29.927507 43.832272 29.031793 44.695272 27.923114 44.698748 Z M 27.923114 44.698748 " stroke="#373737" stroke-width="16.057234" stroke-opacity="1" stroke-miterlimit="4"/><path stroke-linecap="butt" transform="matrix(0.179972, -0.00318423, 0.00318423, 0.179972, 32.564984, 35.894066)" fill="none" stroke-linejoin="miter" d="M 18.274595 79.005765 L 37.570254 78.999885 C 46.990255 78.992914 53.861563 72.147252 53.854593 62.727251 L 53.857575 17.168957 C 53.85584 16.040277 52.981194 15.178316 51.852514 15.180051 L 31.992708 15.175949 C 30.864028 15.177685 29.915274 16.050795 29.917009 17.179474 L 29.912446 55.466637 C 29.914565 56.573618 29.030905 57.44788 27.923924 57.449999 C 26.795244 57.451734 25.920598 56.589772 25.918863 55.461093 L 25.923427 17.17393 C 25.921692 16.045251 25.04743 15.161591 23.940448 15.16371 L 4.080257 15.181307 C 2.951962 15.161344 1.981126 16.055768 1.982861 17.184448 L 1.980263 62.721043 C 1.987234 72.141044 8.854979 78.991038 18.274595 79.005765 Z M 18.274595 79.005765 " stroke="#373737" stroke-width="16.057234" stroke-opacity="1" stroke-miterlimit="4"/><path stroke-linecap="butt" transform="matrix(0.179963, 0.00364742, -0.00364742, 0.179963, 42.942094, 35.716534)" fill="none" stroke-linejoin="miter" d="M 18.267381 78.998654 L 51.846172 78.990974 C 52.909761 78.991123 53.845517 78.038806 53.844787 76.931823 L 53.932399 42.699925 C 53.931669 41.592942 52.980232 40.70058 51.851552 40.701749 L 31.990941 40.713571 C 30.949048 40.712982 29.991595 41.665739 29.992325 42.772722 L 29.924122 55.472025 C 29.924852 56.579009 28.966079 57.466675 27.924187 57.466085 C 26.795506 57.467255 25.930857 56.573134 25.930127 55.466151 L 25.916537 38.731218 C 25.914928 37.58084 26.809049 36.71619 27.937729 36.715021 L 51.857426 36.707754 C 52.986107 36.706585 53.856772 35.755587 53.856042 34.648603 L 53.849198 17.175535 C 53.848028 16.046855 52.983818 15.17443 51.855138 15.1756 L 18.275908 15.161583 C 8.85592 15.178857 1.983691 22.025248 1.979268 31.445675 L 1.983729 62.723711 C 1.979306 72.144139 8.868651 78.993791 18.267381 78.998654 Z M 18.267381 78.998654 " stroke="#373737" stroke-width="16.057234" stroke-opacity="1" stroke-miterlimit="4"/><path stroke-linecap="butt" transform="matrix(0.179651, 0.0112088, -0.0112088, 0.179651, 53.369364, 35.912835)" fill="none" stroke-linejoin="miter" d="M 4.069403 79.008322 L 63.906812 78.993077 C 65.016841 79.010794 65.896837 78.129632 65.892895 77.020955 L 65.902644 61.843321 C 65.898702 60.734644 64.930903 59.860053 63.822226 59.863995 L 27.923572 59.864208 C 26.791884 59.847842 25.932382 58.966494 25.92844 57.857817 C 25.923146 56.727481 26.804494 55.867979 27.93483 55.862685 L 60.702387 55.862136 C 61.811064 55.858194 62.69106 54.977032 62.687118 53.868355 L 62.688572 40.300264 C 62.706289 39.190236 61.738491 38.315644 60.629814 38.319587 L 27.927235 38.316082 C 26.796899 38.321375 25.915737 37.441379 25.933454 36.33135 C 25.928161 35.201014 26.808157 34.319852 27.938494 34.314559 L 63.902126 34.310291 C 65.012154 34.328008 65.892151 33.446847 65.888209 32.338169 L 65.899309 17.182194 C 65.894015 16.051858 65.012854 15.171861 63.904177 15.175804 L 4.000438 15.173444 C 2.870102 15.178738 1.988754 16.03824 1.994047 17.168576 L 1.987634 77.007337 C 1.991576 78.116014 2.959375 78.990605 4.069403 79.008322 Z M 4.069403 79.008322 " stroke="#373737" stroke-width="16.057234" stroke-opacity="1" stroke-miterlimit="4"/><path stroke-linecap="butt" transform="matrix(0.179045, 0.0185128, -0.0185128, 0.179045, 65.912846, 36.731752)" fill="none" stroke-linejoin="miter" d="M 16.117198 79.005954 L 35.970544 79.003982 C 37.104191 78.995852 37.988529 78.053548 37.98263 76.941486 L 37.979357 38.718287 C 37.971227 37.584639 38.929251 36.721984 40.041313 36.716086 L 48.026716 36.719468 C 49.138778 36.71357 50.008225 35.838256 50.023913 34.723963 L 50.02108 17.183317 C 50.021878 16.136015 49.137636 15.180222 48.023343 15.164535 L 3.988995 15.092334 C 2.855347 15.100464 1.9859 15.975777 1.99403 17.109425 L 1.984205 34.738648 C 1.987871 35.829123 2.865416 36.720157 3.999064 36.712026 L 11.962882 36.71764 C 13.09653 36.70951 14.038834 37.593847 14.046964 38.727495 L 14.035347 77.017685 C 14.041246 78.129747 15.002904 78.990266 16.117198 79.005954 Z M 16.117198 79.005954 " stroke="#373737" stroke-width="16.057234" stroke-opacity="1" stroke-miterlimit="4"/><g fill="#ffffff" fill-opacity="1"><g transform="translate(11.063914, 51.813395)"><g><path d="M 0.730469 -0.0703125 L 4.289062 -0.421875 C 4.488281 -0.441406 4.628906 -0.625 4.609375 -0.828125 L 4.386719 -3.097656 C 4.367188 -3.300781 4.507812 -3.472656 4.707031 -3.492188 L 10.582031 -4.066406 C 10.78125 -4.085938 10.925781 -4.257812 10.90625 -4.457031 L 10.597656 -7.601562 C 10.578125 -7.804688 10.390625 -7.945312 10.191406 -7.925781 L 4.332031 -7.351562 C 4.128906 -7.332031 3.957031 -7.472656 3.9375 -7.671875 C 3.917969 -7.871094 4.058594 -8.046875 4.261719 -8.066406 L 10.707031 -8.695312 C 10.90625 -8.714844 11.046875 -8.886719 11.027344 -9.089844 L 10.71875 -12.234375 C 10.699219 -12.433594 10.527344 -12.574219 10.328125 -12.554688 L -0.40625 -11.503906 C -0.605469 -11.484375 -0.746094 -11.3125 -0.726562 -11.109375 L 0.324219 -0.390625 C 0.34375 -0.191406 0.527344 -0.0507812 0.730469 -0.0703125 Z M 0.730469 -0.0703125 "/></g></g></g><g fill="#ffffff" fill-opacity="1"><g transform="translate(22.992814, 50.662838)"><g><path d="M 0.730469 -0.0390625 L 4.300781 -0.238281 C 4.503906 -0.25 4.652344 -0.417969 4.640625 -0.617188 L 4.527344 -2.625 C 4.515625 -2.824219 4.664062 -2.992188 4.867188 -3.003906 C 5.066406 -3.015625 5.234375 -2.851562 5.246094 -2.652344 L 5.355469 -0.65625 C 5.367188 -0.457031 5.550781 -0.308594 5.75 -0.320312 L 9.320312 -0.519531 C 9.519531 -0.53125 9.667969 -0.695312 9.660156 -0.898438 L 9.203125 -9.085938 C 9.109375 -10.777344 7.804688 -11.941406 6.113281 -11.847656 L 2.644531 -11.652344 C 0.953125 -11.558594 -0.210938 -10.257812 -0.117188 -8.566406 L 0.339844 -0.378906 C 0.351562 -0.175781 0.53125 -0.03125 0.730469 -0.0390625 Z M 4.675781 -6.445312 C 4.472656 -6.433594 4.308594 -6.582031 4.296875 -6.785156 L 4.234375 -7.929688 C 4.222656 -8.132812 4.371094 -8.296875 4.570312 -8.308594 C 4.773438 -8.320312 4.9375 -8.171875 4.949219 -7.96875 L 5.011719 -6.824219 C 5.023438 -6.621094 4.875 -6.457031 4.675781 -6.445312 Z M 4.675781 -6.445312 "/></g></g></g><g fill="#ffffff" fill-opacity="1"><g transform="translate(32.816538, 50.11184)"><g><path d="M 3.289062 -0.0585938 L 6.761719 -0.121094 C 8.457031 -0.148438 9.667969 -1.40625 9.640625 -3.101562 L 9.496094 -11.300781 C 9.492188 -11.5 9.332031 -11.65625 9.128906 -11.652344 L 5.554688 -11.589844 C 5.351562 -11.585938 5.183594 -11.425781 5.1875 -11.222656 L 5.308594 -4.332031 C 5.3125 -4.128906 5.15625 -3.96875 4.957031 -3.964844 C 4.753906 -3.960938 4.59375 -4.117188 4.589844 -4.316406 L 4.46875 -11.210938 C 4.464844 -11.410156 4.304688 -11.566406 4.105469 -11.5625 L 0.527344 -11.5 C 0.328125 -11.496094 0.160156 -11.335938 0.160156 -11.132812 L 0.308594 -2.933594 C 0.335938 -1.242188 1.59375 -0.0273438 3.289062 -0.0585938 Z M 3.289062 -0.0585938 "/></g></g></g><g fill="#ffffff" fill-opacity="1"><g transform="translate(42.653948, 49.933613)"><g><path d="M 3.289062 0.0664062 L 9.332031 0.1875 C 9.519531 0.191406 9.695312 0.0234375 9.699219 -0.175781 L 9.839844 -6.335938 C 9.84375 -6.535156 9.671875 -6.699219 9.472656 -6.703125 L 5.898438 -6.773438 C 5.710938 -6.777344 5.535156 -6.609375 5.53125 -6.410156 L 5.46875 -4.125 C 5.464844 -3.925781 5.289062 -3.769531 5.105469 -3.773438 C 4.902344 -3.777344 4.746094 -3.941406 4.753906 -4.140625 L 4.8125 -7.15625 C 4.816406 -7.355469 4.976562 -7.511719 5.179688 -7.507812 L 9.488281 -7.421875 C 9.6875 -7.417969 9.847656 -7.585938 9.851562 -7.785156 L 9.917969 -10.929688 C 9.921875 -11.132812 9.765625 -11.292969 9.566406 -11.296875 L 3.519531 -11.417969 C 1.828125 -11.453125 0.566406 -10.242188 0.53125 -8.550781 L 0.417969 -2.921875 C 0.382812 -1.226562 1.59375 0.03125 3.289062 0.0664062 Z M 3.289062 0.0664062 "/></g></g></g><g fill="#ffffff" fill-opacity="1"><g transform="translate(52.483866, 50.105235)"><g><path d="M 0.730469 0.046875 L 11.480469 0.714844 C 11.679688 0.730469 11.847656 0.582031 11.859375 0.378906 L 12.03125 -2.34375 C 12.042969 -2.542969 11.882812 -2.710938 11.679688 -2.722656 L 5.230469 -3.125 C 5.03125 -3.140625 4.882812 -3.308594 4.894531 -3.507812 C 4.90625 -3.707031 5.074219 -3.855469 5.277344 -3.84375 L 11.167969 -3.476562 C 11.367188 -3.464844 11.535156 -3.609375 11.546875 -3.8125 L 11.699219 -6.25 C 11.710938 -6.449219 11.550781 -6.617188 11.347656 -6.628906 L 5.472656 -6.996094 C 5.273438 -7.007812 5.125 -7.175781 5.136719 -7.378906 C 5.148438 -7.578125 5.316406 -7.726562 5.515625 -7.714844 L 11.980469 -7.308594 C 12.183594 -7.296875 12.347656 -7.445312 12.363281 -7.644531 L 12.53125 -10.367188 C 12.542969 -10.570312 12.394531 -10.738281 12.195312 -10.75 L 1.433594 -11.421875 C 1.230469 -11.433594 1.0625 -11.285156 1.050781 -11.085938 L 0.378906 -0.335938 C 0.367188 -0.136719 0.53125 0.03125 0.730469 0.046875 Z M 0.730469 0.046875 "/></g></g></g><g fill="#ffffff" fill-opacity="1"><g transform="translate(64.450337, 50.876341)"><g><path d="M 2.886719 0.296875 L 6.441406 0.667969 C 6.640625 0.6875 6.816406 0.53125 6.835938 0.332031 L 7.546875 -6.511719 C 7.566406 -6.710938 7.753906 -6.851562 7.953125 -6.828125 L 9.382812 -6.679688 C 9.582031 -6.660156 9.753906 -6.800781 9.777344 -7 L 10.101562 -10.144531 C 10.121094 -10.328125 9.980469 -10.519531 9.78125 -10.539062 L 1.898438 -11.367188 C 1.699219 -11.386719 1.523438 -11.246094 1.503906 -11.046875 L 1.175781 -7.890625 C 1.15625 -7.691406 1.296875 -7.515625 1.496094 -7.496094 L 2.925781 -7.347656 C 3.125 -7.328125 3.28125 -7.152344 3.261719 -6.953125 L 2.550781 -0.0976562 C 2.53125 0.101562 2.683594 0.277344 2.886719 0.296875 Z M 2.886719 0.296875 "/></g></g></g><path stroke-linecap="butt" transform="matrix(0.18, 0, 0, 0.18, 7.256723, 52.003072)" fill="none" stroke-linejoin="miter" d="M 45.405361 23.35533 C 43.213521 23.35533 41.455708 23.116615 40.131923 22.639184 C 38.786437 22.183455 37.788173 21.532413 37.093729 20.707761 C 36.399284 19.904809 35.921854 18.949948 35.683138 17.88658 L 42.866299 17.88658 C 43.387132 18.646128 44.233486 19.015052 45.405361 19.015052 C 46.555535 19.015052 47.401889 18.646128 47.944424 17.88658 C 47.987827 17.799774 48.009528 17.73467 48.009528 17.669566 C 48.009528 17.474253 47.72741 17.322344 47.206577 17.213837 C 46.664042 17.127031 45.86109 17.040226 44.797722 16.996823 C 43.452236 16.931719 42.063347 16.779809 40.587653 16.562795 C 37.289041 16.063663 35.639736 14.739878 35.639736 12.591441 C 35.639736 12.41783 35.661437 12.222517 35.683138 12.027204 C 35.921854 10.963836 36.399284 10.008975 37.093729 9.184322 C 37.788173 8.381371 38.786437 7.730329 40.131923 7.252899 C 41.455708 6.797169 43.213521 6.558454 45.405361 6.558454 C 47.5755 6.558454 49.333313 6.797169 50.657098 7.252899 C 52.002584 7.730329 53.000848 8.381371 53.716994 9.184322 C 54.411438 10.008975 54.867167 10.963836 55.105883 12.027204 L 47.944424 12.027204 C 47.401889 11.267656 46.555535 10.877031 45.405361 10.877031 C 44.233486 10.877031 43.387132 11.267656 42.866299 12.027204 C 42.822896 12.092309 42.801194 12.135711 42.801194 12.200816 C 42.801194 12.374427 43.061611 12.504635 43.560743 12.591441 C 44.081576 12.678246 44.841125 12.74335 45.839389 12.808455 C 46.837653 12.873559 47.901021 12.960364 49.029493 13.112274 C 50.157966 13.242482 51.221334 13.481198 52.197896 13.806718 C 53.19616 14.132239 53.955709 14.631371 54.519945 15.282413 C 54.953973 15.781545 55.170987 16.432587 55.170987 17.192135 C 55.170987 17.409149 55.149285 17.647865 55.105883 17.88658 C 54.867167 18.949948 54.411438 19.904809 53.716994 20.707761 C 53.000848 21.532413 52.002584 22.183455 50.657098 22.639184 C 49.333313 23.116615 47.5755 23.35533 45.405361 23.35533 Z M 78.782099 23.008108 L 72.032967 23.008108 L 72.032967 10.877031 L 65.717862 10.877031 L 65.717862 6.883975 L 85.097204 6.883975 L 85.097204 10.877031 L 78.782099 10.877031 Z M 118.539046 23.008108 L 112.158837 23.008108 C 111.855017 22.595781 111.659705 22.074948 111.529497 21.445608 C 111.42099 20.968177 111.26908 20.490747 111.052066 20.013316 C 110.856754 19.557587 110.48783 19.166962 109.966997 18.841441 C 109.467865 18.537622 108.708316 18.36401 107.688351 18.342309 L 103.30467 18.342309 L 103.30467 23.008108 L 96.533836 23.008108 L 96.533836 6.883975 L 107.536441 6.883975 C 110.162309 6.883975 112.289045 7.079288 113.894948 7.469913 C 115.500851 7.860538 116.694427 8.489878 117.432275 9.336232 C 118.170122 10.160885 118.539046 11.267656 118.539046 12.613142 C 118.539046 13.763316 118.278629 14.696475 117.779497 15.477726 C 117.258664 16.237274 116.455712 16.866614 115.348941 17.300642 C 116.412309 17.756371 117.106754 18.277205 117.432275 18.884844 C 117.736094 19.514184 117.931407 20.186927 118.018212 20.924774 C 118.083316 21.597517 118.256928 22.291962 118.539046 23.008108 Z M 103.30467 14.370955 L 107.167517 14.370955 C 108.230885 14.370955 109.098941 14.30585 109.70658 14.219045 C 110.33592 14.110538 110.791649 13.98033 111.095469 13.82842 C 111.377587 13.654809 111.572899 13.459496 111.659705 13.264184 C 111.746511 13.04717 111.789913 12.830156 111.789913 12.613142 C 111.789913 12.396128 111.746511 12.200816 111.659705 11.983802 C 111.572899 11.766788 111.377587 11.593177 111.095469 11.419566 C 110.791649 11.245954 110.33592 11.115746 109.70658 11.007239 C 109.098941 10.920434 108.230885 10.877031 107.167517 10.877031 L 103.30467 10.877031 Z M 149.615436 23.008108 L 130.214393 23.008108 L 130.214393 6.883975 L 148.725679 6.883975 L 148.725679 10.877031 L 136.963526 10.877031 L 136.963526 13.394392 L 146.902762 13.394392 L 146.902762 16.497691 L 136.963526 16.497691 L 136.963526 19.015052 L 149.615436 19.015052 Z M 180.691827 23.008108 L 161.290784 23.008108 L 161.290784 6.883975 L 179.80207 6.883975 L 179.80207 10.877031 L 168.039916 10.877031 L 168.039916 13.394392 L 177.979153 13.394392 L 177.979153 16.497691 L 168.039916 16.497691 L 168.039916 19.015052 L 180.691827 19.015052 Z M 204.302939 23.008108 L 197.553807 23.008108 L 197.553807 10.877031 L 191.238702 10.877031 L 191.238702 6.883975 L 210.618044 6.883975 L 210.618044 10.877031 L 204.302939 10.877031 Z M 247.4019 23.008108 L 241.78124 23.008108 L 237.788184 12.526336 L 233.816829 23.008108 L 228.174468 23.008108 L 220.427072 6.905676 L 227.284711 6.905676 L 231.32117 17.127031 L 235.661448 6.905676 L 239.936621 6.905676 L 244.255198 17.127031 L 248.313358 6.905676 L 255.149296 6.905676 Z M 285.509541 23.008108 L 266.086796 23.008108 L 266.086796 6.883975 L 284.619784 6.883975 L 284.619784 10.877031 L 272.85763 10.877031 L 272.85763 13.394392 L 282.796867 13.394392 L 282.796867 16.497691 L 272.85763 16.497691 L 272.85763 19.015052 L 285.509541 19.015052 Z M 322.445306 23.008108 L 315.587667 23.008108 L 314.06857 20.360538 L 303.912319 20.360538 L 302.393222 23.008108 L 295.535583 23.008108 L 305.843743 6.905676 L 312.137146 6.905676 Z M 311.789924 16.367483 L 308.990445 11.48467 L 306.190965 16.367483 Z M 355.388016 23.008108 L 348.986106 23.008108 C 348.703988 22.595781 348.486974 22.074948 348.378467 21.445608 C 348.269961 20.968177 348.118051 20.490747 347.901037 20.013316 C 347.684023 19.557587 347.336801 19.166962 346.815967 18.841441 C 346.295134 18.537622 345.535585 18.36401 344.537321 18.342309 L 340.131939 18.342309 L 340.131939 23.008108 L 333.382807 23.008108 L 333.382807 6.883975 L 344.36371 6.883975 C 346.989578 6.883975 349.116315 7.079288 350.743919 7.469913 C 352.349822 7.860538 353.521697 8.489878 354.259544 9.336232 C 354.997391 10.160885 355.388016 11.267656 355.388016 12.613142 C 355.388016 13.763316 355.1276 14.696475 354.606766 15.477726 C 354.085933 16.237274 353.282982 16.866614 352.176211 17.300642 C 353.239579 17.756371 353.934023 18.277205 354.259544 18.884844 C 354.585065 19.514184 354.780378 20.186927 354.845482 20.924774 C 354.932287 21.597517 355.105898 22.291962 355.388016 23.008108 Z M 340.131939 14.370955 L 343.994787 14.370955 C 345.079856 14.370955 345.92621 14.30585 346.555551 14.219045 C 347.16319 14.110538 347.64062 13.98033 347.922738 13.82842 C 348.226558 13.654809 348.400169 13.459496 348.486974 13.264184 C 348.57378 13.04717 348.617183 12.830156 348.617183 12.613142 C 348.617183 12.396128 348.57378 12.200816 348.486974 11.983802 C 348.400169 11.766788 348.226558 11.593177 347.922738 11.419566 C 347.64062 11.245954 347.16319 11.115746 346.555551 11.007239 C 345.92621 10.920434 345.079856 10.877031 343.994787 10.877031 L 340.131939 10.877031 Z M 340.131939 14.370955 " stroke="#808080" stroke-width="3.508629" stroke-opacity="1" stroke-miterlimit="4"/><g fill="#ffffff" fill-opacity="1"><g transform="translate(13.511723, 56.143072)"><g><path d="M 1.921875 0.0625 C 1.523438 0.0625 1.207031 0.0195312 0.96875 -0.0625 C 0.726562 -0.144531 0.546875 -0.257812 0.421875 -0.40625 C 0.296875 -0.5625 0.210938 -0.734375 0.171875 -0.921875 L 1.453125 -0.921875 C 1.554688 -0.785156 1.710938 -0.71875 1.921875 -0.71875 C 2.128906 -0.71875 2.28125 -0.785156 2.375 -0.921875 C 2.382812 -0.929688 2.390625 -0.941406 2.390625 -0.953125 C 2.390625 -0.992188 2.335938 -1.019531 2.234375 -1.03125 C 2.140625 -1.050781 2 -1.066406 1.8125 -1.078125 C 1.570312 -1.085938 1.316406 -1.113281 1.046875 -1.15625 C 0.453125 -1.25 0.15625 -1.488281 0.15625 -1.875 C 0.15625 -1.90625 0.160156 -1.9375 0.171875 -1.96875 C 0.210938 -2.164062 0.296875 -2.335938 0.421875 -2.484375 C 0.546875 -2.628906 0.726562 -2.742188 0.96875 -2.828125 C 1.207031 -2.910156 1.523438 -2.953125 1.921875 -2.953125 C 2.304688 -2.953125 2.617188 -2.910156 2.859375 -2.828125 C 3.097656 -2.742188 3.28125 -2.628906 3.40625 -2.484375 C 3.53125 -2.335938 3.617188 -2.164062 3.671875 -1.96875 L 2.375 -1.96875 C 2.28125 -2.113281 2.128906 -2.1875 1.921875 -2.1875 C 1.710938 -2.1875 1.554688 -2.113281 1.453125 -1.96875 C 1.453125 -1.957031 1.453125 -1.945312 1.453125 -1.9375 C 1.453125 -1.90625 1.5 -1.878906 1.59375 -1.859375 C 1.6875 -1.847656 1.820312 -1.835938 2 -1.828125 C 2.175781 -1.816406 2.363281 -1.800781 2.5625 -1.78125 C 2.769531 -1.757812 2.960938 -1.71875 3.140625 -1.65625 C 3.316406 -1.59375 3.457031 -1.503906 3.5625 -1.390625 C 3.632812 -1.296875 3.671875 -1.179688 3.671875 -1.046875 C 3.671875 -1.003906 3.671875 -0.960938 3.671875 -0.921875 C 3.617188 -0.734375 3.53125 -0.5625 3.40625 -0.40625 C 3.28125 -0.257812 3.097656 -0.144531 2.859375 -0.0625 C 2.617188 0.0195312 2.304688 0.0625 1.921875 0.0625 Z M 1.921875 0.0625 "/></g></g></g><g fill="#ffffff" fill-opacity="1"><g transform="translate(18.963619, 56.143072)"><g><path d="M 2.46875 0 L 1.25 0 L 1.25 -2.1875 L 0.125 -2.1875 L 0.125 -2.90625 L 3.609375 -2.90625 L 3.609375 -2.1875 L 2.46875 -2.1875 Z M 2.46875 0 "/></g></g></g><g fill="#ffffff" fill-opacity="1"><g transform="translate(24.310398, 56.143072)"><g><path d="M 4.28125 0 L 3.140625 0 C 3.085938 -0.0703125 3.046875 -0.164062 3.015625 -0.28125 C 3.003906 -0.363281 2.976562 -0.445312 2.9375 -0.53125 C 2.894531 -0.613281 2.828125 -0.679688 2.734375 -0.734375 C 2.648438 -0.796875 2.515625 -0.832031 2.328125 -0.84375 L 1.546875 -0.84375 L 1.546875 0 L 0.328125 0 L 0.328125 -2.90625 L 2.296875 -2.90625 C 2.773438 -2.90625 3.160156 -2.867188 3.453125 -2.796875 C 3.742188 -2.722656 3.953125 -2.609375 4.078125 -2.453125 C 4.210938 -2.304688 4.28125 -2.113281 4.28125 -1.875 C 4.28125 -1.664062 4.234375 -1.488281 4.140625 -1.34375 C 4.046875 -1.207031 3.898438 -1.101562 3.703125 -1.03125 C 3.898438 -0.945312 4.023438 -0.847656 4.078125 -0.734375 C 4.140625 -0.628906 4.175781 -0.507812 4.1875 -0.375 C 4.195312 -0.25 4.226562 -0.125 4.28125 0 Z M 1.546875 -1.546875 L 2.234375 -1.5625 C 2.429688 -1.5625 2.582031 -1.566406 2.6875 -1.578125 C 2.800781 -1.597656 2.882812 -1.625 2.9375 -1.65625 C 2.988281 -1.6875 3.019531 -1.71875 3.03125 -1.75 C 3.050781 -1.789062 3.0625 -1.832031 3.0625 -1.875 C 3.0625 -1.90625 3.050781 -1.941406 3.03125 -1.984375 C 3.019531 -2.023438 2.988281 -2.054688 2.9375 -2.078125 C 2.882812 -2.109375 2.800781 -2.132812 2.6875 -2.15625 C 2.582031 -2.175781 2.429688 -2.1875 2.234375 -2.1875 L 1.546875 -2.1875 Z M 1.546875 -1.546875 "/></g></g></g><g fill="#ffffff" fill-opacity="1"><g transform="translate(30.370761, 56.143072)"><g><path d="M 3.8125 0 L 0.328125 0 L 0.328125 -2.90625 L 3.65625 -2.90625 L 3.65625 -2.1875 L 1.546875 -2.1875 L 1.546875 -1.734375 L 3.328125 -1.734375 L 3.328125 -1.171875 L 1.546875 -1.171875 L 1.546875 -0.71875 L 3.8125 -0.71875 Z M 3.8125 0 "/></g></g></g><g fill="#ffffff" fill-opacity="1"><g transform="translate(35.964162, 56.143072)"><g><path d="M 3.8125 0 L 0.328125 0 L 0.328125 -2.90625 L 3.65625 -2.90625 L 3.65625 -2.1875 L 1.546875 -2.1875 L 1.546875 -1.734375 L 3.328125 -1.734375 L 3.328125 -1.171875 L 1.546875 -1.171875 L 1.546875 -0.71875 L 3.8125 -0.71875 Z M 3.8125 0 "/></g></g></g><g fill="#ffffff" fill-opacity="1"><g transform="translate(41.557562, 56.143072)"><g><path d="M 2.46875 0 L 1.25 0 L 1.25 -2.1875 L 0.125 -2.1875 L 0.125 -2.90625 L 3.609375 -2.90625 L 3.609375 -2.1875 L 2.46875 -2.1875 Z M 2.46875 0 "/></g></g></g><g fill="#ffffff" fill-opacity="1"><g transform="translate(46.904341, 56.143072)"><g><path d="M 4.890625 0 L 3.875 0 L 3.15625 -1.890625 L 2.4375 0 L 1.421875 0 L 0.03125 -2.90625 L 1.265625 -2.90625 L 1.984375 -1.0625 L 2.765625 -2.90625 L 3.546875 -2.90625 L 4.328125 -1.0625 L 5.046875 -2.90625 L 6.28125 -2.90625 Z M 4.890625 0 "/></g></g></g><g fill="#ffffff" fill-opacity="1"><g transform="translate(54.830534, 56.143072)"><g><path d="M 3.8125 0 L 0.328125 0 L 0.328125 -2.90625 L 3.65625 -2.90625 L 3.65625 -2.1875 L 1.546875 -2.1875 L 1.546875 -1.734375 L 3.328125 -1.734375 L 3.328125 -1.171875 L 1.546875 -1.171875 L 1.546875 -0.71875 L 3.8125 -0.71875 Z M 3.8125 0 "/></g></g></g><g fill="#ffffff" fill-opacity="1"><g transform="translate(60.423935, 56.143072)"><g><path d="M 4.875 0 L 3.640625 0 L 3.359375 -0.46875 L 1.53125 -0.46875 L 1.265625 0 L 0.03125 0 L 1.890625 -2.90625 L 3.015625 -2.90625 Z M 2.953125 -1.1875 L 2.453125 -2.078125 L 1.953125 -1.1875 Z M 2.953125 -1.1875 "/></g></g></g><g fill="#ffffff" fill-opacity="1"><g transform="translate(66.941156, 56.143072)"><g><path d="M 4.28125 0 L 3.140625 0 C 3.085938 -0.0703125 3.046875 -0.164062 3.015625 -0.28125 C 3.003906 -0.363281 2.976562 -0.445312 2.9375 -0.53125 C 2.894531 -0.613281 2.828125 -0.679688 2.734375 -0.734375 C 2.648438 -0.796875 2.515625 -0.832031 2.328125 -0.84375 L 1.546875 -0.84375 L 1.546875 0 L 0.328125 0 L 0.328125 -2.90625 L 2.296875 -2.90625 C 2.773438 -2.90625 3.160156 -2.867188 3.453125 -2.796875 C 3.742188 -2.722656 3.953125 -2.609375 4.078125 -2.453125 C 4.210938 -2.304688 4.28125 -2.113281 4.28125 -1.875 C 4.28125 -1.664062 4.234375 -1.488281 4.140625 -1.34375 C 4.046875 -1.207031 3.898438 -1.101562 3.703125 -1.03125 C 3.898438 -0.945312 4.023438 -0.847656 4.078125 -0.734375 C 4.140625 -0.628906 4.175781 -0.507812 4.1875 -0.375 C 4.195312 -0.25 4.226562 -0.125 4.28125 0 Z M 1.546875 -1.546875 L 2.234375 -1.5625 C 2.429688 -1.5625 2.582031 -1.566406 2.6875 -1.578125 C 2.800781 -1.597656 2.882812 -1.625 2.9375 -1.65625 C 2.988281 -1.6875 3.019531 -1.71875 3.03125 -1.75 C 3.050781 -1.789062 3.0625 -1.832031 3.0625 -1.875 C 3.0625 -1.90625 3.050781 -1.941406 3.03125 -1.984375 C 3.019531 -2.023438 2.988281 -2.054688 2.9375 -2.078125 C 2.882812 -2.109375 2.800781 -2.132812 2.6875 -2.15625 C 2.582031 -2.175781 2.429688 -2.1875 2.234375 -2.1875 L 1.546875 -2.1875 Z M 1.546875 -1.546875 "/></g></g></g><path stroke-linecap="butt" transform="matrix(0.00470529, -0.10501, 0.10501, 0.00470529, 39.814536, 36.947223)" fill="none" stroke-linejoin="miter" d="M 21.188272 20.011392 L 1.80655 19.987077 L 1.791629 3.880617 L 20.316164 3.868943 L 20.310197 7.886693 L 8.553943 7.855485 L 8.555686 10.384933 L 18.487855 10.386278 L 18.47909 13.511379 L 8.54692 13.510034 L 8.547 16.002358 L 21.195903 16.030767 Z M 21.188272 20.011392 " stroke="#808080" stroke-width="3.508629" stroke-opacity="1" stroke-miterlimit="4"/><path stroke-linecap="butt" transform="matrix(0.0346958, -0.099224, 0.099224, 0.0346958, 40.035636, 34.051249)" fill="none" stroke-linejoin="miter" d="M 10.666637 20.358571 C 8.456896 20.343893 6.725995 20.122411 5.379241 19.6485 C 4.032488 19.174589 3.024258 18.542937 2.342285 17.718468 C 1.625233 16.906264 1.176546 15.960853 0.9138 14.871688 L 8.118269 14.872045 C 8.623129 15.640342 9.498151 16.003628 10.650366 16.03378 C 11.790316 16.028853 12.642756 15.652043 13.195422 14.868272 C 13.218235 14.820927 13.26386 14.726237 13.251594 14.691158 C 13.260422 14.491231 12.964086 14.319275 12.457276 14.220916 C 11.915388 14.134823 11.103415 14.064434 10.056437 13.997484 C 8.692029 13.923426 7.303089 13.77921 5.807192 13.55429 C 2.520784 13.049996 0.879645 11.734191 0.883775 9.606874 C 0.892603 9.406948 0.913696 9.2421 0.922524 9.042173 C 1.177134 7.968943 1.633391 7.022044 2.326372 6.189208 C 3.03162 5.391451 4.056016 4.718306 5.389015 4.252195 C 6.722013 3.786084 8.458304 3.572633 10.655778 3.552232 C 12.818173 3.544097 14.59642 3.788391 15.908094 4.274569 C 17.242581 4.713401 18.263078 5.380131 18.945051 6.204601 C 19.662103 7.016804 20.11079 7.962216 20.361269 9.016302 L 13.204145 9.038757 C 12.651941 8.247647 11.811997 7.872095 10.636969 7.889289 C 9.49702 7.894216 8.64458 8.271026 8.114727 9.007452 C 8.069101 9.102142 8.046288 9.149487 8.058554 9.184566 C 8.049727 9.384492 8.286452 9.498557 8.82834 9.58465 C 9.33515 9.683009 10.112044 9.765664 11.076598 9.822067 C 12.076232 9.866204 13.135476 9.968233 14.289411 10.115887 C 15.431079 10.228463 16.46923 10.49534 17.449489 10.821827 C 18.429749 11.148315 19.224067 11.618557 19.774552 12.292164 C 20.181282 12.77983 20.402072 13.411251 20.401841 14.198691 C 20.40528 14.433697 20.396452 14.633624 20.364812 14.880895 C 20.110201 15.954125 19.653945 16.901025 18.948697 17.698782 C 18.255716 18.531617 17.254132 19.157418 15.9334 19.658608 C 14.600402 20.124719 12.829032 20.350436 10.666637 20.358571 Z M 10.666637 20.358571 " stroke="#808080" stroke-width="3.508629" stroke-opacity="1" stroke-miterlimit="4"/><path stroke-linecap="butt" transform="matrix(0.06102, -0.0855906, 0.0855906, 0.06102, 41.04231, 31.429018)" fill="none" stroke-linejoin="miter" d="M 13.752485 20.005271 L 6.987453 19.990549 L 6.968114 7.864425 L 0.678252 7.87605 L 0.655929 3.875754 L 20.052516 3.875911 L 20.074839 7.876207 L 13.733146 7.879146 Z M 13.752485 20.005271 " stroke="#808080" stroke-width="3.508629" stroke-opacity="1" stroke-miterlimit="4"/><path stroke-linecap="butt" transform="matrix(0.0842975, -0.0627943, 0.0627943, 0.0842975, 42.710605, 29.183771)" fill="none" stroke-linejoin="miter" d="M 12.592328 19.989667 L 1.785713 20.002644 L 1.792552 3.881824 L 12.576967 3.898649 C 16.984336 3.891695 20.152479 4.490808 22.088997 5.747989 C 23.63809 6.716572 24.526972 8.073793 24.755641 9.819653 C 24.862071 10.547677 24.886697 11.261103 24.881521 11.95233 C 24.898544 12.613755 24.871168 13.334784 24.769591 14.093216 C 24.668013 14.851649 24.425028 15.551084 23.996236 16.251126 C 23.619446 16.943566 22.967443 17.570013 22.070028 18.152666 C 21.194814 18.705518 19.984783 19.147977 18.469737 19.502244 C 16.924889 19.83431 14.985621 20.011584 12.592328 19.989667 Z M 11.932765 16.022938 C 15.381296 15.996816 17.325741 15.128315 17.766098 13.417434 C 17.905686 12.91901 17.941271 12.43579 17.947053 11.930371 C 17.930636 11.454753 17.884417 10.956936 17.763996 10.496522 C 17.635974 9.984107 17.38935 9.568699 16.98672 9.176098 C 16.584091 8.783497 15.981057 8.473306 15.177619 8.245526 C 14.366578 7.965743 13.288532 7.857777 11.935881 7.869624 L 8.561551 7.858341 L 8.558435 16.011655 Z M 11.932765 16.022938 " stroke="#808080" stroke-width="3.508629" stroke-opacity="1" stroke-miterlimit="4"/><path stroke-linecap="butt" transform="matrix(0.100763, -0.0299324, 0.0299324, 0.100763, 46.210592, 27.032755)" fill="none" stroke-linejoin="miter" d="M 11.074325 20.021924 L 4.300596 19.986842 L 4.299831 7.852677 L 0.690584 7.865993 L 0.67622 3.868768 L 11.059197 3.890535 Z M 11.074325 20.021924 " stroke="#808080" stroke-width="3.508629" stroke-opacity="1" stroke-miterlimit="4"/><path stroke-linecap="butt" transform="matrix(0.104955, -0.00580551, 0.00580551, 0.104955, 47.985682, 26.511759)" fill="none" stroke-linejoin="miter" d="M 10.288968 20.331732 C 8.613091 20.350687 7.207209 20.198484 6.034219 19.873072 C 4.824125 19.545608 3.877869 19.1583 3.125348 18.632835 C 2.372826 18.10737 1.807882 17.555063 1.43462 16.901703 C 1.059305 16.285447 0.908672 15.644402 0.90851 14.974461 L 7.271921 14.991483 C 7.257554 15.251218 7.352449 15.554214 7.521554 15.861316 C 7.690659 16.168417 8.012288 16.409518 8.447285 16.619672 C 8.882282 16.829826 9.50896 16.938927 10.290216 16.944923 C 11.481677 16.936391 12.314405 16.684706 12.860555 16.231076 C 13.408758 15.740342 13.668331 15.084768 13.674327 14.303513 C 12.7756 14.402674 11.76761 14.458573 10.687463 14.473262 C 8.23033 14.486221 6.309085 14.231075 4.88457 13.742876 C 3.460056 13.254677 2.453957 12.60353 1.831223 11.750279 C 1.206436 10.934132 0.884645 10.02309 0.902956 9.019205 C 0.884162 8.013268 1.195207 7.100012 1.836091 6.279438 C 2.439871 5.456812 3.482752 4.77013 4.88642 4.289496 C 6.327193 3.810915 8.240067 3.544541 10.658043 3.566634 C 12.70497 3.568203 14.477796 3.81514 15.939415 4.305391 C 17.401034 4.795643 18.518447 5.452946 19.291654 6.277303 C 20.064861 7.101659 20.423756 8.014754 20.44255 9.020691 C 20.436876 11.141828 20.301254 12.920811 20.07279 14.359692 C 19.80722 15.796521 19.333388 16.961301 18.614189 17.85198 C 17.89499 18.742659 16.856214 19.355131 15.530861 19.76566 C 14.20756 20.139083 12.44721 20.339458 10.288968 20.331732 Z M 10.674343 11.346188 C 11.604018 11.360394 12.245064 11.209761 12.667585 10.972603 C 13.092158 10.698341 13.368312 10.415869 13.500151 10.050977 C 13.63199 9.686085 13.687567 9.354194 13.668934 9.018197 C 13.687406 8.684253 13.631668 8.346204 13.50172 8.00405 C 13.373825 7.624791 13.093405 7.311533 12.697566 7.066326 C 12.264621 6.819068 11.600838 6.707914 10.671163 6.693708 C 9.741488 6.679502 9.063338 6.828083 8.640817 7.06524 C 8.218296 7.302398 7.94009 7.621975 7.845355 7.988919 C 7.713516 8.353811 7.657939 8.685703 7.676572 9.021699 C 7.658101 9.355643 7.713838 9.693692 7.843786 10.035846 C 7.934577 10.413052 8.214996 10.726311 8.64794 10.97357 C 9.080885 11.220828 9.744668 11.331982 10.674343 11.346188 Z M 10.674343 11.346188 " stroke="#808080" stroke-width="3.508629" stroke-opacity="1" stroke-miterlimit="4"/><path stroke-linecap="butt" transform="matrix(0.102307, 0.0241352, -0.0241352, 0.102307, 50.802435, 26.438843)" fill="none" stroke-linejoin="miter" d="M 10.284015 20.355255 C 8.643431 20.360468 7.194262 20.205979 6.008846 19.874723 C 4.831963 19.579636 3.855026 19.161016 3.122739 18.6465 C 2.354284 18.140515 1.794308 17.547167 1.451345 16.902622 C 1.072213 16.266611 0.882458 15.624105 0.890612 15.011274 L 7.26357 14.996916 C 7.250961 15.267163 7.35539 15.547981 7.504521 15.856434 C 7.68982 16.156356 8.019795 16.422147 8.449744 16.626171 C 8.879692 16.830196 9.481952 16.955389 10.28416 16.957048 C 11.46512 16.94572 12.324639 16.704769 12.862715 16.234196 C 13.392258 15.727454 13.662126 15.091064 13.672319 14.325026 C 12.77867 14.421301 11.75945 14.470837 10.650827 14.4651 C 8.244204 14.460121 6.318347 14.227179 4.900892 13.721574 C 3.4558 13.260669 2.455304 12.580335 1.844133 11.769974 C 1.188261 10.931976 0.894076 10.008653 0.889242 9.017069 C 0.884407 8.025485 1.203053 7.110315 1.809012 6.280093 C 2.451139 5.441338 3.478513 4.778971 4.891134 4.292993 C 6.303755 3.807015 8.227195 3.544164 10.669986 3.540611 C 12.697856 3.558578 14.470505 3.789482 15.924129 4.286555 C 17.377754 4.783628 18.486756 5.438364 19.295836 6.2784 C 20.060215 7.0908 20.43527 8.033227 20.440104 9.024811 C 20.439202 11.125018 20.325337 12.908238 20.05381 14.346836 C 19.790815 15.821603 19.333987 16.960279 18.628055 17.852268 C 17.877422 18.716621 16.886217 19.370455 15.528868 19.76703 C 14.207688 20.155073 12.456559 20.339092 10.284015 20.355255 Z M 10.674531 11.328608 C 11.593777 11.340839 12.253348 11.223421 12.689412 10.967822 C 13.125476 10.712224 13.3998 10.418418 13.50385 10.050236 C 13.607901 9.682054 13.675783 9.322404 13.67986 9.015989 C 13.683937 8.709573 13.63478 8.339353 13.513285 7.986197 C 13.391791 7.633042 13.125621 7.314017 12.68714 7.073824 C 12.248659 6.83363 11.601697 6.680801 10.690984 6.704739 C 9.735568 6.701041 9.075998 6.818459 8.639934 7.074058 C 8.240038 7.321124 7.965715 7.61493 7.825495 7.991644 C 7.721445 8.359826 7.64503 8.683307 7.649486 9.025891 C 7.645409 9.332307 7.730735 9.693995 7.852229 10.04715 C 7.937555 10.408838 8.239894 10.71933 8.642206 10.968056 C 9.080687 11.208249 9.763817 11.352546 10.674531 11.328608 Z M 10.674531 11.328608 " stroke="#808080" stroke-width="3.508629" stroke-opacity="1" stroke-miterlimit="4"/><path stroke-linecap="butt" transform="matrix(0.0912936, 0.0521025, -0.0521025, 0.0912936, 53.524666, 27.166081)" fill="none" stroke-linejoin="miter" d="M 10.27121 20.344872 C 8.607237 20.353193 7.183045 20.181879 6.017056 19.863206 C 4.818792 19.562953 3.864874 19.166035 3.104608 18.658599 C 2.358197 18.100467 1.796147 17.565481 1.427749 16.919975 C 1.05935 16.27447 0.907588 15.633691 0.889492 15.002203 L 7.264199 15.001033 C 7.245618 15.268364 7.360702 15.544986 7.544901 15.867739 C 7.71068 16.158216 7.991705 16.425709 8.452527 16.633378 C 8.881073 16.859466 9.48485 16.94276 10.300699 16.94781 C 11.46685 16.966876 12.333556 16.686174 12.873107 16.207095 C 13.412657 15.728016 13.694167 15.096689 13.666941 14.29926 C 12.791106 14.41402 11.763185 14.487215 10.680005 14.463584 C 8.250877 14.480711 6.305879 14.221538 4.881849 13.750618 C 3.471675 13.229003 2.421093 12.587739 1.826929 11.771566 C 1.214346 10.923118 0.915224 10.024137 0.892725 9.010072 C 0.888645 8.028282 1.221012 7.111204 1.806855 6.263403 C 2.443393 5.429457 3.457781 4.807744 4.877731 4.296875 C 6.316101 3.81828 8.265988 3.561209 10.66284 3.562503 C 12.709391 3.549779 14.470029 3.785805 15.912478 4.289 C 17.387203 4.773776 18.5069 5.461171 19.267005 6.268214 C 20.045529 7.107533 20.427621 8.001949 20.45012 9.016015 C 20.448989 11.113261 20.314353 12.901609 20.078489 14.36264 C 19.791929 15.809816 19.339591 16.966515 18.606227 17.85572 C 17.905139 18.726506 16.858475 19.366638 15.549206 19.771553 C 14.189242 20.162613 12.451427 20.341439 10.27121 20.344872 Z M 10.658637 11.352273 C 11.589732 11.334338 12.248931 11.214851 12.700785 10.956972 C 13.120363 10.717513 13.369436 10.404213 13.498699 10.030927 C 13.595686 9.67606 13.660399 9.339614 13.692836 9.021588 C 13.674577 8.689706 13.605624 8.343969 13.485975 7.984376 C 13.366327 7.624784 13.099157 7.306595 12.670611 7.080507 C 12.25592 6.803723 11.601448 6.706574 10.651933 6.692234 C 9.753113 6.691749 9.061639 6.829656 8.64206 7.069115 C 8.222482 7.308573 7.941134 7.640294 7.844146 7.99516 C 7.714883 8.368446 7.650171 8.704893 7.65001 9.004499 C 7.668268 9.336381 7.737221 9.682118 7.824595 10.06013 C 7.944243 10.419723 8.243688 10.719491 8.639959 10.964 C 9.086925 11.222363 9.759817 11.351788 10.658637 11.352273 Z M 10.658637 11.352273 " stroke="#808080" stroke-width="3.508629" stroke-opacity="1" stroke-miterlimit="4"/><g fill="#ffffff" fill-opacity="1"><g transform="translate(41.914732, 37.041329)"><g><path d="M 0.09375 -2.234375 L 0.015625 -0.1875 L -1.6875 -0.265625 L -1.609375 -2.21875 L -1.1875 -2.203125 L -1.234375 -0.96875 L -0.96875 -0.953125 L -0.921875 -2 L -0.59375 -1.984375 L -0.640625 -0.9375 L -0.375 -0.921875 L -0.328125 -2.25 Z M 0.09375 -2.234375 "/></g></g></g><g fill="#ffffff" fill-opacity="1"><g transform="translate(42.020115, 34.745164)"><g><path d="M 0.40625 -1.046875 C 0.332031 -0.828125 0.25 -0.660156 0.15625 -0.546875 C 0.0625 -0.429688 -0.0351562 -0.351562 -0.140625 -0.3125 C -0.253906 -0.269531 -0.367188 -0.257812 -0.484375 -0.28125 L -0.234375 -1 C -0.128906 -1.019531 -0.0546875 -1.085938 -0.015625 -1.203125 C 0.015625 -1.304688 0 -1.40625 -0.0625 -1.5 C -0.0625 -1.5 -0.0664062 -1.5 -0.078125 -1.5 C -0.0976562 -1.507812 -0.117188 -1.488281 -0.140625 -1.4375 C -0.171875 -1.382812 -0.207031 -1.304688 -0.25 -1.203125 C -0.300781 -1.078125 -0.363281 -0.941406 -0.4375 -0.796875 C -0.601562 -0.492188 -0.789062 -0.378906 -1 -0.453125 C -1.019531 -0.460938 -1.039062 -0.46875 -1.0625 -0.46875 C -1.15625 -0.53125 -1.226562 -0.609375 -1.28125 -0.703125 C -1.332031 -0.804688 -1.359375 -0.929688 -1.359375 -1.078125 C -1.367188 -1.234375 -1.335938 -1.421875 -1.265625 -1.640625 C -1.191406 -1.859375 -1.101562 -2.019531 -1 -2.125 C -0.90625 -2.238281 -0.804688 -2.316406 -0.703125 -2.359375 C -0.597656 -2.398438 -0.492188 -2.410156 -0.390625 -2.390625 L -0.640625 -1.6875 C -0.734375 -1.65625 -0.796875 -1.585938 -0.828125 -1.484375 C -0.867188 -1.367188 -0.863281 -1.269531 -0.8125 -1.1875 C -0.800781 -1.175781 -0.796875 -1.171875 -0.796875 -1.171875 C -0.773438 -1.160156 -0.75 -1.179688 -0.71875 -1.234375 C -0.695312 -1.285156 -0.664062 -1.359375 -0.625 -1.453125 C -0.582031 -1.546875 -0.53125 -1.644531 -0.46875 -1.75 C -0.414062 -1.863281 -0.359375 -1.960938 -0.296875 -2.046875 C -0.242188 -2.140625 -0.171875 -2.203125 -0.078125 -2.234375 C -0.00390625 -2.265625 0.0664062 -2.265625 0.140625 -2.234375 C 0.160156 -2.222656 0.175781 -2.210938 0.1875 -2.203125 C 0.289062 -2.140625 0.367188 -2.054688 0.421875 -1.953125 C 0.484375 -1.859375 0.515625 -1.738281 0.515625 -1.59375 C 0.515625 -1.445312 0.476562 -1.265625 0.40625 -1.046875 Z M 0.40625 -1.046875 "/></g></g></g><g fill="#ffffff" fill-opacity="1"><g transform="translate(42.754122, 32.649418)"><g><path d="M 0.84375 -1.1875 L 0.421875 -0.59375 L -0.625 -1.34375 L -1 -0.8125 L -1.34375 -1.046875 L -0.171875 -2.703125 L 0.171875 -2.46875 L -0.203125 -1.9375 Z M 0.84375 -1.1875 "/></g></g></g><g fill="#ffffff" fill-opacity="1"><g transform="translate(43.96649, 30.869722)"><g><path d="M 1.0625 -0.796875 L 0.15625 -0.109375 L -0.859375 -1.46875 L 0.046875 -2.15625 C 0.410156 -2.425781 0.71875 -2.570312 0.96875 -2.59375 C 1.164062 -2.613281 1.328125 -2.554688 1.453125 -2.421875 C 1.515625 -2.359375 1.566406 -2.296875 1.609375 -2.234375 C 1.648438 -2.179688 1.6875 -2.117188 1.71875 -2.046875 C 1.757812 -1.984375 1.785156 -1.90625 1.796875 -1.8125 C 1.804688 -1.726562 1.789062 -1.640625 1.75 -1.546875 C 1.707031 -1.453125 1.628906 -1.335938 1.515625 -1.203125 C 1.410156 -1.078125 1.257812 -0.941406 1.0625 -0.796875 Z M 0.75 -1.09375 C 1.039062 -1.3125 1.15625 -1.503906 1.09375 -1.671875 C 1.070312 -1.710938 1.046875 -1.753906 1.015625 -1.796875 C 0.984375 -1.835938 0.945312 -1.875 0.90625 -1.90625 C 0.863281 -1.9375 0.8125 -1.957031 0.75 -1.96875 C 0.6875 -1.988281 0.613281 -1.984375 0.53125 -1.953125 C 0.445312 -1.921875 0.347656 -1.863281 0.234375 -1.78125 L -0.03125 -1.578125 L 0.484375 -0.890625 Z M 0.75 -1.09375 "/></g></g></g><g fill="#ffffff" fill-opacity="1"><g transform="translate(46.212017, 29.340404)"><g/></g></g><g fill="#ffffff" fill-opacity="1"><g transform="translate(46.809239, 29.048022)"><g><path d="M 1.125 -0.328125 L 0.4375 -0.125 L 0.078125 -1.359375 L -0.28125 -1.25 L -0.40625 -1.640625 L 0.640625 -1.953125 Z M 1.125 -0.328125 "/></g></g></g><g fill="#ffffff" fill-opacity="1"><g transform="translate(48.101792, 28.610853)"><g><path d="M 1.078125 -0.03125 C 0.910156 -0.0195312 0.765625 -0.0234375 0.640625 -0.046875 C 0.515625 -0.078125 0.40625 -0.113281 0.3125 -0.15625 C 0.226562 -0.207031 0.164062 -0.265625 0.125 -0.328125 C 0.09375 -0.390625 0.0703125 -0.457031 0.0625 -0.53125 L 0.734375 -0.578125 C 0.734375 -0.546875 0.742188 -0.515625 0.765625 -0.484375 C 0.785156 -0.453125 0.816406 -0.425781 0.859375 -0.40625 C 0.910156 -0.382812 0.976562 -0.378906 1.0625 -0.390625 C 1.1875 -0.390625 1.273438 -0.414062 1.328125 -0.46875 C 1.378906 -0.519531 1.40625 -0.585938 1.40625 -0.671875 C 1.3125 -0.660156 1.207031 -0.648438 1.09375 -0.640625 C 0.832031 -0.628906 0.625 -0.644531 0.46875 -0.6875 C 0.320312 -0.726562 0.210938 -0.789062 0.140625 -0.875 C 0.0664062 -0.957031 0.03125 -1.050781 0.03125 -1.15625 C 0.0195312 -1.257812 0.046875 -1.359375 0.109375 -1.453125 C 0.171875 -1.546875 0.273438 -1.625 0.421875 -1.6875 C 0.566406 -1.75 0.769531 -1.785156 1.03125 -1.796875 C 1.25 -1.804688 1.429688 -1.789062 1.578125 -1.75 C 1.734375 -1.707031 1.851562 -1.644531 1.9375 -1.5625 C 2.03125 -1.476562 2.082031 -1.382812 2.09375 -1.28125 C 2.101562 -1.0625 2.097656 -0.867188 2.078125 -0.703125 C 2.066406 -0.546875 2.023438 -0.421875 1.953125 -0.328125 C 1.878906 -0.242188 1.769531 -0.175781 1.625 -0.125 C 1.488281 -0.0703125 1.304688 -0.0390625 1.078125 -0.03125 Z M 1.078125 -0.96875 C 1.171875 -0.96875 1.238281 -0.984375 1.28125 -1.015625 C 1.332031 -1.046875 1.359375 -1.082031 1.359375 -1.125 C 1.367188 -1.164062 1.375 -1.203125 1.375 -1.234375 C 1.375 -1.265625 1.363281 -1.300781 1.34375 -1.34375 C 1.332031 -1.382812 1.300781 -1.414062 1.25 -1.4375 C 1.207031 -1.457031 1.140625 -1.46875 1.046875 -1.46875 C 0.953125 -1.457031 0.878906 -1.4375 0.828125 -1.40625 C 0.785156 -1.382812 0.757812 -1.351562 0.75 -1.3125 C 0.75 -1.269531 0.75 -1.234375 0.75 -1.203125 C 0.75 -1.171875 0.753906 -1.132812 0.765625 -1.09375 C 0.785156 -1.050781 0.816406 -1.015625 0.859375 -0.984375 C 0.910156 -0.960938 0.984375 -0.957031 1.078125 -0.96875 Z M 1.078125 -0.96875 "/></g></g></g><g fill="#ffffff" fill-opacity="1"><g transform="translate(50.31973, 28.484979)"><g><path d="M 1.046875 0.28125 C 0.890625 0.238281 0.75 0.1875 0.625 0.125 C 0.507812 0.0703125 0.414062 0.0078125 0.34375 -0.0625 C 0.28125 -0.132812 0.238281 -0.207031 0.21875 -0.28125 C 0.195312 -0.351562 0.195312 -0.425781 0.21875 -0.5 L 0.875 -0.34375 C 0.863281 -0.3125 0.863281 -0.273438 0.875 -0.234375 C 0.882812 -0.203125 0.90625 -0.171875 0.9375 -0.140625 C 0.976562 -0.109375 1.039062 -0.0820312 1.125 -0.0625 C 1.25 -0.03125 1.34375 -0.03125 1.40625 -0.0625 C 1.476562 -0.101562 1.523438 -0.164062 1.546875 -0.25 C 1.441406 -0.257812 1.332031 -0.273438 1.21875 -0.296875 C 0.96875 -0.359375 0.773438 -0.429688 0.640625 -0.515625 C 0.515625 -0.609375 0.429688 -0.703125 0.390625 -0.796875 C 0.347656 -0.898438 0.335938 -1.003906 0.359375 -1.109375 C 0.378906 -1.210938 0.429688 -1.296875 0.515625 -1.359375 C 0.597656 -1.429688 0.71875 -1.472656 0.875 -1.484375 C 1.03125 -1.503906 1.234375 -1.484375 1.484375 -1.421875 C 1.703125 -1.378906 1.878906 -1.3125 2.015625 -1.21875 C 2.148438 -1.132812 2.242188 -1.039062 2.296875 -0.9375 C 2.359375 -0.832031 2.378906 -0.726562 2.359375 -0.625 C 2.304688 -0.414062 2.25 -0.234375 2.1875 -0.078125 C 2.125 0.0664062 2.046875 0.171875 1.953125 0.234375 C 1.859375 0.296875 1.738281 0.332031 1.59375 0.34375 C 1.457031 0.351562 1.273438 0.332031 1.046875 0.28125 Z M 1.296875 -0.609375 C 1.390625 -0.585938 1.460938 -0.582031 1.515625 -0.59375 C 1.566406 -0.613281 1.601562 -0.644531 1.625 -0.6875 C 1.644531 -0.726562 1.660156 -0.765625 1.671875 -0.796875 C 1.679688 -0.828125 1.6875 -0.863281 1.6875 -0.90625 C 1.6875 -0.945312 1.664062 -0.984375 1.625 -1.015625 C 1.582031 -1.054688 1.515625 -1.085938 1.421875 -1.109375 C 1.328125 -1.140625 1.253906 -1.144531 1.203125 -1.125 C 1.160156 -1.113281 1.128906 -1.085938 1.109375 -1.046875 C 1.085938 -1.003906 1.070312 -0.96875 1.0625 -0.9375 C 1.050781 -0.90625 1.046875 -0.867188 1.046875 -0.828125 C 1.046875 -0.785156 1.0625 -0.742188 1.09375 -0.703125 C 1.132812 -0.671875 1.203125 -0.640625 1.296875 -0.609375 Z M 1.296875 -0.609375 "/></g></g></g><g fill="#ffffff" fill-opacity="1"><g transform="translate(52.482616, 28.991954)"><g><path d="M 0.921875 0.5625 C 0.773438 0.476562 0.65625 0.390625 0.5625 0.296875 C 0.46875 0.210938 0.394531 0.125 0.34375 0.03125 C 0.300781 -0.0507812 0.28125 -0.128906 0.28125 -0.203125 C 0.28125 -0.273438 0.300781 -0.347656 0.34375 -0.421875 L 0.9375 -0.09375 C 0.914062 -0.0625 0.898438 -0.03125 0.890625 0 C 0.890625 0.0390625 0.90625 0.0820312 0.9375 0.125 C 0.96875 0.164062 1.019531 0.207031 1.09375 0.25 C 1.195312 0.3125 1.285156 0.335938 1.359375 0.328125 C 1.441406 0.316406 1.503906 0.273438 1.546875 0.203125 C 1.453125 0.160156 1.359375 0.113281 1.265625 0.0625 C 1.035156 -0.0703125 0.867188 -0.195312 0.765625 -0.3125 C 0.671875 -0.4375 0.613281 -0.550781 0.59375 -0.65625 C 0.582031 -0.769531 0.601562 -0.867188 0.65625 -0.953125 C 0.707031 -1.046875 0.785156 -1.113281 0.890625 -1.15625 C 0.992188 -1.207031 1.117188 -1.21875 1.265625 -1.1875 C 1.421875 -1.15625 1.613281 -1.070312 1.84375 -0.9375 C 2.03125 -0.832031 2.175781 -0.722656 2.28125 -0.609375 C 2.382812 -0.492188 2.453125 -0.375 2.484375 -0.25 C 2.515625 -0.132812 2.503906 -0.03125 2.453125 0.0625 C 2.335938 0.25 2.226562 0.40625 2.125 0.53125 C 2.03125 0.65625 1.925781 0.734375 1.8125 0.765625 C 1.695312 0.804688 1.566406 0.8125 1.421875 0.78125 C 1.285156 0.75 1.117188 0.675781 0.921875 0.5625 Z M 1.4375 -0.21875 C 1.507812 -0.175781 1.570312 -0.15625 1.625 -0.15625 C 1.675781 -0.15625 1.71875 -0.171875 1.75 -0.203125 C 1.78125 -0.234375 1.804688 -0.257812 1.828125 -0.28125 C 1.835938 -0.3125 1.847656 -0.347656 1.859375 -0.390625 C 1.867188 -0.429688 1.859375 -0.472656 1.828125 -0.515625 C 1.804688 -0.566406 1.757812 -0.613281 1.6875 -0.65625 C 1.601562 -0.707031 1.53125 -0.734375 1.46875 -0.734375 C 1.414062 -0.734375 1.375 -0.71875 1.34375 -0.6875 C 1.3125 -0.65625 1.289062 -0.625 1.28125 -0.59375 C 1.257812 -0.570312 1.242188 -0.539062 1.234375 -0.5 C 1.222656 -0.457031 1.234375 -0.410156 1.265625 -0.359375 C 1.296875 -0.316406 1.351562 -0.269531 1.4375 -0.21875 Z M 1.4375 -0.21875 "/></g></g></g></svg>