<svg xmlns="http://www.w3.org/2000/svg" xmlns:xlink="http://www.w3.org/1999/xlink" width="120" zoomAndPan="magnify" viewBox="0 0 90 89.999999" height="120" preserveAspectRatio="xMidYMid meet" version="1.0"><defs><g/><clipPath id="285bad47d4"><path d="M 30.386719 19.171875 L 59.636719 19.171875 L 59.636719 60.421875 L 30.386719 60.421875 Z M 30.386719 19.171875 " clip-rule="nonzero"/></clipPath></defs><rect x="-9" width="108" fill="#ffffff" y="-9" height="107.999999" fill-opacity="1"/><rect x="-9" width="108" fill="#010101" y="-9" height="107.999999" fill-opacity="1"/><g clip-path="url(#285bad47d4)"><path fill="#010101" d="M 57.71875 41.476562 C 57.683594 41.410156 57.660156 41.375 57.660156 41.375 L 57.691406 41.382812 C 57.847656 40.6875 57.855469 39.992188 57.71875 39.292969 C 58.410156 39.140625 59.050781 38.863281 59.636719 38.457031 C 59.007812 38.21875 58.433594 37.886719 57.910156 37.464844 C 57.414062 37.042969 56.960938 36.574219 56.558594 36.0625 L 57.859375 36.453125 L 56.472656 33.90625 C 55.984375 33.289062 55.386719 32.8125 54.671875 32.480469 L 54.421875 32.375 L 54.394531 32.363281 C 54.671875 32.105469 55.140625 31.746094 55.914062 31.328125 C 54.738281 30.625 53.414062 30.652344 52.679688 30.742188 C 52.519531 30.757812 52.359375 30.785156 52.199219 30.820312 C 52.140625 30.832031 52.109375 30.839844 52.109375 30.839844 C 52.140625 30.71875 52.160156 30.597656 52.164062 30.472656 L 52.167969 30.304688 L 52.324219 29.710938 L 53.515625 26.992188 L 53.171875 26.464844 L 53.902344 26.101562 L 55.875 21.597656 L 48.53125 24.671875 L 45.9375 20.894531 L 45.011719 19.191406 L 44.082031 20.894531 L 41.492188 24.671875 L 34.144531 21.597656 L 36.117188 26.101562 L 36.851562 26.464844 L 36.507812 26.992188 L 37.699219 29.714844 L 37.855469 30.304688 L 37.863281 30.472656 C 37.867188 30.597656 37.886719 30.722656 37.914062 30.84375 C 37.914062 30.84375 37.882812 30.835938 37.824219 30.820312 C 37.667969 30.785156 37.507812 30.757812 37.34375 30.742188 C 36.609375 30.652344 35.289062 30.628906 34.113281 31.328125 C 34.882812 31.746094 35.351562 32.105469 35.632812 32.367188 L 35.601562 32.375 L 35.351562 32.480469 C 34.640625 32.8125 34.042969 33.289062 33.554688 33.90625 L 32.164062 36.453125 L 33.46875 36.066406 C 33.0625 36.578125 32.613281 37.042969 32.117188 37.464844 C 31.589844 37.886719 31.015625 38.21875 30.386719 38.457031 C 30.96875 38.863281 31.609375 39.140625 32.304688 39.292969 C 32.164062 39.992188 32.171875 40.6875 32.332031 41.382812 L 32.359375 41.375 C 32.359375 41.375 32.339844 41.410156 32.300781 41.476562 C 31.898438 42.171875 31.632812 43.054688 31.507812 44.132812 C 31.359375 45.125 31.289062 46.398438 31.425781 47.96875 C 31.800781 47.644531 32.085938 47.394531 32.300781 47.199219 C 32.292969 47.253906 32.28125 47.3125 32.269531 47.371094 C 32.246094 47.46875 31.871094 49.101562 31.425781 50.726562 C 32.066406 50.351562 32.671875 49.929688 33.242188 49.453125 C 33.234375 49.585938 33.234375 49.71875 33.234375 49.851562 C 33.265625 52.078125 34.578125 53.488281 34.632812 53.546875 L 34.972656 53.902344 L 35.28125 54.226562 L 36.132812 55.128906 C 36.132812 55.128906 36.332031 57.273438 38.699219 59.296875 L 38.804688 58.433594 C 39.101562 58.820312 39.488281 59.292969 39.734375 59.492188 C 39.742188 59.472656 39.804688 57.964844 39.863281 57.738281 C 40.15625 58.34375 40.8125 59.226562 42.257812 59.730469 C 42.179688 59.417969 42.117188 59.152344 42.066406 58.933594 C 42.289062 59.167969 42.570312 59.453125 42.824219 59.691406 C 42.976562 59.855469 43.144531 60.007812 43.324219 60.140625 C 43.351562 60.164062 43.375 60.183594 43.398438 60.195312 C 43.359375 59.761719 43.332031 59.480469 43.316406 59.292969 C 43.410156 59.371094 43.511719 59.445312 43.617188 59.519531 C 43.878906 59.84375 44.3125 60.21875 45.011719 60.402344 C 45.710938 60.21875 46.144531 59.84375 46.402344 59.519531 C 46.511719 59.445312 46.609375 59.371094 46.707031 59.292969 C 46.691406 59.480469 46.664062 59.761719 46.625 60.195312 C 46.644531 60.179688 46.667969 60.160156 46.699219 60.140625 C 46.878906 60.007812 47.042969 59.855469 47.199219 59.691406 C 47.449219 59.453125 47.730469 59.167969 47.957031 58.933594 C 47.902344 59.152344 47.839844 59.417969 47.765625 59.730469 C 49.207031 59.222656 49.867188 58.34375 50.15625 57.738281 C 50.21875 57.964844 50.277344 59.472656 50.285156 59.492188 C 50.535156 59.292969 50.917969 58.820312 51.214844 58.433594 L 51.324219 59.296875 C 53.6875 57.273438 53.886719 55.128906 53.886719 55.128906 L 54.742188 54.226562 L 55.046875 53.902344 L 55.386719 53.546875 C 55.445312 53.488281 56.757812 52.078125 56.789062 49.851562 C 56.789062 49.71875 56.789062 49.585938 56.777344 49.453125 C 57.171875 49.789062 57.753906 50.226562 58.59375 50.726562 C 58.152344 49.101562 57.777344 47.46875 57.753906 47.371094 C 57.742188 47.3125 57.730469 47.257812 57.71875 47.199219 C 57.9375 47.394531 58.222656 47.644531 58.59375 47.96875 C 58.730469 46.398438 58.664062 45.125 58.515625 44.132812 C 58.390625 43.058594 58.125 42.171875 57.71875 41.476562 Z M 57.71875 41.476562 " fill-opacity="1" fill-rule="nonzero"/></g><path fill="#dfaf67" d="M 36.824219 35.867188 C 36.816406 35.914062 36.527344 37.464844 34.941406 38.523438 C 33.332031 39.59375 33.414062 41.082031 33.414062 41.082031 C 33.414062 41.082031 32.894531 39.167969 34.398438 37.640625 C 33.523438 38.292969 32.410156 38.6875 32.378906 38.699219 C 32.429688 38.660156 34.21875 37.328125 35.023438 35.6875 C 35.023438 35.6875 35.210938 36.773438 34.972656 37.722656 C 36.28125 37.128906 36.808594 35.90625 36.824219 35.867188 Z M 36.824219 35.867188 " fill-opacity="1" fill-rule="nonzero"/><path fill="#dfaf67" d="M 41.683594 57.992188 C 41.640625 57.980469 40.277344 57.5 40.3125 54.40625 C 40.347656 51.265625 39.460938 50.265625 39.460938 50.265625 C 40.351562 53.925781 38.78125 57.417969 38.738281 57.511719 C 38.75 57.414062 39.230469 53.890625 37.90625 51.449219 C 38.277344 53.21875 37.425781 54.335938 37.761719 56.496094 C 36.71875 54.941406 37.375 51.285156 36.683594 49.640625 C 36.878906 51.871094 36.101562 54.175781 36.101562 54.175781 C 36.101562 54.175781 36.101562 50.785156 35.230469 48.652344 C 34.65625 50.667969 35.421875 52.707031 35.445312 52.761719 C 35.410156 52.726562 34.15625 51.363281 34.386719 49.265625 C 34.613281 47.140625 34.277344 45.695312 34.277344 45.695312 C 34.277344 45.695312 34.222656 46.820312 33.269531 48.054688 C 33.960938 45.160156 33.289062 44.023438 33.289062 44.023438 C 32.722656 45.363281 32.558594 46.207031 32.558594 46.207031 C 32.375 40.960938 34.714844 40.976562 34.714844 40.976562 C 34.714844 40.976562 33.625 42.511719 33.859375 44.023438 C 35.0625 40.992188 37.574219 40.632812 37.652344 40.621094 C 36.335938 41.550781 35.820312 42.636719 35.789062 42.703125 C 35.832031 42.648438 36.429688 41.835938 37.734375 41.234375 C 35.980469 42.609375 36.007812 44.542969 36.007812 44.542969 L 36.011719 44.535156 C 36.074219 44.445312 36.730469 43.453125 37.6875 42.699219 L 37.691406 42.695312 C 36.121094 44.601562 36.355469 46.8125 36.355469 46.8125 C 36.355469 46.8125 36.808594 45 37.707031 43.902344 C 36.75 46.230469 37.539062 48.679688 37.554688 48.726562 C 37.554688 48.726562 37.5625 48.371094 37.617188 47.867188 C 37.617188 47.863281 37.617188 47.859375 37.617188 47.855469 C 37.703125 47.066406 37.914062 45.929688 38.40625 45.238281 C 37.863281 48.257812 39.125 50.410156 39.125 50.410156 C 39.125 50.410156 39.125 48.660156 38.683594 47.265625 C 40.960938 49.949219 40.660156 53.855469 40.660156 53.855469 C 40.660156 53.855469 40.839844 53.210938 41.121094 52.730469 C 40.445312 56.644531 41.644531 57.953125 41.683594 57.992188 Z M 41.683594 57.992188 " fill-opacity="1" fill-rule="nonzero"/><path fill="#dfaf67" d="M 38.628906 34.738281 C 38.628906 34.738281 37.46875 34.40625 36.296875 34.648438 C 36.835938 34.785156 36.992188 34.890625 36.992188 34.890625 C 36.992188 34.890625 35.847656 34.859375 35.699219 36.390625 C 35.046875 34.828125 35.410156 34.300781 35.410156 34.300781 L 34.445312 34.585938 C 34.445312 34.585938 35.777344 32.808594 37.695312 33.359375 C 37.695312 33.359375 37.109375 32.207031 35.9375 31.933594 C 37.890625 31.554688 39.664062 32.359375 38.628906 34.738281 Z M 38.628906 34.738281 " fill-opacity="1" fill-rule="nonzero"/><path fill="#dfaf67" d="M 42.65625 40.511719 C 42.625 40.527344 41.960938 40.910156 41.359375 40.765625 C 40.757812 40.617188 40.367188 39.816406 40.355469 39.789062 L 41.445312 40.128906 L 41.445312 40.519531 L 41.480469 40.488281 L 41.761719 40.230469 L 42.65625 40.507812 Z M 42.65625 40.511719 " fill-opacity="1" fill-rule="nonzero"/><path fill="#dfaf67" d="M 42.539062 56.121094 C 42.511719 56.65625 42.597656 57.179688 42.785156 57.683594 C 42.867188 57.902344 42.972656 58.109375 43.105469 58.304688 C 42.503906 57.914062 42.191406 57.296875 42.035156 56.699219 C 41.894531 56.132812 41.851562 55.558594 41.90625 54.976562 C 42.011719 56.132812 42.285156 56.605469 42.285156 56.605469 C 42.285156 56.605469 42.226562 55.722656 42.402344 55.128906 C 42.59375 55.9375 43.429688 57.230469 43.457031 57.269531 C 43.320312 56.738281 43.460938 56.003906 43.460938 56.003906 C 43.460938 56.003906 43.46875 56.066406 43.484375 56.175781 C 43.621094 57.023438 43.878906 57.828125 44.257812 58.59375 C 42.84375 57.609375 42.554688 56.210938 42.539062 56.125 C 42.539062 56.121094 42.539062 56.121094 42.539062 56.121094 Z M 42.539062 56.121094 " fill-opacity="1" fill-rule="nonzero"/><path fill="#dfaf67" d="M 42.65625 31.183594 C 43.078125 31.394531 43.398438 31.710938 43.625 32.125 C 43.601562 32.113281 42.796875 31.6875 41.503906 31.402344 C 42.324219 32.230469 42.714844 32.804688 42.714844 32.804688 C 42.714844 32.804688 41.558594 32 40.285156 31.675781 C 39.011719 31.351562 38.980469 30.433594 38.980469 30.433594 C 38.980469 30.433594 39.621094 30.953125 41.011719 30.878906 L 40.394531 30.511719 C 40.394531 30.511719 42.449219 30.25 43.675781 30.847656 C 43.117188 30.285156 42.972656 30.050781 42.964844 30.039062 C 43.007812 30.054688 44.929688 30.625 44.964844 32.628906 C 44.964844 32.628906 44.019531 31.203125 42.65625 31.183594 Z M 42.65625 31.183594 " fill-opacity="1" fill-rule="nonzero"/><path fill="#ffffff" d="M 45.703125 44.542969 C 45.957031 44.335938 46.238281 44.296875 46.539062 44.425781 C 46.539062 44.425781 46.410156 43.949219 45.777344 44.03125 C 45.148438 44.117188 44.964844 44.078125 44.964844 44.078125 C 44.964844 44.078125 44.777344 44.113281 44.148438 44.03125 C 43.515625 43.949219 43.386719 44.425781 43.386719 44.425781 C 43.691406 44.292969 43.96875 44.335938 44.226562 44.542969 C 44.652344 44.871094 44.964844 44.847656 44.964844 44.847656 C 44.964844 44.847656 45.277344 44.871094 45.703125 44.542969 Z M 45.703125 44.542969 " fill-opacity="1" fill-rule="nonzero"/><path fill="#ffffff" d="M 46.257812 48.652344 L 46.160156 48.242188 L 46.117188 48.421875 C 45.617188 48.355469 44.964844 48.421875 44.964844 48.421875 C 44.964844 48.421875 44.308594 48.355469 43.808594 48.421875 L 43.765625 48.242188 L 43.671875 48.652344 C 43.660156 48.640625 43.449219 48.441406 43.523438 47.96875 C 43.523438 47.96875 43.855469 48.097656 44.964844 47.980469 C 46.074219 48.097656 46.40625 47.96875 46.40625 47.96875 C 46.480469 48.453125 46.257812 48.652344 46.257812 48.652344 Z M 46.257812 48.652344 " fill-opacity="1" fill-rule="nonzero"/><path fill="#dfaf67" d="M 46.363281 55.105469 C 46.800781 54.425781 46.640625 53.484375 46.640625 53.484375 C 46.640625 53.484375 46.507812 55.480469 44.964844 55.480469 C 43.425781 55.480469 43.289062 53.484375 43.289062 53.484375 C 43.289062 53.484375 43.132812 54.425781 43.570312 55.105469 C 40.746094 54.183594 41.8125 51.597656 41.8125 51.597656 C 41.8125 51.597656 41.972656 52.464844 42.722656 52.230469 C 42.132812 51.320312 42.386719 50.175781 42.386719 50.175781 C 42.796875 51.054688 43.304688 51.53125 43.609375 51.761719 C 44.410156 51.386719 44.964844 51.453125 44.964844 51.453125 C 44.964844 51.453125 45.523438 51.386719 46.324219 51.761719 C 46.628906 51.53125 47.136719 51.054688 47.546875 50.175781 C 47.546875 50.175781 47.800781 51.320312 47.210938 52.230469 C 47.960938 52.464844 48.121094 51.597656 48.121094 51.597656 C 48.121094 51.597656 49.183594 54.183594 46.363281 55.105469 Z M 46.363281 55.105469 " fill-opacity="1" fill-rule="nonzero"/><path fill="#ffffff" d="M 54.820312 40.3125 C 53.375 38.9375 53.539062 36.019531 50.25 36.101562 C 50.921875 36.554688 51.25 37.480469 51.269531 37.542969 C 51.214844 37.46875 50.15625 36.015625 48.21875 35.878906 L 48.171875 35.824219 C 47.628906 35.191406 46.851562 35.214844 46.191406 35.441406 C 46.257812 35.230469 46.496094 34.785156 47.347656 34.445312 C 48.503906 33.984375 48.761719 33.695312 48.761719 33.695312 C 48.761719 33.695312 48.957031 34.519531 47.5625 35.175781 C 47.5625 35.175781 49.175781 35.375 50.113281 34.667969 C 49.777344 35.273438 49.070312 35.644531 48.242188 35.597656 C 48.242188 35.597656 52.105469 36.890625 50.484375 33.175781 C 50.671875 34.140625 49.414062 34.484375 49.378906 34.496094 C 49.417969 34.46875 50.324219 33.800781 49.214844 32.125 C 49.015625 33.253906 46.378906 33.242188 45.699219 35.179688 C 45.613281 33.746094 46.828125 32.46875 46.828125 32.46875 C 46.828125 32.46875 45.371094 32.859375 44.964844 34.40625 C 44.554688 32.863281 43.101562 32.472656 43.101562 32.472656 C 43.101562 32.472656 44.316406 33.75 44.230469 35.179688 C 43.550781 33.246094 40.917969 33.257812 40.714844 32.132812 C 39.605469 33.808594 40.515625 34.472656 40.550781 34.5 C 40.515625 34.492188 39.261719 34.144531 39.445312 33.183594 C 37.847656 36.847656 41.589844 35.632812 41.6875 35.601562 C 40.859375 35.652344 40.152344 35.277344 39.816406 34.675781 C 40.753906 35.382812 42.367188 35.183594 42.367188 35.183594 C 40.972656 34.527344 41.167969 33.699219 41.167969 33.699219 C 41.167969 33.699219 41.425781 33.988281 42.582031 34.449219 C 43.433594 34.792969 43.671875 35.238281 43.738281 35.445312 C 43.078125 35.222656 42.300781 35.199219 41.753906 35.832031 L 41.710938 35.886719 C 39.773438 36.023438 38.714844 37.476562 38.660156 37.550781 C 38.679688 37.484375 39.007812 36.558594 39.679688 36.109375 C 36.390625 36.027344 36.554688 38.941406 35.109375 40.320312 C 37.074219 39.773438 38.320312 37.496094 38.40625 37.339844 C 38.367188 37.433594 38.015625 38.308594 37.976562 39.246094 C 38.667969 37.898438 39.722656 37.425781 40.308594 37.261719 C 39.785156 37.71875 39.300781 38.117188 38.917969 38.53125 C 38.789062 38.875 38.660156 39.839844 38.941406 40.160156 C 38.972656 40.199219 39.011719 40.226562 39.054688 40.242188 C 39.476562 40.414062 40.042969 40.191406 40.042969 40.191406 C 40.042969 40.191406 39.949219 39.5625 39.421875 39.445312 C 39.722656 39.253906 40.308594 39.027344 41.601562 39.8125 C 42.890625 40.59375 43.757812 40.03125 44.007812 39.6875 C 44.261719 39.34375 44.324219 38.785156 44.324219 38.785156 C 44.449219 39.085938 44.515625 39.398438 44.527344 39.722656 C 43.121094 40.664062 43.175781 41.726562 43.175781 41.726562 C 43.175781 41.726562 43.136719 41.449219 42.890625 41.097656 C 42.476562 41.445312 42.488281 42.136719 42.539062 42.523438 L 42.542969 42.546875 C 42.539062 42.539062 42.539062 42.527344 42.535156 42.515625 C 42.410156 42.125 42.265625 41.492188 42.445312 41.070312 C 42.457031 41.039062 42.46875 41.011719 42.488281 40.980469 C 42.433594 41 42.371094 41.011719 42.3125 41.023438 C 41.691406 41.144531 40.929688 41.011719 40.929688 41.011719 L 41.074219 41.230469 C 40.582031 41.007812 40.144531 40.472656 40.144531 40.472656 C 40.144531 40.472656 38.328125 41.601562 38.410156 42.425781 C 38.496094 43.253906 39.128906 43.949219 39.128906 43.949219 C 39.128906 43.949219 39.113281 43.796875 39.066406 43.285156 C 39.382812 44 39.628906 44.765625 39.644531 44.8125 C 39.777344 44.433594 39.890625 44.050781 39.980469 43.664062 C 40.082031 43.175781 39.886719 42.003906 39.886719 42.003906 C 39.886719 42.003906 40.4375 42.953125 41.367188 42.890625 C 40.757812 43.152344 40.207031 44.089844 40.207031 44.089844 C 40.207031 44.089844 40.238281 44.117188 41.925781 44.628906 L 41.890625 44.625 C 41.578125 44.589844 40.148438 44.347656 40.148438 44.347656 L 40.394531 45.222656 L 42.617188 45.867188 C 41.859375 45.882812 40.46875 45.738281 40.46875 45.738281 L 40.746094 46.210938 L 43.027344 46.664062 C 42.265625 46.742188 41.507812 46.746094 40.746094 46.679688 C 41.09375 46.964844 41.457031 47.214844 41.847656 47.433594 C 41.78125 47.871094 41.710938 49.09375 42.789062 49.980469 C 42.78125 48.902344 42.976562 48.117188 43.121094 47.6875 C 43.855469 47.597656 44.8125 47.277344 44.707031 46.445312 C 44.578125 45.429688 43.65625 45.453125 42.738281 45.011719 C 41.816406 44.570312 42.300781 43.484375 42.300781 43.484375 C 42.3125 43.515625 42.53125 44.152344 42.726562 44.164062 C 42.921875 44.179688 43.28125 44.035156 43.550781 43.273438 C 43.984375 43.8125 44.960938 43.664062 44.960938 43.664062 C 44.960938 43.664062 45.9375 43.8125 46.371094 43.273438 C 46.644531 44.035156 46.996094 44.179688 47.195312 44.164062 C 47.398438 44.152344 47.621094 43.484375 47.621094 43.484375 C 47.621094 43.484375 48.109375 44.566406 47.191406 45.007812 C 46.269531 45.449219 45.347656 45.425781 45.21875 46.441406 C 45.113281 47.273438 46.070312 47.59375 46.804688 47.679688 C 46.949219 48.113281 47.144531 48.894531 47.136719 49.972656 C 48.21875 49.085938 48.148438 47.863281 48.082031 47.425781 C 48.46875 47.207031 48.835938 46.957031 49.179688 46.671875 C 48.421875 46.742188 47.660156 46.734375 46.902344 46.660156 L 49.179688 46.203125 L 49.460938 45.730469 C 49.460938 45.730469 48.074219 45.878906 47.3125 45.863281 L 49.539062 45.21875 L 49.785156 44.34375 C 49.785156 44.34375 48.207031 44.613281 48.003906 44.625 C 49.6875 44.117188 49.722656 44.085938 49.722656 44.085938 C 49.722656 44.085938 49.167969 43.152344 48.5625 42.890625 C 49.488281 42.953125 50.042969 42.003906 50.042969 42.003906 C 50.042969 42.003906 49.84375 43.171875 49.949219 43.660156 C 50.039062 44.050781 50.148438 44.433594 50.28125 44.808594 C 50.28125 44.808594 50.535156 44.019531 50.863281 43.28125 C 50.8125 43.792969 50.800781 43.941406 50.800781 43.941406 C 50.800781 43.941406 51.433594 43.246094 51.515625 42.421875 C 51.597656 41.597656 49.785156 40.46875 49.785156 40.46875 C 49.785156 40.46875 49.347656 41.007812 48.855469 41.226562 L 49 41.007812 C 49 41.007812 48.085938 41.164062 47.441406 40.976562 C 47.6875 41.40625 47.519531 42.125 47.386719 42.542969 C 47.4375 42.160156 47.464844 41.445312 47.039062 41.085938 C 46.792969 41.4375 46.753906 41.714844 46.753906 41.714844 C 46.753906 41.714844 46.808594 40.652344 45.402344 39.710938 C 45.414062 39.386719 45.480469 39.074219 45.605469 38.773438 C 45.605469 38.773438 45.667969 39.332031 45.921875 39.675781 C 46.171875 40.019531 47.039062 40.585938 48.328125 39.800781 C 49.621094 39.015625 50.207031 39.242188 50.507812 39.4375 C 49.980469 39.550781 49.886719 40.179688 49.886719 40.179688 C 49.886719 40.179688 50.453125 40.40625 50.875 40.234375 C 51.296875 40.058594 51.15625 38.90625 51.011719 38.519531 C 50.628906 38.105469 50.144531 37.707031 49.621094 37.25 C 50.207031 37.410156 51.257812 37.886719 51.957031 39.234375 C 51.917969 38.296875 51.5625 37.421875 51.523438 37.328125 C 51.609375 37.488281 52.855469 39.765625 54.820312 40.3125 Z M 44.964844 38.578125 C 44.964844 38.578125 44.296875 37.773438 44.160156 37.195312 C 44.402344 37.566406 44.964844 37.792969 44.964844 37.792969 C 44.964844 37.792969 45.527344 37.566406 45.765625 37.195312 C 45.628906 37.773438 44.964844 38.578125 44.964844 38.578125 Z M 44.964844 38.578125 " fill-opacity="1" fill-rule="nonzero"/><path fill="#dfaf67" d="M 54.957031 37.726562 C 53.621094 37.121094 53.101562 35.867188 53.101562 35.867188 C 53.101562 35.867188 53.375 37.453125 54.984375 38.527344 C 56.59375 39.597656 56.511719 41.085938 56.511719 41.085938 C 56.511719 41.085938 57.03125 39.171875 55.53125 37.644531 C 56.417969 38.304688 57.550781 38.703125 57.550781 38.703125 C 57.550781 38.703125 55.722656 37.355469 54.902344 35.691406 C 54.902344 35.6875 54.71875 36.773438 54.957031 37.726562 Z M 54.957031 37.726562 " fill-opacity="1" fill-rule="nonzero"/><path fill="#dfaf67" d="M 55.210938 40.976562 C 55.210938 40.976562 56.300781 42.511719 56.070312 44.023438 C 54.847656 40.945312 52.273438 40.621094 52.273438 40.621094 C 53.632812 41.582031 54.136719 42.707031 54.136719 42.707031 C 54.136719 42.707031 53.542969 41.859375 52.191406 41.234375 C 53.945312 42.609375 53.914062 44.542969 53.914062 44.542969 C 53.914062 44.542969 53.242188 43.488281 52.234375 42.695312 C 53.804688 44.597656 53.570312 46.808594 53.570312 46.808594 C 53.570312 46.808594 53.113281 45.003906 52.21875 43.902344 C 53.183594 46.253906 52.371094 48.730469 52.371094 48.730469 C 52.371094 48.730469 52.328125 46.378906 51.519531 45.238281 C 52.058594 48.257812 50.796875 50.410156 50.796875 50.410156 C 50.796875 50.410156 50.796875 48.660156 51.238281 47.265625 C 48.964844 49.945312 49.261719 53.851562 49.261719 53.851562 C 49.261719 53.851562 49.085938 53.210938 48.800781 52.730469 C 49.492188 56.710938 48.242188 57.992188 48.242188 57.992188 C 48.242188 57.992188 49.652344 57.546875 49.617188 54.40625 C 49.578125 51.265625 50.464844 50.265625 50.464844 50.265625 C 49.5625 53.976562 51.191406 57.511719 51.191406 57.511719 C 51.191406 57.511719 50.679688 53.925781 52.023438 51.449219 C 51.648438 53.21875 52.5 54.335938 52.164062 56.496094 C 53.207031 54.941406 52.554688 51.285156 53.246094 49.640625 C 53.050781 51.871094 53.828125 54.175781 53.828125 54.175781 C 53.828125 54.175781 53.828125 50.785156 54.695312 48.652344 C 55.28125 50.699219 54.480469 52.765625 54.480469 52.765625 C 54.480469 52.765625 55.773438 51.390625 55.542969 49.265625 C 55.3125 47.140625 55.652344 45.695312 55.652344 45.695312 C 55.652344 45.695312 55.703125 46.820312 56.660156 48.054688 C 55.96875 45.160156 56.640625 44.023438 56.640625 44.023438 C 57.207031 45.363281 57.367188 46.207031 57.367188 46.207031 C 57.550781 40.960938 55.210938 40.976562 55.210938 40.976562 Z M 55.210938 40.976562 " fill-opacity="1" fill-rule="nonzero"/><path fill="#dfaf67" d="M 53.632812 34.648438 C 53.089844 34.785156 52.9375 34.890625 52.9375 34.890625 C 52.9375 34.890625 54.082031 34.859375 54.230469 36.394531 C 54.878906 34.828125 54.519531 34.300781 54.519531 34.300781 L 55.480469 34.589844 C 55.480469 34.589844 54.148438 32.808594 52.230469 33.359375 C 52.230469 33.359375 52.820312 32.207031 53.992188 31.933594 C 52.035156 31.558594 50.261719 32.359375 51.300781 34.738281 C 51.300781 34.738281 52.457031 34.40625 53.632812 34.648438 Z M 53.632812 34.648438 " fill-opacity="1" fill-rule="nonzero"/><path fill="#ffffff" d="M 46.148438 51.046875 C 45.429688 50.941406 44.960938 51 44.960938 51 C 44.960938 51 44.492188 50.9375 43.773438 51.046875 C 43.523438 50.683594 43.554688 50.402344 43.554688 50.402344 L 43.875 50.652344 C 44.1875 50.621094 44.960938 50.613281 44.960938 50.613281 C 44.960938 50.613281 45.734375 50.621094 46.046875 50.652344 L 46.367188 50.402344 C 46.367188 50.402344 46.402344 50.683594 46.148438 51.046875 Z M 46.148438 51.046875 " fill-opacity="1" fill-rule="nonzero"/><path fill="#dfaf67" d="M 48.167969 40.230469 L 47.269531 40.511719 C 47.269531 40.511719 47.953125 40.917969 48.570312 40.765625 C 49.183594 40.617188 49.570312 39.789062 49.570312 39.789062 L 48.480469 40.132812 L 48.480469 40.519531 Z M 48.167969 40.230469 " fill-opacity="1" fill-rule="nonzero"/><path fill="#dfaf67" d="M 47.644531 56.601562 C 47.644531 56.601562 47.703125 55.71875 47.523438 55.125 C 47.332031 55.949219 46.472656 57.269531 46.472656 57.269531 C 46.609375 56.738281 46.46875 56 46.46875 56 C 46.347656 56.910156 46.078125 57.773438 45.667969 58.589844 C 47.132812 57.578125 47.390625 56.121094 47.390625 56.121094 C 47.390625 56.121094 47.488281 57.304688 46.824219 58.304688 C 48.316406 57.335938 48.023438 54.972656 48.023438 54.972656 C 47.914062 56.128906 47.644531 56.601562 47.644531 56.601562 Z M 47.644531 56.601562 " fill-opacity="1" fill-rule="nonzero"/><path fill="#dfaf67" d="M 47.269531 31.183594 C 46.566406 31.550781 46.300781 32.125 46.300781 32.125 C 46.300781 32.125 47.109375 31.695312 48.421875 31.402344 C 47.601562 32.230469 47.210938 32.804688 47.210938 32.804688 C 47.210938 32.804688 48.367188 32 49.640625 31.675781 C 50.914062 31.355469 50.945312 30.433594 50.945312 30.433594 C 50.945312 30.433594 50.304688 30.953125 48.914062 30.878906 L 49.53125 30.511719 C 49.53125 30.511719 47.476562 30.25 46.25 30.847656 C 46.828125 30.265625 46.960938 30.039062 46.960938 30.039062 C 46.960938 30.039062 44.996094 30.597656 44.964844 32.625 C 44.964844 32.628906 45.90625 31.203125 47.269531 31.183594 Z M 47.269531 31.183594 " fill-opacity="1" fill-rule="nonzero"/><path fill="#dfaf67" d="M 53.625 23.726562 L 49.722656 25.359375 L 50.554688 27.210938 L 48.375 28.226562 L 45.777344 26.84375 L 47.445312 25.210938 L 44.964844 21.597656 L 42.488281 25.210938 L 44.152344 26.84375 L 41.554688 28.226562 L 39.371094 27.210938 L 40.203125 25.359375 L 36.304688 23.726562 L 36.980469 25.265625 L 38.484375 26.015625 L 37.78125 27.097656 L 38.976562 29.835938 L 39.050781 29.835938 C 40.5625 29.042969 42.65625 28.550781 44.964844 28.550781 C 47.273438 28.550781 49.363281 29.042969 50.878906 29.835938 L 50.949219 29.835938 L 52.148438 27.097656 L 51.445312 26.015625 L 52.949219 25.265625 Z M 44.082031 24.789062 L 44.964844 23.558594 L 45.84375 24.789062 L 44.964844 25.519531 Z M 44.082031 24.789062 " fill-opacity="1" fill-rule="nonzero"/><path fill="#ba8238" d="M 38.738281 57.511719 C 38.75 57.414062 39.230469 53.890625 37.90625 51.449219 C 38.277344 53.21875 37.425781 54.335938 37.761719 56.496094 C 36.71875 54.941406 37.375 51.285156 36.683594 49.640625 C 36.878906 51.871094 36.101562 54.175781 36.101562 54.175781 C 36.101562 54.175781 36.101562 50.785156 35.230469 48.652344 C 34.65625 50.667969 35.421875 52.707031 35.445312 52.761719 C 35.410156 52.726562 34.15625 51.363281 34.386719 49.265625 C 34.613281 47.144531 34.277344 45.695312 34.277344 45.695312 C 34.277344 45.695312 34.222656 46.820312 33.269531 48.054688 C 33.960938 45.160156 33.289062 44.023438 33.289062 44.023438 C 32.722656 45.363281 32.558594 46.207031 32.558594 46.207031 C 32.378906 40.960938 34.71875 40.976562 34.71875 40.976562 C 34.71875 40.976562 33.375 41.34375 33 43.832031 C 33.171875 43.597656 33.308594 43.34375 33.40625 43.066406 C 33.40625 43.066406 34.097656 45.210938 33.746094 46.6875 C 34.003906 46.050781 34.175781 45.394531 34.269531 44.71875 C 34.269531 44.71875 35.226562 46.265625 34.851562 48.367188 C 35.058594 47.980469 35.191406 47.574219 35.253906 47.140625 C 35.253906 47.140625 36.523438 49.496094 36.242188 51.988281 C 36.601562 50.546875 36.414062 48.652344 36.414062 48.652344 C 36.414062 48.652344 37.464844 49.578125 37.363281 52.3125 C 37.597656 51.589844 37.703125 50.851562 37.671875 50.089844 C 37.671875 50.089844 39.421875 52.394531 39.179688 54.898438 C 39.644531 54.070312 39.667969 51.519531 39.464844 50.265625 C 40.351562 53.925781 38.78125 57.417969 38.738281 57.511719 Z M 38.738281 57.511719 " fill-opacity="1" fill-rule="nonzero"/><path fill="#ba8238" d="M 36.011719 44.542969 C 35.945312 44.289062 35.996094 43.5625 36.210938 42.660156 C 35.589844 43.152344 35.105469 43.902344 35.105469 43.902344 C 35.496094 41.398438 37.585938 40.644531 37.652344 40.625 C 36.335938 41.554688 35.820312 42.640625 35.789062 42.707031 C 35.832031 42.648438 36.429688 41.835938 37.734375 41.234375 C 35.984375 42.609375 36.011719 44.542969 36.011719 44.542969 Z M 36.011719 44.542969 " fill-opacity="1" fill-rule="nonzero"/><path fill="#af7127" d="M 37.554688 48.730469 C 37.554688 48.730469 37.5625 48.371094 37.617188 47.867188 C 37.582031 48.378906 37.554688 48.730469 37.554688 48.730469 Z M 37.554688 48.730469 " fill-opacity="1" fill-rule="nonzero"/><path fill="#ba8238" d="M 37.554688 48.726562 C 37.535156 48.699219 36.90625 47.785156 36.882812 46.265625 C 36.542969 47.007812 36.265625 48.214844 36.265625 48.214844 C 35.421875 44.824219 37.574219 42.800781 37.6875 42.699219 L 37.691406 42.695312 C 36.121094 44.597656 36.355469 46.808594 36.355469 46.808594 C 36.355469 46.808594 36.808594 45 37.707031 43.902344 C 36.75 46.230469 37.539062 48.679688 37.554688 48.726562 Z M 37.554688 48.726562 " fill-opacity="1" fill-rule="nonzero"/><path fill="#ba8238" d="M 46.363281 55.105469 C 46.800781 54.425781 46.640625 53.484375 46.640625 53.484375 C 46.640625 53.484375 46.507812 55.480469 44.964844 55.480469 C 43.425781 55.480469 43.289062 53.484375 43.289062 53.484375 C 43.289062 53.484375 43.132812 54.425781 43.570312 55.105469 C 40.746094 54.183594 41.8125 51.597656 41.8125 51.597656 C 41.8125 51.597656 41.75 53.515625 42.953125 54.449219 C 42.890625 52.964844 43.183594 52.230469 43.183594 52.230469 C 43.183594 52.230469 43.148438 53.820312 44.964844 53.820312 C 46.78125 53.820312 46.746094 52.230469 46.746094 52.230469 C 46.746094 52.230469 47.042969 52.964844 46.980469 54.449219 C 48.179688 53.515625 48.121094 51.597656 48.121094 51.597656 C 48.121094 51.597656 49.183594 54.183594 46.363281 55.105469 Z M 46.363281 55.105469 " fill-opacity="1" fill-rule="nonzero"/><path fill="#010101" d="M 44.964844 50.804688 L 44.964844 51 C 44.964844 51 44.492188 50.9375 43.777344 51.046875 C 43.527344 50.683594 43.554688 50.402344 43.554688 50.402344 C 43.554688 50.402344 43.683594 50.734375 43.867188 50.871094 C 44 50.796875 44.964844 50.804688 44.964844 50.804688 Z M 44.964844 50.804688 " fill-opacity="0.3" fill-rule="nonzero"/><path fill="#010101" d="M 44.964844 47.980469 L 44.964844 48.128906 C 44.964844 48.128906 44.117188 48.191406 43.671875 48.109375 C 43.617188 48.464844 43.667969 48.640625 43.671875 48.652344 C 43.660156 48.640625 43.449219 48.441406 43.523438 47.96875 C 43.523438 47.96875 43.855469 48.097656 44.964844 47.980469 Z M 44.964844 47.980469 " fill-opacity="0.3" fill-rule="nonzero"/><path fill="#010101" d="M 42.78125 49.972656 C 41.703125 49.085938 41.773438 47.867188 41.839844 47.429688 C 41.453125 47.210938 41.085938 46.960938 40.742188 46.675781 C 41.5 46.742188 42.261719 46.738281 43.019531 46.660156 L 40.742188 46.207031 L 40.460938 45.734375 C 40.460938 45.734375 41.851562 45.878906 42.609375 45.863281 L 40.386719 45.21875 L 40.140625 44.34375 C 40.140625 44.34375 41.570312 44.585938 41.882812 44.621094 L 40.457031 44.679688 L 41.089844 45.09375 L 43.546875 45.945312 L 41.605469 46.101562 L 43.785156 46.601562 C 43.785156 46.601562 43.496094 46.777344 42.257812 47.207031 C 41.710938 48.789062 42.734375 49.917969 42.78125 49.972656 Z M 42.78125 49.972656 " fill-opacity="0.3" fill-rule="nonzero"/><path fill="#010101" d="M 42.148438 41.515625 C 42.023438 41.480469 41.242188 41.21875 41.242188 41.21875 C 41.242188 41.21875 41.265625 41.320312 41.429688 41.6875 C 40.96875 41.410156 40.539062 41.082031 40.144531 40.710938 C 40.144531 40.710938 39.347656 41.230469 39.015625 41.761719 C 38.6875 42.296875 38.960938 42.933594 38.960938 42.933594 L 39.066406 42.441406 C 39.464844 43.34375 39.636719 44.746094 39.640625 44.808594 C 39.625 44.761719 39.378906 43.996094 39.0625 43.285156 C 39.109375 43.792969 39.125 43.945312 39.125 43.945312 C 39.125 43.945312 38.488281 43.25 38.40625 42.425781 C 38.324219 41.597656 40.140625 40.46875 40.140625 40.46875 C 40.140625 40.46875 40.578125 41.007812 41.070312 41.226562 L 40.925781 41.007812 C 40.925781 41.007812 41.839844 41.164062 42.480469 40.976562 C 42.242188 41.398438 42.398438 42.089844 42.527344 42.511719 C 42.492188 42.472656 42.296875 42.238281 42.148438 41.515625 Z M 42.148438 41.515625 " fill-opacity="0.3" fill-rule="nonzero"/><path fill="#010101" d="M 44.964844 43.300781 L 44.964844 43.667969 C 44.964844 43.667969 43.984375 43.8125 43.554688 43.273438 C 43.28125 44.035156 42.929688 44.179688 42.726562 44.167969 C 42.527344 44.152344 42.316406 43.519531 42.304688 43.484375 C 42.316406 43.507812 42.539062 43.898438 42.917969 43.796875 C 43.304688 43.691406 43.503906 42.390625 43.503906 42.390625 C 43.503906 42.390625 43.777344 43.222656 44.964844 43.300781 Z M 44.964844 43.300781 " fill-opacity="0.3" fill-rule="nonzero"/><path fill="#ba8238" d="M 40.355469 39.789062 L 41.445312 40.128906 L 41.445312 40.472656 C 41.03125 40.261719 40.382812 39.808594 40.355469 39.789062 Z M 40.355469 39.789062 " fill-opacity="1" fill-rule="nonzero"/><path fill="#ba8238" d="M 42.65625 40.511719 C 42.628906 40.515625 42 40.648438 41.683594 40.570312 C 41.613281 40.550781 41.546875 40.523438 41.480469 40.488281 L 41.757812 40.226562 L 42.65625 40.507812 Z M 42.65625 40.511719 " fill-opacity="1" fill-rule="nonzero"/><path fill="#ba8238" d="M 42.308594 41.019531 C 42.367188 41.007812 42.425781 40.992188 42.484375 40.976562 C 42.46875 41.003906 42.453125 41.03125 42.441406 41.0625 Z M 42.308594 41.019531 " fill-opacity="1" fill-rule="nonzero"/><path fill="#010101" d="M 44.320312 38.777344 C 44.320312 38.777344 44.257812 39.335938 44.003906 39.679688 C 43.753906 40.023438 42.882812 40.585938 41.597656 39.800781 C 40.308594 39.015625 39.71875 39.246094 39.417969 39.4375 C 39.945312 39.554688 40.039062 40.179688 40.039062 40.179688 C 40.039062 40.179688 39.472656 40.40625 39.050781 40.234375 C 39.003906 40.214844 38.96875 40.1875 38.9375 40.152344 L 38.933594 40.148438 C 38.933594 40.148438 38.902344 39.164062 39.328125 38.578125 C 39.753906 37.988281 41.363281 37.308594 41.363281 37.308594 C 41.371094 37.710938 41.472656 38.082031 41.667969 38.429688 C 41.863281 38.777344 42.128906 39.058594 42.460938 39.269531 C 41.949219 39.160156 41.46875 38.964844 41.023438 38.683594 C 41.875 39.828125 43.542969 40.484375 44.320312 38.777344 Z M 44.320312 38.777344 " fill-opacity="0.3" fill-rule="nonzero"/><path fill="#010101" d="M 41.707031 35.878906 C 40.859375 36.070312 39.496094 36.71875 38.351562 38.078125 C 38.34375 37.546875 38.671875 36.625 38.679688 36.59375 C 38.660156 36.605469 38.003906 36.976562 37.117188 38.386719 C 36.230469 39.792969 35.140625 40.296875 35.105469 40.3125 C 36.554688 38.9375 36.390625 36.019531 39.679688 36.101562 C 39.007812 36.554688 38.679688 37.480469 38.65625 37.542969 C 38.710938 37.46875 39.773438 36.015625 41.707031 35.878906 Z M 41.707031 35.878906 " fill-opacity="0.3" fill-rule="nonzero"/><path fill="#010101" d="M 40.546875 34.492188 C 40.546875 34.492188 40.089844 34.523438 39.417969 34.214844 C 39.328125 34.882812 39.664062 35.226562 39.664062 35.226562 C 40.09375 35.886719 41.617188 35.609375 41.683594 35.597656 C 41.585938 35.628906 37.84375 36.839844 39.445312 33.175781 C 39.257812 34.136719 40.511719 34.484375 40.546875 34.492188 Z M 40.546875 34.492188 " fill-opacity="0.3" fill-rule="nonzero"/><path fill="#010101" d="M 44.226562 35.175781 C 44.199219 35.128906 43.746094 34.386719 42.394531 33.78125 C 41 33.15625 40.796875 32.78125 40.796875 32.78125 C 40.332031 33.46875 40.546875 34.492188 40.546875 34.492188 C 40.511719 34.46875 39.605469 33.800781 40.710938 32.125 C 40.914062 33.253906 43.546875 33.242188 44.226562 35.175781 Z M 44.226562 35.175781 " fill-opacity="0.3" fill-rule="nonzero"/><path fill="#010101" d="M 43.835938 33.101562 C 44.4375 34.109375 44.226562 35.175781 44.226562 35.175781 C 44.316406 33.746094 43.097656 32.46875 43.097656 32.46875 C 43.097656 32.46875 44.554688 32.859375 44.960938 34.402344 C 44.960938 34.402344 44.960938 34.402344 44.960938 34.40625 C 44.941406 34.367188 44.433594 33.445312 43.835938 33.101562 Z M 43.835938 33.101562 " fill-opacity="0.3" fill-rule="nonzero"/><path fill="#ba8238" d="M 42.785156 57.683594 C 42.867188 57.902344 42.976562 58.109375 43.105469 58.304688 C 42.503906 57.914062 42.191406 57.296875 42.035156 56.699219 C 42.222656 56.953125 42.546875 57.386719 42.785156 57.683594 Z M 42.785156 57.683594 " fill-opacity="1" fill-rule="nonzero"/><path fill="#ba8238" d="M 44.257812 58.589844 C 42.84375 57.609375 42.554688 56.210938 42.539062 56.125 C 42.539062 56.121094 42.539062 56.121094 42.539062 56.121094 C 42.539062 56.121094 42.992188 57.1875 43.78125 57.90625 C 43.652344 57.332031 43.554688 56.757812 43.484375 56.175781 C 43.621094 57.019531 43.878906 57.824219 44.257812 58.589844 Z M 44.257812 58.589844 " fill-opacity="1" fill-rule="nonzero"/><path fill="#ba8238" d="M 33.414062 41.082031 C 33.414062 41.082031 32.894531 39.167969 34.398438 37.640625 C 33.523438 38.292969 32.410156 38.6875 32.378906 38.699219 C 32.429688 38.660156 34.21875 37.328125 35.023438 35.6875 C 34.785156 37.667969 34.53125 38.15625 34.53125 38.15625 L 35.105469 38.039062 C 33.140625 38.9375 33.414062 41.082031 33.414062 41.082031 Z M 33.414062 41.082031 " fill-opacity="1" fill-rule="nonzero"/><path fill="#ba8238" d="M 38.089844 34.203125 C 36.339844 33.867188 35.539062 34.800781 35.539062 34.800781 C 35.757812 34.800781 35.972656 34.824219 36.1875 34.871094 C 35.496094 35.207031 35.683594 36.339844 35.695312 36.390625 C 35.046875 34.828125 35.410156 34.300781 35.410156 34.300781 L 34.445312 34.585938 C 34.445312 34.585938 35.777344 32.808594 37.695312 33.359375 C 37.695312 33.359375 37.109375 32.207031 35.9375 31.933594 C 37.730469 31.703125 38.414062 32.996094 38.089844 34.203125 Z M 38.089844 34.203125 " fill-opacity="1" fill-rule="nonzero"/><path fill="#ba8238" d="M 40.460938 31.070312 L 41.457031 31.710938 L 40.4375 31.382812 C 39.414062 31.054688 38.980469 30.433594 38.980469 30.433594 C 38.980469 30.433594 39.621094 30.953125 41.011719 30.882812 L 40.394531 30.511719 C 40.394531 30.511719 41.632812 30.652344 42.539062 31.421875 C 41.75 31.023438 40.460938 31.070312 40.460938 31.070312 Z M 40.460938 31.070312 " fill-opacity="1" fill-rule="nonzero"/><path fill="#ba8238" d="M 51.183594 57.511719 C 51.171875 57.414062 50.691406 53.890625 52.019531 51.449219 C 51.644531 53.21875 52.496094 54.335938 52.160156 56.496094 C 53.203125 54.941406 52.550781 51.285156 53.238281 49.640625 C 53.042969 51.871094 53.824219 54.175781 53.824219 54.175781 C 53.824219 54.175781 53.824219 50.785156 54.691406 48.652344 C 55.265625 50.667969 54.5 52.707031 54.476562 52.761719 C 54.511719 52.726562 55.765625 51.363281 55.539062 49.265625 C 55.308594 47.144531 55.644531 45.695312 55.644531 45.695312 C 55.644531 45.695312 55.699219 46.820312 56.652344 48.054688 C 55.964844 45.160156 56.636719 44.023438 56.636719 44.023438 C 57.203125 45.363281 57.363281 46.207031 57.363281 46.207031 C 57.546875 40.960938 55.203125 40.976562 55.203125 40.976562 C 55.203125 40.976562 56.550781 41.34375 56.921875 43.832031 C 56.75 43.597656 56.617188 43.34375 56.515625 43.066406 C 56.515625 43.066406 55.824219 45.210938 56.175781 46.6875 C 55.917969 46.050781 55.746094 45.394531 55.65625 44.71875 C 55.65625 44.71875 54.699219 46.265625 55.074219 48.367188 C 54.867188 47.980469 54.734375 47.574219 54.671875 47.140625 C 54.671875 47.140625 53.402344 49.496094 53.683594 51.988281 C 53.324219 50.546875 53.511719 48.652344 53.511719 48.652344 C 53.511719 48.652344 52.457031 49.578125 52.5625 52.3125 C 52.328125 51.589844 52.222656 50.851562 52.253906 50.089844 C 52.253906 50.089844 50.503906 52.394531 50.746094 54.898438 C 50.28125 54.070312 50.257812 51.519531 50.460938 50.265625 C 49.570312 53.925781 51.140625 57.417969 51.183594 57.511719 Z M 51.183594 57.511719 " fill-opacity="1" fill-rule="nonzero"/><path fill="#ba8238" d="M 53.910156 44.542969 C 53.976562 44.289062 53.925781 43.5625 53.710938 42.660156 C 54.335938 43.152344 54.816406 43.902344 54.816406 43.902344 C 54.429688 41.398438 52.335938 40.644531 52.269531 40.625 C 53.589844 41.554688 54.101562 42.640625 54.132812 42.707031 C 54.089844 42.648438 53.492188 41.835938 52.191406 41.234375 C 53.941406 42.609375 53.910156 44.542969 53.910156 44.542969 Z M 53.910156 44.542969 " fill-opacity="1" fill-rule="nonzero"/><path fill="#af7127" d="M 52.367188 48.730469 C 52.367188 48.730469 52.359375 48.371094 52.304688 47.867188 C 52.34375 48.378906 52.367188 48.730469 52.367188 48.730469 Z M 52.367188 48.730469 " fill-opacity="1" fill-rule="nonzero"/><path fill="#ba8238" d="M 52.367188 48.726562 C 52.386719 48.699219 53.015625 47.785156 53.042969 46.265625 C 53.378906 47.007812 53.660156 48.214844 53.660156 48.214844 C 54.5 44.824219 52.347656 42.800781 52.234375 42.699219 L 52.230469 42.695312 C 53.800781 44.597656 53.566406 46.808594 53.566406 46.808594 C 53.566406 46.808594 53.113281 45.003906 52.214844 43.902344 C 53.171875 46.230469 52.382812 48.679688 52.367188 48.726562 Z M 52.367188 48.726562 " fill-opacity="1" fill-rule="nonzero"/><path fill="#ba8238" d="M 43.5625 55.105469 C 43.125 54.425781 43.285156 53.484375 43.285156 53.484375 C 43.285156 53.484375 43.417969 55.480469 44.960938 55.480469 C 46.5 55.480469 46.636719 53.484375 46.636719 53.484375 C 46.636719 53.484375 46.792969 54.425781 46.355469 55.105469 C 49.179688 54.183594 48.113281 51.597656 48.113281 51.597656 C 48.113281 51.597656 48.175781 53.515625 46.972656 54.449219 C 47.035156 52.964844 46.742188 52.230469 46.742188 52.230469 C 46.742188 52.230469 46.777344 53.820312 44.960938 53.820312 C 43.140625 53.820312 43.179688 52.230469 43.179688 52.230469 C 43.179688 52.230469 42.882812 52.964844 42.945312 54.449219 C 41.742188 53.515625 41.804688 51.597656 41.804688 51.597656 C 41.804688 51.597656 40.738281 54.183594 43.5625 55.105469 Z M 43.5625 55.105469 " fill-opacity="1" fill-rule="nonzero"/><path fill="#010101" d="M 44.960938 50.804688 L 44.960938 51 C 44.960938 51 45.429688 50.9375 46.148438 51.046875 C 46.398438 50.683594 46.367188 50.402344 46.367188 50.402344 C 46.367188 50.402344 46.238281 50.734375 46.054688 50.871094 C 45.921875 50.796875 44.960938 50.804688 44.960938 50.804688 Z M 44.960938 50.804688 " fill-opacity="0.3" fill-rule="nonzero"/><path fill="#010101" d="M 44.960938 47.980469 L 44.960938 48.128906 C 44.960938 48.128906 45.804688 48.191406 46.253906 48.109375 C 46.304688 48.464844 46.257812 48.640625 46.253906 48.652344 C 46.261719 48.640625 46.472656 48.441406 46.398438 47.96875 C 46.398438 47.96875 46.066406 48.097656 44.960938 47.980469 Z M 44.960938 47.980469 " fill-opacity="0.3" fill-rule="nonzero"/><path fill="#ba8238" d="M 47.136719 49.972656 C 48.214844 49.085938 48.148438 47.867188 48.078125 47.429688 C 48.46875 47.210938 48.835938 46.960938 49.179688 46.675781 C 48.417969 46.742188 47.660156 46.738281 46.898438 46.660156 L 49.179688 46.207031 L 49.460938 45.734375 C 49.460938 45.734375 48.066406 45.878906 47.308594 45.863281 L 49.535156 45.21875 L 49.78125 44.34375 C 49.78125 44.34375 48.347656 44.585938 48.035156 44.621094 L 49.460938 44.679688 L 48.828125 45.09375 L 46.371094 45.945312 L 48.3125 46.101562 L 46.132812 46.601562 C 46.132812 46.601562 46.421875 46.777344 47.660156 47.207031 C 48.214844 48.789062 47.1875 49.917969 47.136719 49.972656 Z M 47.136719 49.972656 " fill-opacity="1" fill-rule="nonzero"/><path fill="#ba8238" d="M 47.773438 41.515625 C 47.898438 41.480469 48.679688 41.21875 48.679688 41.21875 C 48.679688 41.21875 48.65625 41.320312 48.492188 41.6875 C 48.953125 41.410156 49.382812 41.082031 49.78125 40.710938 C 49.78125 40.710938 50.574219 41.230469 50.90625 41.761719 C 51.238281 42.296875 50.960938 42.933594 50.960938 42.933594 L 50.859375 42.441406 C 50.457031 43.34375 50.289062 44.746094 50.28125 44.808594 C 50.296875 44.761719 50.542969 43.996094 50.859375 43.285156 C 50.8125 43.792969 50.800781 43.945312 50.800781 43.945312 C 50.800781 43.945312 51.433594 43.25 51.515625 42.425781 C 51.597656 41.597656 49.78125 40.46875 49.78125 40.46875 C 49.78125 40.46875 49.34375 41.007812 48.855469 41.226562 L 48.996094 41.007812 C 48.996094 41.007812 48.082031 41.164062 47.441406 40.976562 C 47.679688 41.398438 47.527344 42.089844 47.394531 42.511719 C 47.433594 42.472656 47.625 42.238281 47.773438 41.515625 Z M 47.773438 41.515625 " fill-opacity="1" fill-rule="nonzero"/><path fill="#010101" d="M 44.960938 43.300781 L 44.960938 43.667969 C 44.960938 43.667969 45.9375 43.8125 46.367188 43.277344 C 46.640625 44.039062 46.992188 44.183594 47.195312 44.167969 C 47.394531 44.15625 47.609375 43.523438 47.617188 43.488281 C 47.605469 43.511719 47.382812 43.902344 47.003906 43.796875 C 46.617188 43.691406 46.417969 42.390625 46.417969 42.390625 C 46.417969 42.390625 46.144531 43.222656 44.960938 43.300781 Z M 44.960938 43.300781 " fill-opacity="0.3" fill-rule="nonzero"/><path fill="#ba8238" d="M 49.570312 39.789062 L 48.480469 40.128906 L 48.480469 40.472656 C 48.894531 40.261719 49.542969 39.808594 49.570312 39.789062 Z M 49.570312 39.789062 " fill-opacity="1" fill-rule="nonzero"/><path fill="#ba8238" d="M 47.265625 40.511719 C 47.296875 40.515625 47.921875 40.648438 48.238281 40.570312 C 48.308594 40.550781 48.378906 40.523438 48.441406 40.488281 L 48.164062 40.226562 L 47.265625 40.507812 Z M 47.265625 40.511719 " fill-opacity="1" fill-rule="nonzero"/><path fill="#ba8238" d="M 47.613281 41.019531 C 47.554688 41.007812 47.496094 40.992188 47.4375 40.976562 C 47.457031 41.003906 47.46875 41.03125 47.480469 41.0625 Z M 47.613281 41.019531 " fill-opacity="1" fill-rule="nonzero"/><path fill="#ba8238" d="M 45.605469 38.777344 C 45.605469 38.777344 45.664062 39.335938 45.917969 39.679688 C 46.167969 40.023438 47.039062 40.585938 48.328125 39.800781 C 49.613281 39.015625 50.203125 39.246094 50.503906 39.4375 C 49.976562 39.554688 49.882812 40.179688 49.882812 40.179688 C 49.882812 40.179688 50.449219 40.40625 50.871094 40.234375 C 50.917969 40.214844 50.953125 40.1875 50.984375 40.152344 L 50.988281 40.148438 C 50.988281 40.148438 51.019531 39.164062 50.59375 38.578125 C 50.167969 37.988281 48.558594 37.308594 48.558594 37.308594 C 48.550781 37.707031 48.449219 38.082031 48.253906 38.429688 C 48.058594 38.777344 47.796875 39.054688 47.460938 39.265625 C 47.972656 39.160156 48.453125 38.964844 48.898438 38.683594 C 48.046875 39.828125 46.378906 40.484375 45.605469 38.777344 Z M 45.605469 38.777344 " fill-opacity="1" fill-rule="nonzero"/><path fill="#ba8238" d="M 48.214844 35.878906 C 49.0625 36.070312 50.425781 36.71875 51.574219 38.078125 C 51.582031 37.546875 51.253906 36.625 51.242188 36.59375 C 51.261719 36.605469 51.917969 36.976562 52.804688 38.386719 C 53.695312 39.792969 54.785156 40.296875 54.816406 40.3125 C 53.371094 38.933594 53.53125 36.019531 50.246094 36.101562 C 50.914062 36.550781 51.246094 37.476562 51.265625 37.542969 C 51.210938 37.46875 50.148438 36.015625 48.214844 35.878906 Z M 48.214844 35.878906 " fill-opacity="1" fill-rule="nonzero"/><path fill="#ba8238" d="M 49.375 34.492188 C 49.375 34.492188 49.832031 34.523438 50.507812 34.214844 C 50.59375 34.882812 50.261719 35.226562 50.261719 35.226562 C 49.828125 35.886719 48.304688 35.609375 48.238281 35.597656 C 48.335938 35.628906 52.078125 36.839844 50.480469 33.175781 C 50.664062 34.136719 49.410156 34.484375 49.375 34.492188 Z M 49.375 34.492188 " fill-opacity="1" fill-rule="nonzero"/><path fill="#ba8238" d="M 45.695312 35.175781 C 45.722656 35.128906 46.175781 34.386719 47.527344 33.78125 C 48.921875 33.15625 49.125 32.78125 49.125 32.78125 C 49.589844 33.46875 49.375 34.492188 49.375 34.492188 C 49.410156 34.46875 50.320312 33.800781 49.210938 32.125 C 49.011719 33.253906 46.375 33.242188 45.695312 35.175781 Z M 45.695312 35.175781 " fill-opacity="1" fill-rule="nonzero"/><path fill="#ba8238" d="M 46.085938 33.101562 C 45.484375 34.109375 45.695312 35.175781 45.695312 35.175781 C 45.605469 33.746094 46.824219 32.46875 46.824219 32.46875 C 46.824219 32.46875 45.367188 32.859375 44.960938 34.402344 C 44.960938 34.402344 44.960938 34.402344 44.960938 34.40625 C 44.980469 34.367188 45.488281 33.445312 46.085938 33.101562 Z M 46.085938 33.101562 " fill-opacity="1" fill-rule="nonzero"/><path fill="#ba8238" d="M 47.136719 57.683594 C 47.054688 57.902344 46.949219 58.109375 46.820312 58.304688 C 47.421875 57.914062 47.730469 57.296875 47.886719 56.699219 C 47.699219 56.953125 47.378906 57.386719 47.136719 57.683594 Z M 47.136719 57.683594 " fill-opacity="1" fill-rule="nonzero"/><path fill="#ba8238" d="M 45.664062 58.589844 C 47.082031 57.609375 47.367188 56.210938 47.382812 56.125 C 47.386719 56.121094 47.386719 56.121094 47.382812 56.121094 C 47.382812 56.121094 46.929688 57.1875 46.140625 57.90625 C 46.269531 57.332031 46.367188 56.757812 46.4375 56.175781 C 46.300781 57.019531 46.042969 57.824219 45.664062 58.589844 Z M 45.664062 58.589844 " fill-opacity="1" fill-rule="nonzero"/><path fill="#ba8238" d="M 56.507812 41.082031 C 56.507812 41.082031 57.027344 39.167969 55.527344 37.640625 C 56.398438 38.292969 57.511719 38.6875 57.546875 38.699219 C 57.488281 38.660156 55.703125 37.328125 54.898438 35.6875 C 55.136719 37.667969 55.390625 38.15625 55.390625 38.15625 L 54.816406 38.039062 C 56.78125 38.9375 56.507812 41.082031 56.507812 41.082031 Z M 56.507812 41.082031 " fill-opacity="1" fill-rule="nonzero"/><path fill="#ba8238" d="M 51.832031 34.203125 C 53.582031 33.867188 54.382812 34.800781 54.382812 34.800781 C 54.164062 34.800781 53.949219 34.824219 53.738281 34.871094 C 54.429688 35.207031 54.238281 36.339844 54.230469 36.390625 C 54.875 34.832031 54.515625 34.300781 54.515625 34.300781 L 55.476562 34.589844 C 55.476562 34.589844 54.144531 32.808594 52.230469 33.359375 C 52.230469 33.359375 52.816406 32.207031 53.988281 31.933594 C 52.195312 31.703125 51.507812 32.996094 51.832031 34.203125 Z M 51.832031 34.203125 " fill-opacity="1" fill-rule="nonzero"/><path fill="#ba8238" d="M 49.464844 31.070312 L 48.46875 31.710938 L 49.488281 31.382812 C 50.511719 31.054688 50.945312 30.433594 50.945312 30.433594 C 50.945312 30.433594 50.300781 30.953125 48.914062 30.882812 L 49.53125 30.511719 C 49.53125 30.511719 48.289062 30.652344 47.382812 31.421875 C 48.171875 31.023438 49.464844 31.070312 49.464844 31.070312 Z M 49.464844 31.070312 " fill-opacity="1" fill-rule="nonzero"/><path fill="#ba8238" d="M 44.964844 26.007812 L 44.964844 27.875 C 40.503906 28.222656 38.980469 29.835938 38.980469 29.835938 L 37.78125 27.097656 L 38.484375 26.015625 L 36.980469 25.265625 L 36.304688 23.726562 L 39.5625 25.519531 L 38.9375 27.433594 L 41.554688 28.226562 L 44.152344 26.84375 L 42.484375 25.210938 L 44.964844 21.597656 L 44.964844 23.175781 L 43.652344 24.902344 Z M 44.964844 26.007812 " fill-opacity="1" fill-rule="nonzero"/><path fill="#ba8238" d="M 52.949219 25.265625 L 51.445312 26.015625 L 52.148438 27.097656 L 50.949219 29.835938 L 50.878906 29.835938 L 51.734375 27.199219 L 50.992188 25.804688 L 52.613281 24.996094 L 53.625 23.726562 Z M 52.949219 25.265625 " fill-opacity="1" fill-rule="nonzero"/><g fill="#dfaf67" fill-opacity="1"><g transform="translate(26.067126, 65.928555)"><g><path d="M 5.398438 -2.957031 L 5.398438 -4.285156 L 0.316406 -4.285156 L 0.316406 -2.957031 L 1.910156 -2.957031 L 1.910156 0 L 3.804688 0 L 3.804688 -2.957031 Z M 5.398438 -2.957031 "/></g></g></g><g fill="#dfaf67" fill-opacity="1"><g transform="translate(31.783389, 65.928555)"><g><path d="M 5.433594 -4.285156 L 3.539062 -4.285156 L 3.539062 -2.8125 L 2.253906 -2.8125 L 2.253906 -4.285156 L 0.351562 -4.285156 L 0.351562 0 L 2.253906 0 L 2.253906 -1.484375 L 3.539062 -1.484375 L 3.539062 0 L 5.433594 0 Z M 5.433594 -4.285156 "/></g></g></g><g fill="#dfaf67" fill-opacity="1"><g transform="translate(37.568213, 65.928555)"><g><path d="M 2.253906 -3.152344 L 4.894531 -3.152344 L 4.894531 -4.285156 L 0.351562 -4.285156 L 0.351562 0 L 4.894531 0 L 4.894531 -1.140625 L 2.253906 -1.140625 L 2.253906 -1.609375 L 4.894531 -1.609375 L 4.894531 -2.683594 L 2.253906 -2.683594 Z M 2.253906 -3.152344 "/></g></g></g><g fill="#dfaf67" fill-opacity="1"><g transform="translate(42.813118, 65.928555)"><g/></g></g><g fill="#dfaf67" fill-opacity="1"><g transform="translate(44.252896, 65.928555)"><g><path d="M 4.894531 -1.328125 L 2.253906 -1.328125 L 2.253906 -4.285156 L 0.351562 -4.285156 L 0.351562 0 L 4.894531 0 Z M 4.894531 -1.328125 "/></g></g></g><g fill="#dfaf67" fill-opacity="1"><g transform="translate(49.437811, 65.928555)"><g><path d="M 2.253906 -4.285156 L 0.351562 -4.285156 L 0.351562 0 L 2.253906 0 Z M 2.253906 -4.285156 "/></g></g></g><g fill="#dfaf67" fill-opacity="1"><g transform="translate(52.043125, 65.928555)"><g><path d="M 3.050781 0.078125 C 4.816406 0.078125 5.8125 -0.726562 5.8125 -2.144531 C 5.8125 -3.558594 4.816406 -4.363281 3.050781 -4.363281 C 1.285156 -4.363281 0.28125 -3.558594 0.28125 -2.144531 C 0.28125 -0.726562 1.285156 0.078125 3.050781 0.078125 Z M 3.058594 -1.25 C 2.484375 -1.25 2.167969 -1.570312 2.167969 -2.144531 C 2.167969 -2.71875 2.484375 -3.035156 3.058594 -3.035156 C 3.617188 -3.035156 3.925781 -2.71875 3.925781 -2.144531 C 3.925781 -1.570312 3.617188 -1.25 3.058594 -1.25 Z M 3.058594 -1.25 "/></g></g></g><g fill="#dfaf67" fill-opacity="1"><g transform="translate(58.145041, 65.928555)"><g><path d="M 0.351562 0 L 2.253906 0 L 2.253906 -1.960938 L 3.8125 -0.0078125 L 5.433594 0 L 5.433594 -4.285156 L 3.539062 -4.285156 L 3.539062 -2.339844 L 1.972656 -4.292969 L 0.351562 -4.292969 Z M 0.351562 0 "/></g></g></g><g fill="#ffffff" fill-opacity="1"><g transform="translate(36.715269, 69.87897)"><g><path d="M 0.703125 -2.34375 L 0.703125 -1.296875 C 0.703125 -1.234375 0.695312 -1.171875 0.6875 -1.109375 C 0.6875 -1.046875 0.679688 -0.984375 0.671875 -0.921875 L 0.6875 -0.921875 C 0.71875 -0.960938 0.75 -1.003906 0.78125 -1.046875 C 0.8125 -1.085938 0.847656 -1.128906 0.890625 -1.171875 L 1.359375 -1.6875 L 1.875 -1.6875 L 1.203125 -0.953125 L 1.921875 0 L 1.390625 0 L 0.90625 -0.6875 L 0.703125 -0.53125 L 0.703125 0 L 0.234375 0 L 0.234375 -2.34375 Z M 0.703125 -2.34375 "/></g></g></g><g fill="#ffffff" fill-opacity="1"><g transform="translate(39.135276, 69.87897)"><g><path d="M 0.703125 -1.6875 L 0.703125 0 L 0.234375 0 L 0.234375 -1.6875 Z M 0.46875 -2.34375 C 0.539062 -2.34375 0.597656 -2.328125 0.640625 -2.296875 C 0.691406 -2.265625 0.71875 -2.207031 0.71875 -2.125 C 0.71875 -2.039062 0.691406 -1.984375 0.640625 -1.953125 C 0.597656 -1.921875 0.539062 -1.90625 0.46875 -1.90625 C 0.40625 -1.90625 0.347656 -1.921875 0.296875 -1.953125 C 0.242188 -1.984375 0.21875 -2.039062 0.21875 -2.125 C 0.21875 -2.207031 0.242188 -2.265625 0.296875 -2.296875 C 0.347656 -2.328125 0.40625 -2.34375 0.46875 -2.34375 Z M 0.46875 -2.34375 "/></g></g></g><g fill="#ffffff" fill-opacity="1"><g transform="translate(40.580934, 69.87897)"><g><path d="M 1.203125 -1.71875 C 1.378906 -1.71875 1.519531 -1.664062 1.625 -1.5625 C 1.738281 -1.46875 1.796875 -1.3125 1.796875 -1.09375 L 1.796875 0 L 1.34375 0 L 1.34375 -0.984375 C 1.34375 -1.109375 1.316406 -1.203125 1.265625 -1.265625 C 1.222656 -1.328125 1.15625 -1.359375 1.0625 -1.359375 C 0.925781 -1.359375 0.832031 -1.304688 0.78125 -1.203125 C 0.726562 -1.109375 0.703125 -0.972656 0.703125 -0.796875 L 0.703125 0 L 0.234375 0 L 0.234375 -1.6875 L 0.59375 -1.6875 L 0.65625 -1.46875 L 0.6875 -1.46875 C 0.71875 -1.53125 0.757812 -1.578125 0.8125 -1.609375 C 0.863281 -1.648438 0.921875 -1.675781 0.984375 -1.6875 C 1.054688 -1.707031 1.128906 -1.71875 1.203125 -1.71875 Z M 1.203125 -1.71875 "/></g></g></g><g fill="#ffffff" fill-opacity="1"><g transform="translate(43.115748, 69.87897)"><g><path d="M 0.734375 0.75 C 0.492188 0.75 0.3125 0.707031 0.1875 0.625 C 0.0703125 0.539062 0.015625 0.425781 0.015625 0.28125 C 0.015625 0.175781 0.046875 0.0859375 0.109375 0.015625 C 0.171875 -0.046875 0.265625 -0.09375 0.390625 -0.125 C 0.335938 -0.144531 0.289062 -0.175781 0.25 -0.21875 C 0.21875 -0.269531 0.203125 -0.320312 0.203125 -0.375 C 0.203125 -0.4375 0.21875 -0.488281 0.25 -0.53125 C 0.289062 -0.570312 0.347656 -0.613281 0.421875 -0.65625 C 0.335938 -0.695312 0.269531 -0.757812 0.21875 -0.84375 C 0.164062 -0.925781 0.140625 -1.023438 0.140625 -1.140625 C 0.140625 -1.265625 0.164062 -1.367188 0.21875 -1.453125 C 0.269531 -1.535156 0.347656 -1.597656 0.453125 -1.640625 C 0.554688 -1.691406 0.679688 -1.71875 0.828125 -1.71875 C 0.859375 -1.71875 0.894531 -1.710938 0.9375 -1.703125 C 0.976562 -1.703125 1.015625 -1.695312 1.046875 -1.6875 C 1.085938 -1.6875 1.113281 -1.6875 1.125 -1.6875 L 1.71875 -1.6875 L 1.71875 -1.453125 L 1.453125 -1.390625 C 1.472656 -1.347656 1.488281 -1.304688 1.5 -1.265625 C 1.507812 -1.222656 1.515625 -1.179688 1.515625 -1.140625 C 1.515625 -0.953125 1.453125 -0.804688 1.328125 -0.703125 C 1.203125 -0.609375 1.023438 -0.5625 0.796875 -0.5625 C 0.742188 -0.5625 0.695312 -0.5625 0.65625 -0.5625 C 0.632812 -0.550781 0.613281 -0.535156 0.59375 -0.515625 C 0.582031 -0.492188 0.578125 -0.472656 0.578125 -0.453125 C 0.578125 -0.429688 0.585938 -0.410156 0.609375 -0.390625 C 0.628906 -0.378906 0.65625 -0.367188 0.6875 -0.359375 C 0.726562 -0.347656 0.773438 -0.34375 0.828125 -0.34375 L 1.125 -0.34375 C 1.3125 -0.34375 1.453125 -0.300781 1.546875 -0.21875 C 1.640625 -0.144531 1.6875 -0.03125 1.6875 0.125 C 1.6875 0.320312 1.601562 0.472656 1.4375 0.578125 C 1.28125 0.691406 1.046875 0.75 0.734375 0.75 Z M 0.75 0.4375 C 0.863281 0.4375 0.957031 0.425781 1.03125 0.40625 C 1.113281 0.382812 1.175781 0.351562 1.21875 0.3125 C 1.257812 0.28125 1.28125 0.238281 1.28125 0.1875 C 1.28125 0.144531 1.265625 0.109375 1.234375 0.078125 C 1.210938 0.0546875 1.175781 0.0390625 1.125 0.03125 C 1.082031 0.0195312 1.019531 0.015625 0.9375 0.015625 L 0.703125 0.015625 C 0.648438 0.015625 0.597656 0.0234375 0.546875 0.046875 C 0.503906 0.0664062 0.46875 0.09375 0.4375 0.125 C 0.414062 0.15625 0.40625 0.191406 0.40625 0.234375 C 0.40625 0.296875 0.4375 0.34375 0.5 0.375 C 0.5625 0.414062 0.644531 0.4375 0.75 0.4375 Z M 0.828125 -0.84375 C 0.910156 -0.84375 0.972656 -0.867188 1.015625 -0.921875 C 1.054688 -0.972656 1.078125 -1.046875 1.078125 -1.140625 C 1.078125 -1.234375 1.054688 -1.304688 1.015625 -1.359375 C 0.972656 -1.410156 0.910156 -1.4375 0.828125 -1.4375 C 0.742188 -1.4375 0.679688 -1.410156 0.640625 -1.359375 C 0.597656 -1.304688 0.578125 -1.234375 0.578125 -1.140625 C 0.578125 -1.046875 0.597656 -0.972656 0.640625 -0.921875 C 0.679688 -0.867188 0.742188 -0.84375 0.828125 -0.84375 Z M 0.828125 -0.84375 "/></g></g></g><g fill="#ffffff" fill-opacity="1"><g transform="translate(45.365055, 69.87897)"><g><path d="M 0.78125 0.03125 C 0.59375 0.03125 0.4375 -0.0390625 0.3125 -0.1875 C 0.195312 -0.332031 0.140625 -0.550781 0.140625 -0.84375 C 0.140625 -1.132812 0.195312 -1.351562 0.3125 -1.5 C 0.4375 -1.644531 0.59375 -1.71875 0.78125 -1.71875 C 0.863281 -1.71875 0.9375 -1.707031 1 -1.6875 C 1.0625 -1.664062 1.113281 -1.632812 1.15625 -1.59375 C 1.207031 -1.5625 1.25 -1.519531 1.28125 -1.46875 L 1.296875 -1.46875 C 1.285156 -1.5 1.273438 -1.546875 1.265625 -1.609375 C 1.253906 -1.671875 1.25 -1.738281 1.25 -1.8125 L 1.25 -2.34375 L 1.71875 -2.34375 L 1.71875 0 L 1.359375 0 L 1.28125 -0.21875 L 1.25 -0.21875 C 1.226562 -0.175781 1.191406 -0.132812 1.140625 -0.09375 C 1.097656 -0.0507812 1.046875 -0.0195312 0.984375 0 C 0.929688 0.0195312 0.863281 0.03125 0.78125 0.03125 Z M 0.9375 -0.34375 C 1.0625 -0.34375 1.148438 -0.378906 1.203125 -0.453125 C 1.253906 -0.523438 1.28125 -0.632812 1.28125 -0.78125 L 1.28125 -0.84375 C 1.28125 -1 1.253906 -1.117188 1.203125 -1.203125 C 1.160156 -1.296875 1.070312 -1.34375 0.9375 -1.34375 C 0.832031 -1.34375 0.75 -1.296875 0.6875 -1.203125 C 0.632812 -1.117188 0.609375 -0.992188 0.609375 -0.828125 C 0.609375 -0.671875 0.632812 -0.550781 0.6875 -0.46875 C 0.75 -0.382812 0.832031 -0.34375 0.9375 -0.34375 Z M 0.9375 -0.34375 "/></g></g></g><g fill="#ffffff" fill-opacity="1"><g transform="translate(47.824338, 69.87897)"><g><path d="M 1.78125 -0.84375 C 1.78125 -0.707031 1.757812 -0.582031 1.71875 -0.46875 C 1.675781 -0.363281 1.617188 -0.269531 1.546875 -0.1875 C 1.484375 -0.113281 1.398438 -0.0546875 1.296875 -0.015625 C 1.191406 0.015625 1.078125 0.03125 0.953125 0.03125 C 0.835938 0.03125 0.726562 0.015625 0.625 -0.015625 C 0.53125 -0.0546875 0.445312 -0.113281 0.375 -0.1875 C 0.300781 -0.269531 0.242188 -0.363281 0.203125 -0.46875 C 0.160156 -0.582031 0.140625 -0.707031 0.140625 -0.84375 C 0.140625 -1.03125 0.171875 -1.1875 0.234375 -1.3125 C 0.304688 -1.445312 0.398438 -1.546875 0.515625 -1.609375 C 0.640625 -1.679688 0.789062 -1.71875 0.96875 -1.71875 C 1.125 -1.71875 1.257812 -1.679688 1.375 -1.609375 C 1.5 -1.546875 1.597656 -1.445312 1.671875 -1.3125 C 1.742188 -1.1875 1.78125 -1.03125 1.78125 -0.84375 Z M 0.609375 -0.84375 C 0.609375 -0.738281 0.617188 -0.644531 0.640625 -0.5625 C 0.671875 -0.488281 0.707031 -0.429688 0.75 -0.390625 C 0.800781 -0.359375 0.867188 -0.34375 0.953125 -0.34375 C 1.035156 -0.34375 1.101562 -0.359375 1.15625 -0.390625 C 1.207031 -0.429688 1.242188 -0.488281 1.265625 -0.5625 C 1.296875 -0.644531 1.3125 -0.738281 1.3125 -0.84375 C 1.3125 -0.957031 1.296875 -1.050781 1.265625 -1.125 C 1.242188 -1.195312 1.207031 -1.25 1.15625 -1.28125 C 1.101562 -1.320312 1.035156 -1.34375 0.953125 -1.34375 C 0.835938 -1.34375 0.75 -1.300781 0.6875 -1.21875 C 0.632812 -1.132812 0.609375 -1.007812 0.609375 -0.84375 Z M 0.609375 -0.84375 "/></g></g></g><g fill="#ffffff" fill-opacity="1"><g transform="translate(50.241325, 69.87897)"><g><path d="M 2.21875 -1.71875 C 2.414062 -1.71875 2.5625 -1.664062 2.65625 -1.5625 C 2.757812 -1.46875 2.8125 -1.3125 2.8125 -1.09375 L 2.8125 0 L 2.34375 0 L 2.34375 -0.984375 C 2.34375 -1.109375 2.320312 -1.203125 2.28125 -1.265625 C 2.238281 -1.328125 2.175781 -1.359375 2.09375 -1.359375 C 1.96875 -1.359375 1.878906 -1.3125 1.828125 -1.21875 C 1.773438 -1.132812 1.75 -1.007812 1.75 -0.84375 L 1.75 0 L 1.296875 0 L 1.296875 -0.984375 C 1.296875 -1.066406 1.285156 -1.132812 1.265625 -1.1875 C 1.242188 -1.238281 1.210938 -1.28125 1.171875 -1.3125 C 1.140625 -1.34375 1.097656 -1.359375 1.046875 -1.359375 C 0.953125 -1.359375 0.878906 -1.332031 0.828125 -1.28125 C 0.785156 -1.238281 0.753906 -1.175781 0.734375 -1.09375 C 0.710938 -1.007812 0.703125 -0.910156 0.703125 -0.796875 L 0.703125 0 L 0.234375 0 L 0.234375 -1.6875 L 0.59375 -1.6875 L 0.65625 -1.46875 L 0.6875 -1.46875 C 0.71875 -1.53125 0.757812 -1.578125 0.8125 -1.609375 C 0.863281 -1.648438 0.921875 -1.675781 0.984375 -1.6875 C 1.046875 -1.707031 1.109375 -1.71875 1.171875 -1.71875 C 1.296875 -1.71875 1.398438 -1.695312 1.484375 -1.65625 C 1.566406 -1.613281 1.632812 -1.550781 1.6875 -1.46875 L 1.734375 -1.46875 C 1.773438 -1.5625 1.84375 -1.625 1.9375 -1.65625 C 2.03125 -1.695312 2.125 -1.71875 2.21875 -1.71875 Z M 2.21875 -1.71875 "/></g></g></g></svg>