<svg xmlns="http://www.w3.org/2000/svg" xmlns:xlink="http://www.w3.org/1999/xlink" width="120" zoomAndPan="magnify" viewBox="0 0 90 89.999999" height="120" preserveAspectRatio="xMidYMid meet" version="1.0"><defs><g/><clipPath id="fa45aef1fb"><path d="M 28.351562 23.785156 L 61.351562 23.785156 L 61.351562 56.785156 L 28.351562 56.785156 Z M 28.351562 23.785156 " clip-rule="nonzero"/></clipPath></defs><rect x="-9" width="108" fill="#ffffff" y="-9" height="107.999999" fill-opacity="1"/><rect x="-9" width="108" fill="#000000" y="-9" height="107.999999" fill-opacity="1"/><g clip-path="url(#fa45aef1fb)"><path fill="#ffffff" d="M 60.941406 45.992188 C 60.59375 45.992188 60.3125 45.710938 60.3125 45.363281 L 60.3125 26.003906 L 49.597656 36.714844 C 49.351562 36.960938 48.953125 36.960938 48.703125 36.714844 C 48.457031 36.46875 48.457031 36.070312 48.703125 35.824219 L 60.496094 24.03125 C 60.675781 23.851562 60.949219 23.796875 61.183594 23.894531 C 61.417969 23.992188 61.574219 24.222656 61.574219 24.480469 L 61.574219 45.363281 C 61.574219 45.710938 61.289062 45.992188 60.941406 45.992188 Z M 29.054688 56.996094 C 28.707031 56.996094 28.425781 56.714844 28.425781 56.363281 L 28.425781 34.359375 C 28.425781 34.105469 28.578125 33.875 28.816406 33.777344 C 29.050781 33.679688 29.320312 33.734375 29.503906 33.914062 L 40.503906 44.917969 C 40.75 45.164062 40.75 45.5625 40.503906 45.808594 C 40.257812 46.054688 39.859375 46.054688 39.613281 45.808594 L 29.6875 35.882812 L 29.6875 56.363281 C 29.6875 56.714844 29.40625 56.996094 29.054688 56.996094 Z M 60.941406 56.996094 C 60.78125 56.996094 60.617188 56.933594 60.496094 56.808594 L 28.609375 24.925781 C 28.363281 24.679688 28.363281 24.277344 28.609375 24.03125 C 28.855469 23.785156 29.257812 23.785156 29.503906 24.03125 L 61.386719 55.917969 C 61.632812 56.164062 61.632812 56.5625 61.386719 56.808594 C 61.265625 56.933594 61.101562 56.996094 60.941406 56.996094 " fill-opacity="1" fill-rule="nonzero"/></g><g fill="#fffbfa" fill-opacity="1"><g transform="translate(32.498991, 62.771641)"><g><path d="M 0.839844 0 C 0.882812 0 0.90625 -0.0234375 0.90625 -0.0664062 L 0.90625 -0.972656 L 1.472656 -0.308594 C 1.503906 -0.273438 1.539062 -0.273438 1.566406 -0.308594 L 2.144531 -0.976562 L 2.144531 -0.0664062 C 2.144531 -0.0234375 2.167969 0 2.210938 0 L 2.730469 0 C 2.773438 0 2.796875 -0.0234375 2.796875 -0.0664062 L 2.796875 -2.460938 C 2.796875 -2.585938 2.710938 -2.617188 2.632812 -2.519531 L 1.523438 -1.128906 L 0.417969 -2.519531 C 0.335938 -2.621094 0.253906 -2.585938 0.253906 -2.460938 L 0.253906 -0.0664062 C 0.253906 -0.0234375 0.277344 0 0.320312 0 Z M 0.839844 0 "/></g></g></g><g fill="#fffbfa" fill-opacity="1"><g transform="translate(38.236913, 62.771641)"><g><path d="M 1.386719 -2.519531 C 1.335938 -2.621094 1.257812 -2.621094 1.207031 -2.519531 L 0.0507812 -0.0820312 C 0.03125 -0.03125 0.0507812 0 0.101562 0 L 0.691406 0 C 0.726562 0 0.757812 -0.0195312 0.769531 -0.0546875 L 0.851562 -0.265625 L 1.742188 -0.265625 L 1.824219 -0.0546875 C 1.835938 -0.0195312 1.863281 0 1.902344 0 L 2.492188 0 C 2.542969 0 2.5625 -0.03125 2.542969 -0.0820312 Z M 1.296875 -1.402344 L 1.542969 -0.769531 L 1.046875 -0.769531 Z M 1.296875 -1.402344 "/></g></g></g><g fill="#fffbfa" fill-opacity="1"><g transform="translate(43.520635, 62.771641)"><g><path d="M 0.832031 0 C 0.878906 0 0.898438 -0.0234375 0.898438 -0.0664062 L 0.898438 -1.269531 L 2.292969 0 C 2.398438 0.0976562 2.476562 0.0546875 2.476562 -0.0625 L 2.476562 -2.453125 C 2.476562 -2.496094 2.453125 -2.519531 2.40625 -2.519531 L 1.894531 -2.519531 C 1.851562 -2.519531 1.828125 -2.496094 1.828125 -2.453125 L 1.828125 -1.292969 L 0.417969 -2.535156 C 0.324219 -2.617188 0.253906 -2.578125 0.253906 -2.460938 L 0.253906 -0.0664062 C 0.253906 -0.0234375 0.277344 0 0.320312 0 Z M 0.832031 0 "/></g></g></g><g fill="#fffbfa" fill-opacity="1"><g transform="translate(48.935534, 62.771641)"><g><path d="M 1.511719 0.0664062 C 2.003906 0.0664062 2.398438 -0.113281 2.628906 -0.433594 C 2.648438 -0.453125 2.652344 -0.476562 2.652344 -0.507812 L 2.652344 -1.335938 C 2.652344 -1.382812 2.628906 -1.402344 2.585938 -1.402344 L 1.597656 -1.402344 C 1.554688 -1.402344 1.53125 -1.382812 1.53125 -1.335938 L 1.53125 -0.933594 C 1.53125 -0.890625 1.554688 -0.867188 1.597656 -0.867188 L 2.042969 -0.867188 L 2.042969 -0.726562 C 1.921875 -0.585938 1.738281 -0.503906 1.511719 -0.503906 C 1.09375 -0.503906 0.820312 -0.792969 0.820312 -1.257812 C 0.820312 -1.707031 1.09375 -1.980469 1.511719 -1.980469 C 1.75 -1.980469 1.941406 -1.890625 2.066406 -1.738281 C 2.09375 -1.707031 2.121094 -1.699219 2.15625 -1.722656 L 2.597656 -2.019531 C 2.636719 -2.046875 2.644531 -2.078125 2.617188 -2.109375 C 2.375 -2.40625 1.988281 -2.585938 1.511719 -2.585938 C 0.691406 -2.585938 0.148438 -2.070312 0.148438 -1.257812 C 0.148438 -0.449219 0.691406 0.0664062 1.511719 0.0664062 Z M 1.511719 0.0664062 "/></g></g></g><g fill="#fffbfa" fill-opacity="1"><g transform="translate(54.465214, 62.771641)"><g><path d="M 1.511719 0.0664062 C 2.332031 0.0664062 2.882812 -0.449219 2.882812 -1.257812 C 2.882812 -2.070312 2.332031 -2.585938 1.511719 -2.585938 C 0.691406 -2.585938 0.148438 -2.070312 0.148438 -1.257812 C 0.148438 -0.449219 0.691406 0.0664062 1.511719 0.0664062 Z M 1.511719 -0.539062 C 1.09375 -0.539062 0.820312 -0.8125 0.820312 -1.257812 C 0.820312 -1.707031 1.09375 -1.980469 1.511719 -1.980469 C 1.933594 -1.980469 2.210938 -1.707031 2.210938 -1.257812 C 2.210938 -0.8125 1.933594 -0.539062 1.511719 -0.539062 Z M 1.511719 -0.539062 "/></g></g></g><g fill="#fffbfa" fill-opacity="1"><g transform="translate(38.705554, 65.767117)"><g><path d="M 0.191406 0 L 0.5625 0 C 0.9375 0 1.171875 -0.234375 1.171875 -0.589844 C 1.171875 -0.941406 0.9375 -1.175781 0.5625 -1.175781 L 0.191406 -1.175781 Z M 0.292969 -0.0976562 L 0.292969 -1.078125 L 0.558594 -1.078125 C 0.871094 -1.078125 1.070312 -0.886719 1.070312 -0.589844 C 1.070312 -0.289062 0.875 -0.0976562 0.5625 -0.0976562 Z M 0.292969 -0.0976562 "/></g></g></g><g fill="#fffbfa" fill-opacity="1"><g transform="translate(40.657765, 65.767117)"><g><path d="M 0.191406 0 L 0.292969 0 L 0.292969 -1.175781 L 0.191406 -1.175781 Z M 0.191406 0 "/></g></g></g><g fill="#fffbfa" fill-opacity="1"><g transform="translate(41.811954, 65.767117)"><g><path d="M 0.703125 0.0234375 C 1.058594 0.0234375 1.296875 -0.246094 1.296875 -0.617188 L 0.664062 -0.617188 L 0.664062 -0.519531 L 1.1875 -0.519531 C 1.164062 -0.265625 0.976562 -0.0820312 0.703125 -0.0820312 C 0.414062 -0.0820312 0.210938 -0.289062 0.210938 -0.589844 C 0.210938 -0.890625 0.410156 -1.09375 0.703125 -1.09375 C 0.914062 -1.09375 1.074219 -0.988281 1.148438 -0.8125 L 1.261719 -0.8125 C 1.183594 -1.042969 0.972656 -1.199219 0.699219 -1.199219 C 0.355469 -1.199219 0.109375 -0.945312 0.109375 -0.589844 C 0.109375 -0.230469 0.355469 0.0234375 0.703125 0.0234375 Z M 0.703125 0.0234375 "/></g></g></g><g fill="#fffbfa" fill-opacity="1"><g transform="translate(43.881769, 65.767117)"><g><path d="M 0.191406 0 L 0.292969 0 L 0.292969 -1.175781 L 0.191406 -1.175781 Z M 0.191406 0 "/></g></g></g><g fill="#fffbfa" fill-opacity="1"><g transform="translate(45.035959, 65.767117)"><g><path d="M 0.46875 0 L 0.570312 0 L 0.570312 -1.078125 L 0.976562 -1.078125 L 0.976562 -1.175781 L 0.0625 -1.175781 L 0.0625 -1.078125 L 0.46875 -1.078125 Z M 0.46875 0 "/></g></g></g><g fill="#fffbfa" fill-opacity="1"><g transform="translate(46.747923, 65.767117)"><g><path d="M 0.0351562 0 L 0.144531 0 L 0.265625 -0.296875 L 0.878906 -0.296875 L 1 0 L 1.109375 0 L 0.621094 -1.175781 L 0.523438 -1.175781 Z M 0.308594 -0.390625 L 0.574219 -1.035156 L 0.839844 -0.390625 Z M 0.308594 -0.390625 "/></g></g></g><g fill="#fffbfa" fill-opacity="1"><g transform="translate(48.567412, 65.767117)"><g><path d="M 0.191406 0 L 0.890625 0 L 0.890625 -0.0976562 L 0.292969 -0.0976562 L 0.292969 -1.175781 L 0.191406 -1.175781 Z M 0.191406 0 "/></g></g></g><g fill="#fffbfa" fill-opacity="1"><g transform="translate(50.185293, 65.767117)"><g><path d="M 0.566406 0.0234375 C 0.824219 0.0234375 0.984375 -0.101562 0.984375 -0.300781 C 0.984375 -0.46875 0.871094 -0.570312 0.574219 -0.640625 C 0.324219 -0.695312 0.238281 -0.769531 0.238281 -0.886719 C 0.238281 -1.015625 0.347656 -1.101562 0.539062 -1.101562 C 0.734375 -1.101562 0.855469 -1.007812 0.863281 -0.839844 L 0.964844 -0.839844 C 0.957031 -1.066406 0.796875 -1.199219 0.539062 -1.199219 C 0.289062 -1.199219 0.136719 -1.074219 0.136719 -0.886719 C 0.136719 -0.707031 0.257812 -0.613281 0.546875 -0.542969 C 0.785156 -0.492188 0.878906 -0.421875 0.878906 -0.296875 C 0.878906 -0.160156 0.761719 -0.0742188 0.566406 -0.0742188 C 0.363281 -0.0742188 0.226562 -0.175781 0.21875 -0.347656 L 0.117188 -0.347656 C 0.125 -0.121094 0.300781 0.0234375 0.566406 0.0234375 Z M 0.566406 0.0234375 "/></g></g></g></svg>