<svg xmlns="http://www.w3.org/2000/svg" xmlns:xlink="http://www.w3.org/1999/xlink" width="400" zoomAndPan="magnify" viewBox="0 0 300 299.999988" height="400" preserveAspectRatio="xMidYMid meet" version="1.0"><defs><clipPath id="c5c5584c52"><path d="M 8.367188 29 L 285.851562 29 L 285.851562 278.804688 L 8.367188 278.804688 Z M 8.367188 29 " clip-rule="nonzero"/></clipPath><clipPath id="0b4a92f48a"><path d="M 29 124 L 291.84375 124 L 291.84375 267.871094 L 29 267.871094 Z M 29 124 " clip-rule="nonzero"/></clipPath></defs><path fill="#5ec9cc" d="M 234.285156 247.164062 L 238.78125 267.253906 L 219.820312 267.253906 L 218.105469 259.582031 C 197.609375 271.984375 169.535156 278.296875 131.128906 274.503906 C 68.371094 268.300781 24.96875 228.0625 24.96875 165.082031 C 24.96875 102.101562 81.253906 21.09375 144.316406 21.09375 C 207.382812 21.09375 272.527344 60.832031 272.527344 123.808594 C 272.527344 162.425781 267.65625 215.109375 234.285156 247.164062 " fill-opacity="1" fill-rule="nonzero"/><g clip-path="url(#c5c5584c52)"><path fill="#f25044" d="M 55.195312 149.328125 C 55.207031 149.617188 55.230469 149.914062 55.269531 150.203125 C 55.40625 151.457031 55.800781 152.679688 56.367188 153.8125 C 56.761719 154.597656 57.253906 155.328125 57.820312 156.007812 C 58.050781 155.265625 58.28125 154.53125 58.5 153.816406 C 57.03125 152.640625 55.894531 151.070312 55.195312 149.328125 Z M 90.300781 160.8125 C 90.226562 161.242188 90.132812 161.671875 90.027344 162.09375 C 90.414062 161.464844 90.734375 160.792969 90.96875 160.089844 C 91.804688 157.554688 91.746094 154.816406 91.679688 152.109375 C 91.640625 149.390625 91.65625 146.664062 91.789062 143.945312 C 91.878906 142.039062 92.023438 140.132812 92.210938 138.234375 C 92.039062 138.203125 91.867188 138.171875 91.691406 138.132812 C 90.078125 141.597656 90.015625 145.566406 90.238281 149.378906 C 90.460938 153.195312 90.9375 157.046875 90.300781 160.8125 Z M 92.546875 138.289062 C 92.464844 139.660156 92.398438 141.03125 92.34375 142.398438 C 92.457031 141.023438 92.617188 139.660156 92.828125 138.320312 C 92.734375 138.308594 92.640625 138.304688 92.546875 138.289062 Z M 114.964844 112.675781 C 114.273438 113.738281 113.636719 114.847656 113.136719 116.003906 C 118.257812 115.878906 124.527344 117.316406 132.164062 120.832031 C 132.050781 119.5 132.050781 118.152344 132.050781 116.8125 C 132.054688 115.867188 132.023438 114.859375 131.847656 113.910156 C 131.585938 113.761719 131.320312 113.625 131.042969 113.519531 C 130.648438 113.367188 130.242188 113.246094 129.824219 113.179688 C 129.40625 113.105469 128.984375 113.082031 128.558594 113.09375 C 128.132812 113.105469 127.707031 113.171875 127.277344 113.269531 C 127.214844 113.285156 127.15625 113.246094 127.140625 113.1875 C 127.128906 113.136719 127.152344 113.089844 127.191406 113.0625 C 127.589844 112.824219 128.046875 112.679688 128.507812 112.601562 C 128.972656 112.523438 129.453125 112.535156 129.917969 112.605469 C 130.382812 112.683594 130.84375 112.824219 131.257812 113.050781 C 131.421875 113.136719 131.574219 113.238281 131.726562 113.34375 C 131.597656 112.859375 131.425781 112.398438 131.1875 111.976562 C 131.101562 111.957031 131.011719 111.9375 130.925781 111.921875 C 130.648438 111.875 130.375 111.828125 130.097656 111.8125 C 129.824219 111.792969 129.546875 111.796875 129.265625 111.804688 C 128.984375 111.816406 128.703125 111.851562 128.410156 111.890625 C 128.347656 111.894531 128.289062 111.851562 128.28125 111.792969 C 128.277344 111.746094 128.296875 111.703125 128.332031 111.679688 C 128.589844 111.503906 128.886719 111.390625 129.195312 111.316406 C 129.5 111.238281 129.820312 111.21875 130.136719 111.234375 C 130.339844 111.246094 130.539062 111.28125 130.734375 111.332031 C 130.601562 111.171875 130.449219 111.027344 130.285156 110.890625 C 129.878906 110.839844 129.472656 110.828125 129.074219 110.878906 C 128.65625 110.9375 128.242188 111.035156 127.855469 111.199219 C 127.464844 111.355469 127.097656 111.566406 126.757812 111.820312 C 126.417969 112.074219 126.113281 112.382812 125.847656 112.730469 C 125.808594 112.78125 125.734375 112.789062 125.6875 112.753906 C 125.648438 112.722656 125.632812 112.667969 125.648438 112.625 C 125.976562 111.730469 126.75 111.027344 127.632812 110.660156 C 128.078125 110.480469 128.558594 110.367188 129.039062 110.363281 C 129.160156 110.363281 129.28125 110.367188 129.402344 110.375 C 127.542969 109.707031 124.886719 110.828125 124.359375 112.726562 C 124.203125 111.042969 122.859375 109.585938 121.253906 109.121094 C 121.382812 109.226562 121.519531 109.328125 121.640625 109.449219 C 122 109.804688 122.3125 110.207031 122.539062 110.652344 C 122.769531 111.101562 122.933594 111.582031 122.980469 112.074219 C 122.988281 112.136719 122.941406 112.191406 122.878906 112.195312 C 122.828125 112.203125 122.785156 112.171875 122.765625 112.128906 C 122.582031 111.691406 122.371094 111.28125 122.113281 110.90625 C 121.855469 110.53125 121.566406 110.179688 121.234375 109.867188 C 120.914062 109.550781 120.550781 109.277344 120.164062 109.035156 C 120.128906 109.011719 120.089844 108.992188 120.050781 108.972656 C 119.996094 108.972656 119.9375 108.972656 119.878906 108.976562 C 119.382812 109.019531 118.910156 109.148438 118.460938 109.34375 C 118.777344 109.371094 119.09375 109.433594 119.398438 109.527344 C 120.367188 109.835938 121.257812 110.507812 121.707031 111.414062 C 121.734375 111.46875 121.710938 111.535156 121.65625 111.5625 C 121.609375 111.585938 121.554688 111.574219 121.519531 111.539062 C 121.199219 111.191406 120.847656 110.890625 120.460938 110.648438 C 120.070312 110.40625 119.65625 110.210938 119.222656 110.082031 C 118.789062 109.945312 118.339844 109.871094 117.882812 109.851562 C 117.769531 109.84375 117.65625 109.855469 117.542969 109.859375 C 117.253906 110.0625 116.972656 110.289062 116.707031 110.535156 C 116.867188 110.523438 117.027344 110.515625 117.183594 110.519531 C 117.488281 110.535156 117.796875 110.566406 118.085938 110.648438 C 118.382812 110.726562 118.667969 110.828125 118.933594 110.988281 C 118.984375 111.019531 119.003906 111.089844 118.972656 111.144531 C 118.949219 111.183594 118.910156 111.199219 118.867188 111.199219 L 118.007812 111.136719 C 117.726562 111.121094 117.449219 111.101562 117.171875 111.101562 C 116.894531 111.097656 116.617188 111.105469 116.335938 111.109375 L 116.136719 111.117188 C 115.703125 111.605469 115.308594 112.136719 114.964844 112.675781 Z M 54.457031 146.261719 C 54.207031 143.335938 55.203125 140.324219 57.152344 138.128906 C 59.195312 135.828125 62.25 134.328125 63.492188 131.515625 C 64.886719 128.355469 63.511719 124.75 63.101562 121.324219 C 62.996094 120.449219 62.96875 119.566406 63 118.691406 C 62.886719 119.261719 62.808594 119.839844 62.777344 120.425781 C 62.613281 122.597656 62.882812 124.828125 62.550781 127.074219 C 62.378906 128.1875 62.050781 129.289062 61.503906 130.285156 C 60.953125 131.277344 60.148438 132.152344 59.132812 132.671875 C 59.078125 132.699219 59.011719 132.675781 58.984375 132.621094 C 58.957031 132.570312 58.976562 132.503906 59.027344 132.476562 C 59.96875 131.929688 60.679688 131.066406 61.15625 130.101562 C 61.644531 129.140625 61.929688 128.078125 62.0625 127.003906 C 62.324219 124.847656 62.0625 122.632812 62.195312 120.386719 C 62.296875 118.792969 62.699219 117.210938 63.375 115.761719 C 64.421875 110.789062 67.5625 106.226562 71.996094 103.699219 C 76.75 100.988281 82.832031 100.105469 86.445312 95.992188 C 91.5 90.234375 99.417969 87.105469 107.050781 87.851562 C 111.574219 88.292969 115.925781 90.097656 119.523438 92.863281 C 126.574219 88.558594 136.101562 93.789062 140.433594 98.890625 C 145.097656 104.386719 146.003906 112.765625 142.617188 119.128906 C 141.632812 120.980469 140.300781 122.730469 140.003906 124.808594 C 139.703125 126.882812 141.171875 129.027344 143.273438 128.988281 C 141.601562 130.683594 138.726562 130.777344 136.660156 129.59375 C 135.800781 129.101562 135.074219 128.421875 134.472656 127.640625 C 134.28125 136.238281 134.644531 152.554688 139.585938 160.546875 C 146.484375 171.699219 138.921875 187.933594 138.921875 187.933594 C 138.921875 187.933594 102.292969 187.335938 96.292969 174.074219 C 94.628906 170.390625 92.859375 162.734375 92.285156 154.160156 C 92.28125 156.207031 92.148438 158.277344 91.457031 160.257812 C 91.046875 161.394531 90.433594 162.457031 89.644531 163.371094 C 88.671875 166.195312 86.886719 168.742188 84.238281 170.039062 C 81.46875 171.394531 78.195312 171.203125 75.167969 170.628906 C 72.136719 170.054688 69.128906 169.382812 66.058594 169.09375 C 62.777344 168.78125 60.253906 168.757812 56.867188 170.429688 C 56.027344 168.800781 55.84375 166.832031 56.101562 163.59375 C 56.292969 161.226562 56.980469 158.75 57.707031 156.375 C 57.007812 155.691406 56.410156 154.902344 55.933594 154.042969 C 55.28125 152.882812 54.867188 151.59375 54.6875 150.273438 C 54.59375 149.433594 54.605469 148.582031 54.707031 147.746094 C 54.59375 147.253906 54.5 146.761719 54.457031 146.261719 Z M 247.902344 66.414062 L 247.902344 68.164062 L 255.199219 68.164062 L 255.199219 66.414062 Z M 247.902344 81.347656 L 257.636719 81.347656 L 257.636719 79.597656 L 247.902344 79.597656 Z M 255.355469 79.261719 L 262.378906 79.261719 L 262.378906 77.511719 L 255.355469 77.511719 Z M 247.902344 79.261719 L 255.199219 79.261719 L 255.199219 77.511719 L 247.902344 77.511719 Z M 247.902344 77.175781 L 261.046875 77.175781 L 261.046875 75.425781 L 247.902344 75.425781 Z M 247.902344 74.425781 L 257.636719 74.425781 L 257.636719 72.671875 L 247.902344 72.671875 Z M 263.972656 70.589844 L 255.355469 70.589844 L 255.355469 72.339844 L 263.972656 72.339844 Z M 247.902344 72.339844 L 255.199219 72.339844 L 255.199219 70.589844 L 247.902344 70.589844 Z M 247.902344 70.25 L 261.046875 70.25 L 261.046875 68.5 L 247.902344 68.5 Z M 229.164062 65.125 L 243.640625 65.125 L 243.640625 63.375 L 229.164062 63.375 Z M 242.3125 47.96875 L 229.164062 47.96875 L 229.164062 49.71875 L 242.3125 49.71875 Z M 229.164062 63.109375 L 238.898438 63.109375 L 238.898438 61.359375 L 229.164062 61.359375 Z M 243.640625 59.269531 L 236.617188 59.269531 L 236.617188 61.023438 L 243.640625 61.023438 Z M 229.164062 61.023438 L 236.460938 61.023438 L 236.460938 59.269531 L 229.164062 59.269531 Z M 229.164062 58.933594 L 242.3125 58.933594 L 242.3125 57.183594 L 229.164062 57.183594 Z M 229.164062 56.183594 L 238.898438 56.183594 L 238.898438 54.433594 L 229.164062 54.433594 Z M 245.238281 52.347656 L 236.617188 52.347656 L 236.617188 54.097656 L 245.238281 54.097656 Z M 229.164062 54.097656 L 236.460938 54.097656 L 236.460938 52.347656 L 229.164062 52.347656 Z M 229.164062 52.011719 L 242.3125 52.011719 L 242.3125 50.261719 L 229.164062 50.261719 Z M 261.445312 45.464844 L 248.296875 45.464844 L 248.296875 47.214844 L 261.445312 47.214844 Z M 258.035156 43.394531 L 248.296875 43.394531 L 248.296875 45.144531 L 258.035156 45.144531 Z M 255.75 43.058594 L 262.773438 43.058594 L 262.773438 41.308594 L 255.75 41.308594 Z M 255.597656 41.308594 L 248.296875 41.308594 L 248.296875 43.058594 L 255.597656 43.058594 Z M 261.445312 39.222656 L 248.296875 39.222656 L 248.296875 40.972656 L 261.445312 40.972656 Z M 258.035156 36.46875 L 248.296875 36.46875 L 248.296875 38.21875 L 258.035156 38.21875 Z M 255.75 36.132812 L 264.371094 36.132812 L 264.371094 34.382812 L 255.75 34.382812 Z M 255.597656 34.382812 L 248.296875 34.382812 L 248.296875 36.132812 L 255.597656 36.132812 Z M 261.445312 32.296875 L 248.296875 32.296875 L 248.296875 34.046875 L 261.445312 34.046875 Z M 263.308594 49.71875 L 249.363281 49.71875 L 249.363281 63.648438 L 263.308594 63.648438 Z M 265.058594 65.398438 L 247.609375 65.398438 L 247.609375 47.96875 L 265.058594 47.96875 Z M 244.566406 68.164062 L 230.625 68.164062 L 230.625 79.324219 L 244.566406 79.324219 Z M 246.320312 81.074219 L 228.871094 81.074219 L 228.871094 66.414062 L 246.320312 66.414062 Z M 244.566406 34.046875 L 230.625 34.046875 L 230.625 45.464844 L 244.566406 45.464844 Z M 246.320312 47.214844 L 228.871094 47.214844 L 228.871094 32.296875 L 246.320312 32.296875 Z M 259.496094 132.679688 L 249.761719 132.679688 L 249.761719 134.429688 L 259.496094 134.429688 Z M 265.832031 130.59375 L 257.210938 130.59375 L 257.210938 132.34375 L 265.832031 132.34375 Z M 249.761719 132.34375 L 257.058594 132.34375 L 257.058594 130.59375 L 249.761719 130.59375 Z M 262.90625 128.507812 L 249.761719 128.507812 L 249.761719 130.257812 L 262.90625 130.257812 Z M 249.761719 122.054688 L 259.496094 122.054688 L 259.496094 120.304688 L 249.761719 120.304688 Z M 265.832031 118.21875 L 257.210938 118.21875 L 257.210938 119.96875 L 265.832031 119.96875 Z M 249.761719 119.96875 L 257.058594 119.96875 L 257.058594 118.21875 L 249.761719 118.21875 Z M 262.90625 116.128906 L 249.761719 116.128906 L 249.761719 117.878906 L 262.90625 117.878906 Z M 249.761719 109.679688 L 259.496094 109.679688 L 259.496094 107.929688 L 249.761719 107.929688 Z M 265.832031 105.84375 L 257.210938 105.84375 L 257.210938 107.59375 L 265.832031 107.59375 Z M 249.761719 107.59375 L 257.058594 107.59375 L 257.058594 105.84375 L 249.761719 105.84375 Z M 262.90625 103.753906 L 249.761719 103.753906 L 249.761719 105.507812 L 262.90625 105.507812 Z M 238.753906 134.765625 L 245.359375 134.765625 L 245.359375 128.167969 L 238.753906 128.167969 Z M 237.003906 126.417969 L 247.113281 126.417969 L 247.113281 136.515625 L 237.003906 136.515625 Z M 245.359375 115.796875 L 238.753906 115.796875 L 238.753906 122.390625 L 245.359375 122.390625 Z M 247.113281 124.140625 L 237.003906 124.140625 L 237.003906 114.046875 L 247.113281 114.046875 Z M 245.359375 103.421875 L 238.753906 103.421875 L 238.753906 110.015625 L 245.359375 110.015625 Z M 247.113281 111.765625 L 237.003906 111.765625 L 237.003906 101.671875 L 247.113281 101.671875 Z M 227.71875 132.679688 L 217.988281 132.679688 L 217.988281 134.429688 L 227.71875 134.429688 Z M 225.4375 132.34375 L 234.058594 132.34375 L 234.058594 130.59375 L 225.4375 130.59375 Z M 225.285156 130.59375 L 217.988281 130.59375 L 217.988281 132.34375 L 225.285156 132.34375 Z M 231.132812 128.507812 L 217.988281 128.507812 L 217.988281 130.257812 L 231.132812 130.257812 Z M 227.71875 107.929688 L 217.988281 107.929688 L 217.988281 109.679688 L 227.71875 109.679688 Z M 225.4375 107.59375 L 234.058594 107.59375 L 234.058594 105.84375 L 225.4375 105.84375 Z M 225.285156 105.84375 L 217.988281 105.84375 L 217.988281 107.59375 L 225.285156 107.59375 Z M 231.132812 103.753906 L 217.988281 103.753906 L 217.988281 105.507812 L 231.132812 105.507812 Z M 206.980469 134.765625 L 213.585938 134.765625 L 213.585938 128.167969 L 206.980469 128.167969 Z M 205.230469 126.417969 L 215.339844 126.417969 L 215.339844 136.515625 L 205.230469 136.515625 Z M 213.585938 103.421875 L 206.980469 103.421875 L 206.980469 110.015625 L 213.585938 110.015625 Z M 215.339844 111.765625 L 205.230469 111.765625 L 205.230469 101.671875 L 215.339844 101.671875 Z M 212.207031 29.148438 L 168.898438 29.148438 L 168.898438 84.222656 L 212.207031 84.222656 Z M 285.851562 270.574219 C 285.851562 275.117188 223.734375 278.804688 147.109375 278.804688 C 70.484375 278.804688 8.367188 275.117188 8.367188 270.574219 C 8.367188 266.589844 56.03125 263.265625 119.355469 262.503906 L 104.984375 226.84375 C 104.683594 226.082031 105.054688 225.222656 105.816406 224.921875 C 106.574219 224.621094 107.433594 224.996094 107.734375 225.753906 L 122.53125 262.464844 C 130.507812 262.382812 138.71875 262.339844 147.109375 262.339844 C 173.421875 262.339844 198.023438 262.773438 218.988281 263.527344 L 219.820312 267.253906 L 238.78125 267.253906 L 238.132812 264.359375 C 267.367188 265.867188 285.851562 268.089844 285.851562 270.574219 " fill-opacity="1" fill-rule="nonzero"/></g><path fill="#ffffff" d="M 174.664062 78.773438 L 197.054688 78.773438 L 197.054688 78.191406 L 174.664062 78.191406 Z M 206.4375 74.632812 L 174.664062 74.632812 L 174.664062 75.21875 L 206.4375 75.21875 Z M 206.4375 71.074219 L 174.664062 71.074219 L 174.664062 71.65625 L 206.4375 71.65625 Z M 206.4375 67.515625 L 174.664062 67.515625 L 174.664062 68.101562 L 206.4375 68.101562 Z M 206.4375 63.957031 L 174.664062 63.957031 L 174.664062 64.539062 L 206.4375 64.539062 Z M 206.4375 60.398438 L 174.664062 60.398438 L 174.664062 60.980469 L 206.4375 60.980469 Z M 206.148438 36.285156 L 174.957031 36.285156 L 174.957031 56.394531 L 206.148438 56.394531 Z M 206.730469 56.976562 L 174.375 56.976562 L 174.375 35.699219 L 206.730469 35.699219 Z M 214.171875 102.835938 L 206.398438 102.835938 L 206.398438 110.597656 L 214.171875 110.597656 Z M 181.621094 117.210938 L 181.207031 116.800781 L 177.234375 120.769531 L 175.8125 119.347656 L 175.398438 119.757812 L 177.234375 121.59375 Z M 182.398438 122.972656 L 174.625 122.972656 L 174.625 115.210938 L 182.398438 115.210938 Z M 265.25 106.425781 L 257.796875 106.425781 L 257.796875 107.011719 L 265.25 107.011719 Z M 265.25 118.800781 L 257.796875 118.800781 L 257.796875 119.382812 L 265.25 119.382812 Z M 265.25 131.175781 L 257.796875 131.175781 L 257.796875 131.757812 L 265.25 131.757812 Z M 258.910156 133.261719 L 250.34375 133.261719 L 250.34375 133.847656 L 258.910156 133.847656 Z M 246.527344 102.253906 L 237.585938 102.253906 L 237.585938 111.183594 L 246.527344 111.183594 Z M 246.527344 114.628906 L 237.585938 114.628906 L 237.585938 123.558594 L 246.527344 123.558594 Z M 246.527344 127.003906 L 237.585938 127.003906 L 237.585938 135.933594 L 246.527344 135.933594 Z M 233.476562 106.425781 L 226.023438 106.425781 L 226.023438 107.011719 L 233.476562 107.011719 Z M 233.476562 118.800781 L 226.023438 118.800781 L 226.023438 119.382812 L 233.476562 119.382812 Z M 233.476562 131.175781 L 226.023438 131.175781 L 226.023438 131.757812 L 233.476562 131.757812 Z M 227.136719 133.261719 L 218.570312 133.261719 L 218.570312 133.847656 L 227.136719 133.847656 Z M 214.753906 102.253906 L 205.8125 102.253906 L 205.8125 111.183594 L 214.753906 111.183594 Z M 214.753906 114.628906 L 205.8125 114.628906 L 205.8125 123.558594 L 214.753906 123.558594 Z M 214.753906 127.003906 L 205.8125 127.003906 L 205.8125 135.933594 L 214.753906 135.933594 Z M 201.699219 106.425781 L 194.25 106.425781 L 194.25 107.011719 L 201.699219 107.011719 Z M 201.699219 118.800781 L 194.25 118.800781 L 194.25 119.382812 L 201.699219 119.382812 Z M 201.699219 131.175781 L 194.25 131.175781 L 194.25 131.757812 L 201.699219 131.757812 Z M 195.363281 133.261719 L 186.796875 133.261719 L 186.796875 133.847656 L 195.363281 133.847656 Z M 182.980469 102.253906 L 174.039062 102.253906 L 174.039062 111.183594 L 182.980469 111.183594 Z M 182.980469 114.628906 L 174.039062 114.628906 L 174.039062 123.558594 L 182.980469 123.558594 Z M 182.980469 127.003906 L 174.039062 127.003906 L 174.039062 135.933594 L 182.980469 135.933594 Z M 186.796875 131.757812 L 192.925781 131.757812 L 192.925781 131.175781 L 186.796875 131.175781 Z M 186.796875 129.675781 L 198.777344 129.675781 L 198.777344 129.089844 L 186.796875 129.089844 Z M 186.796875 121.472656 L 195.363281 121.472656 L 195.363281 120.890625 L 186.796875 120.890625 Z M 186.796875 119.382812 L 192.925781 119.382812 L 192.925781 118.800781 L 186.796875 118.800781 Z M 186.796875 117.296875 L 198.777344 117.296875 L 198.777344 116.714844 L 186.796875 116.714844 Z M 186.796875 109.09375 L 195.363281 109.09375 L 195.363281 108.511719 L 186.796875 108.511719 Z M 186.796875 107.011719 L 192.925781 107.011719 L 192.925781 106.425781 L 186.796875 106.425781 Z M 186.796875 104.921875 L 198.777344 104.921875 L 198.777344 104.339844 L 186.796875 104.339844 Z M 218.570312 131.757812 L 224.699219 131.757812 L 224.699219 131.175781 L 218.570312 131.175781 Z M 218.570312 129.675781 L 230.550781 129.675781 L 230.550781 129.089844 L 218.570312 129.089844 Z M 218.570312 121.472656 L 227.136719 121.472656 L 227.136719 120.890625 L 218.570312 120.890625 Z M 218.570312 119.382812 L 224.699219 119.382812 L 224.699219 118.800781 L 218.570312 118.800781 Z M 218.570312 117.296875 L 230.550781 117.296875 L 230.550781 116.714844 L 218.570312 116.714844 Z M 218.570312 109.09375 L 227.136719 109.09375 L 227.136719 108.511719 L 218.570312 108.511719 Z M 218.570312 107.011719 L 224.699219 107.011719 L 224.699219 106.425781 L 218.570312 106.425781 Z M 218.570312 104.921875 L 230.550781 104.921875 L 230.550781 104.339844 L 218.570312 104.339844 Z M 250.34375 131.757812 L 256.472656 131.757812 L 256.472656 131.175781 L 250.34375 131.175781 Z M 250.34375 129.675781 L 262.324219 129.675781 L 262.324219 129.089844 L 250.34375 129.089844 Z M 250.34375 121.472656 L 258.910156 121.472656 L 258.910156 120.890625 L 250.34375 120.890625 Z M 250.34375 119.382812 L 256.472656 119.382812 L 256.472656 118.800781 L 250.34375 118.800781 Z M 250.34375 117.296875 L 262.324219 117.296875 L 262.324219 116.714844 L 250.34375 116.714844 Z M 250.34375 109.09375 L 258.910156 109.09375 L 258.910156 108.511719 L 250.34375 108.511719 Z M 250.34375 107.011719 L 256.472656 107.011719 L 256.472656 106.425781 L 250.34375 106.425781 Z M 250.34375 104.921875 L 262.324219 104.921875 L 262.324219 104.339844 L 250.34375 104.339844 Z M 270.679688 141.5625 L 168.898438 141.5625 L 168.898438 94.980469 L 270.679688 94.980469 Z M 181.621094 129.585938 L 181.207031 129.175781 L 177.234375 133.140625 L 175.8125 131.722656 L 175.398438 132.136719 L 177.234375 133.96875 Z M 182.398438 135.351562 L 174.625 135.351562 L 174.625 127.585938 L 182.398438 127.585938 Z M 214.171875 127.585938 L 206.398438 127.585938 L 206.398438 135.351562 L 214.171875 135.351562 Z M 213.394531 117.210938 L 212.980469 116.800781 L 209.007812 120.769531 L 207.585938 119.347656 L 207.171875 119.757812 L 209.007812 121.59375 Z M 214.171875 122.972656 L 206.398438 122.972656 L 206.398438 115.210938 L 214.171875 115.210938 Z M 245.945312 127.585938 L 238.171875 127.585938 L 238.171875 135.351562 L 245.945312 135.351562 Z M 245.945312 115.210938 L 238.171875 115.210938 L 238.171875 122.972656 L 245.945312 122.972656 Z M 245.945312 102.835938 L 238.171875 102.835938 L 238.171875 110.597656 L 245.945312 110.597656 Z M 181.621094 104.839844 L 181.207031 104.425781 L 177.234375 108.390625 L 175.8125 106.972656 L 175.398438 107.382812 L 177.234375 109.214844 Z M 182.398438 110.597656 L 174.625 110.597656 L 174.625 102.835938 L 182.398438 102.835938 Z M 288.21875 150.921875 C 288.175781 150.886719 288.132812 150.859375 288.085938 150.828125 C 287.675781 150.542969 287.175781 150.375 286.628906 150.375 L 164.351562 150.375 C 163.105469 150.375 162.042969 151.261719 161.820312 152.484375 L 145.199219 244.84375 C 145.011719 245.886719 145.480469 246.871094 146.289062 247.421875 L 148.746094 249.15625 L 150.644531 247.867188 L 215.480469 247.867188 L 211.4375 229.792969 L 230.398438 229.792969 L 234.441406 247.867188 L 270.007812 247.867188 C 271.253906 247.867188 272.320312 246.976562 272.539062 245.753906 L 289.078125 153.871094 L 290.765625 152.71875 Z M 121.296875 227.542969 C 121.511719 227.542969 121.710938 227.449219 121.84375 227.292969 C 122.136719 226.953125 122.398438 226.5625 122.675781 226.074219 C 122.894531 225.695312 123.09375 225.261719 123.289062 224.746094 C 123.476562 224.222656 123.601562 223.777344 123.683594 223.351562 C 123.792969 222.808594 123.847656 222.332031 123.851562 221.886719 C 123.855469 221.582031 123.660156 221.3125 123.371094 221.21875 L 123.246094 221.1875 L 123.15625 221.1875 C 122.851562 221.1875 122.585938 221.378906 122.492188 221.667969 L 122.085938 222.914062 L 121.996094 223.167969 C 121.882812 223.492188 121.773438 223.8125 121.644531 224.140625 C 121.519531 224.46875 121.390625 224.792969 121.253906 225.113281 L 121.167969 225.328125 L 120.636719 226.546875 C 120.515625 226.839844 120.59375 227.171875 120.835938 227.375 C 120.96875 227.484375 121.128906 227.542969 121.296875 227.542969 Z M 111.304688 234.609375 L 111.523438 234.292969 C 112.46875 232.921875 113.324219 231.535156 114.0625 230.167969 C 115.210938 228.058594 116.226562 225.753906 117.09375 223.324219 C 117.941406 220.867188 118.585938 218.433594 119.003906 216.09375 C 119.445312 213.644531 119.6875 211.140625 119.714844 208.65625 C 119.71875 208.28125 119.433594 207.976562 119.019531 207.953125 C 118.652344 207.953125 118.347656 208.238281 118.328125 208.601562 C 118.175781 210.976562 117.855469 213.390625 117.371094 215.78125 C 116.867188 218.242188 116.21875 220.585938 115.441406 222.75 C 114.679688 224.941406 113.71875 227.171875 112.574219 229.382812 C 111.984375 230.519531 111.320312 231.6875 110.597656 232.855469 L 110.871094 233.527344 C 110.921875 233.648438 111.042969 233.960938 111.042969 233.960938 C 111.214844 234.347656 111.304688 234.609375 111.304688 234.609375 Z M 68.691406 212.730469 C 68.582031 212.664062 68.457031 212.628906 68.328125 212.628906 C 68.085938 212.628906 67.859375 212.757812 67.734375 212.964844 C 67.359375 213.582031 67.019531 214.210938 66.621094 214.957031 C 66.390625 215.386719 66.175781 215.824219 65.957031 216.265625 C 65.839844 216.5 65.722656 216.734375 65.597656 216.984375 L 65.300781 217.621094 C 65.078125 218.089844 64.855469 218.558594 64.648438 219.035156 C 64.355469 219.699219 64.046875 220.40625 63.773438 221.144531 C 63.652344 221.464844 63.78125 221.832031 64.074219 222.007812 C 64.1875 222.074219 64.316406 222.109375 64.445312 222.109375 C 64.695312 222.109375 64.933594 221.976562 65.058594 221.761719 C 65.46875 221.082031 65.84375 220.375 66.167969 219.761719 C 66.402344 219.304688 66.632812 218.839844 66.863281 218.375 L 67.183594 217.726562 C 67.292969 217.488281 67.402344 217.246094 67.515625 217.007812 C 67.71875 216.566406 67.925781 216.121094 68.121094 215.675781 C 68.457031 214.902344 68.734375 214.246094 68.984375 213.566406 C 69.097656 213.253906 68.976562 212.898438 68.691406 212.730469 Z M 70.859375 176.375 C 69.640625 175.136719 68.253906 174.167969 66.734375 173.496094 L 66.578125 173.441406 L 66.453125 173.441406 C 66.1875 173.441406 65.941406 173.59375 65.828125 173.832031 C 65.746094 173.996094 65.734375 174.1875 65.796875 174.359375 C 65.859375 174.535156 65.984375 174.679688 66.148438 174.761719 C 68.6875 175.988281 70.855469 178.277344 72.253906 181.199219 C 73.546875 183.917969 74.191406 186.984375 74.109375 190.070312 C 74.054688 192.808594 73.503906 195.789062 72.421875 199.183594 C 71.472656 202.152344 70.238281 205.101562 69.046875 207.953125 L 69.015625 208.03125 C 68.867188 208.386719 69.027344 208.792969 69.378906 208.953125 L 69.550781 209.019531 L 69.679688 209.019531 C 69.957031 209.019531 70.210938 208.855469 70.328125 208.605469 C 71.632812 205.800781 72.988281 202.800781 74.023438 199.707031 C 75.179688 196.261719 75.78125 193.121094 75.859375 190.105469 C 75.917969 186.683594 75.1875 183.347656 73.742188 180.46875 C 72.957031 178.90625 71.984375 177.527344 70.859375 176.375 Z M 109.316406 201.472656 L 109.40625 201.472656 L 109.453125 201.464844 C 109.757812 201.414062 110.019531 201.207031 110.128906 200.917969 C 110.199219 200.746094 116.875 183.464844 114.871094 166.816406 L 114.277344 166.777344 L 113.109375 166.726562 L 113.101562 166.785156 L 113.113281 166.867188 C 114.789062 180.378906 110.542969 194.382812 109.007812 198.855469 L 84.902344 169.675781 C 84.6875 169.804688 84.464844 169.925781 84.238281 170.039062 C 83.917969 170.191406 83.59375 170.328125 83.261719 170.445312 L 108.640625 201.15625 C 108.804688 201.355469 109.054688 201.472656 109.316406 201.472656 Z M 137.464844 263.109375 L 170.976562 275.601562 L 112.535156 275.601562 L 97.402344 264.757812 C 98.175781 264.796875 98.988281 264.789062 99.851562 264.699219 C 105.011719 264.167969 106.289062 263.328125 106.542969 263.109375 L 106.816406 263.109375 L 111.445312 264.296875 C 112.527344 264.578125 113.65625 264.078125 114.191406 263.109375 L 119.597656 263.109375 L 120.152344 264.480469 C 120.230469 264.675781 120.355469 264.84375 120.515625 264.976562 L 122.242188 266.363281 C 122.402344 266.492188 122.644531 266.398438 122.675781 266.191406 L 122.976562 264 C 123.003906 263.796875 122.980469 263.585938 122.90625 263.390625 L 122.789062 263.109375 L 137.464844 263.109375 " fill-opacity="1" fill-rule="nonzero"/><path fill="#f9d291" d="M 144.671875 185.171875 C 142.011719 181.910156 140.265625 177.691406 138.121094 173.820312 C 139.640625 171.582031 140.082031 168.707031 141.703125 166.527344 C 143.550781 164.054688 146.714844 162.796875 148.464844 160.253906 C 149.855469 158.234375 150.171875 155.632812 149.839844 153.207031 C 149.726562 152.382812 149.542969 151.574219 149.316406 150.777344 C 149.519531 150.042969 149.394531 149.105469 149.015625 148.488281 C 148.871094 148.507812 148.730469 148.53125 148.585938 148.550781 C 148.332031 147.859375 148.058594 147.171875 147.785156 146.488281 C 147.894531 146.386719 147.984375 146.28125 148.035156 146.164062 C 148.394531 145.335938 148.011719 144.015625 147.175781 143.664062 C 146.46875 143.367188 145.757812 143.085938 145.039062 142.820312 C 146.992188 143.042969 148.003906 140.863281 146.617188 139.242188 C 145.023438 137.375 142.132812 135.867188 140.191406 134.335938 C 139.742188 133.980469 139.28125 133.617188 138.734375 133.460938 C 138.1875 133.300781 137.523438 133.390625 137.160156 133.832031 C 136.535156 134.582031 137.117188 135.699219 137.699219 136.484375 C 139.386719 138.765625 141.207031 141.132812 143.734375 142.367188 C 141.894531 141.734375 140.027344 141.1875 138.132812 140.753906 C 137.535156 141.207031 137.390625 142.089844 137.632812 142.796875 C 137.875 143.507812 138.417969 144.074219 138.988281 144.558594 C 139.597656 145.078125 140.261719 145.535156 140.964844 145.921875 C 140.9375 145.9375 140.902344 145.949219 140.875 145.96875 C 140.402344 146.238281 139.964844 146.5625 139.558594 146.921875 C 139.625 146.488281 139.578125 146.0625 139.355469 145.691406 C 136.941406 146.085938 134.523438 145.851562 132.105469 145.523438 C 128.5 153.015625 126.167969 161.117188 125.234375 169.378906 C 124.636719 171.046875 124.449219 172.710938 125.199219 174.023438 C 125.195312 174.023438 125.191406 174.023438 125.1875 174.023438 C 129.996094 184.738281 134.800781 195.453125 139.609375 206.171875 C 142.453125 212.515625 145.316406 218.871094 148.789062 224.886719 L 154.054688 195.644531 C 150.765625 192.300781 147.632812 188.804688 144.671875 185.171875 Z M 245.152344 67.582031 L 230.042969 67.582031 L 230.042969 79.90625 L 245.152344 79.90625 Z M 264.476562 48.554688 L 248.195312 48.554688 L 248.195312 64.8125 L 264.476562 64.8125 Z M 263.390625 71.171875 L 255.9375 71.171875 L 255.9375 71.753906 L 263.390625 71.753906 Z M 261.792969 78.09375 L 255.9375 78.09375 L 255.9375 78.679688 L 261.792969 78.679688 Z M 248.484375 78.09375 L 248.484375 78.679688 L 254.613281 78.679688 L 254.613281 78.09375 Z M 248.484375 76.011719 L 248.484375 76.59375 L 260.464844 76.59375 L 260.464844 76.011719 Z M 248.484375 73.257812 L 248.484375 73.839844 L 257.050781 73.839844 L 257.050781 73.257812 Z M 248.484375 71.171875 L 248.484375 71.753906 L 254.613281 71.753906 L 254.613281 71.171875 Z M 254.613281 67.582031 L 254.613281 66.996094 L 248.484375 66.996094 L 248.484375 67.582031 Z M 248.484375 69.085938 L 248.484375 69.667969 L 260.464844 69.667969 L 260.464844 69.085938 Z M 257.050781 80.183594 L 248.484375 80.183594 L 248.484375 80.765625 L 257.050781 80.765625 Z M 245.734375 32.878906 L 229.457031 32.878906 L 229.457031 46.628906 L 245.734375 46.628906 Z M 229.75 63.957031 L 229.75 64.539062 L 243.058594 64.539062 L 243.058594 63.957031 Z M 229.75 61.941406 L 229.75 62.527344 L 238.316406 62.527344 L 238.316406 61.941406 Z M 229.75 59.855469 L 229.75 60.4375 L 235.875 60.4375 L 235.875 59.855469 Z M 237.199219 59.855469 L 237.199219 60.4375 L 243.058594 60.4375 L 243.058594 59.855469 Z M 229.75 57.765625 L 229.75 58.351562 L 241.726562 58.351562 L 241.726562 57.765625 Z M 229.75 55.015625 L 229.75 55.601562 L 238.316406 55.601562 L 238.316406 55.015625 Z M 229.75 52.929688 L 229.75 53.511719 L 235.875 53.511719 L 235.875 52.929688 Z M 229.75 50.84375 L 229.75 51.425781 L 241.726562 51.425781 L 241.726562 50.84375 Z M 237.199219 52.929688 L 237.199219 53.511719 L 244.652344 53.511719 L 244.652344 52.929688 Z M 241.726562 48.554688 L 229.75 48.554688 L 229.75 49.136719 L 241.726562 49.136719 Z M 245.734375 66.996094 L 229.457031 66.996094 L 229.457031 80.492188 L 245.734375 80.492188 Z M 248.882812 46.628906 L 260.859375 46.628906 L 260.859375 46.046875 L 248.882812 46.046875 Z M 248.882812 44.5625 L 257.449219 44.5625 L 257.449219 43.976562 L 248.882812 43.976562 Z M 248.882812 42.472656 L 255.011719 42.472656 L 255.011719 41.890625 L 248.882812 41.890625 Z M 256.332031 41.890625 L 256.332031 42.472656 L 262.191406 42.472656 L 262.191406 41.890625 Z M 248.882812 40.386719 L 260.859375 40.386719 L 260.859375 39.804688 L 248.882812 39.804688 Z M 248.882812 37.636719 L 257.449219 37.636719 L 257.449219 37.050781 L 248.882812 37.050781 Z M 248.882812 35.546875 L 255.011719 35.546875 L 255.011719 34.964844 L 248.882812 34.964844 Z M 256.332031 34.964844 L 256.332031 35.546875 L 263.785156 35.546875 L 263.785156 34.964844 Z M 248.882812 33.460938 L 260.859375 33.460938 L 260.859375 32.878906 L 248.882812 32.878906 Z M 267.972656 29.148438 L 267.972656 84.222656 L 224.667969 84.222656 L 224.667969 29.148438 Z M 263.890625 49.136719 L 248.777344 49.136719 L 248.777344 64.230469 L 263.890625 64.230469 Z M 245.152344 33.460938 L 230.042969 33.460938 L 230.042969 46.046875 L 245.152344 46.046875 Z M 117.214844 249.277344 L 118.652344 252.84375 C 118.550781 252.636719 118.433594 252.433594 118.277344 252.261719 L 113.53125 247 C 112.996094 246.40625 112.3125 245.960938 111.550781 245.710938 L 103.550781 243.09375 C 101.847656 242.539062 99.976562 243.019531 98.757812 244.332031 L 92.476562 251.082031 L 50.230469 249.847656 L 55.957031 238.304688 L 54.996094 236.054688 C 51.183594 227.136719 43.085938 220.769531 33.507812 219.164062 C 33.507812 219.164062 19.46875 251.75 20.421875 255.234375 C 21.371094 258.71875 23.59375 268.625 35.007812 268.625 C 43.234375 268.625 74.992188 265.386719 92.105469 263.578125 C 93.835938 264.300781 96.523438 265.042969 99.851562 264.699219 C 105.828125 264.082031 106.601562 263.050781 106.601562 263.050781 L 111.445312 264.296875 C 112.554688 264.582031 113.710938 264.058594 114.230469 263.039062 L 114.667969 262.1875 C 114.933594 261.664062 115.457031 261.316406 116.042969 261.277344 L 116.339844 261.257812 C 118.324219 261.128906 119.605469 259.105469 118.871094 257.257812 L 118.886719 253.863281 C 118.890625 253.609375 118.84375 253.359375 118.765625 253.121094 L 118.765625 253.128906 C 120.976562 253.269531 122.703125 252.046875 121.335938 250.789062 C 120.496094 250.019531 118.734375 249.550781 117.214844 249.277344 Z M 114.875 205.382812 C 114.875 202.320312 112.382812 199.828125 109.316406 199.828125 C 106.25 199.828125 103.753906 202.320312 103.753906 205.382812 C 103.753906 208.445312 106.25 210.9375 109.316406 210.9375 C 112.382812 210.9375 114.875 208.445312 114.875 205.382812 Z M 92.210938 138.234375 C 92.039062 138.203125 91.867188 138.171875 91.691406 138.132812 C 90.078125 141.597656 90.015625 145.566406 90.238281 149.378906 C 90.460938 153.195312 90.9375 157.046875 90.300781 160.8125 C 90.226562 161.242188 90.132812 161.671875 90.027344 162.09375 C 90.414062 161.464844 90.734375 160.792969 90.96875 160.089844 C 91.804688 157.554688 91.746094 154.816406 91.679688 152.109375 C 91.640625 149.390625 91.65625 146.664062 91.789062 143.945312 C 91.878906 142.039062 92.023438 140.132812 92.210938 138.234375 Z M 105.402344 136.40625 C 106.585938 135.644531 107.480469 134.472656 108.269531 133.269531 C 106.621094 134.71875 104.492188 135.554688 102.289062 135.253906 C 101.484375 135.941406 100.613281 136.53125 99.695312 137.011719 C 100.21875 137.101562 100.738281 137.183594 101.261719 137.226562 C 102.714844 137.367188 104.210938 137.199219 105.402344 136.40625 Z M 133.890625 126.792969 C 133.347656 125.898438 132.933594 124.910156 132.664062 123.902344 C 132.046875 121.605469 132.046875 119.191406 132.050781 116.8125 C 132.054688 115.867188 132.023438 114.859375 131.847656 113.910156 C 131.585938 113.761719 131.320312 113.625 131.042969 113.519531 C 130.648438 113.367188 130.242188 113.246094 129.824219 113.179688 C 129.40625 113.105469 128.984375 113.082031 128.558594 113.09375 C 128.132812 113.105469 127.707031 113.171875 127.277344 113.269531 C 127.214844 113.285156 127.15625 113.246094 127.140625 113.1875 C 127.128906 113.136719 127.152344 113.089844 127.191406 113.0625 C 127.589844 112.824219 128.046875 112.679688 128.507812 112.601562 C 128.972656 112.523438 129.453125 112.535156 129.917969 112.605469 C 130.382812 112.683594 130.84375 112.824219 131.257812 113.050781 C 131.421875 113.136719 131.574219 113.238281 131.726562 113.34375 C 131.597656 112.859375 131.425781 112.398438 131.1875 111.976562 C 131.101562 111.957031 131.011719 111.9375 130.925781 111.921875 C 130.648438 111.875 130.375 111.828125 130.097656 111.8125 C 129.824219 111.792969 129.546875 111.796875 129.265625 111.804688 C 128.984375 111.816406 128.703125 111.851562 128.410156 111.890625 C 128.347656 111.894531 128.289062 111.851562 128.28125 111.792969 C 128.277344 111.746094 128.296875 111.703125 128.332031 111.679688 C 128.589844 111.503906 128.886719 111.390625 129.195312 111.316406 C 129.5 111.238281 129.820312 111.21875 130.136719 111.234375 C 130.339844 111.246094 130.539062 111.28125 130.734375 111.332031 C 130.601562 111.171875 130.449219 111.027344 130.285156 110.890625 C 129.878906 110.839844 129.472656 110.828125 129.074219 110.878906 C 128.65625 110.9375 128.242188 111.035156 127.855469 111.199219 C 127.464844 111.355469 127.097656 111.566406 126.757812 111.820312 C 126.417969 112.074219 126.113281 112.382812 125.847656 112.730469 C 125.808594 112.78125 125.734375 112.789062 125.6875 112.753906 C 125.648438 112.722656 125.632812 112.667969 125.648438 112.625 C 125.976562 111.730469 126.75 111.027344 127.632812 110.660156 C 128.078125 110.480469 128.558594 110.367188 129.039062 110.363281 C 129.160156 110.363281 129.28125 110.367188 129.402344 110.375 C 127.542969 109.707031 124.886719 110.828125 124.359375 112.726562 C 124.203125 111.042969 122.859375 109.585938 121.253906 109.121094 C 121.382812 109.226562 121.519531 109.328125 121.640625 109.449219 C 122 109.804688 122.3125 110.207031 122.539062 110.652344 C 122.769531 111.101562 122.933594 111.582031 122.980469 112.074219 C 122.988281 112.136719 122.941406 112.191406 122.878906 112.195312 C 122.828125 112.203125 122.785156 112.171875 122.765625 112.128906 C 122.582031 111.691406 122.371094 111.28125 122.113281 110.90625 C 121.855469 110.53125 121.566406 110.179688 121.234375 109.867188 C 120.914062 109.550781 120.550781 109.277344 120.164062 109.035156 C 120.128906 109.011719 120.089844 108.992188 120.050781 108.972656 C 119.996094 108.972656 119.9375 108.972656 119.878906 108.976562 C 119.382812 109.019531 118.910156 109.148438 118.460938 109.34375 C 118.777344 109.371094 119.09375 109.433594 119.398438 109.527344 C 120.367188 109.835938 121.257812 110.507812 121.707031 111.414062 C 121.734375 111.46875 121.710938 111.535156 121.65625 111.5625 C 121.609375 111.585938 121.554688 111.574219 121.519531 111.539062 C 121.199219 111.191406 120.847656 110.890625 120.460938 110.648438 C 120.070312 110.40625 119.65625 110.210938 119.222656 110.082031 C 118.789062 109.945312 118.339844 109.871094 117.882812 109.851562 C 117.769531 109.84375 117.65625 109.855469 117.542969 109.859375 C 117.253906 110.0625 116.972656 110.289062 116.707031 110.535156 C 116.867188 110.523438 117.027344 110.515625 117.183594 110.519531 C 117.488281 110.535156 117.796875 110.566406 118.085938 110.648438 C 118.382812 110.726562 118.667969 110.828125 118.933594 110.988281 C 118.984375 111.019531 119.003906 111.089844 118.972656 111.144531 C 118.949219 111.183594 118.910156 111.199219 118.867188 111.199219 L 118.007812 111.136719 C 117.726562 111.121094 117.449219 111.101562 117.171875 111.101562 C 116.894531 111.097656 116.617188 111.105469 116.335938 111.109375 L 116.136719 111.117188 C 115.703125 111.605469 115.308594 112.136719 114.964844 112.675781 C 113.433594 115.035156 112.101562 117.632812 112.148438 120.445312 C 112.207031 123.863281 112.027344 127.414062 110.464844 130.457031 C 110.199219 130.980469 109.875 131.472656 109.519531 131.9375 C 109.277344 132.449219 109.019531 132.953125 108.734375 133.441406 C 107.964844 134.746094 107.023438 136 105.71875 136.890625 C 104.382812 137.785156 102.710938 137.929688 101.207031 137.75 C 100.46875 137.660156 99.746094 137.507812 99.039062 137.332031 C 98.277344 137.675781 97.492188 137.945312 96.683594 138.128906 C 96.949219 138.976562 97.25 139.8125 97.59375 140.628906 C 98.328125 142.382812 99.226562 144.066406 100.300781 145.636719 C 101.347656 147.222656 102.578125 148.6875 103.929688 150.027344 C 105.28125 151.367188 106.765625 152.578125 108.363281 153.628906 C 108.417969 153.664062 108.429688 153.734375 108.394531 153.785156 C 108.363281 153.832031 108.300781 153.847656 108.246094 153.820312 C 106.566406 152.867188 104.996094 151.710938 103.585938 150.382812 C 102.167969 149.058594 100.914062 147.5625 99.816406 145.964844 C 98.738281 144.351562 97.816406 142.628906 97.113281 140.824219 C 96.78125 139.96875 96.496094 139.097656 96.261719 138.214844 C 95.046875 138.441406 93.800781 138.476562 92.546875 138.289062 C 92.429688 140.183594 92.335938 142.074219 92.28125 143.964844 C 92.210938 146.675781 92.191406 149.386719 92.261719 152.097656 C 92.304688 154.800781 92.382812 157.613281 91.457031 160.257812 C 91.046875 161.394531 90.433594 162.457031 89.644531 163.371094 C 88.902344 165.519531 87.691406 167.5 85.992188 168.902344 C 88.710938 173.441406 91.855469 177.753906 95.855469 181.203125 C 100.515625 185.222656 106.464844 188.003906 112.621094 187.933594 C 114.035156 187.914062 115.484375 187.738281 116.742188 187.089844 C 118 186.4375 119.039062 185.242188 119.199219 183.835938 C 119.4375 181.71875 117.730469 179.914062 116.019531 178.644531 C 114.3125 177.375 111.429688 176.125 111.554688 174.003906 C 111.90625 168.246094 112.179688 162.378906 112.53125 156.621094 C 115.515625 157.746094 118.820312 158.878906 121.808594 157.769531 C 124.507812 156.769531 126.25 154.175781 127.597656 151.632812 C 131.640625 144.011719 133.789062 135.414062 133.890625 126.792969 Z M 63.097656 117.421875 L 50.289062 117.421875 L 50.289062 84.808594 C 50.09375 85.121094 49.894531 85.429688 49.703125 85.742188 L 49.703125 118.003906 L 63.050781 118.003906 C 63.066406 117.808594 63.074219 117.613281 63.097656 117.421875 Z M 94.46875 90.046875 C 94.660156 89.957031 94.855469 89.878906 95.050781 89.796875 L 95.050781 50.4375 L 78.425781 50.4375 C 78.214844 50.632812 78.007812 50.828125 77.800781 51.023438 L 94.46875 51.023438 Z M 140.632812 99.148438 C 140.789062 99.339844 140.941406 99.53125 141.089844 99.730469 L 154.375 99.730469 L 154.375 32.164062 L 109.027344 32.164062 L 109.027344 88.144531 C 109.222656 88.175781 109.417969 88.222656 109.613281 88.265625 L 109.613281 32.75 L 153.789062 32.75 L 153.789062 99.148438 Z M 107.273438 87.882812 L 107.273438 30.414062 L 156.128906 30.414062 L 156.128906 101.480469 L 142.230469 101.480469 C 142.339844 101.675781 142.449219 101.867188 142.550781 102.066406 L 156.710938 102.066406 L 156.710938 29.832031 L 108.105469 29.832031 C 107.632812 30.058594 107.160156 30.289062 106.691406 30.523438 L 106.691406 87.828125 C 106.8125 87.835938 106.929688 87.839844 107.050781 87.851562 C 107.128906 87.859375 107.199219 87.875 107.273438 87.882812 Z M 96.820312 89.105469 C 97.015625 89.039062 97.210938 88.976562 97.40625 88.910156 L 97.40625 48.105469 L 81.003906 48.105469 C 80.785156 48.296875 80.570312 48.496094 80.355469 48.6875 L 96.820312 48.6875 Z M 63.023438 120.335938 L 47.386719 120.335938 L 47.386719 89.617188 C 47.582031 89.285156 47.773438 88.949219 47.96875 88.617188 L 47.96875 119.753906 L 63 119.753906 C 63.003906 119.949219 63.011719 120.140625 63.023438 120.335938 " fill-opacity="1" fill-rule="nonzero"/><g clip-path="url(#0b4a92f48a)"><path fill="#30526a" d="M 109.101562 262.957031 C 108.859375 262.71875 108.621094 262.472656 108.410156 262.210938 C 108.191406 261.953125 107.996094 261.679688 107.804688 261.394531 C 107.617188 261.109375 107.449219 260.808594 107.273438 260.496094 C 107.253906 260.457031 107.210938 260.433594 107.164062 260.441406 C 107.101562 260.449219 107.054688 260.503906 107.0625 260.566406 C 107.105469 260.933594 107.21875 261.289062 107.371094 261.628906 C 107.433594 261.777344 107.511719 261.914062 107.59375 262.050781 C 107.5625 262.078125 107.523438 262.105469 107.496094 262.132812 C 107.378906 262.253906 107.300781 262.40625 107.246094 262.558594 C 107.199219 262.714844 107.171875 262.875 107.1875 263.039062 C 107.203125 263.199219 107.242188 263.363281 107.335938 263.5 C 107.351562 263.519531 107.371094 263.535156 107.394531 263.542969 C 107.460938 263.566406 107.527344 263.535156 107.554688 263.472656 L 107.554688 263.460938 C 107.605469 263.324219 107.636719 263.203125 107.679688 263.085938 C 107.722656 262.96875 107.753906 262.859375 107.796875 262.75 C 107.828125 262.664062 107.863281 262.582031 107.894531 262.492188 C 107.917969 262.519531 107.933594 262.554688 107.957031 262.582031 C 108.199219 262.871094 108.464844 263.132812 108.769531 263.351562 C 109.070312 263.570312 109.398438 263.757812 109.753906 263.871094 C 109.804688 263.886719 109.863281 263.871094 109.898438 263.828125 C 109.945312 263.769531 109.9375 263.6875 109.878906 263.636719 C 109.609375 263.414062 109.34375 263.195312 109.101562 262.957031 Z M 115.839844 253.660156 C 116.398438 254.257812 116.910156 254.898438 117.417969 255.542969 C 117.921875 256.191406 118.402344 256.859375 118.875 257.535156 C 118.910156 257.578125 118.964844 257.59375 119.015625 257.570312 C 119.074219 257.542969 119.097656 257.476562 119.070312 257.421875 C 118.714844 256.667969 118.285156 255.945312 117.816406 255.253906 C 117.351562 254.558594 116.824219 253.90625 116.277344 253.269531 C 115.710938 252.652344 115.121094 252.054688 114.488281 251.507812 C 113.855469 250.960938 113.1875 250.449219 112.476562 250.007812 C 112.425781 249.972656 112.351562 249.984375 112.308594 250.03125 C 112.261719 250.085938 112.265625 250.171875 112.320312 250.21875 C 112.9375 250.765625 113.554688 251.3125 114.140625 251.886719 C 114.726562 252.457031 115.304688 253.039062 115.839844 253.660156 Z M 106.707031 262.515625 C 106.679688 262.4375 106.652344 262.359375 106.605469 262.285156 C 106.5625 262.210938 106.511719 262.132812 106.429688 262.058594 L 106.425781 262.054688 C 106.414062 262.042969 106.402344 262.035156 106.390625 262.027344 C 106.308594 261.988281 106.210938 262.019531 106.171875 262.097656 C 106.117188 262.203125 106.105469 262.308594 106.105469 262.410156 C 106.101562 262.511719 106.125 262.609375 106.15625 262.707031 C 106.195312 262.796875 106.238281 262.886719 106.308594 262.964844 C 106.375 263.042969 106.449219 263.113281 106.558594 263.160156 C 106.566406 263.167969 106.578125 263.171875 106.589844 263.171875 C 106.667969 263.183594 106.738281 263.132812 106.753906 263.058594 L 106.753906 263.054688 C 106.773438 262.941406 106.765625 262.851562 106.757812 262.761719 C 106.753906 262.671875 106.730469 262.59375 106.707031 262.515625 Z M 51.410156 249.890625 C 49.773438 249.59375 48.113281 249.453125 46.445312 249.429688 C 44.777344 249.410156 43.109375 249.527344 41.457031 249.753906 C 39.804688 250 38.167969 250.34375 36.574219 250.832031 C 34.980469 251.3125 33.421875 251.914062 31.933594 252.652344 C 31.882812 252.679688 31.859375 252.738281 31.878906 252.792969 C 31.902344 252.851562 31.96875 252.878906 32.023438 252.855469 C 33.558594 252.253906 35.121094 251.726562 36.710938 251.304688 C 38.300781 250.882812 39.90625 250.539062 41.539062 250.328125 C 43.164062 250.089844 44.804688 249.972656 46.445312 249.945312 C 48.089844 249.917969 49.734375 249.992188 51.375 250.152344 C 51.441406 250.160156 51.507812 250.113281 51.519531 250.042969 C 51.53125 249.972656 51.484375 249.90625 51.410156 249.890625 Z M 91.808594 263.371094 C 90.8125 262.800781 90.203125 261.574219 90.347656 260.359375 C 90.351562 260.300781 90.316406 260.238281 90.253906 260.21875 C 90.183594 260.195312 90.109375 260.234375 90.085938 260.304688 C 89.761719 261.3125 90.066406 262.472656 90.796875 263.277344 C 90.402344 263.214844 90.011719 263.109375 89.644531 262.949219 C 89.019531 262.675781 88.445312 262.234375 88.167969 261.597656 C 88.144531 261.546875 88.09375 261.519531 88.039062 261.53125 C 87.980469 261.542969 87.941406 261.601562 87.953125 261.660156 C 88.023438 262.042969 88.234375 262.398438 88.492188 262.695312 C 88.761719 262.984375 89.078125 263.21875 89.421875 263.40625 C 90.109375 263.769531 90.890625 263.949219 91.679688 263.914062 C 91.773438 263.90625 91.867188 263.855469 91.917969 263.769531 C 91.996094 263.625 91.949219 263.449219 91.808594 263.371094 Z M 137.925781 174.378906 C 137.644531 174.546875 137.375 174.71875 137.097656 174.871094 C 136.816406 175.015625 136.542969 175.164062 136.257812 175.292969 C 135.972656 175.421875 135.679688 175.535156 135.386719 175.648438 C 135.089844 175.757812 134.785156 175.847656 134.476562 175.949219 C 134.425781 175.964844 134.386719 176.011719 134.382812 176.066406 C 134.375 176.140625 134.429688 176.203125 134.503906 176.210938 C 134.84375 176.246094 135.1875 176.210938 135.527344 176.144531 C 135.859375 176.078125 136.1875 175.964844 136.5 175.820312 C 136.808594 175.671875 137.105469 175.496094 137.375 175.28125 C 137.640625 175.066406 137.886719 174.824219 138.078125 174.542969 C 138.105469 174.507812 138.105469 174.457031 138.082031 174.417969 C 138.050781 174.367188 137.980469 174.347656 137.925781 174.378906 Z M 119.925781 150.835938 C 119.714844 150.828125 119.507812 150.832031 119.300781 150.832031 C 119.097656 150.839844 118.890625 150.835938 118.679688 150.847656 C 118.46875 150.855469 118.257812 150.859375 118.039062 150.890625 C 118.003906 150.894531 117.96875 150.917969 117.949219 150.953125 C 117.917969 151.007812 117.9375 151.078125 117.996094 151.109375 C 118.195312 151.222656 118.414062 151.289062 118.632812 151.339844 C 118.851562 151.390625 119.078125 151.410156 119.300781 151.414062 C 119.527344 151.414062 119.753906 151.402344 119.972656 151.351562 C 120.195312 151.304688 120.410156 151.242188 120.613281 151.128906 C 120.648438 151.109375 120.679688 151.070312 120.683594 151.023438 C 120.691406 150.949219 120.636719 150.878906 120.5625 150.871094 C 120.339844 150.84375 120.132812 150.84375 119.925781 150.835938 Z M 120.496094 146.074219 L 117.132812 145.871094 L 114.390625 145.671875 C 114.996094 146.371094 115.777344 146.945312 116.605469 147.398438 C 117.113281 147.671875 117.648438 147.90625 118.203125 148.085938 C 118.738281 148.269531 119.347656 148.394531 119.871094 148.433594 L 119.90625 148.4375 C 120.867188 148.003906 121.796875 147.347656 122.539062 146.578125 C 122.628906 146.484375 122.738281 146.371094 122.804688 146.289062 C 122.832031 146.253906 122.84375 146.226562 122.847656 146.210938 C 122.824219 146.199219 122.722656 146.183594 122.597656 146.183594 L 122.175781 146.160156 C 121.617188 146.136719 121.054688 146.105469 120.496094 146.074219 Z M 117.171875 145.292969 L 120.53125 145.539062 C 121.09375 145.578125 121.652344 145.625 122.210938 145.675781 L 122.628906 145.710938 C 122.757812 145.734375 122.949219 145.703125 123.167969 145.878906 C 123.28125 145.976562 123.328125 146.152344 123.296875 146.28125 C 123.265625 146.414062 123.207031 146.492188 123.152344 146.5625 C 123.035156 146.691406 122.949219 146.773438 122.839844 146.878906 C 122 147.679688 121.023438 148.269531 119.914062 148.671875 L 119.871094 148.6875 C 119.226562 148.679688 118.679688 148.574219 118.101562 148.417969 C 117.519531 148.257812 116.957031 148.039062 116.414062 147.777344 C 115.871094 147.507812 115.351562 147.191406 114.867188 146.820312 C 114.382812 146.449219 113.933594 146.023438 113.570312 145.511719 C 113.480469 145.390625 113.511719 145.222656 113.632812 145.136719 C 113.683594 145.101562 113.746094 145.085938 113.804688 145.089844 L 113.8125 145.089844 Z M 123.148438 142.59375 C 123.523438 142.675781 123.925781 142.574219 124.261719 142.394531 C 124.59375 142.199219 124.867188 141.917969 125.070312 141.585938 C 125.46875 140.914062 125.511719 140.136719 125.46875 139.429688 C 125.414062 138.722656 125.285156 138.019531 125.066406 137.347656 C 124.851562 136.675781 124.5625 136.023438 124.179688 135.4375 C 124.148438 135.394531 124.09375 135.375 124.046875 135.394531 C 123.984375 135.417969 123.957031 135.480469 123.980469 135.539062 C 124.226562 136.179688 124.441406 136.820312 124.589844 137.480469 C 124.738281 138.136719 124.847656 138.800781 124.886719 139.464844 C 124.929688 140.128906 124.886719 140.785156 124.617188 141.335938 C 124.347656 141.871094 123.804688 142.328125 123.175781 142.332031 C 123.113281 142.332031 123.058594 142.375 123.046875 142.4375 C 123.03125 142.507812 123.074219 142.578125 123.148438 142.59375 Z M 109.773438 125.804688 C 110.605469 125.523438 111.457031 125.3125 112.320312 125.191406 C 113.183594 125.074219 114.054688 125.019531 114.921875 125.078125 C 115.789062 125.113281 116.652344 125.253906 117.496094 125.464844 C 118.339844 125.671875 119.160156 125.972656 119.964844 126.335938 C 120.023438 126.363281 120.09375 126.34375 120.128906 126.289062 C 120.171875 126.226562 120.15625 126.144531 120.09375 126.105469 C 119.335938 125.609375 118.503906 125.234375 117.636719 124.96875 C 116.765625 124.699219 115.859375 124.554688 114.953125 124.5 C 114.042969 124.46875 113.125 124.519531 112.238281 124.707031 C 111.347656 124.890625 110.480469 125.179688 109.683594 125.597656 C 109.636719 125.625 109.613281 125.679688 109.628906 125.734375 C 109.648438 125.792969 109.710938 125.824219 109.773438 125.804688 Z M 127.890625 127.519531 C 128.324219 127.160156 128.777344 126.847656 129.261719 126.59375 C 129.746094 126.347656 130.253906 126.144531 130.777344 126.007812 C 131.300781 125.863281 131.839844 125.785156 132.382812 125.757812 C 132.925781 125.730469 133.472656 125.773438 134.023438 125.863281 C 134.082031 125.871094 134.144531 125.839844 134.171875 125.78125 C 134.199219 125.714844 134.167969 125.636719 134.097656 125.609375 C 133.5625 125.378906 132.972656 125.265625 132.382812 125.238281 C 131.789062 125.210938 131.195312 125.289062 130.621094 125.445312 C 130.054688 125.605469 129.5 125.84375 129.011719 126.171875 C 128.519531 126.496094 128.070312 126.894531 127.726562 127.367188 C 127.699219 127.40625 127.699219 127.464844 127.734375 127.503906 C 127.773438 127.550781 127.84375 127.558594 127.890625 127.519531 Z M 289.269531 152.238281 L 166.992188 152.238281 C 165.746094 152.238281 164.683594 153.128906 164.460938 154.355469 L 147.839844 246.710938 C 147.554688 248.285156 148.769531 249.734375 150.371094 249.734375 L 215.605469 249.734375 L 217.472656 257.941406 C 217.714844 258.996094 217.976562 260.046875 218.222656 261.101562 L 187.570312 261.101562 L 176.460938 267.253906 L 219.6875 267.253906 C 219.6875 267.261719 219.691406 267.273438 219.691406 267.28125 C 219.707031 267.351562 219.777344 267.394531 219.847656 267.378906 C 219.917969 267.367188 219.964844 267.296875 219.949219 267.226562 C 219.3125 264.089844 218.65625 260.957031 217.976562 257.832031 L 215.914062 248.460938 L 213.777344 239.101562 C 213.054688 235.996094 212.308594 232.894531 211.554688 229.792969 L 230.292969 229.792969 C 230.292969 229.800781 230.289062 229.808594 230.289062 229.816406 C 230.925781 232.953125 231.578125 236.085938 232.253906 239.210938 L 234.304688 248.585938 L 236.433594 257.941406 C 237.152344 261.058594 237.894531 264.171875 238.652344 267.28125 C 238.667969 267.351562 238.734375 267.394531 238.804688 267.378906 C 238.867188 267.367188 238.902344 267.3125 238.902344 267.253906 L 254.539062 267.253906 L 243.71875 261.101562 L 237.625 261.101562 C 237.394531 260.011719 237.171875 258.921875 236.9375 257.832031 L 235.15625 249.734375 L 272.648438 249.734375 C 273.894531 249.734375 274.960938 248.84375 275.179688 247.621094 L 291.800781 155.261719 C 292.085938 153.6875 290.871094 152.238281 289.269531 152.238281 Z M 139.394531 176.210938 C 141.015625 179.367188 142.554688 182.574219 144.671875 185.171875 C 147.632812 188.804688 150.765625 192.300781 154.054688 195.644531 L 154.777344 191.625 C 150.820312 187.871094 147.019531 184.007812 144.65625 180.964844 C 143.300781 179.21875 141.464844 177.632812 139.394531 176.210938 Z M 123.265625 221.882812 C 123.265625 221.835938 123.238281 221.789062 123.191406 221.773438 C 123.128906 221.757812 123.066406 221.789062 123.046875 221.847656 L 122.636719 223.105469 C 122.492188 223.523438 122.351562 223.9375 122.191406 224.34375 C 122.039062 224.753906 121.871094 225.152344 121.703125 225.558594 L 121.175781 226.773438 C 121.152344 226.828125 121.164062 226.890625 121.214844 226.929688 C 121.269531 226.976562 121.351562 226.96875 121.402344 226.914062 C 121.695312 226.566406 121.945312 226.183594 122.167969 225.789062 C 122.394531 225.390625 122.578125 224.972656 122.738281 224.546875 C 122.894531 224.117188 123.027344 223.683594 123.113281 223.234375 C 123.203125 222.789062 123.265625 222.339844 123.265625 221.882812 Z M 75.277344 190.097656 C 75.332031 186.871094 74.667969 183.621094 73.222656 180.730469 C 72.496094 179.289062 71.570312 177.941406 70.441406 176.785156 C 69.3125 175.636719 67.972656 174.683594 66.5 174.03125 C 66.445312 174.007812 66.378906 174.03125 66.351562 174.085938 C 66.324219 174.140625 66.347656 174.207031 66.40625 174.234375 C 69.265625 175.621094 71.429688 178.128906 72.78125 180.949219 C 74.128906 183.78125 74.777344 186.949219 74.695312 190.082031 C 74.628906 193.234375 73.9375 196.347656 72.976562 199.359375 C 72.015625 202.378906 70.785156 205.316406 69.554688 208.253906 C 69.527344 208.316406 69.558594 208.394531 69.625 208.425781 C 69.691406 208.453125 69.765625 208.425781 69.796875 208.359375 C 71.140625 205.472656 72.453125 202.558594 73.46875 199.523438 C 74.484375 196.492188 75.191406 193.320312 75.277344 190.097656 Z M 68.390625 213.226562 C 68.335938 213.195312 68.265625 213.210938 68.234375 213.265625 C 67.847656 213.910156 67.488281 214.566406 67.136719 215.230469 C 66.785156 215.890625 66.464844 216.566406 66.125 217.230469 C 65.808594 217.910156 65.484375 218.585938 65.179688 219.269531 C 64.878906 219.957031 64.582031 220.644531 64.320312 221.347656 C 64.300781 221.40625 64.324219 221.472656 64.378906 221.507812 C 64.441406 221.542969 64.523438 221.523438 64.558594 221.460938 C 64.949219 220.816406 65.300781 220.15625 65.644531 219.492188 C 65.992188 218.828125 66.316406 218.15625 66.648438 217.484375 C 66.960938 216.804688 67.285156 216.132812 67.582031 215.441406 C 67.882812 214.757812 68.175781 214.066406 68.433594 213.363281 C 68.453125 213.3125 68.433594 213.253906 68.390625 213.226562 Z M 148.253906 223.933594 L 145.8125 225.992188 C 143.050781 234.46875 136.15625 247.949219 136.15625 247.949219 L 136.15625 262.453125 L 122.527344 262.453125 L 118.765625 253.128906 C 120.976562 253.269531 122.703125 252.046875 121.335938 250.789062 C 120.496094 250.019531 118.734375 249.550781 117.214844 249.273438 L 111.042969 233.960938 C 111.949219 232.648438 112.789062 231.292969 113.550781 229.890625 C 114.726562 227.722656 115.714844 225.457031 116.542969 223.132812 C 117.34375 220.804688 117.992188 218.414062 118.425781 215.988281 C 118.867188 213.566406 119.105469 211.105469 119.132812 208.648438 C 119.132812 208.589844 119.085938 208.539062 119.027344 208.535156 C 118.964844 208.53125 118.914062 208.578125 118.910156 208.640625 C 118.753906 211.082031 118.425781 213.507812 117.945312 215.898438 C 117.453125 218.289062 116.816406 220.644531 115.992188 222.941406 C 115.195312 225.242188 114.210938 227.484375 113.09375 229.648438 C 112.40625 230.972656 111.660156 232.265625 110.871094 233.527344 L 107.734375 225.753906 C 107.433594 224.996094 106.574219 224.621094 105.816406 224.921875 C 105.054688 225.222656 104.683594 226.082031 104.984375 226.84375 L 112.867188 246.410156 C 112.46875 246.109375 112.027344 245.867188 111.550781 245.710938 L 103.550781 243.09375 C 101.847656 242.539062 99.976562 243.019531 98.757812 244.332031 L 98.53125 244.578125 C 98.53125 244.578125 98.535156 244.578125 98.535156 244.578125 C 98.574219 244.617188 98.578125 244.683594 98.542969 244.726562 C 97.859375 245.617188 97.117188 246.464844 96.359375 247.296875 C 95.601562 248.128906 94.8125 248.929688 94.03125 249.734375 C 93.230469 250.519531 92.429688 251.3125 91.613281 252.078125 C 90.789062 252.84375 89.964844 253.601562 89.109375 254.332031 C 89.054688 254.378906 88.972656 254.375 88.925781 254.320312 C 88.878906 254.265625 88.878906 254.191406 88.925781 254.144531 C 89.683594 253.3125 90.464844 252.511719 91.25 251.707031 L 91.890625 251.0625 L 71.636719 250.472656 L 64.421875 221.820312 L 55.957031 238.304688 L 54.996094 236.054688 C 51.183594 227.136719 43.085938 220.769531 33.507812 219.164062 C 33.507812 219.164062 32.945312 220.476562 32.050781 222.597656 C 30.726562 220.136719 29.722656 217.433594 29.222656 214.46875 C 29.222656 214.46875 40.90625 180.421875 56.875 170.425781 C 60.257812 168.761719 62.78125 168.78125 66.058594 169.09375 C 69.128906 169.382812 72.136719 170.054688 75.167969 170.628906 C 78.054688 171.175781 81.152344 171.371094 83.835938 170.21875 L 108.800781 200.4375 C 106.292969 200.695312 104.335938 202.808594 104.335938 205.382812 C 104.335938 208.128906 106.566406 210.355469 109.316406 210.355469 C 112.066406 210.355469 114.292969 208.128906 114.292969 205.382812 C 114.292969 202.761719 112.265625 200.625 109.691406 200.429688 C 110.523438 198.175781 116.167969 182.1875 114.277344 166.777344 C 115.90625 166.871094 117.476562 167.070312 118.894531 167.425781 L 118.894531 167.417969 C 118.894531 167.417969 121.550781 168.085938 125.230469 169.382812 C 124.945312 170.191406 124.753906 170.996094 124.71875 171.761719 C 124.714844 171.804688 124.714844 171.847656 124.714844 171.890625 C 124.710938 172.058594 124.710938 172.226562 124.722656 172.390625 C 124.726562 172.417969 124.730469 172.449219 124.730469 172.480469 C 124.746094 172.628906 124.769531 172.773438 124.796875 172.917969 C 124.804688 172.945312 124.808594 172.976562 124.8125 173.007812 C 124.847656 173.164062 124.894531 173.320312 124.949219 173.46875 C 124.960938 173.503906 124.972656 173.539062 124.988281 173.570312 C 125.050781 173.726562 125.117188 173.878906 125.199219 174.027344 C 125.199219 174.023438 125.191406 174.023438 125.1875 174.023438 C 129.996094 184.738281 134.800781 195.453125 139.609375 206.171875 C 140.121094 207.308594 140.632812 208.449219 141.148438 209.585938 C 141.238281 209.78125 141.328125 209.980469 141.417969 210.175781 C 141.933594 211.3125 142.457031 212.445312 142.984375 213.578125 C 143.078125 213.773438 143.167969 213.964844 143.257812 214.160156 C 143.800781 215.304688 144.351562 216.449219 144.910156 217.582031 C 144.972656 217.707031 145.035156 217.832031 145.097656 217.957031 C 145.625 219.007812 146.160156 220.054688 146.710938 221.09375 C 147.210938 222.046875 147.722656 222.996094 148.253906 223.933594 Z M 111.042969 233.960938 L 111.011719 233.878906 Z M 91.6875 155.609375 C 90.988281 155.34375 90.59375 155.179688 90.59375 155.179688 C 90.59375 155.191406 90.59375 155.207031 90.59375 155.21875 C 90.609375 155.675781 90.621094 156.132812 90.621094 156.589844 C 90.621094 156.671875 90.613281 156.757812 90.613281 156.839844 C 90.609375 157.226562 90.605469 157.613281 90.585938 158 C 90.582031 158.191406 90.558594 158.382812 90.546875 158.574219 C 90.53125 158.851562 90.515625 159.128906 90.488281 159.40625 C 90.4375 159.875 90.378906 160.347656 90.300781 160.8125 C 90.226562 161.242188 90.132812 161.671875 90.027344 162.09375 C 90.414062 161.464844 90.734375 160.792969 90.96875 160.089844 C 91.445312 158.648438 91.625 157.140625 91.6875 155.609375 Z M 113.691406 166.792969 C 113.691406 166.777344 113.695312 166.761719 113.695312 166.746094 C 113.164062 166.726562 112.625 166.714844 112.085938 166.714844 C 112.023438 166.058594 112.027344 165.65625 112.027344 165.65625 C 112.027344 165.65625 114.492188 163.742188 114.492188 162.195312 C 114.492188 160.652344 112.304688 160.546875 112.304688 160.546875 C 104.625 160.191406 95.824219 157.167969 92.238281 155.820312 C 92.164062 157.320312 91.960938 158.816406 91.457031 160.257812 C 91.046875 161.394531 90.433594 162.457031 89.644531 163.371094 C 89.644531 163.375 89.644531 163.375 89.640625 163.378906 C 89.523438 163.722656 89.390625 164.0625 89.25 164.394531 C 89.238281 164.417969 89.230469 164.433594 89.222656 164.453125 C 89.085938 164.769531 88.941406 165.078125 88.78125 165.378906 C 88.769531 165.402344 88.761719 165.421875 88.75 165.4375 C 88.59375 165.734375 88.429688 166.015625 88.253906 166.296875 C 88.214844 166.359375 88.171875 166.421875 88.128906 166.484375 C 87.972656 166.726562 87.804688 166.960938 87.632812 167.191406 C 87.597656 167.234375 87.5625 167.28125 87.527344 167.328125 C 87.347656 167.550781 87.164062 167.765625 86.972656 167.972656 C 86.894531 168.054688 86.816406 168.132812 86.738281 168.210938 C 86.546875 168.410156 86.347656 168.597656 86.140625 168.777344 C 86.054688 168.847656 85.964844 168.914062 85.878906 168.984375 C 85.714844 169.113281 85.546875 169.238281 85.375 169.359375 C 85.273438 169.429688 85.171875 169.5 85.0625 169.570312 C 84.839844 169.707031 84.617188 169.839844 84.378906 169.960938 L 109.21875 200.023438 C 110.261719 197.15625 115.535156 181.679688 113.691406 166.792969 Z M 115.335938 132.601562 C 115.617188 131.652344 115.375 130.746094 114.800781 130.578125 C 114.226562 130.40625 113.53125 131.039062 113.25 131.988281 C 112.972656 132.933594 113.214844 133.839844 113.789062 134.011719 C 114.367188 134.179688 115.058594 133.546875 115.335938 132.601562 Z M 129.726562 130.578125 C 129.148438 130.40625 128.457031 131.039062 128.179688 131.988281 C 127.898438 132.933594 128.140625 133.839844 128.714844 134.011719 C 129.289062 134.179688 129.984375 133.546875 130.261719 132.601562 C 130.542969 131.652344 130.300781 130.746094 129.726562 130.578125 Z M 140.160156 124.046875 C 140.09375 124.296875 140.039062 124.546875 140.003906 124.808594 C 139.832031 126 140.246094 127.210938 141.023438 128.023438 Z M 129.40625 147.863281 L 129.960938 150.433594 C 130.621094 148.769531 131.332031 147.132812 132.105469 145.523438 C 134.523438 145.851562 136.941406 146.085938 139.355469 145.691406 C 140.054688 146.851562 139.058594 148.527344 138.003906 149.367188 C 136.945312 150.207031 135.558594 150.488281 134.230469 150.746094 C 134.429688 151.308594 134.605469 151.871094 134.773438 152.441406 C 134.652344 152.222656 134.53125 152.007812 134.402344 151.804688 C 134.371094 151.757812 134.308594 151.738281 134.257812 151.761719 C 134.203125 151.789062 134.175781 151.855469 134.203125 151.910156 C 134.675781 152.914062 135.058594 153.953125 135.335938 155.011719 C 135.609375 156.078125 135.800781 157.164062 135.855469 158.257812 C 135.941406 159.351562 135.898438 160.449219 135.761719 161.539062 C 135.628906 162.628906 135.378906 163.703125 135.046875 164.757812 C 135.027344 164.820312 135.054688 164.890625 135.117188 164.917969 C 135.183594 164.949219 135.261719 164.917969 135.292969 164.855469 C 135.765625 163.828125 136.082031 162.730469 136.273438 161.613281 C 136.421875 160.738281 136.476562 159.855469 136.464844 158.96875 L 144.050781 156.179688 C 143.753906 156.558594 143.472656 156.949219 143.230469 157.367188 C 142.929688 157.894531 142.664062 158.441406 142.472656 159.015625 C 142.457031 159.074219 142.480469 159.136719 142.53125 159.171875 C 142.59375 159.207031 142.675781 159.191406 142.714844 159.125 C 143.023438 158.621094 143.332031 158.125 143.667969 157.644531 C 144.003906 157.167969 144.351562 156.699219 144.726562 156.253906 C 144.859375 156.089844 145.003906 155.933594 145.144531 155.777344 L 146.902344 155.128906 L 146.703125 154.199219 C 146.863281 154.050781 147.027344 153.902344 147.191406 153.753906 C 147.230469 153.722656 147.242188 153.664062 147.214844 153.617188 C 147.1875 153.5625 147.121094 153.542969 147.066406 153.570312 C 146.914062 153.652344 146.769531 153.75 146.625 153.84375 L 146.515625 153.339844 C 146.242188 153.503906 146.003906 153.628906 145.835938 153.695312 C 144.058594 154.417969 141.953125 154.257812 140.304688 153.285156 C 139.449219 152.78125 138.652344 151.808594 139.011719 150.882812 C 139.335938 150.0625 140.359375 149.8125 141.234375 149.679688 C 142.582031 149.472656 143.929688 149.265625 145.277344 149.058594 C 145.375 149.050781 145.476562 149.050781 145.574219 149.039062 C 146.054688 148.988281 146.535156 148.925781 147.007812 148.816406 C 147.0625 148.800781 147.105469 148.753906 147.105469 148.691406 C 147.109375 148.617188 147.054688 148.554688 146.980469 148.550781 C 146.5 148.523438 146.027344 148.527344 145.550781 148.523438 L 145.46875 148.523438 L 145.199219 147.277344 C 145.023438 147.277344 144.867188 147.269531 144.734375 147.246094 C 142.625 146.882812 140.617188 145.945312 138.988281 144.558594 C 138.417969 144.074219 137.875 143.507812 137.632812 142.796875 C 137.390625 142.089844 137.535156 141.207031 138.132812 140.753906 C 140.027344 141.1875 141.894531 141.734375 143.734375 142.367188 C 143.542969 142.273438 143.359375 142.160156 143.175781 142.054688 L 144.910156 142.976562 C 144.957031 143.003906 145.019531 142.992188 145.050781 142.949219 C 145.089844 142.902344 145.082031 142.832031 145.03125 142.792969 C 144.464844 142.339844 143.863281 141.925781 143.253906 141.53125 C 142.640625 141.132812 142.007812 140.773438 141.371094 140.429688 C 141.128906 140.304688 140.886719 140.183594 140.648438 140.0625 C 139.566406 138.972656 138.609375 137.71875 137.699219 136.484375 C 137.117188 135.699219 136.535156 134.582031 137.160156 133.832031 C 137.523438 133.390625 138.1875 133.300781 138.734375 133.460938 C 139.28125 133.617188 139.742188 133.980469 140.191406 134.335938 C 140.953125 134.9375 141.867188 135.539062 142.785156 136.15625 L 141.472656 130.097656 C 139.929688 130.621094 138.097656 130.417969 136.660156 129.59375 C 135.5 128.929688 134.585938 127.9375 133.890625 126.792969 C 133.804688 134.019531 132.28125 141.234375 129.40625 147.863281 Z M 116.339844 261.257812 L 116.042969 261.277344 C 115.714844 261.300781 115.40625 261.429688 115.148438 261.625 C 114.925781 261.242188 114.6875 260.867188 114.4375 260.507812 C 114.101562 260.015625 113.734375 259.546875 113.359375 259.085938 C 112.976562 258.632812 112.585938 258.183594 112.167969 257.761719 C 111.753906 257.339844 111.324219 256.925781 110.863281 256.550781 C 110.816406 256.511719 110.746094 256.507812 110.695312 256.546875 C 110.640625 256.589844 110.628906 256.675781 110.671875 256.734375 C 111.03125 257.203125 111.410156 257.652344 111.785156 258.105469 L 112.910156 259.457031 L 114.042969 260.804688 C 114.332031 261.144531 114.625 261.484375 114.917969 261.820312 C 114.820312 261.929688 114.734375 262.050781 114.667969 262.1875 L 114.53125 262.453125 L 119.335938 262.453125 L 118.421875 260.183594 C 117.933594 260.785156 117.203125 261.203125 116.339844 261.257812 Z M 55.957031 238.304688 Z M 55.957031 238.304688 " fill-opacity="1" fill-rule="nonzero"/></g></svg>