<svg xmlns="http://www.w3.org/2000/svg" xmlns:xlink="http://www.w3.org/1999/xlink" width="120" zoomAndPan="magnify" viewBox="0 0 90 89.999999" height="120" preserveAspectRatio="xMidYMid meet" version="1.0"><defs><filter x="0%" y="0%" width="100%" height="100%" id="f9817e9da8"><feColorMatrix values="0 0 0 0 1 0 0 0 0 1 0 0 0 0 1 0 0 0 1 0" color-interpolation-filters="sRGB"/></filter><g/><clipPath id="6c82058b73"><path d="M 38 14.820312 L 51 14.820312 L 51 24 L 38 24 Z M 38 14.820312 " clip-rule="nonzero"/></clipPath><clipPath id="b36022d370"><path d="M 38 14.820312 L 51 14.820312 L 51 24 L 38 24 Z M 38 14.820312 " clip-rule="nonzero"/></clipPath><clipPath id="92edde7c46"><path d="M 19.867188 43 L 25 43 L 25 46 L 19.867188 46 Z M 19.867188 43 " clip-rule="nonzero"/></clipPath><clipPath id="6f86c93c8c"><path d="M 41.429688 58.15625 L 48.492188 58.15625 L 48.492188 62.820312 L 41.429688 62.820312 Z M 41.429688 58.15625 " clip-rule="nonzero"/></clipPath><clipPath id="6205cf259a"><path d="M 65.332031 43.492188 L 70.117188 43.492188 L 70.117188 45.90625 L 65.332031 45.90625 Z M 65.332031 43.492188 " clip-rule="nonzero"/></clipPath><clipPath id="e2753a6557"><path d="M 38 14.820312 L 51 14.820312 L 51 24 L 38 24 Z M 38 14.820312 " clip-rule="nonzero"/></clipPath><mask id="8ed8a33224"><g filter="url(#f9817e9da8)"><rect x="-9" width="108" fill="#000000" y="-9" height="107.999999" fill-opacity="0.25"/></g></mask><clipPath id="7e04bac35b"><path d="M 11 0.0703125 L 13 0.0703125 L 13 23.320312 L 11 23.320312 Z M 11 0.0703125 " clip-rule="nonzero"/></clipPath><clipPath id="c660b10f1b"><path d="M 9 0.0703125 L 15 0.0703125 L 15 23.320312 L 9 23.320312 Z M 9 0.0703125 " clip-rule="nonzero"/></clipPath><clipPath id="a8e36c37e3"><path d="M 7 0.0703125 L 17 0.0703125 L 17 23 L 7 23 Z M 7 0.0703125 " clip-rule="nonzero"/></clipPath><clipPath id="f784c6b40b"><path d="M 0.371094 9 L 23.621094 9 L 23.621094 14 L 0.371094 14 Z M 0.371094 9 " clip-rule="nonzero"/></clipPath><clipPath id="bd370c8519"><path d="M 0.371094 11 L 23.621094 11 L 23.621094 12 L 0.371094 12 Z M 0.371094 11 " clip-rule="nonzero"/></clipPath><clipPath id="04312670bd"><path d="M 0.371094 9 L 23.621094 9 L 23.621094 14 L 0.371094 14 Z M 0.371094 9 " clip-rule="nonzero"/></clipPath><clipPath id="02c52b2f5c"><path d="M 7 0.0703125 L 17 0.0703125 L 17 23 L 7 23 Z M 7 0.0703125 " clip-rule="nonzero"/></clipPath><clipPath id="7dd35099e5"><path d="M 9 0.0703125 L 15 0.0703125 L 15 23.320312 L 9 23.320312 Z M 9 0.0703125 " clip-rule="nonzero"/></clipPath><clipPath id="4462b880e6"><rect x="0" width="24" y="0" height="24"/></clipPath></defs><rect x="-9" width="108" fill="#ffffff" y="-9" height="107.999999" fill-opacity="1"/><rect x="-9" width="108" fill="#000000" y="-9" height="107.999999" fill-opacity="1"/><g clip-path="url(#6c82058b73)"><path fill="#dbbe67" d="M 48.058594 22.613281 C 47.929688 22.613281 47.824219 22.507812 47.824219 22.375 C 47.824219 22.246094 47.929688 22.140625 48.058594 22.140625 C 48.191406 22.140625 48.296875 22.246094 48.296875 22.375 C 48.296875 22.507812 48.191406 22.613281 48.058594 22.613281 Z M 46.992188 22.613281 C 46.863281 22.613281 46.757812 22.507812 46.757812 22.375 C 46.757812 22.246094 46.863281 22.140625 46.992188 22.140625 C 47.125 22.140625 47.226562 22.246094 47.226562 22.375 C 47.226562 22.507812 47.125 22.613281 46.992188 22.613281 Z M 45.925781 22.613281 C 45.796875 22.613281 45.6875 22.507812 45.6875 22.375 C 45.6875 22.246094 45.796875 22.140625 45.925781 22.140625 C 46.054688 22.140625 46.160156 22.246094 46.160156 22.375 C 46.160156 22.507812 46.054688 22.613281 45.925781 22.613281 Z M 44.871094 22.609375 C 44.746094 22.601562 44.648438 22.503906 44.648438 22.375 C 44.648438 22.25 44.746094 22.152344 44.871094 22.144531 C 44.996094 22.152344 45.09375 22.25 45.09375 22.375 C 45.09375 22.503906 44.996094 22.601562 44.871094 22.609375 Z M 43.816406 22.613281 C 43.6875 22.613281 43.582031 22.507812 43.582031 22.375 C 43.582031 22.246094 43.6875 22.140625 43.816406 22.140625 C 43.949219 22.140625 44.054688 22.246094 44.054688 22.375 C 44.054688 22.507812 43.949219 22.613281 43.816406 22.613281 Z M 42.75 22.613281 C 42.617188 22.613281 42.515625 22.507812 42.515625 22.375 C 42.515625 22.246094 42.617188 22.140625 42.75 22.140625 C 42.878906 22.140625 42.988281 22.246094 42.988281 22.375 C 42.988281 22.507812 42.878906 22.613281 42.75 22.613281 Z M 41.683594 22.613281 C 41.550781 22.613281 41.445312 22.507812 41.445312 22.375 C 41.445312 22.246094 41.550781 22.140625 41.683594 22.140625 C 41.8125 22.140625 41.917969 22.246094 41.917969 22.375 C 41.917969 22.507812 41.8125 22.613281 41.683594 22.613281 Z M 47.71875 19.167969 C 47.644531 19.398438 47.660156 19.648438 47.75 19.875 C 47.898438 20.253906 48.058594 20.953125 47.472656 21.355469 C 46.636719 21.929688 45.828125 21.1875 45.675781 20.339844 C 45.515625 19.480469 45.726562 18.855469 46.402344 18.644531 C 47.082031 18.4375 44.859375 14.820312 44.859375 14.820312 C 44.859375 14.820312 42.664062 18.4375 43.339844 18.644531 C 44.015625 18.855469 44.226562 19.480469 44.070312 20.339844 C 43.914062 21.1875 43.105469 21.929688 42.269531 21.355469 C 41.6875 20.953125 41.84375 20.253906 41.992188 19.875 C 42.082031 19.648438 42.097656 19.398438 42.023438 19.167969 C 41.457031 17.402344 38.808594 17.421875 38.808594 17.421875 C 41.386719 20.992188 41.359375 23.023438 41.359375 23.023438 L 48.382812 23.023438 C 48.382812 23.023438 48.355469 20.992188 50.9375 17.421875 C 50.9375 17.421875 48.285156 17.402344 47.71875 19.167969 " fill-opacity="1" fill-rule="nonzero"/></g><path fill="#dbbe67" d="M 47.980469 23.519531 L 41.765625 23.519531 C 41.554688 23.519531 41.386719 23.6875 41.386719 23.898438 C 41.386719 24.105469 41.554688 24.273438 41.765625 24.273438 L 47.980469 24.273438 C 48.1875 24.273438 48.355469 24.105469 48.355469 23.898438 C 48.355469 23.6875 48.1875 23.519531 47.980469 23.519531 " fill-opacity="1" fill-rule="nonzero"/><g clip-path="url(#b36022d370)"><path fill="#dbbe67" d="M 48.058594 22.613281 C 47.929688 22.613281 47.824219 22.507812 47.824219 22.375 C 47.824219 22.246094 47.929688 22.140625 48.058594 22.140625 C 48.191406 22.140625 48.296875 22.246094 48.296875 22.375 C 48.296875 22.507812 48.191406 22.613281 48.058594 22.613281 Z M 46.992188 22.613281 C 46.863281 22.613281 46.757812 22.507812 46.757812 22.375 C 46.757812 22.246094 46.863281 22.140625 46.992188 22.140625 C 47.125 22.140625 47.226562 22.246094 47.226562 22.375 C 47.226562 22.507812 47.125 22.613281 46.992188 22.613281 Z M 45.925781 22.613281 C 45.796875 22.613281 45.6875 22.507812 45.6875 22.375 C 45.6875 22.246094 45.796875 22.140625 45.925781 22.140625 C 46.054688 22.140625 46.160156 22.246094 46.160156 22.375 C 46.160156 22.507812 46.054688 22.613281 45.925781 22.613281 Z M 44.871094 22.609375 C 44.746094 22.601562 44.648438 22.503906 44.648438 22.375 C 44.648438 22.25 44.746094 22.152344 44.871094 22.144531 C 44.996094 22.152344 45.09375 22.25 45.09375 22.375 C 45.09375 22.503906 44.996094 22.601562 44.871094 22.609375 Z M 43.816406 22.613281 C 43.6875 22.613281 43.582031 22.507812 43.582031 22.375 C 43.582031 22.246094 43.6875 22.140625 43.816406 22.140625 C 43.949219 22.140625 44.054688 22.246094 44.054688 22.375 C 44.054688 22.507812 43.949219 22.613281 43.816406 22.613281 Z M 42.75 22.613281 C 42.617188 22.613281 42.515625 22.507812 42.515625 22.375 C 42.515625 22.246094 42.617188 22.140625 42.75 22.140625 C 42.878906 22.140625 42.988281 22.246094 42.988281 22.375 C 42.988281 22.507812 42.878906 22.613281 42.75 22.613281 Z M 41.683594 22.613281 C 41.550781 22.613281 41.445312 22.507812 41.445312 22.375 C 41.445312 22.246094 41.550781 22.140625 41.683594 22.140625 C 41.8125 22.140625 41.917969 22.246094 41.917969 22.375 C 41.917969 22.507812 41.8125 22.613281 41.683594 22.613281 Z M 47.71875 19.167969 C 47.644531 19.398438 47.660156 19.648438 47.75 19.875 C 47.898438 20.253906 48.058594 20.953125 47.472656 21.355469 C 46.636719 21.929688 45.828125 21.1875 45.675781 20.339844 C 45.515625 19.480469 45.726562 18.855469 46.402344 18.644531 C 47.082031 18.4375 44.859375 14.820312 44.859375 14.820312 C 44.859375 14.820312 42.664062 18.4375 43.339844 18.644531 C 44.015625 18.855469 44.226562 19.480469 44.070312 20.339844 C 43.914062 21.1875 43.105469 21.929688 42.269531 21.355469 C 41.6875 20.953125 41.84375 20.253906 41.992188 19.875 C 42.082031 19.648438 42.097656 19.398438 42.023438 19.167969 C 41.457031 17.402344 38.808594 17.421875 38.808594 17.421875 C 41.386719 20.992188 41.359375 23.023438 41.359375 23.023438 L 48.382812 23.023438 C 48.382812 23.023438 48.355469 20.992188 50.9375 17.421875 C 50.9375 17.421875 48.285156 17.402344 47.71875 19.167969 " fill-opacity="1" fill-rule="nonzero"/></g><path fill="#dbbe67" d="M 47.980469 23.519531 L 41.765625 23.519531 C 41.554688 23.519531 41.386719 23.6875 41.386719 23.898438 C 41.386719 24.105469 41.554688 24.273438 41.765625 24.273438 L 47.980469 24.273438 C 48.1875 24.273438 48.355469 24.105469 48.355469 23.898438 C 48.355469 23.6875 48.1875 23.519531 47.980469 23.519531 " fill-opacity="1" fill-rule="nonzero"/><path fill="#dbbe67" d="M 45.570312 25.382812 C 45.308594 25.054688 44.828125 25 44.5 25.261719 C 44.167969 25.527344 44.117188 26.007812 44.378906 26.335938 C 44.640625 26.664062 45.121094 26.71875 45.449219 26.457031 C 45.78125 26.195312 45.835938 25.714844 45.570312 25.382812 " fill-opacity="1" fill-rule="nonzero"/><path fill="#dbbe67" d="M 41.796875 25.789062 C 41.683594 25.890625 41.667969 26.03125 41.664062 26.179688 C 41.660156 26.304688 41.507812 26.308594 41.464844 26.207031 C 41.390625 26.035156 41.425781 25.839844 41.550781 25.703125 C 41.628906 25.621094 41.839844 25.496094 41.9375 25.613281 C 41.992188 25.679688 41.832031 25.757812 41.796875 25.789062 Z M 41.839844 25.351562 C 41.417969 25.351562 41.074219 25.695312 41.074219 26.117188 C 41.074219 26.539062 41.417969 26.878906 41.839844 26.878906 C 42.257812 26.878906 42.601562 26.539062 42.601562 26.117188 C 42.601562 25.695312 42.257812 25.351562 41.839844 25.351562 " fill-opacity="1" fill-rule="nonzero"/><path fill="#dbbe67" d="M 39.011719 26.625 C 38.945312 26.71875 38.839844 26.769531 38.78125 26.867188 C 38.714844 26.972656 38.683594 27.101562 38.660156 27.222656 C 38.644531 27.304688 38.5 27.308594 38.488281 27.222656 C 38.460938 27.046875 38.480469 26.882812 38.585938 26.734375 C 38.671875 26.617188 38.820312 26.507812 38.972656 26.53125 C 39.011719 26.535156 39.035156 26.59375 39.011719 26.625 Z M 39.066406 26.308594 C 38.65625 26.203125 38.242188 26.449219 38.140625 26.859375 C 38.035156 27.265625 38.28125 27.683594 38.691406 27.785156 C 39.097656 27.890625 39.515625 27.644531 39.617188 27.234375 C 39.722656 26.824219 39.476562 26.410156 39.066406 26.308594 " fill-opacity="1" fill-rule="nonzero"/><path fill="#dbbe67" d="M 36.269531 28.101562 C 36.191406 28.183594 36.09375 28.226562 36.03125 28.328125 C 35.972656 28.421875 35.949219 28.550781 35.957031 28.660156 C 35.960938 28.761719 35.820312 28.765625 35.789062 28.683594 C 35.726562 28.511719 35.75 28.351562 35.851562 28.199219 C 35.929688 28.082031 36.085938 27.953125 36.238281 27.992188 C 36.289062 28.003906 36.300781 28.066406 36.269531 28.101562 Z M 36.199219 27.808594 C 35.777344 27.808594 35.4375 28.152344 35.4375 28.574219 C 35.4375 28.996094 35.777344 29.335938 36.199219 29.335938 C 36.621094 29.335938 36.960938 28.996094 36.960938 28.574219 C 36.960938 28.152344 36.621094 27.808594 36.199219 27.808594 " fill-opacity="1" fill-rule="nonzero"/><path fill="#dbbe67" d="M 34.027344 30.015625 C 33.941406 30.074219 33.847656 30.101562 33.777344 30.179688 C 33.707031 30.261719 33.671875 30.367188 33.648438 30.46875 C 33.625 30.5625 33.46875 30.570312 33.449219 30.46875 C 33.421875 30.292969 33.472656 30.128906 33.601562 30.007812 C 33.707031 29.90625 33.890625 29.835938 34.027344 29.910156 C 34.066406 29.933594 34.0625 29.992188 34.027344 30.015625 Z M 33.914062 29.613281 C 33.492188 29.613281 33.152344 29.953125 33.152344 30.375 C 33.152344 30.796875 33.492188 31.136719 33.914062 31.136719 C 34.335938 31.136719 34.679688 30.796875 34.679688 30.375 C 34.679688 29.953125 34.335938 29.613281 33.914062 29.613281 " fill-opacity="1" fill-rule="nonzero"/><path fill="#dbbe67" d="M 32.058594 32.082031 C 31.914062 32.179688 31.800781 32.25 31.78125 32.445312 C 31.773438 32.523438 31.652344 32.554688 31.632812 32.464844 C 31.597656 32.308594 31.632812 32.167969 31.757812 32.0625 C 31.832031 31.992188 31.953125 31.925781 32.058594 31.972656 C 32.101562 31.992188 32.09375 32.054688 32.058594 32.082031 Z M 32.101562 31.753906 C 31.679688 31.753906 31.339844 32.09375 31.339844 32.515625 C 31.339844 32.9375 31.679688 33.277344 32.101562 33.277344 C 32.523438 33.277344 32.867188 32.9375 32.867188 32.515625 C 32.867188 32.09375 32.523438 31.753906 32.101562 31.753906 " fill-opacity="1" fill-rule="nonzero"/><path fill="#dbbe67" d="M 30.53125 34.734375 C 30.46875 34.796875 30.394531 34.835938 30.34375 34.910156 C 30.296875 34.984375 30.265625 35.078125 30.246094 35.164062 C 30.230469 35.25 30.117188 35.21875 30.109375 35.144531 C 30.082031 34.917969 30.238281 34.640625 30.496094 34.652344 C 30.539062 34.652344 30.566406 34.707031 30.53125 34.734375 Z M 30.578125 34.421875 C 30.15625 34.421875 29.8125 34.765625 29.8125 35.1875 C 29.8125 35.609375 30.15625 35.949219 30.578125 35.949219 C 30.996094 35.949219 31.339844 35.609375 31.339844 35.1875 C 31.339844 34.765625 30.996094 34.421875 30.578125 34.421875 " fill-opacity="1" fill-rule="nonzero"/><path fill="#dbbe67" d="M 29.636719 37.949219 C 29.582031 38.035156 29.488281 38.082031 29.4375 38.167969 C 29.378906 38.261719 29.371094 38.375 29.351562 38.480469 C 29.332031 38.582031 29.195312 38.558594 29.164062 38.480469 C 29.105469 38.332031 29.140625 38.175781 29.226562 38.046875 C 29.296875 37.941406 29.4375 37.824219 29.574219 37.839844 C 29.625 37.84375 29.671875 37.898438 29.636719 37.949219 Z M 29.613281 37.652344 C 29.191406 37.652344 28.851562 37.992188 28.851562 38.414062 C 28.851562 38.835938 29.191406 39.179688 29.613281 39.179688 C 30.035156 39.179688 30.378906 38.835938 30.378906 38.414062 C 30.378906 37.992188 30.035156 37.652344 29.613281 37.652344 " fill-opacity="1" fill-rule="nonzero"/><path fill="#dbbe67" d="M 29.363281 41.128906 C 29.277344 41.167969 29.191406 41.1875 29.132812 41.261719 C 29.070312 41.335938 29.050781 41.4375 29.027344 41.527344 C 29.003906 41.613281 28.871094 41.617188 28.851562 41.527344 C 28.792969 41.257812 29.015625 40.855469 29.34375 40.984375 C 29.402344 41.003906 29.429688 41.097656 29.363281 41.128906 Z M 29.316406 40.71875 C 28.894531 40.71875 28.554688 41.0625 28.554688 41.484375 C 28.554688 41.902344 28.894531 42.246094 29.316406 42.246094 C 29.738281 42.246094 30.082031 41.902344 30.082031 41.484375 C 30.082031 41.0625 29.738281 40.71875 29.316406 40.71875 " fill-opacity="1" fill-rule="nonzero"/><path fill="#dbbe67" d="M 29.359375 30.195312 C 29.128906 31.046875 28.617188 31.789062 28.4375 32.652344 C 28.429688 32.691406 28.371094 32.683594 28.371094 32.644531 C 28.402344 31.910156 28.726562 31.261719 28.964844 30.578125 C 29.265625 29.71875 29.363281 27.8125 29.386719 27.914062 C 29.566406 28.679688 29.566406 29.433594 29.359375 30.195312 Z M 27.527344 45.023438 C 27.570312 45.039062 25.878906 44.683594 24.824219 43.433594 C 23.367188 41.707031 23.039062 40.4375 23.09375 40.53125 C 24.054688 42.296875 25.574219 44.308594 27.527344 45.023438 Z M 26.09375 32.222656 C 26.089844 33.964844 25.441406 35.566406 25.1875 37.273438 C 24.925781 39.03125 25.570312 40.703125 26.570312 42.125 C 26.59375 42.15625 26.542969 42.195312 26.515625 42.167969 C 25.519531 41.007812 24.882812 39.472656 24.828125 37.9375 C 24.757812 35.988281 26.09375 32.082031 26.09375 32.222656 Z M 26.429688 35.554688 C 25.839844 39.179688 26.496094 40.351562 26.484375 40.332031 C 25.054688 38.414062 26.453125 35.417969 26.429688 35.554688 Z M 39.136719 22.582031 C 38.695312 21 36.875 20.894531 35.800781 21.914062 C 35.171875 22.507812 34.761719 23.238281 34.472656 24.027344 C 34.117188 23.117188 33.222656 22.515625 32.125 22.925781 C 31.480469 23.164062 30.871094 23.746094 30.703125 24.425781 C 30.601562 24.824219 30.671875 25.277344 30.914062 25.597656 C 31.046875 25.820312 31.289062 25.96875 31.566406 25.96875 C 31.988281 25.96875 32.328125 25.628906 32.328125 25.207031 C 32.328125 24.785156 31.988281 24.445312 31.566406 24.445312 C 31.46875 24.445312 31.375 24.464844 31.289062 24.496094 C 31.398438 24.101562 31.707031 23.75 32.152344 23.523438 C 33.113281 23.03125 34.019531 23.71875 34.085938 24.726562 C 34.191406 26.304688 32.800781 27.976562 31.742188 28.988281 C 31.035156 29.664062 30.300781 30.402344 29.652344 31.210938 C 30.125 30.527344 30.402344 29.628906 30.28125 28.800781 C 30.222656 28.398438 30.066406 27.996094 29.765625 27.714844 C 29.636719 27.589844 29.496094 27.492188 29.367188 27.363281 C 29.265625 27.265625 28.894531 27.046875 28.851562 26.945312 C 29.484375 28.449219 28.722656 30.355469 28.214844 31.804688 C 27.972656 32.496094 27.6875 33.167969 27.363281 33.820312 C 27.316406 33.910156 27.265625 33.996094 27.210938 34.085938 C 27.363281 32.980469 27.253906 31.835938 26.910156 30.769531 C 26.738281 30.234375 26.507812 29.71875 26.210938 29.238281 C 26.082031 29.023438 25.960938 28.8125 25.835938 28.601562 C 25.738281 28.4375 25.433594 28.199219 25.386719 28.039062 C 25.441406 28.226562 25.480469 28.414062 25.515625 28.601562 C 25.878906 30.53125 25.042969 32.605469 24.519531 34.433594 C 23.984375 36.300781 23.492188 38.363281 24.28125 40.238281 C 24.117188 40.238281 23.675781 39.722656 23.554688 39.601562 C 23.3125 39.371094 23.089844 39.121094 22.914062 38.835938 C 22.515625 38.195312 22.46875 37.640625 22.40625 36.898438 C 21.839844 37.808594 21.921875 39.179688 22.140625 40.183594 C 22.371094 41.246094 22.863281 42.253906 23.5625 43.089844 C 24.226562 43.875 25.085938 44.433594 25.953125 44.972656 C 26.320312 45.199219 26.65625 45.441406 26.996094 45.695312 C 26.472656 45.542969 25.925781 45.492188 25.351562 45.578125 C 23.601562 45.847656 22.457031 47.503906 22.550781 49.230469 C 22.648438 50.96875 23.875 52.542969 25.769531 52.074219 C 27.421875 51.667969 27.9375 49.058594 26.222656 48.644531 C 26.203125 48.640625 26.183594 48.640625 26.164062 48.644531 C 26.121094 48.636719 26.082031 48.632812 26.039062 48.632812 C 25.617188 48.632812 25.273438 48.972656 25.273438 49.394531 C 25.273438 49.816406 25.617188 50.15625 26.039062 50.15625 C 26.359375 50.15625 26.632812 49.960938 26.742188 49.679688 C 26.949219 50.332031 26.632812 51.117188 25.90625 51.433594 C 24.800781 51.921875 23.695312 51.292969 23.316406 50.21875 C 22.648438 48.328125 23.753906 46.113281 25.894531 46.097656 C 27.566406 46.085938 29.070312 47.453125 30.199219 48.554688 C 31.398438 49.726562 32.535156 50.925781 33.871094 51.941406 C 33.980469 52.027344 34.078125 52.082031 34.207031 52.039062 C 32.519531 49.894531 31.234375 48.574219 30.679688 47.851562 C 29.621094 46.472656 28.933594 45.105469 28.347656 43.46875 C 27.476562 41.039062 27.21875 38.339844 27.886719 35.828125 C 28.175781 34.738281 28.640625 33.6875 29.300781 32.722656 C 29.921875 31.808594 30.53125 30.910156 31.328125 30.144531 C 32.535156 28.984375 33.914062 27.6875 34.441406 26.035156 C 34.515625 25.796875 34.570312 25.558594 34.609375 25.316406 C 34.941406 24.066406 35.570312 22.652344 36.523438 22.050781 C 37.382812 21.515625 38.46875 21.84375 38.632812 22.910156 C 38.710938 23.40625 38.609375 23.863281 38.351562 24.179688 C 38.328125 24.089844 38.289062 24.003906 38.234375 23.925781 C 37.984375 23.582031 37.507812 23.507812 37.167969 23.753906 C 36.828125 24.003906 36.75 24.480469 36.996094 24.820312 C 37.160156 25.046875 37.425781 25.152344 37.683594 25.128906 C 38.082031 25.136719 38.488281 24.929688 38.753906 24.613281 C 39.207031 24.078125 39.320312 23.246094 39.136719 22.582031 " fill-opacity="1" fill-rule="nonzero"/><path fill="#dbbe67" d="M 60.632812 27.914062 C 60.65625 27.8125 60.753906 29.71875 61.054688 30.578125 C 61.292969 31.261719 61.617188 31.910156 61.648438 32.644531 C 61.648438 32.683594 61.589844 32.691406 61.582031 32.652344 C 61.402344 31.789062 60.890625 31.046875 60.660156 30.195312 C 60.453125 29.433594 60.457031 28.679688 60.632812 27.914062 Z M 66.929688 40.53125 C 66.980469 40.4375 66.652344 41.707031 65.195312 43.433594 C 64.140625 44.683594 62.449219 45.039062 62.492188 45.023438 C 64.445312 44.308594 65.964844 42.296875 66.929688 40.53125 Z M 65.191406 37.9375 C 65.136719 39.472656 64.5 41.007812 63.503906 42.167969 C 63.480469 42.195312 63.425781 42.15625 63.449219 42.125 C 64.449219 40.703125 65.09375 39.03125 64.832031 37.273438 C 64.578125 35.566406 63.929688 33.964844 63.925781 32.222656 C 63.925781 32.082031 65.261719 35.988281 65.191406 37.9375 Z M 63.535156 40.332031 C 63.523438 40.351562 64.179688 39.179688 63.589844 35.554688 C 63.566406 35.417969 64.964844 38.414062 63.535156 40.332031 Z M 51.265625 24.613281 C 51.53125 24.929688 51.9375 25.136719 52.335938 25.128906 C 52.59375 25.152344 52.859375 25.046875 53.023438 24.820312 C 53.269531 24.480469 53.191406 24.003906 52.851562 23.753906 C 52.511719 23.507812 52.035156 23.582031 51.785156 23.925781 C 51.730469 24.003906 51.691406 24.089844 51.667969 24.179688 C 51.410156 23.863281 51.308594 23.40625 51.386719 22.910156 C 51.550781 21.84375 52.640625 21.515625 53.496094 22.050781 C 54.449219 22.652344 55.078125 24.066406 55.410156 25.316406 C 55.449219 25.558594 55.503906 25.796875 55.574219 26.027344 C 56.105469 27.6875 57.484375 28.984375 58.691406 30.144531 C 59.488281 30.910156 60.097656 31.808594 60.71875 32.722656 C 61.378906 33.6875 61.84375 34.738281 62.132812 35.828125 C 62.800781 38.339844 62.542969 41.039062 61.671875 43.46875 C 61.085938 45.105469 60.398438 46.472656 59.339844 47.851562 C 58.785156 48.574219 57.5 49.894531 55.8125 52.039062 C 55.941406 52.082031 56.039062 52.027344 56.148438 51.941406 C 57.484375 50.925781 58.621094 49.726562 59.824219 48.554688 C 60.949219 47.453125 62.453125 46.085938 64.125 46.097656 C 66.265625 46.113281 67.371094 48.328125 66.707031 50.21875 C 66.328125 51.292969 65.21875 51.921875 64.113281 51.433594 C 63.390625 51.117188 63.070312 50.332031 63.277344 49.679688 C 63.390625 49.960938 63.664062 50.15625 63.984375 50.15625 C 64.402344 50.15625 64.746094 49.816406 64.746094 49.394531 C 64.746094 48.972656 64.402344 48.632812 63.984375 48.632812 C 63.9375 48.632812 63.898438 48.636719 63.855469 48.644531 C 63.835938 48.640625 63.816406 48.640625 63.796875 48.644531 C 62.082031 49.058594 62.597656 51.667969 64.25 52.074219 C 66.144531 52.542969 67.371094 50.96875 67.46875 49.230469 C 67.5625 47.503906 66.417969 45.847656 64.667969 45.578125 C 64.09375 45.492188 63.546875 45.542969 63.023438 45.695312 C 63.363281 45.441406 63.699219 45.199219 64.066406 44.972656 C 64.933594 44.433594 65.792969 43.875 66.457031 43.089844 C 67.160156 42.253906 67.648438 41.246094 67.878906 40.183594 C 68.097656 39.179688 68.179688 37.808594 67.613281 36.898438 C 67.550781 37.640625 67.503906 38.195312 67.105469 38.835938 C 66.929688 39.121094 66.707031 39.371094 66.464844 39.601562 C 66.34375 39.722656 65.902344 40.238281 65.738281 40.238281 C 66.527344 38.363281 66.035156 36.300781 65.5 34.433594 C 64.976562 32.605469 64.140625 30.53125 64.503906 28.601562 C 64.539062 28.414062 64.578125 28.226562 64.632812 28.039062 C 64.585938 28.199219 64.28125 28.4375 64.183594 28.601562 C 64.058594 28.8125 63.9375 29.023438 63.808594 29.238281 C 63.515625 29.71875 63.28125 30.234375 63.109375 30.769531 C 62.765625 31.835938 62.65625 32.980469 62.808594 34.085938 C 62.753906 33.996094 62.703125 33.910156 62.65625 33.820312 C 62.332031 33.167969 62.046875 32.496094 61.804688 31.804688 C 61.296875 30.355469 60.535156 28.449219 61.167969 26.945312 C 61.125 27.046875 60.753906 27.265625 60.652344 27.363281 C 60.523438 27.492188 60.382812 27.589844 60.253906 27.714844 C 59.953125 27.996094 59.796875 28.398438 59.738281 28.800781 C 59.617188 29.628906 59.894531 30.527344 60.367188 31.210938 C 59.71875 30.402344 58.988281 29.664062 58.277344 28.988281 C 57.21875 27.976562 55.828125 26.304688 55.933594 24.726562 C 56.003906 23.71875 56.90625 23.03125 57.867188 23.523438 C 58.3125 23.75 58.621094 24.101562 58.730469 24.496094 C 58.644531 24.464844 58.550781 24.445312 58.453125 24.445312 C 58.03125 24.445312 57.691406 24.785156 57.691406 25.207031 C 57.691406 25.628906 58.03125 25.96875 58.453125 25.96875 C 58.734375 25.96875 58.972656 25.820312 59.105469 25.597656 C 59.347656 25.277344 59.417969 24.824219 59.316406 24.425781 C 59.152344 23.746094 58.539062 23.164062 57.894531 22.925781 C 56.796875 22.515625 55.902344 23.117188 55.546875 24.027344 C 55.257812 23.238281 54.847656 22.507812 54.21875 21.914062 C 53.144531 20.894531 51.324219 21 50.882812 22.582031 C 50.699219 23.246094 50.8125 24.078125 51.265625 24.613281 " fill-opacity="1" fill-rule="nonzero"/><path fill="#dbbe67" d="M 29.59375 28.449219 C 29.585938 28.378906 29.519531 28.347656 29.46875 28.359375 C 29.542969 28.890625 29.53125 29.417969 29.417969 29.949219 C 29.4375 29.941406 29.457031 29.925781 29.472656 29.902344 C 29.726562 29.515625 29.648438 28.882812 29.59375 28.449219 " fill-opacity="1" fill-rule="nonzero"/><path fill="#dbbe67" d="M 30.800781 28.023438 C 30.800781 27.835938 30.953125 27.683594 31.140625 27.683594 C 31.328125 27.683594 31.480469 27.835938 31.480469 28.023438 C 31.480469 28.210938 31.328125 28.363281 31.140625 28.363281 C 30.953125 28.363281 30.800781 28.210938 30.800781 28.023438 " fill-opacity="1" fill-rule="nonzero"/><path fill="#dbbe67" d="M 24.90625 47.371094 C 24.90625 47.183594 25.058594 47.03125 25.246094 47.03125 C 25.433594 47.03125 25.585938 47.183594 25.585938 47.371094 C 25.585938 47.558594 25.433594 47.710938 25.246094 47.710938 C 25.058594 47.710938 24.90625 47.558594 24.90625 47.371094 " fill-opacity="1" fill-rule="nonzero"/><path fill="#dbbe67" d="M 23.824219 48.652344 C 23.824219 48.460938 23.976562 48.308594 24.164062 48.308594 C 24.351562 48.308594 24.507812 48.460938 24.507812 48.652344 C 24.507812 48.839844 24.351562 48.992188 24.164062 48.992188 C 23.976562 48.992188 23.824219 48.839844 23.824219 48.652344 " fill-opacity="1" fill-rule="nonzero"/><path fill="#dbbe67" d="M 24.285156 50.46875 C 24.285156 50.28125 24.4375 50.128906 24.625 50.128906 C 24.816406 50.128906 24.96875 50.28125 24.96875 50.46875 C 24.96875 50.65625 24.816406 50.808594 24.625 50.808594 C 24.4375 50.808594 24.285156 50.65625 24.285156 50.46875 " fill-opacity="1" fill-rule="nonzero"/><path fill="#dbbe67" d="M 26.75 47.371094 C 26.75 47.183594 26.902344 47.03125 27.089844 47.03125 C 27.277344 47.03125 27.429688 47.183594 27.429688 47.371094 C 27.429688 47.558594 27.277344 47.710938 27.089844 47.710938 C 26.902344 47.710938 26.75 47.558594 26.75 47.371094 " fill-opacity="1" fill-rule="nonzero"/><path fill="#dbbe67" d="M 28.214844 48.652344 C 28.214844 48.460938 28.367188 48.308594 28.554688 48.308594 C 28.742188 48.308594 28.894531 48.460938 28.894531 48.652344 C 28.894531 48.839844 28.742188 48.992188 28.554688 48.992188 C 28.367188 48.992188 28.214844 48.839844 28.214844 48.652344 " fill-opacity="1" fill-rule="nonzero"/><path fill="#dbbe67" d="M 29.308594 49.917969 C 29.308594 49.730469 29.460938 49.578125 29.648438 49.578125 C 29.839844 49.578125 29.992188 49.730469 29.992188 49.917969 C 29.992188 50.105469 29.839844 50.257812 29.648438 50.257812 C 29.460938 50.257812 29.308594 50.105469 29.308594 49.917969 " fill-opacity="1" fill-rule="nonzero"/><path fill="#dbbe67" d="M 30.800781 51.152344 C 30.800781 50.960938 30.953125 50.808594 31.140625 50.808594 C 31.328125 50.808594 31.480469 50.960938 31.480469 51.152344 C 31.480469 51.339844 31.328125 51.492188 31.140625 51.492188 C 30.953125 51.492188 30.800781 51.339844 30.800781 51.152344 " fill-opacity="1" fill-rule="nonzero"/><path fill="#dbbe67" d="M 31.859375 26.878906 C 31.859375 26.691406 32.011719 26.539062 32.199219 26.539062 C 32.386719 26.539062 32.542969 26.691406 32.542969 26.878906 C 32.542969 27.066406 32.386719 27.21875 32.199219 27.21875 C 32.011719 27.21875 31.859375 27.066406 31.859375 26.878906 " fill-opacity="1" fill-rule="nonzero"/><g clip-path="url(#92edde7c46)"><path fill="#dbbe67" d="M 24.625 44.726562 C 24.648438 44.789062 23.332031 46.125 21.976562 45.871094 C 20.621094 45.617188 21.023438 43.921875 19.878906 43.667969 C 19.878906 43.667969 21.042969 43.09375 22.253906 44.261719 C 23.277344 45.25 24.625 44.726562 24.625 44.726562 " fill-opacity="1" fill-rule="nonzero"/></g><g clip-path="url(#6f86c93c8c)"><path fill="#dbbe67" d="M 44.976562 61.804688 C 43.445312 59.011719 44.976562 58.972656 44.976562 58.972656 C 44.976562 58.972656 46.503906 59.011719 44.976562 61.804688 Z M 47.34375 60.074219 C 47.089844 59.578125 46.882812 59.042969 46.488281 58.652344 C 46.089844 58.261719 45.425781 58.011719 44.976562 58.332031 C 44.523438 58.011719 43.859375 58.261719 43.464844 58.652344 C 43.066406 59.042969 42.859375 59.578125 42.605469 60.074219 C 42.351562 60.570312 42.003906 61.066406 41.480469 61.242188 C 42.195312 61.507812 43.046875 61.375 43.648438 60.90625 C 43.894531 61.710938 44.363281 62.300781 44.976562 62.878906 C 45.589844 62.300781 46.054688 61.710938 46.300781 60.90625 C 46.90625 61.375 47.753906 61.507812 48.472656 61.242188 C 47.945312 61.066406 47.597656 60.570312 47.34375 60.074219 " fill-opacity="1" fill-rule="nonzero"/></g><path fill="#dbbe67" d="M 33.984375 55.082031 C 29.792969 53.988281 27.40625 56.433594 27.46875 56.335938 C 28.566406 54.613281 31.265625 54.265625 33.113281 54.476562 C 35.96875 54.804688 38.542969 56.320312 41.457031 56.285156 C 41.644531 56.285156 41.179688 56.957031 33.984375 55.082031 Z M 36.230469 56.90625 C 33.886719 56.734375 32.535156 57.972656 32.5625 57.933594 C 34.316406 55.628906 36.71875 56.703125 39.675781 57.019531 C 39.839844 57.035156 38.921875 57.101562 36.230469 56.90625 Z M 29.589844 53.519531 C 31.101562 52.820312 32.953125 53.144531 34.492188 53.597656 C 34.644531 53.644531 32.765625 53.527344 31.921875 53.488281 C 31.140625 53.453125 29.519531 53.550781 29.589844 53.519531 Z M 45.882812 52.171875 C 45.339844 51.453125 44.515625 51.015625 43.617188 50.964844 C 42.976562 50.929688 41.871094 51.140625 41.609375 52.015625 C 41.589844 52.085938 41.578125 52.21875 41.585938 52.347656 C 41.585938 52.359375 41.582031 52.367188 41.582031 52.378906 C 41.582031 52.800781 41.925781 53.144531 42.347656 53.144531 C 42.765625 53.144531 43.109375 52.800781 43.109375 52.378906 C 43.109375 51.957031 42.765625 51.617188 42.347656 51.617188 C 42.3125 51.617188 42.277344 51.621094 42.242188 51.625 C 42.910156 51.046875 44.234375 51.269531 44.808594 51.871094 C 45.144531 52.222656 45.304688 52.851562 45.269531 53.332031 C 45.226562 53.90625 44.90625 54.414062 44.492188 54.800781 C 43.460938 55.761719 42.253906 55.898438 40.917969 55.640625 C 38.738281 55.21875 36.855469 53.984375 34.859375 53.082031 C 34.046875 52.714844 33.195312 52.351562 32.296875 52.25 C 31.378906 52.144531 30.40625 52.304688 29.507812 52.511719 C 28.667969 52.710938 27.84375 53.007812 27.105469 53.460938 C 26.488281 53.839844 25.503906 54.539062 25.367188 55.3125 C 26.453125 54.757812 27.75 54.238281 28.992188 54.238281 C 28.53125 54.242188 27.792969 54.851562 27.4375 55.117188 C 26.941406 55.484375 26.492188 55.910156 26.101562 56.386719 C 25.339844 57.3125 24.585938 58.53125 24.609375 59.773438 C 24.605469 59.597656 26.511719 57.625 30.527344 56.617188 C 30.921875 56.515625 31.335938 56.492188 31.742188 56.46875 C 32.015625 56.453125 32.707031 56.589844 32.933594 56.46875 C 32.195312 56.882812 31.589844 57.496094 31.21875 58.269531 C 30.839844 59.0625 30.554688 60.40625 31.125 61.179688 C 31.476562 60.53125 31.761719 59.828125 32.324219 59.335938 C 32.800781 58.917969 33.386719 58.652344 33.992188 58.484375 C 35.226562 58.140625 36.523438 58.167969 37.792969 58.167969 C 40.109375 58.183594 42.757812 58.402344 44.753906 56.980469 C 46.242188 55.921875 47.082031 53.765625 45.882812 52.171875 " fill-opacity="1" fill-rule="nonzero"/><path fill="#dbbe67" d="M 42.390625 58.882812 C 42.390625 58.882812 40.695312 58.546875 38.8125 59.953125 C 37.429688 60.992188 35.988281 60.597656 35.988281 60.597656 C 35.988281 60.597656 38.320312 62.363281 40.066406 60.785156 C 41.730469 59.28125 42.390625 58.882812 42.390625 58.882812 " fill-opacity="1" fill-rule="nonzero"/><path fill="#dbbe67" d="M 48.0625 25.613281 C 48.15625 25.496094 48.371094 25.621094 48.445312 25.703125 C 48.574219 25.839844 48.605469 26.035156 48.535156 26.207031 C 48.492188 26.308594 48.335938 26.304688 48.335938 26.179688 C 48.328125 26.03125 48.316406 25.890625 48.199219 25.789062 C 48.164062 25.757812 48.007812 25.679688 48.0625 25.613281 Z M 47.398438 26.117188 C 47.398438 26.539062 47.738281 26.878906 48.160156 26.878906 C 48.582031 26.878906 48.921875 26.539062 48.921875 26.117188 C 48.921875 25.695312 48.582031 25.351562 48.160156 25.351562 C 47.738281 25.351562 47.398438 25.695312 47.398438 26.117188 " fill-opacity="1" fill-rule="nonzero"/><path fill="#dbbe67" d="M 51.027344 26.53125 C 51.175781 26.507812 51.328125 26.617188 51.410156 26.734375 C 51.519531 26.882812 51.539062 27.046875 51.511719 27.222656 C 51.496094 27.308594 51.355469 27.304688 51.339844 27.222656 C 51.3125 27.101562 51.28125 26.972656 51.21875 26.867188 C 51.15625 26.769531 51.054688 26.71875 50.988281 26.625 C 50.964844 26.59375 50.988281 26.535156 51.027344 26.53125 Z M 50.378906 27.234375 C 50.484375 27.644531 50.898438 27.890625 51.308594 27.785156 C 51.714844 27.683594 51.964844 27.265625 51.859375 26.859375 C 51.757812 26.449219 51.339844 26.203125 50.933594 26.308594 C 50.523438 26.410156 50.277344 26.824219 50.378906 27.234375 " fill-opacity="1" fill-rule="nonzero"/><path fill="#dbbe67" d="M 53.761719 27.992188 C 53.910156 27.953125 54.070312 28.082031 54.148438 28.199219 C 54.246094 28.351562 54.273438 28.511719 54.210938 28.683594 C 54.179688 28.765625 54.035156 28.761719 54.042969 28.660156 C 54.046875 28.550781 54.023438 28.421875 53.964844 28.328125 C 53.90625 28.226562 53.808594 28.183594 53.730469 28.101562 C 53.699219 28.066406 53.710938 28.003906 53.761719 27.992188 Z M 53.035156 28.574219 C 53.035156 28.996094 53.378906 29.335938 53.800781 29.335938 C 54.222656 29.335938 54.5625 28.996094 54.5625 28.574219 C 54.5625 28.152344 54.222656 27.808594 53.800781 27.808594 C 53.378906 27.808594 53.035156 28.152344 53.035156 28.574219 " fill-opacity="1" fill-rule="nonzero"/><path fill="#dbbe67" d="M 55.972656 29.910156 C 56.109375 29.835938 56.292969 29.90625 56.398438 30.007812 C 56.527344 30.128906 56.574219 30.292969 56.546875 30.46875 C 56.53125 30.570312 56.371094 30.5625 56.347656 30.46875 C 56.324219 30.367188 56.289062 30.261719 56.222656 30.179688 C 56.148438 30.101562 56.058594 30.074219 55.972656 30.015625 C 55.9375 29.992188 55.929688 29.933594 55.972656 29.910156 Z M 55.320312 30.375 C 55.320312 30.796875 55.660156 31.136719 56.082031 31.136719 C 56.503906 31.136719 56.847656 30.796875 56.847656 30.375 C 56.847656 29.953125 56.503906 29.613281 56.082031 29.613281 C 55.660156 29.613281 55.320312 29.953125 55.320312 30.375 " fill-opacity="1" fill-rule="nonzero"/><path fill="#dbbe67" d="M 57.941406 31.972656 C 58.042969 31.925781 58.164062 31.992188 58.242188 32.0625 C 58.363281 32.167969 58.402344 32.308594 58.367188 32.464844 C 58.34375 32.554688 58.222656 32.523438 58.214844 32.445312 C 58.195312 32.25 58.085938 32.179688 57.941406 32.082031 C 57.90625 32.054688 57.894531 31.992188 57.941406 31.972656 Z M 57.132812 32.515625 C 57.132812 32.9375 57.472656 33.277344 57.894531 33.277344 C 58.316406 33.277344 58.660156 32.9375 58.660156 32.515625 C 58.660156 32.09375 58.316406 31.753906 57.894531 31.753906 C 57.472656 31.753906 57.132812 32.09375 57.132812 32.515625 " fill-opacity="1" fill-rule="nonzero"/><path fill="#dbbe67" d="M 59.5 34.652344 C 59.761719 34.640625 59.917969 34.917969 59.890625 35.144531 C 59.878906 35.21875 59.765625 35.25 59.75 35.164062 C 59.734375 35.078125 59.703125 34.984375 59.652344 34.910156 C 59.601562 34.835938 59.527344 34.796875 59.464844 34.734375 C 59.433594 34.707031 59.460938 34.652344 59.5 34.652344 Z M 58.660156 35.1875 C 58.660156 35.609375 59 35.949219 59.421875 35.949219 C 59.84375 35.949219 60.183594 35.609375 60.183594 35.1875 C 60.183594 34.765625 59.84375 34.421875 59.421875 34.421875 C 59 34.421875 58.660156 34.765625 58.660156 35.1875 " fill-opacity="1" fill-rule="nonzero"/><path fill="#dbbe67" d="M 60.421875 37.839844 C 60.558594 37.824219 60.699219 37.941406 60.773438 38.046875 C 60.859375 38.175781 60.890625 38.332031 60.835938 38.480469 C 60.804688 38.558594 60.667969 38.582031 60.648438 38.480469 C 60.628906 38.375 60.617188 38.261719 60.5625 38.167969 C 60.507812 38.082031 60.414062 38.035156 60.359375 37.949219 C 60.328125 37.898438 60.371094 37.84375 60.421875 37.839844 Z M 59.621094 38.414062 C 59.621094 38.835938 59.960938 39.179688 60.382812 39.179688 C 60.804688 39.179688 61.148438 38.835938 61.148438 38.414062 C 61.148438 37.992188 60.804688 37.652344 60.382812 37.652344 C 59.960938 37.652344 59.621094 37.992188 59.621094 38.414062 " fill-opacity="1" fill-rule="nonzero"/><path fill="#dbbe67" d="M 60.65625 40.984375 C 60.984375 40.855469 61.207031 41.257812 61.144531 41.527344 C 61.125 41.617188 60.996094 41.613281 60.972656 41.527344 C 60.945312 41.4375 60.929688 41.335938 60.867188 41.261719 C 60.804688 41.1875 60.71875 41.167969 60.636719 41.128906 C 60.566406 41.097656 60.597656 41.003906 60.65625 40.984375 Z M 59.917969 41.484375 C 59.917969 41.902344 60.257812 42.246094 60.679688 42.246094 C 61.101562 42.246094 61.445312 41.902344 61.445312 41.484375 C 61.445312 41.0625 61.101562 40.71875 60.679688 40.71875 C 60.257812 40.71875 59.917969 41.0625 59.917969 41.484375 " fill-opacity="1" fill-rule="nonzero"/><path fill="#dbbe67" d="M 59.199219 28.023438 C 59.199219 27.835938 59.046875 27.683594 58.859375 27.683594 C 58.667969 27.683594 58.515625 27.835938 58.515625 28.023438 C 58.515625 28.210938 58.667969 28.363281 58.859375 28.363281 C 59.046875 28.363281 59.199219 28.210938 59.199219 28.023438 " fill-opacity="1" fill-rule="nonzero"/><path fill="#dbbe67" d="M 65.09375 47.371094 C 65.09375 47.183594 64.941406 47.03125 64.753906 47.03125 C 64.5625 47.03125 64.410156 47.183594 64.410156 47.371094 C 64.410156 47.558594 64.5625 47.710938 64.753906 47.710938 C 64.941406 47.710938 65.09375 47.558594 65.09375 47.371094 " fill-opacity="1" fill-rule="nonzero"/><path fill="#dbbe67" d="M 66.175781 48.652344 C 66.175781 48.460938 66.023438 48.308594 65.832031 48.308594 C 65.644531 48.308594 65.492188 48.460938 65.492188 48.652344 C 65.492188 48.839844 65.644531 48.992188 65.832031 48.992188 C 66.023438 48.992188 66.175781 48.839844 66.175781 48.652344 " fill-opacity="1" fill-rule="nonzero"/><path fill="#dbbe67" d="M 65.714844 50.46875 C 65.714844 50.28125 65.558594 50.128906 65.371094 50.128906 C 65.183594 50.128906 65.03125 50.28125 65.03125 50.46875 C 65.03125 50.65625 65.183594 50.808594 65.371094 50.808594 C 65.558594 50.808594 65.714844 50.65625 65.714844 50.46875 " fill-opacity="1" fill-rule="nonzero"/><path fill="#dbbe67" d="M 63.25 47.371094 C 63.25 47.183594 63.097656 47.03125 62.910156 47.03125 C 62.71875 47.03125 62.566406 47.183594 62.566406 47.371094 C 62.566406 47.558594 62.71875 47.710938 62.910156 47.710938 C 63.097656 47.710938 63.25 47.558594 63.25 47.371094 " fill-opacity="1" fill-rule="nonzero"/><path fill="#dbbe67" d="M 61.785156 48.652344 C 61.785156 48.460938 61.632812 48.308594 61.445312 48.308594 C 61.253906 48.308594 61.101562 48.460938 61.101562 48.652344 C 61.101562 48.839844 61.253906 48.992188 61.445312 48.992188 C 61.632812 48.992188 61.785156 48.839844 61.785156 48.652344 " fill-opacity="1" fill-rule="nonzero"/><path fill="#dbbe67" d="M 60.6875 49.917969 C 60.6875 49.730469 60.535156 49.578125 60.347656 49.578125 C 60.160156 49.578125 60.007812 49.730469 60.007812 49.917969 C 60.007812 50.105469 60.160156 50.257812 60.347656 50.257812 C 60.535156 50.257812 60.6875 50.105469 60.6875 49.917969 " fill-opacity="1" fill-rule="nonzero"/><path fill="#dbbe67" d="M 59.199219 51.152344 C 59.199219 50.960938 59.046875 50.808594 58.859375 50.808594 C 58.667969 50.808594 58.515625 50.960938 58.515625 51.152344 C 58.515625 51.339844 58.667969 51.492188 58.859375 51.492188 C 59.046875 51.492188 59.199219 51.339844 59.199219 51.152344 " fill-opacity="1" fill-rule="nonzero"/><path fill="#dbbe67" d="M 58.140625 26.878906 C 58.140625 26.691406 57.988281 26.539062 57.796875 26.539062 C 57.609375 26.539062 57.457031 26.691406 57.457031 26.878906 C 57.457031 27.066406 57.609375 27.21875 57.796875 27.21875 C 57.988281 27.21875 58.140625 27.066406 58.140625 26.878906 " fill-opacity="1" fill-rule="nonzero"/><g clip-path="url(#6205cf259a)"><path fill="#dbbe67" d="M 65.371094 44.726562 C 65.351562 44.789062 66.667969 46.125 68.023438 45.871094 C 69.378906 45.617188 68.976562 43.921875 70.121094 43.667969 C 70.121094 43.667969 68.953125 43.09375 67.746094 44.261719 C 66.722656 45.25 65.371094 44.726562 65.371094 44.726562 " fill-opacity="1" fill-rule="nonzero"/></g><path fill="#dbbe67" d="M 48.425781 56.285156 C 51.339844 56.320312 53.910156 54.804688 56.765625 54.476562 C 58.617188 54.265625 61.3125 54.613281 62.414062 56.335938 C 62.476562 56.433594 60.089844 53.988281 55.898438 55.082031 C 48.699219 56.957031 48.234375 56.285156 48.425781 56.285156 Z M 50.207031 57.019531 C 53.164062 56.703125 55.5625 55.628906 57.320312 57.933594 C 57.347656 57.972656 55.992188 56.734375 53.648438 56.90625 C 50.957031 57.101562 50.042969 57.035156 50.207031 57.019531 Z M 57.960938 53.488281 C 57.113281 53.527344 55.234375 53.644531 55.386719 53.597656 C 56.925781 53.144531 58.777344 52.820312 60.292969 53.519531 C 60.363281 53.550781 58.738281 53.453125 57.960938 53.488281 Z M 45.125 56.980469 C 47.121094 58.402344 49.769531 58.183594 52.085938 58.167969 C 53.355469 58.167969 54.652344 58.140625 55.886719 58.484375 C 56.492188 58.652344 57.082031 58.917969 57.554688 59.335938 C 58.117188 59.828125 58.40625 60.53125 58.753906 61.179688 C 59.324219 60.40625 59.042969 59.0625 58.660156 58.269531 C 58.292969 57.496094 57.683594 56.882812 56.949219 56.46875 C 57.171875 56.589844 57.863281 56.453125 58.136719 56.46875 C 58.546875 56.492188 58.957031 56.515625 59.351562 56.617188 C 63.367188 57.625 65.277344 59.597656 65.273438 59.773438 C 65.296875 58.53125 64.542969 57.3125 63.777344 56.386719 C 63.386719 55.910156 62.9375 55.484375 62.445312 55.117188 C 62.085938 54.851562 61.347656 54.242188 60.886719 54.238281 C 62.128906 54.238281 63.425781 54.757812 64.511719 55.3125 C 64.378906 54.539062 63.390625 53.839844 62.773438 53.460938 C 62.039062 53.007812 61.210938 52.710938 60.371094 52.511719 C 59.472656 52.304688 58.503906 52.144531 57.582031 52.25 C 56.6875 52.351562 55.835938 52.714844 55.019531 53.082031 C 53.027344 53.984375 51.144531 55.21875 48.964844 55.640625 C 47.625 55.898438 46.417969 55.761719 45.390625 54.800781 C 44.976562 54.414062 44.65625 53.90625 44.613281 53.332031 C 44.574219 52.851562 44.734375 52.222656 45.070312 51.871094 C 45.644531 51.269531 46.96875 51.046875 47.636719 51.625 C 47.601562 51.621094 47.570312 51.617188 47.535156 51.617188 C 47.113281 51.617188 46.769531 51.957031 46.769531 52.378906 C 46.769531 52.800781 47.113281 53.144531 47.535156 53.144531 C 47.957031 53.144531 48.296875 52.800781 48.296875 52.378906 C 48.296875 52.367188 48.292969 52.359375 48.292969 52.347656 C 48.300781 52.21875 48.292969 52.085938 48.269531 52.015625 C 48.011719 51.140625 46.90625 50.929688 46.261719 50.964844 C 45.367188 51.015625 44.539062 51.453125 44 52.171875 C 42.796875 53.765625 43.640625 55.921875 45.125 56.980469 " fill-opacity="1" fill-rule="nonzero"/><path fill="#dbbe67" d="M 47.609375 58.882812 C 47.609375 58.882812 49.304688 58.546875 51.183594 59.953125 C 52.570312 60.992188 54.007812 60.597656 54.007812 60.597656 C 54.007812 60.597656 51.679688 62.363281 49.933594 60.785156 C 48.265625 59.28125 47.609375 58.882812 47.609375 58.882812 " fill-opacity="1" fill-rule="nonzero"/><path fill="#dbbe67" d="M 44.941406 27.539062 C 37.253906 27.539062 31 33.796875 31 41.484375 C 31 48.464844 36.160156 54.265625 42.871094 55.269531 C 42.882812 55.273438 42.898438 55.277344 42.914062 55.277344 C 42.992188 55.277344 43.054688 55.210938 43.054688 55.132812 C 43.054688 55.058594 42.996094 55 42.925781 54.992188 C 36.363281 54.003906 31.28125 48.320312 31.28125 41.484375 C 31.28125 33.949219 37.410156 27.824219 44.941406 27.824219 C 52.46875 27.824219 58.597656 33.949219 58.597656 41.484375 C 58.597656 48.355469 53.550781 54.050781 46.9375 54.992188 C 46.847656 54.992188 46.785156 55.054688 46.785156 55.132812 C 46.785156 55.210938 46.847656 55.277344 46.925781 55.277344 C 53.6875 54.320312 58.878906 48.503906 58.878906 41.484375 C 58.878906 33.796875 52.628906 27.539062 44.941406 27.539062 " fill-opacity="1" fill-rule="nonzero"/><g clip-path="url(#e2753a6557)"><path fill="#dbbe67" d="M 48.058594 22.613281 C 47.929688 22.613281 47.824219 22.507812 47.824219 22.375 C 47.824219 22.246094 47.929688 22.140625 48.058594 22.140625 C 48.191406 22.140625 48.296875 22.246094 48.296875 22.375 C 48.296875 22.507812 48.191406 22.613281 48.058594 22.613281 Z M 46.992188 22.613281 C 46.863281 22.613281 46.757812 22.507812 46.757812 22.375 C 46.757812 22.246094 46.863281 22.140625 46.992188 22.140625 C 47.125 22.140625 47.226562 22.246094 47.226562 22.375 C 47.226562 22.507812 47.125 22.613281 46.992188 22.613281 Z M 45.925781 22.613281 C 45.796875 22.613281 45.6875 22.507812 45.6875 22.375 C 45.6875 22.246094 45.796875 22.140625 45.925781 22.140625 C 46.054688 22.140625 46.160156 22.246094 46.160156 22.375 C 46.160156 22.507812 46.054688 22.613281 45.925781 22.613281 Z M 44.871094 22.609375 C 44.746094 22.601562 44.648438 22.503906 44.648438 22.375 C 44.648438 22.25 44.746094 22.152344 44.871094 22.144531 C 44.996094 22.152344 45.09375 22.25 45.09375 22.375 C 45.09375 22.503906 44.996094 22.601562 44.871094 22.609375 Z M 43.816406 22.613281 C 43.6875 22.613281 43.582031 22.507812 43.582031 22.375 C 43.582031 22.246094 43.6875 22.140625 43.816406 22.140625 C 43.949219 22.140625 44.054688 22.246094 44.054688 22.375 C 44.054688 22.507812 43.949219 22.613281 43.816406 22.613281 Z M 42.75 22.613281 C 42.617188 22.613281 42.515625 22.507812 42.515625 22.375 C 42.515625 22.246094 42.617188 22.140625 42.75 22.140625 C 42.878906 22.140625 42.988281 22.246094 42.988281 22.375 C 42.988281 22.507812 42.878906 22.613281 42.75 22.613281 Z M 41.683594 22.613281 C 41.550781 22.613281 41.445312 22.507812 41.445312 22.375 C 41.445312 22.246094 41.550781 22.140625 41.683594 22.140625 C 41.8125 22.140625 41.917969 22.246094 41.917969 22.375 C 41.917969 22.507812 41.8125 22.613281 41.683594 22.613281 Z M 47.71875 19.167969 C 47.644531 19.398438 47.660156 19.648438 47.75 19.875 C 47.898438 20.253906 48.058594 20.953125 47.472656 21.355469 C 46.636719 21.929688 45.828125 21.1875 45.675781 20.339844 C 45.515625 19.480469 45.726562 18.855469 46.402344 18.644531 C 47.082031 18.4375 44.859375 14.820312 44.859375 14.820312 C 44.859375 14.820312 42.664062 18.4375 43.339844 18.644531 C 44.015625 18.855469 44.226562 19.480469 44.070312 20.339844 C 43.914062 21.1875 43.105469 21.929688 42.269531 21.355469 C 41.6875 20.953125 41.84375 20.253906 41.992188 19.875 C 42.082031 19.648438 42.097656 19.398438 42.023438 19.167969 C 41.457031 17.402344 38.808594 17.421875 38.808594 17.421875 C 41.386719 20.992188 41.359375 23.023438 41.359375 23.023438 L 48.382812 23.023438 C 48.382812 23.023438 48.355469 20.992188 50.9375 17.421875 C 50.9375 17.421875 48.285156 17.402344 47.71875 19.167969 " fill-opacity="1" fill-rule="nonzero"/></g><path fill="#dbbe67" d="M 47.980469 23.519531 L 41.765625 23.519531 C 41.554688 23.519531 41.386719 23.6875 41.386719 23.898438 C 41.386719 24.105469 41.554688 24.273438 41.765625 24.273438 L 47.980469 24.273438 C 48.1875 24.273438 48.355469 24.105469 48.355469 23.898438 C 48.355469 23.6875 48.1875 23.519531 47.980469 23.519531 " fill-opacity="1" fill-rule="nonzero"/><g mask="url(#8ed8a33224)"><g transform="matrix(1, 0, 0, 1, 33, 30)"><g clip-path="url(#4462b880e6)"><g clip-path="url(#7e04bac35b)"><path fill="#dbbe67" d="M 11.996094 23.320312 C 11.945312 23.320312 11.902344 23.28125 11.902344 23.230469 L 11.902344 0.164062 C 11.902344 0.113281 11.945312 0.0703125 11.996094 0.0703125 C 12.046875 0.0703125 12.085938 0.113281 12.085938 0.164062 L 12.085938 23.230469 C 12.085938 23.28125 12.046875 23.320312 11.996094 23.320312 Z M 11.996094 23.320312 " fill-opacity="1" fill-rule="nonzero"/></g><g clip-path="url(#c660b10f1b)"><path fill="#dbbe67" d="M 13.996094 23.144531 C 13.953125 23.144531 13.914062 23.113281 13.90625 23.070312 L 9.902344 0.355469 C 9.894531 0.304688 9.925781 0.257812 9.976562 0.25 C 10.027344 0.238281 10.074219 0.273438 10.082031 0.324219 L 14.089844 23.039062 C 14.097656 23.085938 14.0625 23.136719 14.015625 23.144531 C 14.007812 23.144531 14.003906 23.144531 13.996094 23.144531 Z M 13.996094 23.144531 " fill-opacity="1" fill-rule="nonzero"/><path fill="#dbbe67" d="M 13.996094 23.144531 C 13.953125 23.144531 13.914062 23.113281 13.90625 23.070312 L 9.902344 0.355469 C 9.894531 0.304688 9.925781 0.257812 9.976562 0.25 C 10.027344 0.238281 10.074219 0.273438 10.082031 0.324219 L 14.089844 23.039062 C 14.097656 23.085938 14.0625 23.136719 14.015625 23.144531 C 14.007812 23.144531 14.003906 23.144531 13.996094 23.144531 Z M 13.996094 23.144531 " fill-opacity="1" fill-rule="nonzero"/></g><g clip-path="url(#a8e36c37e3)"><path fill="#dbbe67" d="M 15.941406 22.625 C 15.902344 22.625 15.867188 22.601562 15.851562 22.566406 L 7.964844 0.890625 C 7.945312 0.84375 7.972656 0.789062 8.019531 0.773438 C 8.066406 0.753906 8.121094 0.78125 8.136719 0.828125 L 16.027344 22.5 C 16.042969 22.550781 16.019531 22.601562 15.972656 22.621094 C 15.960938 22.625 15.949219 22.625 15.941406 22.625 Z M 15.941406 22.625 " fill-opacity="1" fill-rule="nonzero"/><path fill="#dbbe67" d="M 15.941406 22.625 C 15.902344 22.625 15.867188 22.601562 15.851562 22.566406 L 7.964844 0.890625 C 7.945312 0.84375 7.972656 0.789062 8.019531 0.773438 C 8.066406 0.753906 8.121094 0.78125 8.136719 0.828125 L 16.027344 22.5 C 16.042969 22.550781 16.019531 22.601562 15.972656 22.621094 C 15.960938 22.625 15.949219 22.625 15.941406 22.625 Z M 15.941406 22.625 " fill-opacity="1" fill-rule="nonzero"/></g><path fill="#dbbe67" d="M 17.761719 21.777344 C 17.730469 21.777344 17.699219 21.757812 17.679688 21.730469 L 6.148438 1.753906 C 6.125 1.710938 6.140625 1.65625 6.183594 1.628906 C 6.226562 1.605469 6.285156 1.617188 6.308594 1.664062 L 17.839844 21.636719 C 17.867188 21.683594 17.851562 21.738281 17.808594 21.765625 C 17.792969 21.773438 17.777344 21.777344 17.761719 21.777344 Z M 17.761719 21.777344 " fill-opacity="1" fill-rule="nonzero"/><path fill="#dbbe67" d="M 17.761719 21.777344 C 17.730469 21.777344 17.699219 21.757812 17.679688 21.730469 L 6.148438 1.753906 C 6.125 1.710938 6.140625 1.65625 6.183594 1.628906 C 6.226562 1.605469 6.285156 1.617188 6.308594 1.664062 L 17.839844 21.636719 C 17.867188 21.683594 17.851562 21.738281 17.808594 21.765625 C 17.792969 21.773438 17.777344 21.777344 17.761719 21.777344 Z M 17.761719 21.777344 " fill-opacity="1" fill-rule="nonzero"/><path fill="#dbbe67" d="M 19.410156 20.625 C 19.382812 20.625 19.355469 20.613281 19.335938 20.589844 L 4.511719 2.921875 C 4.480469 2.882812 4.484375 2.824219 4.523438 2.792969 C 4.5625 2.757812 4.621094 2.765625 4.652344 2.804688 L 19.480469 20.472656 C 19.511719 20.511719 19.507812 20.570312 19.46875 20.601562 C 19.449219 20.617188 19.429688 20.625 19.410156 20.625 Z M 19.410156 20.625 " fill-opacity="1" fill-rule="nonzero"/><path fill="#dbbe67" d="M 19.410156 20.625 C 19.382812 20.625 19.355469 20.613281 19.335938 20.589844 L 4.511719 2.921875 C 4.480469 2.882812 4.484375 2.824219 4.523438 2.792969 C 4.5625 2.757812 4.621094 2.765625 4.652344 2.804688 L 19.480469 20.472656 C 19.511719 20.511719 19.507812 20.570312 19.46875 20.601562 C 19.449219 20.617188 19.429688 20.625 19.410156 20.625 Z M 19.410156 20.625 " fill-opacity="1" fill-rule="nonzero"/><path fill="#dbbe67" d="M 20.828125 19.203125 C 20.808594 19.203125 20.789062 19.195312 20.769531 19.179688 L 3.101562 4.355469 C 3.0625 4.320312 3.058594 4.261719 3.089844 4.222656 C 3.121094 4.183594 3.179688 4.179688 3.21875 4.210938 L 20.890625 19.039062 C 20.929688 19.070312 20.933594 19.128906 20.898438 19.167969 C 20.882812 19.191406 20.855469 19.203125 20.828125 19.203125 Z M 20.828125 19.203125 " fill-opacity="1" fill-rule="nonzero"/><path fill="#dbbe67" d="M 20.828125 19.203125 C 20.808594 19.203125 20.789062 19.195312 20.769531 19.179688 L 3.101562 4.355469 C 3.0625 4.320312 3.058594 4.261719 3.089844 4.222656 C 3.121094 4.183594 3.179688 4.179688 3.21875 4.210938 L 20.890625 19.039062 C 20.929688 19.070312 20.933594 19.128906 20.898438 19.167969 C 20.882812 19.191406 20.855469 19.203125 20.828125 19.203125 Z M 20.828125 19.203125 " fill-opacity="1" fill-rule="nonzero"/><path fill="#dbbe67" d="M 21.984375 17.554688 C 21.96875 17.554688 21.949219 17.550781 21.9375 17.542969 L 1.960938 6.011719 C 1.917969 5.984375 1.902344 5.929688 1.929688 5.882812 C 1.953125 5.839844 2.011719 5.824219 2.054688 5.851562 L 22.027344 17.382812 C 22.074219 17.410156 22.089844 17.464844 22.0625 17.507812 C 22.046875 17.539062 22.015625 17.554688 21.984375 17.554688 Z M 21.984375 17.554688 " fill-opacity="1" fill-rule="nonzero"/><path fill="#dbbe67" d="M 21.984375 17.554688 C 21.96875 17.554688 21.949219 17.550781 21.9375 17.542969 L 1.960938 6.011719 C 1.917969 5.984375 1.902344 5.929688 1.929688 5.882812 C 1.953125 5.839844 2.011719 5.824219 2.054688 5.851562 L 22.027344 17.382812 C 22.074219 17.410156 22.089844 17.464844 22.0625 17.507812 C 22.046875 17.539062 22.015625 17.554688 21.984375 17.554688 Z M 21.984375 17.554688 " fill-opacity="1" fill-rule="nonzero"/><path fill="#dbbe67" d="M 22.832031 15.734375 C 22.820312 15.734375 22.8125 15.730469 22.800781 15.726562 L 1.125 7.839844 C 1.078125 7.820312 1.054688 7.769531 1.070312 7.71875 C 1.089844 7.671875 1.140625 7.648438 1.191406 7.664062 L 22.863281 15.554688 C 22.910156 15.570312 22.9375 15.625 22.917969 15.671875 C 22.90625 15.710938 22.871094 15.734375 22.832031 15.734375 Z M 22.832031 15.734375 " fill-opacity="1" fill-rule="nonzero"/><path fill="#dbbe67" d="M 22.832031 15.734375 C 22.820312 15.734375 22.8125 15.730469 22.800781 15.726562 L 1.125 7.839844 C 1.078125 7.820312 1.054688 7.769531 1.070312 7.71875 C 1.089844 7.671875 1.140625 7.648438 1.191406 7.664062 L 22.863281 15.554688 C 22.910156 15.570312 22.9375 15.625 22.917969 15.671875 C 22.90625 15.710938 22.871094 15.734375 22.832031 15.734375 Z M 22.832031 15.734375 " fill-opacity="1" fill-rule="nonzero"/><g clip-path="url(#f784c6b40b)"><path fill="#dbbe67" d="M 23.351562 13.792969 C 23.347656 13.792969 23.34375 13.789062 23.335938 13.789062 L 0.621094 9.785156 C 0.570312 9.777344 0.539062 9.726562 0.546875 9.679688 C 0.554688 9.628906 0.605469 9.59375 0.652344 9.601562 L 23.367188 13.609375 C 23.417969 13.617188 23.453125 13.664062 23.445312 13.714844 C 23.433594 13.761719 23.398438 13.792969 23.351562 13.792969 Z M 23.351562 13.792969 " fill-opacity="1" fill-rule="nonzero"/><path fill="#dbbe67" d="M 23.351562 13.792969 C 23.347656 13.792969 23.34375 13.789062 23.335938 13.789062 L 0.621094 9.785156 C 0.570312 9.777344 0.539062 9.726562 0.546875 9.679688 C 0.554688 9.628906 0.605469 9.59375 0.652344 9.601562 L 23.367188 13.609375 C 23.417969 13.617188 23.453125 13.664062 23.445312 13.714844 C 23.433594 13.761719 23.398438 13.792969 23.351562 13.792969 Z M 23.351562 13.792969 " fill-opacity="1" fill-rule="nonzero"/></g><g clip-path="url(#bd370c8519)"><path fill="#dbbe67" d="M 23.527344 11.789062 L 0.460938 11.789062 C 0.410156 11.789062 0.371094 11.746094 0.371094 11.695312 C 0.371094 11.644531 0.410156 11.605469 0.460938 11.605469 L 23.527344 11.605469 C 23.578125 11.605469 23.621094 11.644531 23.621094 11.695312 C 23.621094 11.746094 23.578125 11.789062 23.527344 11.789062 Z M 23.527344 11.789062 " fill-opacity="1" fill-rule="nonzero"/><path fill="#dbbe67" d="M 23.527344 11.789062 L 0.460938 11.789062 C 0.410156 11.789062 0.371094 11.746094 0.371094 11.695312 C 0.371094 11.644531 0.410156 11.605469 0.460938 11.605469 L 23.527344 11.605469 C 23.578125 11.605469 23.621094 11.644531 23.621094 11.695312 C 23.621094 11.746094 23.578125 11.789062 23.527344 11.789062 Z M 23.527344 11.789062 " fill-opacity="1" fill-rule="nonzero"/></g><g clip-path="url(#04312670bd)"><path fill="#dbbe67" d="M 0.636719 13.792969 C 0.59375 13.792969 0.554688 13.761719 0.546875 13.714844 C 0.539062 13.664062 0.570312 13.617188 0.621094 13.609375 L 23.335938 9.601562 C 23.386719 9.59375 23.433594 9.628906 23.445312 9.679688 C 23.453125 9.726562 23.417969 9.777344 23.367188 9.785156 L 0.652344 13.789062 C 0.648438 13.789062 0.644531 13.792969 0.636719 13.792969 Z M 0.636719 13.792969 " fill-opacity="1" fill-rule="nonzero"/><path fill="#dbbe67" d="M 0.636719 13.792969 C 0.59375 13.792969 0.554688 13.761719 0.546875 13.714844 C 0.539062 13.664062 0.570312 13.617188 0.621094 13.609375 L 23.335938 9.601562 C 23.386719 9.59375 23.433594 9.628906 23.445312 9.679688 C 23.453125 9.726562 23.417969 9.777344 23.367188 9.785156 L 0.652344 13.789062 C 0.648438 13.789062 0.644531 13.792969 0.636719 13.792969 Z M 0.636719 13.792969 " fill-opacity="1" fill-rule="nonzero"/></g><path fill="#dbbe67" d="M 1.160156 15.734375 C 1.121094 15.734375 1.085938 15.710938 1.070312 15.671875 C 1.054688 15.625 1.078125 15.570312 1.125 15.554688 L 22.800781 7.664062 C 22.847656 7.648438 22.902344 7.671875 22.917969 7.71875 C 22.9375 7.769531 22.910156 7.820312 22.863281 7.839844 L 1.191406 15.726562 C 1.179688 15.730469 1.167969 15.734375 1.160156 15.734375 Z M 1.160156 15.734375 " fill-opacity="1" fill-rule="nonzero"/><path fill="#dbbe67" d="M 1.160156 15.734375 C 1.121094 15.734375 1.085938 15.710938 1.070312 15.671875 C 1.054688 15.625 1.078125 15.570312 1.125 15.554688 L 22.800781 7.664062 C 22.847656 7.648438 22.902344 7.671875 22.917969 7.71875 C 22.9375 7.769531 22.910156 7.820312 22.863281 7.839844 L 1.191406 15.726562 C 1.179688 15.730469 1.167969 15.734375 1.160156 15.734375 Z M 1.160156 15.734375 " fill-opacity="1" fill-rule="nonzero"/><path fill="#dbbe67" d="M 2.007812 17.554688 C 1.976562 17.554688 1.945312 17.539062 1.929688 17.507812 C 1.902344 17.464844 1.917969 17.410156 1.960938 17.382812 L 21.9375 5.851562 C 21.980469 5.824219 22.039062 5.839844 22.0625 5.882812 C 22.089844 5.929688 22.074219 5.984375 22.027344 6.011719 L 2.054688 17.542969 C 2.039062 17.550781 2.023438 17.554688 2.007812 17.554688 Z M 2.007812 17.554688 " fill-opacity="1" fill-rule="nonzero"/><path fill="#dbbe67" d="M 2.007812 17.554688 C 1.976562 17.554688 1.945312 17.539062 1.929688 17.507812 C 1.902344 17.464844 1.917969 17.410156 1.960938 17.382812 L 21.9375 5.851562 C 21.980469 5.824219 22.039062 5.839844 22.0625 5.882812 C 22.089844 5.929688 22.074219 5.984375 22.027344 6.011719 L 2.054688 17.542969 C 2.039062 17.550781 2.023438 17.554688 2.007812 17.554688 Z M 2.007812 17.554688 " fill-opacity="1" fill-rule="nonzero"/><path fill="#dbbe67" d="M 3.160156 19.203125 C 3.132812 19.203125 3.109375 19.191406 3.089844 19.167969 C 3.058594 19.128906 3.0625 19.070312 3.101562 19.039062 L 20.769531 4.210938 C 20.808594 4.179688 20.867188 4.183594 20.898438 4.222656 C 20.933594 4.261719 20.929688 4.320312 20.890625 4.355469 L 3.21875 19.179688 C 3.203125 19.195312 3.183594 19.203125 3.160156 19.203125 Z M 3.160156 19.203125 " fill-opacity="1" fill-rule="nonzero"/><path fill="#dbbe67" d="M 3.160156 19.203125 C 3.132812 19.203125 3.109375 19.191406 3.089844 19.167969 C 3.058594 19.128906 3.0625 19.070312 3.101562 19.039062 L 20.769531 4.210938 C 20.808594 4.179688 20.867188 4.183594 20.898438 4.222656 C 20.933594 4.261719 20.929688 4.320312 20.890625 4.355469 L 3.21875 19.179688 C 3.203125 19.195312 3.183594 19.203125 3.160156 19.203125 Z M 3.160156 19.203125 " fill-opacity="1" fill-rule="nonzero"/><path fill="#dbbe67" d="M 4.582031 20.625 C 4.5625 20.625 4.539062 20.617188 4.523438 20.601562 C 4.484375 20.570312 4.480469 20.511719 4.511719 20.472656 L 19.335938 2.804688 C 19.371094 2.765625 19.429688 2.757812 19.46875 2.792969 C 19.507812 2.824219 19.511719 2.882812 19.480469 2.921875 L 4.652344 20.589844 C 4.636719 20.613281 4.609375 20.625 4.582031 20.625 Z M 4.582031 20.625 " fill-opacity="1" fill-rule="nonzero"/><path fill="#dbbe67" d="M 4.582031 20.625 C 4.5625 20.625 4.539062 20.617188 4.523438 20.601562 C 4.484375 20.570312 4.480469 20.511719 4.511719 20.472656 L 19.335938 2.804688 C 19.371094 2.765625 19.429688 2.757812 19.46875 2.792969 C 19.507812 2.824219 19.511719 2.882812 19.480469 2.921875 L 4.652344 20.589844 C 4.636719 20.613281 4.609375 20.625 4.582031 20.625 Z M 4.582031 20.625 " fill-opacity="1" fill-rule="nonzero"/><path fill="#dbbe67" d="M 6.230469 21.777344 C 6.214844 21.777344 6.199219 21.773438 6.183594 21.765625 C 6.140625 21.738281 6.125 21.683594 6.148438 21.636719 L 17.679688 1.664062 C 17.707031 1.617188 17.761719 1.605469 17.808594 1.628906 C 17.851562 1.65625 17.867188 1.710938 17.839844 1.753906 L 6.308594 21.730469 C 6.292969 21.757812 6.261719 21.777344 6.230469 21.777344 Z M 6.230469 21.777344 " fill-opacity="1" fill-rule="nonzero"/><path fill="#dbbe67" d="M 6.230469 21.777344 C 6.214844 21.777344 6.199219 21.773438 6.183594 21.765625 C 6.140625 21.738281 6.125 21.683594 6.148438 21.636719 L 17.679688 1.664062 C 17.707031 1.617188 17.761719 1.605469 17.808594 1.628906 C 17.851562 1.65625 17.867188 1.710938 17.839844 1.753906 L 6.308594 21.730469 C 6.292969 21.757812 6.261719 21.777344 6.230469 21.777344 Z M 6.230469 21.777344 " fill-opacity="1" fill-rule="nonzero"/><g clip-path="url(#02c52b2f5c)"><path fill="#dbbe67" d="M 8.050781 22.625 C 8.039062 22.625 8.03125 22.625 8.019531 22.621094 C 7.972656 22.601562 7.945312 22.550781 7.964844 22.5 L 15.851562 0.828125 C 15.871094 0.78125 15.921875 0.753906 15.972656 0.773438 C 16.019531 0.789062 16.042969 0.84375 16.027344 0.890625 L 8.136719 22.566406 C 8.125 22.601562 8.089844 22.625 8.050781 22.625 Z M 8.050781 22.625 " fill-opacity="1" fill-rule="nonzero"/><path fill="#dbbe67" d="M 8.050781 22.625 C 8.039062 22.625 8.03125 22.625 8.019531 22.621094 C 7.972656 22.601562 7.945312 22.550781 7.964844 22.5 L 15.851562 0.828125 C 15.871094 0.78125 15.921875 0.753906 15.972656 0.773438 C 16.019531 0.789062 16.042969 0.84375 16.027344 0.890625 L 8.136719 22.566406 C 8.125 22.601562 8.089844 22.625 8.050781 22.625 Z M 8.050781 22.625 " fill-opacity="1" fill-rule="nonzero"/></g><g clip-path="url(#7dd35099e5)"><path fill="#dbbe67" d="M 9.992188 23.144531 C 9.988281 23.144531 9.980469 23.144531 9.976562 23.144531 C 9.925781 23.136719 9.894531 23.085938 9.902344 23.039062 L 13.90625 0.324219 C 13.914062 0.273438 13.964844 0.238281 14.015625 0.25 C 14.0625 0.257812 14.097656 0.304688 14.089844 0.355469 L 10.082031 23.070312 C 10.074219 23.113281 10.035156 23.144531 9.992188 23.144531 Z M 9.992188 23.144531 " fill-opacity="1" fill-rule="nonzero"/></g></g></g></g><g fill="#ffffff" fill-opacity="1"><g transform="translate(39.836973, 47.251633)"><g><path d="M 0.890625 -1.65625 C 0.890625 -2.519531 1.078125 -3.253906 1.453125 -3.859375 L 1.609375 -3.859375 C 1.597656 -3.765625 1.59375 -3.671875 1.59375 -3.578125 C 1.59375 -2.753906 1.882812 -2.035156 2.46875 -1.421875 C 3.0625 -0.804688 3.867188 -0.5 4.890625 -0.5 C 5.691406 -0.5 6.3125 -0.6875 6.75 -1.0625 C 7.195312 -1.445312 7.421875 -1.929688 7.421875 -2.515625 C 7.421875 -2.859375 7.3125 -3.164062 7.09375 -3.4375 C 6.875 -3.71875 6.507812 -4.023438 6 -4.359375 L 2.890625 -6.40625 C 1.734375 -7.1875 1.15625 -8.140625 1.15625 -9.265625 C 1.15625 -9.390625 1.171875 -9.507812 1.203125 -9.625 C 1.265625 -10.5625 1.625 -11.316406 2.28125 -11.890625 C 2.945312 -12.460938 3.835938 -12.75 4.953125 -12.75 C 5.597656 -12.75 6.40625 -12.691406 7.375 -12.578125 L 8.5 -12.578125 L 8.265625 -9.953125 L 8.09375 -9.953125 C 8.09375 -10.566406 7.863281 -11.0625 7.40625 -11.4375 C 6.945312 -11.8125 6.335938 -12 5.578125 -12 C 4.640625 -12 3.960938 -11.710938 3.546875 -11.140625 C 3.335938 -10.867188 3.234375 -10.59375 3.234375 -10.3125 C 3.234375 -10.039062 3.285156 -9.8125 3.390625 -9.625 C 3.554688 -9.3125 3.921875 -8.976562 4.484375 -8.625 L 7.890625 -6.40625 C 8.960938 -5.707031 9.5 -4.789062 9.5 -3.65625 C 9.5 -2.394531 9.066406 -1.425781 8.203125 -0.75 C 7.335938 -0.0820312 6.191406 0.25 4.765625 0.25 C 3.953125 0.25 3.203125 0.148438 2.515625 -0.046875 C 1.835938 -0.242188 1.335938 -0.507812 1.015625 -0.84375 C 0.929688 -1.0625 0.890625 -1.332031 0.890625 -1.65625 Z M 0.890625 -1.65625 "/></g></g></g><g fill="#ffffff" fill-opacity="1"><g transform="translate(19.501505, 69.654109)"><g><path d="M 0.265625 -0.5 C 0.265625 -0.757812 0.320312 -0.984375 0.4375 -1.171875 L 0.484375 -1.171875 C 0.484375 -1.140625 0.484375 -1.113281 0.484375 -1.09375 C 0.484375 -0.84375 0.570312 -0.625 0.75 -0.4375 C 0.925781 -0.25 1.171875 -0.15625 1.484375 -0.15625 C 1.734375 -0.15625 1.925781 -0.210938 2.0625 -0.328125 C 2.195312 -0.441406 2.265625 -0.585938 2.265625 -0.765625 C 2.265625 -0.867188 2.226562 -0.960938 2.15625 -1.046875 C 2.09375 -1.128906 1.984375 -1.222656 1.828125 -1.328125 L 0.875 -1.953125 C 0.53125 -2.191406 0.359375 -2.484375 0.359375 -2.828125 C 0.359375 -2.859375 0.359375 -2.894531 0.359375 -2.9375 C 0.378906 -3.21875 0.488281 -3.441406 0.6875 -3.609375 C 0.894531 -3.785156 1.164062 -3.875 1.5 -3.875 C 1.707031 -3.875 1.957031 -3.859375 2.25 -3.828125 L 2.59375 -3.828125 L 2.515625 -3.03125 L 2.46875 -3.03125 C 2.46875 -3.21875 2.394531 -3.367188 2.25 -3.484375 C 2.113281 -3.597656 1.929688 -3.65625 1.703125 -3.65625 C 1.410156 -3.65625 1.203125 -3.566406 1.078125 -3.390625 C 1.015625 -3.304688 0.984375 -3.222656 0.984375 -3.140625 C 0.984375 -3.054688 1 -2.988281 1.03125 -2.9375 C 1.082031 -2.84375 1.191406 -2.738281 1.359375 -2.625 L 2.40625 -1.953125 C 2.726562 -1.734375 2.890625 -1.453125 2.890625 -1.109375 C 2.890625 -0.722656 2.757812 -0.425781 2.5 -0.21875 C 2.238281 -0.0195312 1.890625 0.078125 1.453125 0.078125 C 1.203125 0.078125 0.972656 0.046875 0.765625 -0.015625 C 0.554688 -0.078125 0.40625 -0.15625 0.3125 -0.25 C 0.28125 -0.320312 0.265625 -0.40625 0.265625 -0.5 Z M 0.265625 -0.5 "/></g></g></g><g fill="#ffffff" fill-opacity="1"><g transform="translate(23.202455, 69.654109)"><g><path d="M 4 -0.046875 L 4.0625 -0.046875 L 4.0625 0 L 2.328125 0 L 2.328125 -0.046875 L 2.375 -0.046875 C 2.445312 -0.046875 2.503906 -0.0703125 2.546875 -0.125 C 2.585938 -0.175781 2.609375 -0.222656 2.609375 -0.265625 C 2.609375 -0.304688 2.597656 -0.347656 2.578125 -0.390625 L 2.3125 -1.0625 L 1.03125 -1.0625 L 0.75 -0.390625 C 0.738281 -0.347656 0.734375 -0.304688 0.734375 -0.265625 C 0.734375 -0.222656 0.75 -0.175781 0.78125 -0.125 C 0.820312 -0.0703125 0.882812 -0.046875 0.96875 -0.046875 L 1.015625 -0.046875 L 1.015625 0 L -0.15625 0 L -0.15625 -0.046875 L -0.109375 -0.046875 C -0.0234375 -0.046875 0.0546875 -0.0703125 0.140625 -0.125 C 0.222656 -0.175781 0.296875 -0.253906 0.359375 -0.359375 L 1.609375 -3.203125 C 1.773438 -3.554688 1.863281 -3.796875 1.875 -3.921875 L 1.9375 -3.921875 L 3.546875 -0.375 C 3.597656 -0.269531 3.664062 -0.1875 3.75 -0.125 C 3.832031 -0.0703125 3.914062 -0.046875 4 -0.046875 Z M 1.125 -1.296875 L 2.21875 -1.296875 L 1.6875 -2.625 Z M 1.125 -1.296875 "/></g></g></g><g fill="#ffffff" fill-opacity="1"><g transform="translate(27.654426, 69.654109)"><g><path d="M 0.296875 -0.046875 C 0.390625 -0.046875 0.46875 -0.078125 0.53125 -0.140625 C 0.601562 -0.210938 0.640625 -0.296875 0.640625 -0.390625 L 0.640625 -3.40625 C 0.640625 -3.5 0.601562 -3.578125 0.53125 -3.640625 C 0.46875 -3.710938 0.390625 -3.75 0.296875 -3.75 L 0.234375 -3.75 L 0.234375 -3.8125 L 1.875 -3.8125 L 1.875 -3.75 L 1.8125 -3.75 C 1.71875 -3.75 1.632812 -3.710938 1.5625 -3.640625 C 1.5 -3.578125 1.46875 -3.5 1.46875 -3.40625 L 1.46875 -0.234375 L 2.171875 -0.234375 C 2.441406 -0.234375 2.664062 -0.304688 2.84375 -0.453125 C 3.019531 -0.609375 3.148438 -0.828125 3.234375 -1.109375 L 3.296875 -1.109375 L 3.046875 0 L 0.234375 0 L 0.234375 -0.046875 Z M 0.296875 -0.046875 "/></g></g></g><g fill="#ffffff" fill-opacity="1"><g transform="translate(31.56218, 69.654109)"><g><path d="M 1.46875 -3.578125 L 1.46875 -1.984375 L 2.1875 -1.984375 C 2.3125 -1.992188 2.414062 -2.039062 2.5 -2.125 C 2.59375 -2.207031 2.640625 -2.316406 2.640625 -2.453125 L 2.640625 -2.5 L 2.703125 -2.5 L 2.703125 -1.25 L 2.640625 -1.25 L 2.640625 -1.296875 C 2.640625 -1.429688 2.597656 -1.539062 2.515625 -1.625 C 2.429688 -1.707031 2.320312 -1.753906 2.1875 -1.765625 L 1.46875 -1.765625 L 1.46875 -0.390625 C 1.46875 -0.296875 1.5 -0.210938 1.5625 -0.140625 C 1.632812 -0.078125 1.71875 -0.046875 1.8125 -0.046875 L 1.875 -0.046875 L 1.875 0 L 0.234375 0 L 0.234375 -0.046875 L 0.296875 -0.046875 C 0.390625 -0.046875 0.46875 -0.078125 0.53125 -0.140625 C 0.601562 -0.210938 0.640625 -0.296875 0.640625 -0.390625 L 0.640625 -3.421875 C 0.640625 -3.546875 0.582031 -3.640625 0.46875 -3.703125 C 0.414062 -3.734375 0.359375 -3.75 0.296875 -3.75 L 0.234375 -3.75 L 0.234375 -3.8125 L 2.3125 -3.8125 C 2.425781 -3.8125 2.546875 -3.820312 2.671875 -3.84375 C 2.804688 -3.863281 2.90625 -3.882812 2.96875 -3.90625 L 2.96875 -2.984375 L 2.90625 -2.984375 L 2.90625 -3.046875 C 2.90625 -3.203125 2.859375 -3.328125 2.765625 -3.421875 C 2.671875 -3.515625 2.546875 -3.566406 2.390625 -3.578125 Z M 1.46875 -3.578125 "/></g></g></g><g fill="#ffffff" fill-opacity="1"><g transform="translate(35.355646, 69.654109)"><g><path d="M 0.84375 -3.34375 C 1.226562 -3.695312 1.75 -3.875 2.40625 -3.875 C 3.0625 -3.875 3.582031 -3.695312 3.96875 -3.34375 C 4.351562 -2.988281 4.546875 -2.503906 4.546875 -1.890625 C 4.546875 -1.285156 4.351562 -0.804688 3.96875 -0.453125 C 3.582031 -0.0976562 3.0625 0.078125 2.40625 0.078125 C 1.75 0.078125 1.226562 -0.0976562 0.84375 -0.453125 C 0.457031 -0.804688 0.265625 -1.285156 0.265625 -1.890625 C 0.265625 -2.503906 0.457031 -2.988281 0.84375 -3.34375 Z M 1.484375 -0.625 C 1.710938 -0.3125 2.019531 -0.15625 2.40625 -0.15625 C 2.789062 -0.15625 3.09375 -0.3125 3.3125 -0.625 C 3.539062 -0.9375 3.65625 -1.363281 3.65625 -1.90625 C 3.65625 -2.445312 3.539062 -2.875 3.3125 -3.1875 C 3.09375 -3.5 2.789062 -3.65625 2.40625 -3.65625 C 2.019531 -3.65625 1.710938 -3.5 1.484375 -3.1875 C 1.265625 -2.875 1.15625 -2.445312 1.15625 -1.90625 C 1.15625 -1.363281 1.265625 -0.9375 1.484375 -0.625 Z M 1.484375 -0.625 "/></g></g></g><g fill="#ffffff" fill-opacity="1"><g transform="translate(40.68925, 69.654109)"><g><path d="M 1.734375 -3.5625 L 1.5 -3.5625 C 1.488281 -3.5625 1.484375 -3.5625 1.484375 -3.5625 L 1.484375 -0.390625 C 1.484375 -0.296875 1.515625 -0.210938 1.578125 -0.140625 C 1.648438 -0.078125 1.734375 -0.046875 1.828125 -0.046875 L 1.890625 -0.046875 L 1.890625 0 L 0.25 0 L 0.25 -0.046875 L 0.3125 -0.046875 C 0.445312 -0.046875 0.546875 -0.101562 0.609375 -0.21875 C 0.640625 -0.269531 0.65625 -0.328125 0.65625 -0.390625 L 0.65625 -3.40625 C 0.65625 -3.5 0.617188 -3.578125 0.546875 -3.640625 C 0.484375 -3.710938 0.40625 -3.75 0.3125 -3.75 L 0.25 -3.75 L 0.25 -3.8125 L 2.109375 -3.8125 C 2.460938 -3.8125 2.757812 -3.734375 3 -3.578125 C 3.125 -3.503906 3.222656 -3.398438 3.296875 -3.265625 C 3.367188 -3.128906 3.40625 -2.945312 3.40625 -2.71875 C 3.40625 -2.5 3.328125 -2.285156 3.171875 -2.078125 C 3.023438 -1.878906 2.804688 -1.769531 2.515625 -1.75 C 2.722656 -1.675781 2.90625 -1.515625 3.0625 -1.265625 C 3.457031 -0.640625 3.75 -0.265625 3.9375 -0.140625 C 4.03125 -0.0859375 4.148438 -0.0546875 4.296875 -0.046875 L 4.296875 0 L 3.75 0 C 3.4375 0 3.175781 -0.0390625 2.96875 -0.125 C 2.757812 -0.207031 2.597656 -0.351562 2.484375 -0.5625 C 2.410156 -0.6875 2.257812 -1 2.03125 -1.5 C 1.925781 -1.71875 1.800781 -1.835938 1.65625 -1.859375 L 1.65625 -1.90625 L 1.828125 -1.90625 C 1.992188 -1.90625 2.140625 -1.953125 2.265625 -2.046875 C 2.390625 -2.148438 2.472656 -2.316406 2.515625 -2.546875 C 2.523438 -2.617188 2.53125 -2.675781 2.53125 -2.71875 C 2.53125 -3.019531 2.46875 -3.234375 2.34375 -3.359375 C 2.226562 -3.492188 2.078125 -3.5625 1.890625 -3.5625 C 1.859375 -3.5625 1.804688 -3.5625 1.734375 -3.5625 Z M 1.734375 -3.5625 "/></g></g></g><g fill="#ffffff" fill-opacity="1"><g transform="translate(45.309929, 69.654109)"><g><path d="M 2.203125 -3.8125 C 2.847656 -3.8125 3.351562 -3.640625 3.71875 -3.296875 C 4.09375 -2.953125 4.28125 -2.484375 4.28125 -1.890625 C 4.28125 -1.304688 4.09375 -0.84375 3.71875 -0.5 C 3.351562 -0.164062 2.847656 0 2.203125 0 L 0.234375 0 L 0.234375 -0.046875 L 0.296875 -0.046875 C 0.390625 -0.046875 0.46875 -0.078125 0.53125 -0.140625 C 0.601562 -0.210938 0.640625 -0.296875 0.640625 -0.390625 L 0.640625 -3.4375 C 0.640625 -3.53125 0.601562 -3.601562 0.53125 -3.65625 C 0.46875 -3.71875 0.390625 -3.75 0.296875 -3.75 L 0.234375 -3.75 L 0.234375 -3.8125 Z M 2.125 -0.234375 C 2.382812 -0.234375 2.609375 -0.300781 2.796875 -0.4375 C 2.992188 -0.570312 3.144531 -0.765625 3.25 -1.015625 C 3.351562 -1.265625 3.40625 -1.535156 3.40625 -1.828125 C 3.40625 -2.128906 3.375 -2.382812 3.3125 -2.59375 C 3.25 -2.800781 3.164062 -2.976562 3.0625 -3.125 C 2.832031 -3.425781 2.519531 -3.578125 2.125 -3.578125 L 1.46875 -3.578125 L 1.46875 -0.234375 Z M 2.125 -0.234375 "/></g></g></g><g fill="#ffffff" fill-opacity="1"><g transform="translate(50.371424, 69.654109)"><g/></g></g><g fill="#ffffff" fill-opacity="1"><g transform="translate(52.287337, 69.654109)"><g><path d="M 4.609375 0 C 4.191406 0.03125 3.921875 0.0351562 3.796875 0.015625 C 3.503906 -0.0234375 3.273438 -0.0976562 3.109375 -0.203125 C 2.828125 -0.0351562 2.472656 0.046875 2.046875 0.046875 C 1.421875 0.046875 0.929688 -0.078125 0.578125 -0.328125 C 0.453125 -0.421875 0.347656 -0.539062 0.265625 -0.6875 C 0.179688 -0.832031 0.140625 -0.984375 0.140625 -1.140625 C 0.140625 -1.296875 0.160156 -1.429688 0.203125 -1.546875 C 0.253906 -1.660156 0.320312 -1.757812 0.40625 -1.84375 C 0.5625 -1.988281 0.742188 -2.09375 0.953125 -2.15625 C 0.785156 -2.40625 0.703125 -2.644531 0.703125 -2.875 C 0.703125 -3.113281 0.765625 -3.304688 0.890625 -3.453125 C 1.140625 -3.734375 1.515625 -3.875 2.015625 -3.875 C 2.242188 -3.875 2.457031 -3.84375 2.65625 -3.78125 C 2.863281 -3.71875 3.007812 -3.625 3.09375 -3.5 L 2.90625 -2.71875 L 2.859375 -2.71875 C 2.847656 -2.988281 2.785156 -3.210938 2.671875 -3.390625 C 2.566406 -3.566406 2.410156 -3.65625 2.203125 -3.65625 C 1.992188 -3.65625 1.832031 -3.59375 1.71875 -3.46875 C 1.601562 -3.351562 1.546875 -3.195312 1.546875 -3 C 1.546875 -2.8125 1.613281 -2.625 1.75 -2.4375 C 1.894531 -2.257812 2.164062 -1.992188 2.5625 -1.640625 C 2.96875 -1.296875 3.210938 -1.085938 3.296875 -1.015625 C 3.347656 -1.171875 3.375 -1.320312 3.375 -1.46875 C 3.375 -1.625 3.332031 -1.78125 3.25 -1.9375 C 3.175781 -2.09375 3.070312 -2.171875 2.9375 -2.171875 L 2.84375 -2.171875 L 2.84375 -2.21875 L 4.125 -2.21875 L 4.125 -2.171875 L 4.046875 -2.171875 C 3.972656 -2.171875 3.921875 -2.144531 3.890625 -2.09375 C 3.867188 -2.050781 3.859375 -1.984375 3.859375 -1.890625 L 3.859375 -1.796875 C 3.859375 -1.378906 3.78125 -1.023438 3.625 -0.734375 C 3.851562 -0.535156 4.039062 -0.378906 4.1875 -0.265625 C 4.34375 -0.160156 4.484375 -0.09375 4.609375 -0.0625 Z M 2.25 -0.171875 C 2.476562 -0.171875 2.679688 -0.238281 2.859375 -0.375 C 2.566406 -0.601562 2.242188 -0.863281 1.890625 -1.15625 C 1.546875 -1.457031 1.300781 -1.703125 1.15625 -1.890625 C 1.050781 -1.734375 1 -1.554688 1 -1.359375 C 1 -0.972656 1.125 -0.675781 1.375 -0.46875 C 1.625 -0.269531 1.914062 -0.171875 2.25 -0.171875 Z M 2.25 -0.171875 "/></g></g></g><g fill="#ffffff" fill-opacity="1"><g transform="translate(57.234547, 69.654109)"><g/></g></g><g fill="#ffffff" fill-opacity="1"><g transform="translate(59.150461, 69.654109)"><g><path d="M 2.484375 0.078125 C 1.785156 0.078125 1.238281 -0.0976562 0.84375 -0.453125 C 0.445312 -0.804688 0.25 -1.289062 0.25 -1.90625 C 0.25 -2.519531 0.445312 -3 0.84375 -3.34375 C 1.238281 -3.695312 1.78125 -3.875 2.46875 -3.875 C 2.988281 -3.875 3.4375 -3.78125 3.8125 -3.59375 L 3.828125 -2.65625 L 3.78125 -2.65625 C 3.59375 -3.320312 3.171875 -3.65625 2.515625 -3.65625 C 2.085938 -3.65625 1.75 -3.5 1.5 -3.1875 C 1.25 -2.875 1.125 -2.445312 1.125 -1.90625 C 1.125 -1.375 1.242188 -0.953125 1.484375 -0.640625 C 1.722656 -0.328125 2.046875 -0.164062 2.453125 -0.15625 C 2.867188 -0.15625 3.191406 -0.257812 3.421875 -0.46875 C 3.640625 -0.6875 3.789062 -1.0625 3.875 -1.59375 L 3.921875 -1.59375 L 3.984375 -0.65625 C 3.691406 -0.164062 3.191406 0.078125 2.484375 0.078125 Z M 2.484375 0.078125 "/></g></g></g><g fill="#ffffff" fill-opacity="1"><g transform="translate(63.95073, 69.654109)"><g><path d="M 0.84375 -3.34375 C 1.226562 -3.695312 1.75 -3.875 2.40625 -3.875 C 3.0625 -3.875 3.582031 -3.695312 3.96875 -3.34375 C 4.351562 -2.988281 4.546875 -2.503906 4.546875 -1.890625 C 4.546875 -1.285156 4.351562 -0.804688 3.96875 -0.453125 C 3.582031 -0.0976562 3.0625 0.078125 2.40625 0.078125 C 1.75 0.078125 1.226562 -0.0976562 0.84375 -0.453125 C 0.457031 -0.804688 0.265625 -1.285156 0.265625 -1.890625 C 0.265625 -2.503906 0.457031 -2.988281 0.84375 -3.34375 Z M 1.484375 -0.625 C 1.710938 -0.3125 2.019531 -0.15625 2.40625 -0.15625 C 2.789062 -0.15625 3.09375 -0.3125 3.3125 -0.625 C 3.539062 -0.9375 3.65625 -1.363281 3.65625 -1.90625 C 3.65625 -2.445312 3.539062 -2.875 3.3125 -3.1875 C 3.09375 -3.5 2.789062 -3.65625 2.40625 -3.65625 C 2.019531 -3.65625 1.710938 -3.5 1.484375 -3.1875 C 1.265625 -2.875 1.15625 -2.445312 1.15625 -1.90625 C 1.15625 -1.363281 1.265625 -0.9375 1.484375 -0.625 Z M 1.484375 -0.625 "/></g></g></g><g fill="#ffffff" fill-opacity="1"><g transform="translate(69.284334, 69.654109)"><g><path d="M 0.875 -0.0625 C 0.800781 0.0078125 0.707031 0.046875 0.59375 0.046875 C 0.488281 0.046875 0.398438 0.0078125 0.328125 -0.0625 C 0.253906 -0.132812 0.21875 -0.222656 0.21875 -0.328125 C 0.21875 -0.441406 0.253906 -0.535156 0.328125 -0.609375 C 0.398438 -0.691406 0.488281 -0.734375 0.59375 -0.734375 C 0.707031 -0.734375 0.800781 -0.691406 0.875 -0.609375 C 0.957031 -0.535156 1 -0.441406 1 -0.328125 C 1 -0.222656 0.957031 -0.132812 0.875 -0.0625 Z M 0.875 -0.0625 "/></g></g></g><g fill="#dbbe67" fill-opacity="1"><g transform="translate(27.816646, 74.395568)"><g><path d="M 1.671875 0 L 1.234375 -0.625 C 1.179688 -0.625 1.140625 -0.625 1.109375 -0.625 L 0.59375 -0.625 L 0.59375 0 L 0.3125 0 L 0.3125 -2.046875 L 1.109375 -2.046875 C 1.367188 -2.046875 1.570312 -1.984375 1.71875 -1.859375 C 1.875 -1.734375 1.953125 -1.554688 1.953125 -1.328125 C 1.953125 -1.171875 1.910156 -1.035156 1.828125 -0.921875 C 1.753906 -0.816406 1.644531 -0.738281 1.5 -0.6875 L 2 0 Z M 1.09375 -0.875 C 1.28125 -0.875 1.421875 -0.910156 1.515625 -0.984375 C 1.617188 -1.066406 1.671875 -1.179688 1.671875 -1.328125 C 1.671875 -1.472656 1.617188 -1.585938 1.515625 -1.671875 C 1.421875 -1.753906 1.28125 -1.796875 1.09375 -1.796875 L 0.59375 -1.796875 L 0.59375 -0.875 Z M 1.09375 -0.875 "/></g></g></g><g fill="#dbbe67" fill-opacity="1"><g transform="translate(31.02887, 74.395568)"><g><path d="M 1.234375 0.015625 C 1.023438 0.015625 0.835938 -0.0234375 0.671875 -0.109375 C 0.503906 -0.203125 0.375 -0.328125 0.28125 -0.484375 C 0.1875 -0.648438 0.140625 -0.828125 0.140625 -1.015625 C 0.140625 -1.210938 0.1875 -1.390625 0.28125 -1.546875 C 0.375 -1.710938 0.503906 -1.835938 0.671875 -1.921875 C 0.835938 -2.015625 1.023438 -2.0625 1.234375 -2.0625 C 1.429688 -2.0625 1.613281 -2.015625 1.78125 -1.921875 C 1.945312 -1.835938 2.078125 -1.71875 2.171875 -1.5625 C 2.265625 -1.40625 2.3125 -1.222656 2.3125 -1.015625 C 2.3125 -0.816406 2.265625 -0.640625 2.171875 -0.484375 C 2.078125 -0.328125 1.945312 -0.203125 1.78125 -0.109375 C 1.613281 -0.0234375 1.429688 0.015625 1.234375 0.015625 Z M 1.234375 -0.234375 C 1.378906 -0.234375 1.507812 -0.265625 1.625 -0.328125 C 1.75 -0.398438 1.84375 -0.492188 1.90625 -0.609375 C 1.976562 -0.734375 2.015625 -0.867188 2.015625 -1.015625 C 2.015625 -1.171875 1.976562 -1.304688 1.90625 -1.421875 C 1.84375 -1.546875 1.75 -1.640625 1.625 -1.703125 C 1.507812 -1.773438 1.378906 -1.8125 1.234375 -1.8125 C 1.078125 -1.8125 0.9375 -1.773438 0.8125 -1.703125 C 0.695312 -1.640625 0.601562 -1.546875 0.53125 -1.421875 C 0.46875 -1.304688 0.4375 -1.171875 0.4375 -1.015625 C 0.4375 -0.867188 0.46875 -0.734375 0.53125 -0.609375 C 0.601562 -0.492188 0.695312 -0.398438 0.8125 -0.328125 C 0.9375 -0.265625 1.078125 -0.234375 1.234375 -0.234375 Z M 1.234375 -0.234375 "/></g></g></g><g fill="#dbbe67" fill-opacity="1"><g transform="translate(34.571617, 74.395568)"><g><path d="M 1.09375 -0.703125 L 1.09375 0 L 0.796875 0 L 0.796875 -0.71875 L -0.015625 -2.046875 L 0.296875 -2.046875 L 0.953125 -0.96875 L 1.609375 -2.046875 L 1.90625 -2.046875 Z M 1.09375 -0.703125 "/></g></g></g><g fill="#dbbe67" fill-opacity="1"><g transform="translate(37.549844, 74.395568)"><g><path d="M 1.609375 -0.515625 L 0.515625 -0.515625 L 0.296875 0 L 0 0 L 0.921875 -2.046875 L 1.21875 -2.046875 L 2.140625 0 L 1.828125 0 Z M 1.5 -0.75 L 1.0625 -1.75 L 0.625 -0.75 Z M 1.5 -0.75 "/></g></g></g><g fill="#dbbe67" fill-opacity="1"><g transform="translate(40.776693, 74.395568)"><g><path d="M 0.3125 -2.046875 L 0.59375 -2.046875 L 0.59375 -0.25 L 1.703125 -0.25 L 1.703125 0 L 0.3125 0 Z M 0.3125 -2.046875 "/></g></g></g><g fill="#dbbe67" fill-opacity="1"><g transform="translate(43.599894, 74.395568)"><g/></g></g><g fill="#dbbe67" fill-opacity="1"><g transform="translate(45.472475, 74.395568)"><g><path d="M 1.21875 0.015625 C 1.019531 0.015625 0.835938 -0.0234375 0.671875 -0.109375 C 0.503906 -0.203125 0.375 -0.328125 0.28125 -0.484375 C 0.1875 -0.640625 0.140625 -0.816406 0.140625 -1.015625 C 0.140625 -1.222656 0.1875 -1.40625 0.28125 -1.5625 C 0.375 -1.71875 0.503906 -1.835938 0.671875 -1.921875 C 0.835938 -2.015625 1.019531 -2.0625 1.21875 -2.0625 C 1.382812 -2.0625 1.53125 -2.035156 1.65625 -1.984375 C 1.789062 -1.929688 1.90625 -1.851562 2 -1.75 L 1.8125 -1.5625 C 1.65625 -1.726562 1.460938 -1.8125 1.234375 -1.8125 C 1.085938 -1.8125 0.953125 -1.773438 0.828125 -1.703125 C 0.703125 -1.640625 0.601562 -1.546875 0.53125 -1.421875 C 0.46875 -1.304688 0.4375 -1.171875 0.4375 -1.015625 C 0.4375 -0.867188 0.46875 -0.734375 0.53125 -0.609375 C 0.601562 -0.492188 0.703125 -0.398438 0.828125 -0.328125 C 0.953125 -0.265625 1.085938 -0.234375 1.234375 -0.234375 C 1.460938 -0.234375 1.65625 -0.316406 1.8125 -0.484375 L 2 -0.296875 C 1.90625 -0.191406 1.789062 -0.113281 1.65625 -0.0625 C 1.519531 -0.0078125 1.375 0.015625 1.21875 0.015625 Z M 1.21875 0.015625 "/></g></g></g><g fill="#dbbe67" fill-opacity="1"><g transform="translate(48.672998, 74.395568)"><g><path d="M 1.671875 0 L 1.234375 -0.625 C 1.179688 -0.625 1.140625 -0.625 1.109375 -0.625 L 0.59375 -0.625 L 0.59375 0 L 0.3125 0 L 0.3125 -2.046875 L 1.109375 -2.046875 C 1.367188 -2.046875 1.570312 -1.984375 1.71875 -1.859375 C 1.875 -1.734375 1.953125 -1.554688 1.953125 -1.328125 C 1.953125 -1.171875 1.910156 -1.035156 1.828125 -0.921875 C 1.753906 -0.816406 1.644531 -0.738281 1.5 -0.6875 L 2 0 Z M 1.09375 -0.875 C 1.28125 -0.875 1.421875 -0.910156 1.515625 -0.984375 C 1.617188 -1.066406 1.671875 -1.179688 1.671875 -1.328125 C 1.671875 -1.472656 1.617188 -1.585938 1.515625 -1.671875 C 1.421875 -1.753906 1.28125 -1.796875 1.09375 -1.796875 L 0.59375 -1.796875 L 0.59375 -0.875 Z M 1.09375 -0.875 "/></g></g></g><g fill="#dbbe67" fill-opacity="1"><g transform="translate(51.885223, 74.395568)"><g><path d="M 1.234375 0.015625 C 1.023438 0.015625 0.835938 -0.0234375 0.671875 -0.109375 C 0.503906 -0.203125 0.375 -0.328125 0.28125 -0.484375 C 0.1875 -0.648438 0.140625 -0.828125 0.140625 -1.015625 C 0.140625 -1.210938 0.1875 -1.390625 0.28125 -1.546875 C 0.375 -1.710938 0.503906 -1.835938 0.671875 -1.921875 C 0.835938 -2.015625 1.023438 -2.0625 1.234375 -2.0625 C 1.429688 -2.0625 1.613281 -2.015625 1.78125 -1.921875 C 1.945312 -1.835938 2.078125 -1.71875 2.171875 -1.5625 C 2.265625 -1.40625 2.3125 -1.222656 2.3125 -1.015625 C 2.3125 -0.816406 2.265625 -0.640625 2.171875 -0.484375 C 2.078125 -0.328125 1.945312 -0.203125 1.78125 -0.109375 C 1.613281 -0.0234375 1.429688 0.015625 1.234375 0.015625 Z M 1.234375 -0.234375 C 1.378906 -0.234375 1.507812 -0.265625 1.625 -0.328125 C 1.75 -0.398438 1.84375 -0.492188 1.90625 -0.609375 C 1.976562 -0.734375 2.015625 -0.867188 2.015625 -1.015625 C 2.015625 -1.171875 1.976562 -1.304688 1.90625 -1.421875 C 1.84375 -1.546875 1.75 -1.640625 1.625 -1.703125 C 1.507812 -1.773438 1.378906 -1.8125 1.234375 -1.8125 C 1.078125 -1.8125 0.9375 -1.773438 0.8125 -1.703125 C 0.695312 -1.640625 0.601562 -1.546875 0.53125 -1.421875 C 0.46875 -1.304688 0.4375 -1.171875 0.4375 -1.015625 C 0.4375 -0.867188 0.46875 -0.734375 0.53125 -0.609375 C 0.601562 -0.492188 0.695312 -0.398438 0.8125 -0.328125 C 0.9375 -0.265625 1.078125 -0.234375 1.234375 -0.234375 Z M 1.234375 -0.234375 "/></g></g></g><g fill="#dbbe67" fill-opacity="1"><g transform="translate(55.42797, 74.395568)"><g><path d="M 3.203125 -2.046875 L 2.515625 0 L 2.203125 0 L 1.640625 -1.640625 L 1.09375 0 L 0.78125 0 L 0.09375 -2.046875 L 0.390625 -2.046875 L 0.953125 -0.375 L 1.515625 -2.046875 L 1.796875 -2.046875 L 2.359375 -0.375 L 2.921875 -2.046875 Z M 3.203125 -2.046875 "/></g></g></g><g fill="#dbbe67" fill-opacity="1"><g transform="translate(59.80726, 74.395568)"><g><path d="M 2.0625 -2.046875 L 2.0625 0 L 1.828125 0 L 0.59375 -1.53125 L 0.59375 0 L 0.3125 0 L 0.3125 -2.046875 L 0.546875 -2.046875 L 1.78125 -0.515625 L 1.78125 -2.046875 Z M 2.0625 -2.046875 "/></g></g></g></svg>