<svg xmlns="http://www.w3.org/2000/svg" xmlns:xlink="http://www.w3.org/1999/xlink" width="120" zoomAndPan="magnify" viewBox="0 0 90 89.999999" height="120" preserveAspectRatio="xMidYMid meet" version="1.0"><defs><g/><clipPath id="c05970d95a"><path d="M 26.75 48 L 43 48 L 43 61 L 26.75 61 Z M 26.75 48 " clip-rule="nonzero"/></clipPath><clipPath id="245f3c1aa6"><path d="M 43 18.050781 L 46 18.050781 L 46 64.550781 L 43 64.550781 Z M 43 18.050781 " clip-rule="nonzero"/></clipPath><clipPath id="f15625907f"><path d="M 46 22 L 63.5 22 L 63.5 61 L 46 61 Z M 46 22 " clip-rule="nonzero"/></clipPath></defs><rect x="-9" width="108" fill="#ffffff" y="-9" height="107.999999" fill-opacity="1"/><rect x="-9" width="108" fill="#000000" y="-9" height="107.999999" fill-opacity="1"/><path fill="#ffffff" d="M 42.308594 43.683594 L 42.308594 37.410156 C 38.332031 36.875 35.070312 35.917969 35.070312 32.964844 C 35.070312 30.324219 37.417969 28.230469 42.308594 28.160156 L 42.308594 22.214844 C 35.652344 22.28125 28.351562 25.332031 28.351562 32.757812 C 28.351562 40.78125 35.015625 42.789062 42.308594 43.683594 Z M 42.308594 43.683594 " fill-opacity="1" fill-rule="nonzero"/><g clip-path="url(#c05970d95a)"><path fill="#ffffff" d="M 42.308594 54.464844 C 38.03125 54.386719 34 52.617188 32.433594 48.730469 L 26.75 51.675781 C 29.410156 58.230469 35.019531 60.523438 42.308594 60.566406 Z M 42.308594 54.464844 " fill-opacity="1" fill-rule="nonzero"/></g><g clip-path="url(#245f3c1aa6)"><path fill="#ffffff" d="M 43.8125 18.0625 L 45.316406 18.0625 L 45.316406 64.835938 L 43.8125 64.835938 Z M 43.8125 18.0625 " fill-opacity="1" fill-rule="nonzero"/></g><g clip-path="url(#f15625907f)"><path fill="#ffde59" d="M 56.046875 22.289062 L 56.046875 38.484375 L 46.363281 38.484375 L 46.363281 45.179688 L 56.046875 45.179688 L 56.046875 60.71875 L 63.238281 60.71875 L 63.238281 22.289062 Z M 56.046875 22.289062 " fill-opacity="1" fill-rule="nonzero"/></g><g fill="#ffffff" fill-opacity="1"><g transform="translate(25.534544, 70.559777)"><g><path d="M 2.195312 0.0820312 C 3.257812 0.0820312 3.878906 -0.457031 3.878906 -1.308594 C 3.878906 -2.328125 2.984375 -2.53125 2.234375 -2.695312 C 1.683594 -2.820312 1.199219 -2.925781 1.199219 -3.339844 C 1.199219 -3.683594 1.507812 -3.867188 1.933594 -3.867188 C 2.394531 -3.867188 2.777344 -3.648438 2.890625 -3.167969 L 3.761719 -3.167969 C 3.617188 -4.144531 2.820312 -4.59375 1.953125 -4.59375 C 1.039062 -4.59375 0.355469 -4.140625 0.355469 -3.269531 C 0.355469 -2.316406 1.195312 -2.132812 1.933594 -1.96875 C 2.507812 -1.84375 3.023438 -1.734375 3.023438 -1.265625 C 3.023438 -0.832031 2.667969 -0.644531 2.199219 -0.644531 C 1.726562 -0.644531 1.234375 -0.820312 1.089844 -1.464844 L 0.207031 -1.464844 C 0.320312 -0.300781 1.324219 0.0820312 2.195312 0.0820312 Z M 2.195312 0.0820312 "/></g></g></g><g fill="#ffffff" fill-opacity="1"><g transform="translate(29.649217, 70.559777)"><g><path d="M 1.320312 0.0664062 C 1.601562 0.0664062 1.863281 0.0195312 2.070312 -0.117188 C 2.195312 -0.195312 2.289062 -0.300781 2.371094 -0.449219 L 2.371094 0 L 3.167969 0 L 3.167969 -1.726562 C 3.167969 -2.1875 3.167969 -2.707031 2.777344 -3.050781 C 2.53125 -3.28125 2.160156 -3.386719 1.773438 -3.386719 C 1.117188 -3.386719 0.472656 -3.035156 0.355469 -2.257812 L 1.148438 -2.257812 C 1.207031 -2.570312 1.464844 -2.761719 1.769531 -2.761719 C 1.957031 -2.761719 2.109375 -2.707031 2.210938 -2.601562 C 2.3125 -2.496094 2.363281 -2.335938 2.371094 -2.132812 L 1.382812 -1.953125 C 1.105469 -1.898438 0.820312 -1.816406 0.609375 -1.667969 C 0.378906 -1.507812 0.230469 -1.265625 0.230469 -0.910156 C 0.230469 -0.277344 0.691406 0.0664062 1.320312 0.0664062 Z M 1.515625 -0.5625 C 1.234375 -0.5625 1.027344 -0.691406 1.027344 -0.941406 C 1.027344 -1.050781 1.070312 -1.136719 1.136719 -1.199219 C 1.230469 -1.289062 1.367188 -1.347656 1.597656 -1.390625 L 2.390625 -1.550781 C 2.378906 -1.113281 2.289062 -0.828125 1.941406 -0.65625 C 1.808594 -0.589844 1.660156 -0.5625 1.515625 -0.5625 Z M 1.515625 -0.5625 "/></g></g></g><g fill="#ffffff" fill-opacity="1"><g transform="translate(33.143144, 70.559777)"><g><path d="M 1.160156 0 L 1.160156 -1.757812 C 1.160156 -2.183594 1.222656 -2.40625 1.355469 -2.558594 C 1.449219 -2.667969 1.585938 -2.730469 1.757812 -2.730469 C 2.085938 -2.730469 2.28125 -2.523438 2.28125 -2.074219 L 2.28125 0 L 3.082031 0 L 3.082031 -1.757812 C 3.082031 -2.140625 3.128906 -2.402344 3.28125 -2.570312 C 3.371094 -2.667969 3.5 -2.730469 3.679688 -2.730469 C 4.015625 -2.730469 4.199219 -2.53125 4.199219 -2.074219 L 4.199219 0 L 4.996094 0 L 4.996094 -2.175781 C 4.996094 -2.914062 4.652344 -3.386719 3.910156 -3.386719 C 3.472656 -3.386719 3.152344 -3.226562 2.933594 -2.855469 C 2.828125 -3.210938 2.496094 -3.386719 2.0625 -3.386719 C 1.71875 -3.386719 1.417969 -3.257812 1.160156 -2.898438 L 1.160156 -3.316406 L 0.359375 -3.316406 L 0.359375 0 Z M 1.160156 0 "/></g></g></g><g fill="#ffffff" fill-opacity="1"><g transform="translate(38.481579, 70.559777)"><g><path d="M 0.761719 -3.683594 C 1.027344 -3.683594 1.253906 -3.859375 1.253906 -4.140625 C 1.253906 -4.40625 1.027344 -4.59375 0.761719 -4.59375 C 0.492188 -4.59375 0.273438 -4.40625 0.273438 -4.140625 C 0.273438 -3.859375 0.492188 -3.683594 0.761719 -3.683594 Z M 1.160156 0 L 1.160156 -3.316406 L 0.359375 -3.316406 L 0.359375 0 Z M 1.160156 0 "/></g></g></g><g fill="#ffffff" fill-opacity="1"><g transform="translate(40.006847, 70.559777)"><g><path d="M 1.160156 0 L 1.160156 -1.539062 C 1.160156 -1.976562 1.246094 -2.242188 1.425781 -2.417969 C 1.554688 -2.542969 1.746094 -2.621094 2.015625 -2.621094 L 2.199219 -2.621094 L 2.199219 -3.386719 L 2.105469 -3.386719 C 1.714844 -3.386719 1.414062 -3.269531 1.160156 -2.921875 L 1.160156 -3.316406 L 0.359375 -3.316406 L 0.359375 0 Z M 1.160156 0 "/></g></g></g><g fill="#ffffff" fill-opacity="1"><g transform="translate(42.318395, 70.559777)"><g><path d="M 1.320312 0.0664062 C 1.601562 0.0664062 1.863281 0.0195312 2.070312 -0.117188 C 2.195312 -0.195312 2.289062 -0.300781 2.371094 -0.449219 L 2.371094 0 L 3.167969 0 L 3.167969 -1.726562 C 3.167969 -2.1875 3.167969 -2.707031 2.777344 -3.050781 C 2.53125 -3.28125 2.160156 -3.386719 1.773438 -3.386719 C 1.117188 -3.386719 0.472656 -3.035156 0.355469 -2.257812 L 1.148438 -2.257812 C 1.207031 -2.570312 1.464844 -2.761719 1.769531 -2.761719 C 1.957031 -2.761719 2.109375 -2.707031 2.210938 -2.601562 C 2.3125 -2.496094 2.363281 -2.335938 2.371094 -2.132812 L 1.382812 -1.953125 C 1.105469 -1.898438 0.820312 -1.816406 0.609375 -1.667969 C 0.378906 -1.507812 0.230469 -1.265625 0.230469 -0.910156 C 0.230469 -0.277344 0.691406 0.0664062 1.320312 0.0664062 Z M 1.515625 -0.5625 C 1.234375 -0.5625 1.027344 -0.691406 1.027344 -0.941406 C 1.027344 -1.050781 1.070312 -1.136719 1.136719 -1.199219 C 1.230469 -1.289062 1.367188 -1.347656 1.597656 -1.390625 L 2.390625 -1.550781 C 2.378906 -1.113281 2.289062 -0.828125 1.941406 -0.65625 C 1.808594 -0.589844 1.660156 -0.5625 1.515625 -0.5625 Z M 1.515625 -0.5625 "/></g></g></g><g fill="#ffde59" fill-opacity="1"><g transform="translate(45.812668, 70.559777)"><g/></g></g><g fill="#ffde59" fill-opacity="1"><g transform="translate(47.397053, 70.559777)"><g><path d="M 1.253906 0 L 1.253906 -1.878906 L 3.1875 -1.878906 L 3.1875 0 L 4.039062 0 L 4.039062 -4.511719 L 3.1875 -4.511719 L 3.1875 -2.644531 L 1.253906 -2.644531 L 1.253906 -4.511719 L 0.402344 -4.511719 L 0.402344 0 Z M 1.253906 0 "/></g></g></g><g fill="#ffde59" fill-opacity="1"><g transform="translate(51.842794, 70.559777)"><g><path d="M 1.320312 0.0664062 C 1.601562 0.0664062 1.863281 0.0195312 2.070312 -0.117188 C 2.195312 -0.195312 2.289062 -0.300781 2.371094 -0.449219 L 2.371094 0 L 3.167969 0 L 3.167969 -1.726562 C 3.167969 -2.1875 3.167969 -2.707031 2.777344 -3.050781 C 2.53125 -3.28125 2.160156 -3.386719 1.773438 -3.386719 C 1.117188 -3.386719 0.472656 -3.035156 0.355469 -2.257812 L 1.148438 -2.257812 C 1.207031 -2.570312 1.464844 -2.761719 1.769531 -2.761719 C 1.957031 -2.761719 2.109375 -2.707031 2.210938 -2.601562 C 2.3125 -2.496094 2.363281 -2.335938 2.371094 -2.132812 L 1.382812 -1.953125 C 1.105469 -1.898438 0.820312 -1.816406 0.609375 -1.667969 C 0.378906 -1.507812 0.230469 -1.265625 0.230469 -0.910156 C 0.230469 -0.277344 0.691406 0.0664062 1.320312 0.0664062 Z M 1.515625 -0.5625 C 1.234375 -0.5625 1.027344 -0.691406 1.027344 -0.941406 C 1.027344 -1.050781 1.070312 -1.136719 1.136719 -1.199219 C 1.230469 -1.289062 1.367188 -1.347656 1.597656 -1.390625 L 2.390625 -1.550781 C 2.378906 -1.113281 2.289062 -0.828125 1.941406 -0.65625 C 1.808594 -0.589844 1.660156 -0.5625 1.515625 -0.5625 Z M 1.515625 -0.5625 "/></g></g></g><g fill="#ffde59" fill-opacity="1"><g transform="translate(55.336721, 70.559777)"><g><path d="M 1.695312 0.0664062 C 2.085938 0.0664062 2.371094 -0.046875 2.636719 -0.417969 L 2.636719 0 L 3.433594 0 L 3.433594 -4.511719 L 2.636719 -4.511719 L 2.636719 -2.898438 C 2.371094 -3.277344 2.085938 -3.386719 1.695312 -3.386719 C 0.828125 -3.386719 0.238281 -2.679688 0.238281 -1.660156 C 0.238281 -0.644531 0.828125 0.0664062 1.695312 0.0664062 Z M 1.878906 -0.621094 C 1.371094 -0.621094 1.039062 -1.058594 1.039062 -1.660156 C 1.039062 -2.265625 1.371094 -2.703125 1.878906 -2.703125 C 2.390625 -2.703125 2.738281 -2.277344 2.738281 -1.660156 C 2.738281 -1.046875 2.390625 -0.621094 1.878906 -0.621094 Z M 1.878906 -0.621094 "/></g></g></g><g fill="#ffde59" fill-opacity="1"><g transform="translate(59.138064, 70.559777)"><g><path d="M 0.761719 -3.683594 C 1.027344 -3.683594 1.253906 -3.859375 1.253906 -4.140625 C 1.253906 -4.40625 1.027344 -4.59375 0.761719 -4.59375 C 0.492188 -4.59375 0.273438 -4.40625 0.273438 -4.140625 C 0.273438 -3.859375 0.492188 -3.683594 0.761719 -3.683594 Z M 1.160156 0 L 1.160156 -3.316406 L 0.359375 -3.316406 L 0.359375 0 Z M 1.160156 0 "/></g></g></g><g fill="#ffde59" fill-opacity="1"><g transform="translate(60.663332, 70.559777)"><g><path d="M 1.695312 0.0664062 C 2.085938 0.0664062 2.371094 -0.046875 2.636719 -0.417969 L 2.636719 0 L 3.433594 0 L 3.433594 -4.511719 L 2.636719 -4.511719 L 2.636719 -2.898438 C 2.371094 -3.277344 2.085938 -3.386719 1.695312 -3.386719 C 0.828125 -3.386719 0.238281 -2.679688 0.238281 -1.660156 C 0.238281 -0.644531 0.828125 0.0664062 1.695312 0.0664062 Z M 1.878906 -0.621094 C 1.371094 -0.621094 1.039062 -1.058594 1.039062 -1.660156 C 1.039062 -2.265625 1.371094 -2.703125 1.878906 -2.703125 C 2.390625 -2.703125 2.738281 -2.277344 2.738281 -1.660156 C 2.738281 -1.046875 2.390625 -0.621094 1.878906 -0.621094 Z M 1.878906 -0.621094 "/></g></g></g></svg>