<svg xmlns="http://www.w3.org/2000/svg" xmlns:xlink="http://www.w3.org/1999/xlink" width="200" zoomAndPan="magnify" viewBox="0 0 150 149.999998" height="200" preserveAspectRatio="xMidYMid meet" version="1.0"><defs><clipPath id="bfad1812ab"><path d="M 8.84375 33 L 140.84375 33 L 140.84375 119 L 8.84375 119 Z M 8.84375 33 " clip-rule="nonzero"/></clipPath><clipPath id="ab5bc34b33"><path d="M 8.84375 103 L 140.84375 103 L 140.84375 119 L 8.84375 119 Z M 8.84375 103 " clip-rule="nonzero"/></clipPath><clipPath id="55fb415348"><path d="M 43 134 L 106 134 L 106 146.925781 L 43 146.925781 Z M 43 134 " clip-rule="nonzero"/></clipPath><clipPath id="f1ad17b4e8"><path d="M 30 2.925781 L 120 2.925781 L 120 93 L 30 93 Z M 30 2.925781 " clip-rule="nonzero"/></clipPath></defs><g clip-path="url(#bfad1812ab)"><path fill="#373f48" d="M 136.933594 118.695312 L 12.753906 118.695312 C 10.589844 118.695312 8.84375 116.945312 8.84375 114.78125 L 8.84375 37.324219 C 8.84375 35.160156 10.589844 33.410156 12.753906 33.410156 C 54.175781 33.410156 95.511719 33.410156 136.933594 33.410156 C 139.09375 33.410156 140.84375 35.160156 140.84375 37.324219 L 140.84375 114.78125 C 140.84375 116.945312 139.09375 118.695312 136.933594 118.695312 Z M 136.933594 118.695312 " fill-opacity="1" fill-rule="evenodd"/></g><path fill="#373f48" d="M 83.453125 138.597656 L 66.234375 138.597656 C 65.152344 138.597656 64.320312 137.765625 64.320312 136.683594 L 64.320312 116.777344 C 64.320312 115.695312 65.152344 114.863281 66.234375 114.863281 L 83.453125 114.863281 C 84.449219 114.863281 85.28125 115.695312 85.28125 116.777344 L 85.28125 136.683594 C 85.28125 137.765625 84.449219 138.597656 83.453125 138.597656 Z M 83.453125 138.597656 " fill-opacity="1" fill-rule="evenodd"/><path fill="#6bc7e7" d="M 15.414062 39.988281 C 15.414062 40.488281 15.414062 41.070312 15.414062 41.488281 C 15.414062 44.488281 15.332031 47.484375 15.332031 50.398438 C 15.332031 59.0625 15.332031 67.640625 15.332031 76.21875 C 15.332031 85.378906 15.332031 94.542969 15.414062 103.785156 L 134.273438 103.785156 L 134.273438 39.988281 C 94.679688 39.988281 55.007812 39.988281 15.414062 39.988281 Z M 15.414062 39.988281 " fill-opacity="1" fill-rule="evenodd"/><g clip-path="url(#ab5bc34b33)"><path fill="#171d24" d="M 136.933594 118.695312 L 12.753906 118.695312 C 10.589844 118.695312 8.84375 116.945312 8.84375 114.78125 L 8.84375 103.785156 L 140.84375 103.785156 L 140.84375 114.78125 C 140.84375 116.945312 139.09375 118.695312 136.933594 118.695312 Z M 136.933594 118.695312 " fill-opacity="1" fill-rule="evenodd"/></g><path fill="#33cc66" d="M 131.445312 113.113281 L 126.121094 113.113281 C 125.039062 113.113281 124.207031 112.28125 124.207031 111.199219 C 124.207031 110.199219 125.039062 109.28125 126.121094 109.28125 L 131.445312 109.28125 C 132.441406 109.28125 133.355469 110.199219 133.355469 111.199219 C 133.355469 112.28125 132.441406 113.113281 131.445312 113.113281 Z M 131.445312 113.113281 " fill-opacity="1" fill-rule="evenodd"/><g clip-path="url(#55fb415348)"><path fill="#171d24" d="M 104.078125 146.925781 L 45.523438 146.925781 C 44.527344 146.925781 43.695312 146.09375 43.695312 145.011719 L 43.695312 136.683594 C 43.695312 135.683594 44.527344 134.851562 45.523438 134.851562 L 104.078125 134.851562 C 105.160156 134.851562 105.992188 135.683594 105.992188 136.683594 L 105.992188 145.011719 C 105.992188 146.09375 105.160156 146.925781 104.078125 146.925781 Z M 104.078125 146.925781 " fill-opacity="1" fill-rule="evenodd"/></g><path fill="#ef5350" d="M 118.21875 113.113281 L 112.8125 113.113281 C 111.8125 113.113281 110.984375 112.28125 110.984375 111.199219 C 110.984375 110.199219 111.8125 109.28125 112.8125 109.28125 L 118.21875 109.28125 C 119.21875 109.28125 120.132812 110.199219 120.132812 111.199219 C 120.132812 112.28125 119.21875 113.113281 118.21875 113.113281 Z M 118.21875 113.113281 " fill-opacity="1" fill-rule="evenodd"/><path fill="#ffd54f" d="M 104.992188 113.113281 L 99.585938 113.113281 C 98.589844 113.113281 97.675781 112.28125 97.675781 111.199219 C 97.675781 110.199219 98.589844 109.28125 99.585938 109.28125 L 104.992188 109.28125 C 105.992188 109.28125 106.824219 110.199219 106.824219 111.199219 C 106.824219 112.28125 105.992188 113.113281 104.992188 113.113281 Z M 104.992188 113.113281 " fill-opacity="1" fill-rule="evenodd"/><g clip-path="url(#f1ad17b4e8)"><path fill="#ebf0f3" d="M 112.148438 92.457031 L 37.539062 92.457031 C 33.464844 92.457031 30.136719 89.128906 30.136719 85.046875 L 30.136719 10.339844 C 30.136719 6.257812 33.464844 2.925781 37.539062 2.925781 L 112.148438 2.925781 C 116.222656 2.925781 119.550781 6.257812 119.550781 10.339844 L 119.550781 85.046875 C 119.550781 89.128906 116.222656 92.457031 112.148438 92.457031 Z M 112.148438 92.457031 " fill-opacity="1" fill-rule="evenodd"/></g><path fill="#5c9cee" d="M 74.800781 35.074219 L 74.054688 35.074219 C 70.308594 35.074219 67.234375 31.992188 67.234375 28.246094 L 67.234375 20.75 C 67.234375 17.003906 70.308594 13.921875 74.054688 13.921875 L 74.800781 13.921875 C 78.542969 13.921875 81.621094 17.003906 81.621094 20.75 L 81.621094 28.246094 C 81.621094 31.992188 78.542969 35.074219 74.800781 35.074219 Z M 74.054688 17.753906 C 72.390625 17.753906 71.058594 19.085938 71.058594 20.75 L 71.058594 28.246094 C 71.058594 29.910156 72.390625 31.246094 74.054688 31.246094 L 74.800781 31.246094 C 76.464844 31.246094 77.796875 29.910156 77.796875 28.246094 L 77.796875 20.75 C 77.796875 19.085938 76.464844 17.753906 74.800781 17.753906 Z M 74.054688 17.753906 " fill-opacity="1" fill-rule="evenodd"/><path fill="#5c9cee" d="M 57.5 34.992188 C 54.089844 34.992188 51.261719 32.242188 51.261719 28.828125 C 51.261719 27.746094 52.179688 26.914062 53.175781 26.914062 C 54.257812 26.914062 55.089844 27.746094 55.089844 28.828125 C 55.089844 30.160156 56.171875 31.246094 57.5 31.246094 C 58.832031 31.246094 59.914062 30.160156 59.914062 28.828125 L 59.914062 15.835938 C 59.914062 14.835938 60.746094 14.003906 61.828125 14.003906 C 62.824219 14.003906 63.738281 14.835938 63.738281 15.835938 L 63.738281 28.828125 C 63.738281 32.242188 60.910156 34.992188 57.5 34.992188 Z M 57.5 34.992188 " fill-opacity="1" fill-rule="evenodd"/><path fill="#5c9cee" d="M 90.523438 26.414062 L 86.195312 26.414062 C 85.117188 26.414062 84.285156 25.582031 84.285156 24.5 L 84.285156 15.835938 C 84.285156 14.753906 85.117188 13.921875 86.195312 13.921875 L 90.523438 13.921875 C 93.933594 13.921875 96.675781 16.753906 96.675781 20.167969 C 96.675781 23.582031 93.933594 26.414062 90.523438 26.414062 Z M 88.027344 22.582031 L 90.523438 22.582031 C 91.851562 22.582031 92.933594 21.5 92.933594 20.167969 C 92.933594 18.835938 91.851562 17.753906 90.523438 17.753906 L 88.027344 17.753906 Z M 88.027344 22.582031 " fill-opacity="1" fill-rule="evenodd"/><path fill="#5c9cee" d="M 92.183594 35.074219 L 86.195312 35.074219 C 85.117188 35.074219 84.285156 34.242188 84.285156 33.160156 L 84.285156 24.5 C 84.285156 23.414062 85.117188 22.582031 86.195312 22.582031 L 92.183594 22.582031 C 95.59375 22.582031 98.339844 25.414062 98.339844 28.828125 C 98.339844 32.242188 95.59375 35.074219 92.183594 35.074219 Z M 88.027344 31.246094 L 92.183594 31.246094 C 93.515625 31.246094 94.597656 30.160156 94.597656 28.828125 C 94.597656 27.496094 93.515625 26.414062 92.183594 26.414062 L 88.027344 26.414062 Z M 88.027344 31.246094 " fill-opacity="1" fill-rule="evenodd"/><path fill="#d5d6db" d="M 102.5 48.734375 L 47.1875 48.734375 C 46.105469 48.734375 45.273438 47.902344 45.273438 46.820312 C 45.273438 45.820312 46.105469 44.988281 47.1875 44.988281 L 102.5 44.988281 C 103.582031 44.988281 104.410156 45.820312 104.410156 46.820312 C 104.410156 47.902344 103.582031 48.734375 102.5 48.734375 Z M 102.5 48.734375 " fill-opacity="1" fill-rule="evenodd"/><path fill="#d5d6db" d="M 102.5 59.644531 L 47.1875 59.644531 C 46.105469 59.644531 45.273438 58.8125 45.273438 57.730469 C 45.273438 56.730469 46.105469 55.8125 47.1875 55.8125 L 102.5 55.8125 C 103.582031 55.8125 104.410156 56.730469 104.410156 57.730469 C 104.410156 58.8125 103.582031 59.644531 102.5 59.644531 Z M 102.5 59.644531 " fill-opacity="1" fill-rule="evenodd"/><path fill="#d5d6db" d="M 102.5 70.554688 L 47.1875 70.554688 C 46.105469 70.554688 45.273438 69.722656 45.273438 68.640625 C 45.273438 67.558594 46.105469 66.722656 47.1875 66.722656 L 102.5 66.722656 C 103.582031 66.722656 104.410156 67.558594 104.410156 68.640625 C 104.410156 69.722656 103.582031 70.554688 102.5 70.554688 Z M 102.5 70.554688 " fill-opacity="1" fill-rule="evenodd"/><path fill="#d5d6db" d="M 102.5 81.464844 L 74.800781 81.464844 C 73.804688 81.464844 72.972656 80.550781 72.972656 79.550781 C 72.972656 78.46875 73.804688 77.632812 74.800781 77.632812 L 102.5 77.632812 C 103.582031 77.632812 104.410156 78.46875 104.410156 79.550781 C 104.410156 80.550781 103.582031 81.464844 102.5 81.464844 Z M 102.5 81.464844 " fill-opacity="1" fill-rule="evenodd"/></svg>