<svg xmlns="http://www.w3.org/2000/svg" xmlns:xlink="http://www.w3.org/1999/xlink" width="120" zoomAndPan="magnify" viewBox="0 0 90 89.999999" height="120" preserveAspectRatio="xMidYMid meet" version="1.0"><defs><g/><clipPath id="92a7a13743"><path d="M 36 46 L 42 46 L 42 62 L 36 62 Z M 36 46 " clip-rule="nonzero"/></clipPath><clipPath id="d34abf767e"><path d="M 38.609375 46.824219 L 41.886719 47.210938 L 40.253906 61.128906 L 36.976562 60.742188 Z M 38.609375 46.824219 " clip-rule="nonzero"/></clipPath><clipPath id="649111f990"><path d="M 38.609375 46.824219 L 41.886719 47.210938 L 40.253906 61.121094 L 36.976562 60.738281 Z M 38.609375 46.824219 " clip-rule="nonzero"/></clipPath><clipPath id="5c54c684ea"><path d="M 41.632812 43.589844 L 45.355469 43.589844 L 45.355469 47.3125 L 41.632812 47.3125 Z M 41.632812 43.589844 " clip-rule="nonzero"/></clipPath><clipPath id="53ee5bf75f"><path d="M 43.496094 43.589844 C 42.464844 43.589844 41.632812 44.421875 41.632812 45.449219 C 41.632812 46.476562 42.464844 47.3125 43.496094 47.3125 C 44.523438 47.3125 45.355469 46.476562 45.355469 45.449219 C 45.355469 44.421875 44.523438 43.589844 43.496094 43.589844 Z M 43.496094 43.589844 " clip-rule="nonzero"/></clipPath></defs><rect x="-9" width="108" fill="#ffffff" y="-9" height="107.999999" fill-opacity="1"/><rect x="-9" width="108" fill="#100f0f" y="-9" height="107.999999" fill-opacity="1"/><g clip-path="url(#92a7a13743)"><g clip-path="url(#d34abf767e)"><g clip-path="url(#649111f990)"><path fill="#e4e2dd" d="M 38.609375 46.824219 L 41.886719 47.210938 L 40.253906 61.113281 L 36.976562 60.730469 Z M 38.609375 46.824219 " fill-opacity="1" fill-rule="nonzero"/></g></g></g><g fill="#e4e2dd" fill-opacity="1"><g transform="translate(30.25984, 42.988551)"><g><path d="M 2.203125 0 L 2.203125 -13.65625 L 0.203125 -13.65625 L 0.203125 -16.90625 L 7.59375 -16.90625 L 7.59375 -13.65625 L 5.59375 -13.65625 L 5.59375 0 Z M 2.203125 0 "/></g></g></g><g fill="#e4e2dd" fill-opacity="1"><g transform="translate(36.974101, 42.988551)"><g><path d="M 0.75 0 L 0.75 -16.90625 L 4.109375 -16.90625 L 4.109375 -10.875 L 5.703125 -10.875 L 5.703125 -16.90625 L 9.078125 -16.90625 L 9.078125 0 L 5.703125 0 L 5.703125 -7.671875 L 4.109375 -7.671875 L 4.109375 0 Z M 0.75 0 "/></g></g></g><g fill="#e4e2dd" fill-opacity="1"><g transform="translate(45.716469, 42.988551)"><g><path d="M 0.75 0 L 0.75 -16.90625 L 7.515625 -16.90625 L 7.515625 -13.640625 L 4.1875 -13.640625 L 4.1875 -10.359375 L 7.375 -10.359375 L 7.375 -7.171875 L 4.1875 -7.171875 L 4.1875 -3.28125 L 7.734375 -3.28125 L 7.734375 0 Z M 0.75 0 "/></g></g></g><g clip-path="url(#5c54c684ea)"><g clip-path="url(#53ee5bf75f)"><path fill="#e4e2dd" d="M 41.632812 43.589844 L 45.355469 43.589844 L 45.355469 47.3125 L 41.632812 47.3125 Z M 41.632812 43.589844 " fill-opacity="1" fill-rule="nonzero"/></g></g><g fill="#e4e2dd" fill-opacity="1"><g transform="translate(23.496066, 60.98855)"><g><path d="M 2.0625 0 L 0.25 -16.90625 L 3.5625 -16.90625 L 4.515625 -6.234375 L 5.453125 -16.90625 L 8.609375 -16.90625 L 9.515625 -6.234375 L 10.421875 -16.90625 L 13.765625 -16.90625 L 11.90625 0 L 7.859375 0 L 7.015625 -8.15625 L 6.203125 0 Z M 2.0625 0 "/></g></g></g><g fill="#e4e2dd" fill-opacity="1"><g transform="translate(51.006285, 57.075518)"><g><path d="M 14.65625 -8.46875 L 17.15625 -4.53125 C 17.800781 -3.507812 18.003906 -2.566406 17.765625 -1.703125 C 17.535156 -0.835938 16.875 -0.0390625 15.78125 0.6875 L 9.125 4.96875 C 7.71875 5.875 6.503906 6.300781 5.484375 6.25 C 4.460938 6.207031 3.582031 5.613281 2.84375 4.46875 L 0.40625 0.625 Z M 5.078125 2.390625 C 5.410156 2.910156 5.828125 3.007812 6.328125 2.6875 L 13.6875 -2 C 14.007812 -2.207031 14.234375 -2.382812 14.359375 -2.53125 C 14.492188 -2.6875 14.546875 -2.847656 14.515625 -3.015625 C 14.484375 -3.179688 14.378906 -3.398438 14.203125 -3.671875 L 14 -4 L 4.765625 1.890625 Z M 5.078125 2.390625 "/></g></g></g><g fill="#e4e2dd" fill-opacity="1"><g transform="translate(40.695133, 59.412401)"><g><path d="M 0.71875 0.21875 L 5.671875 -15.953125 L 9 -14.9375 L 8.109375 -6.734375 L 10.484375 -14.484375 L 13.625 -13.515625 L 8.671875 2.65625 L 5.5 1.6875 L 6.375 -6.90625 L 3.890625 1.1875 Z M 0.71875 0.21875 "/></g></g></g><g fill="#e4e2dd" fill-opacity="1"><g transform="translate(57.409769, 27.30417)"><g><path d="M 0.453125 0 C 0.429688 0 0.410156 -0.00390625 0.390625 -0.015625 C 0.367188 -0.0351562 0.359375 -0.0625 0.359375 -0.09375 L 0.359375 -0.9375 L 0.5625 -0.9375 L 0.5625 -0.09375 C 0.5625 -0.0625 0.550781 -0.0351562 0.53125 -0.015625 C 0.507812 -0.00390625 0.484375 0 0.453125 0 Z M 0.140625 -0.859375 C 0.109375 -0.859375 0.0820312 -0.863281 0.0625 -0.875 C 0.0507812 -0.894531 0.046875 -0.914062 0.046875 -0.9375 C 0.046875 -0.96875 0.0507812 -0.988281 0.0625 -1 C 0.0820312 -1.019531 0.109375 -1.03125 0.140625 -1.03125 L 0.78125 -1.03125 C 0.8125 -1.03125 0.832031 -1.019531 0.84375 -1 C 0.863281 -0.988281 0.875 -0.96875 0.875 -0.9375 C 0.875 -0.914062 0.863281 -0.894531 0.84375 -0.875 C 0.832031 -0.863281 0.8125 -0.859375 0.78125 -0.859375 Z M 0.140625 -0.859375 "/></g></g></g><g fill="#e4e2dd" fill-opacity="1"><g transform="translate(58.2923, 27.30417)"><g><path d="M 0.203125 -1.03125 L 0.6875 -1.03125 C 0.71875 -1.03125 0.738281 -1.019531 0.75 -1 C 0.769531 -0.988281 0.78125 -0.96875 0.78125 -0.9375 C 0.78125 -0.914062 0.769531 -0.894531 0.75 -0.875 C 0.738281 -0.863281 0.71875 -0.859375 0.6875 -0.859375 L 0.28125 -0.859375 L 0.296875 -0.890625 L 0.296875 -0.59375 L 0.28125 -0.609375 L 0.625 -0.609375 C 0.644531 -0.609375 0.664062 -0.597656 0.6875 -0.578125 C 0.707031 -0.566406 0.71875 -0.546875 0.71875 -0.515625 C 0.71875 -0.492188 0.707031 -0.472656 0.6875 -0.453125 C 0.664062 -0.441406 0.644531 -0.4375 0.625 -0.4375 L 0.28125 -0.4375 L 0.296875 -0.453125 L 0.296875 -0.15625 L 0.28125 -0.171875 L 0.6875 -0.171875 C 0.71875 -0.171875 0.738281 -0.160156 0.75 -0.140625 C 0.769531 -0.128906 0.78125 -0.109375 0.78125 -0.078125 C 0.78125 -0.0546875 0.769531 -0.0351562 0.75 -0.015625 C 0.738281 -0.00390625 0.71875 0 0.6875 0 L 0.203125 0 C 0.171875 0 0.144531 -0.00390625 0.125 -0.015625 C 0.113281 -0.0351562 0.109375 -0.0625 0.109375 -0.09375 L 0.109375 -0.9375 C 0.109375 -0.96875 0.113281 -0.988281 0.125 -1 C 0.144531 -1.019531 0.171875 -1.03125 0.203125 -1.03125 Z M 0.203125 -1.03125 "/></g></g></g><g fill="#e4e2dd" fill-opacity="1"><g transform="translate(59.095534, 27.30417)"><g><path d="M 0.828125 -0.984375 C 0.859375 -0.960938 0.875 -0.9375 0.875 -0.90625 C 0.875 -0.882812 0.867188 -0.863281 0.859375 -0.84375 C 0.835938 -0.820312 0.816406 -0.8125 0.796875 -0.8125 C 0.785156 -0.8125 0.769531 -0.816406 0.75 -0.828125 C 0.71875 -0.835938 0.6875 -0.84375 0.65625 -0.84375 C 0.632812 -0.851562 0.613281 -0.859375 0.59375 -0.859375 C 0.539062 -0.859375 0.492188 -0.847656 0.453125 -0.828125 C 0.410156 -0.816406 0.375 -0.796875 0.34375 -0.765625 C 0.3125 -0.734375 0.285156 -0.695312 0.265625 -0.65625 C 0.253906 -0.613281 0.25 -0.566406 0.25 -0.515625 C 0.25 -0.453125 0.253906 -0.398438 0.265625 -0.359375 C 0.285156 -0.316406 0.3125 -0.28125 0.34375 -0.25 C 0.375 -0.21875 0.410156 -0.191406 0.453125 -0.171875 C 0.492188 -0.160156 0.539062 -0.15625 0.59375 -0.15625 C 0.613281 -0.15625 0.632812 -0.15625 0.65625 -0.15625 C 0.6875 -0.164062 0.71875 -0.179688 0.75 -0.203125 C 0.769531 -0.203125 0.785156 -0.203125 0.796875 -0.203125 C 0.816406 -0.203125 0.835938 -0.191406 0.859375 -0.171875 C 0.878906 -0.148438 0.882812 -0.125 0.875 -0.09375 C 0.875 -0.0703125 0.859375 -0.0546875 0.828125 -0.046875 C 0.804688 -0.0351562 0.78125 -0.0234375 0.75 -0.015625 C 0.726562 -0.00390625 0.703125 0 0.671875 0 C 0.640625 0.0078125 0.613281 0.015625 0.59375 0.015625 C 0.519531 0.015625 0.453125 0.00390625 0.390625 -0.015625 C 0.328125 -0.0351562 0.269531 -0.0664062 0.21875 -0.109375 C 0.164062 -0.160156 0.125 -0.21875 0.09375 -0.28125 C 0.0703125 -0.351562 0.0625 -0.429688 0.0625 -0.515625 C 0.0625 -0.585938 0.0703125 -0.65625 0.09375 -0.71875 C 0.125 -0.78125 0.160156 -0.832031 0.203125 -0.875 C 0.253906 -0.925781 0.3125 -0.960938 0.375 -0.984375 C 0.4375 -1.015625 0.507812 -1.03125 0.59375 -1.03125 C 0.632812 -1.03125 0.675781 -1.023438 0.71875 -1.015625 C 0.757812 -1.003906 0.796875 -0.992188 0.828125 -0.984375 Z M 0.828125 -0.984375 "/></g></g></g><g fill="#e4e2dd" fill-opacity="1"><g transform="translate(59.979532, 27.30417)"><g><path d="M 0.203125 -1.03125 C 0.222656 -1.03125 0.242188 -1.019531 0.265625 -1 C 0.285156 -0.988281 0.296875 -0.96875 0.296875 -0.9375 L 0.296875 -0.09375 C 0.296875 -0.0625 0.285156 -0.0351562 0.265625 -0.015625 C 0.242188 -0.00390625 0.222656 0 0.203125 0 C 0.171875 0 0.144531 -0.00390625 0.125 -0.015625 C 0.113281 -0.0351562 0.109375 -0.0625 0.109375 -0.09375 L 0.109375 -0.9375 C 0.109375 -0.96875 0.113281 -0.988281 0.125 -1 C 0.144531 -1.019531 0.171875 -1.03125 0.203125 -1.03125 Z M 0.859375 -1.03125 C 0.878906 -1.03125 0.898438 -1.019531 0.921875 -1 C 0.941406 -0.988281 0.953125 -0.96875 0.953125 -0.9375 L 0.953125 -0.09375 C 0.953125 -0.0625 0.941406 -0.0351562 0.921875 -0.015625 C 0.898438 -0.00390625 0.878906 0 0.859375 0 C 0.828125 0 0.800781 -0.00390625 0.78125 -0.015625 C 0.769531 -0.0351562 0.765625 -0.0625 0.765625 -0.09375 L 0.765625 -0.9375 C 0.765625 -0.96875 0.769531 -0.988281 0.78125 -1 C 0.800781 -1.019531 0.828125 -1.03125 0.859375 -1.03125 Z M 0.203125 -0.59375 L 0.859375 -0.59375 L 0.859375 -0.4375 L 0.203125 -0.4375 Z M 0.203125 -0.59375 "/></g></g></g><g fill="#e4e2dd" fill-opacity="1"><g transform="translate(60.998628, 27.30417)"><g><path d="M 0.890625 -1.03125 C 0.910156 -1.03125 0.925781 -1.019531 0.9375 -1 C 0.957031 -0.988281 0.96875 -0.972656 0.96875 -0.953125 L 0.96875 -0.09375 C 0.96875 -0.0625 0.957031 -0.0351562 0.9375 -0.015625 C 0.925781 -0.00390625 0.90625 0 0.875 0 C 0.863281 0 0.851562 0 0.84375 0 C 0.832031 -0.0078125 0.820312 -0.0195312 0.8125 -0.03125 L 0.234375 -0.765625 L 0.265625 -0.78125 L 0.265625 -0.078125 C 0.265625 -0.0546875 0.253906 -0.0351562 0.234375 -0.015625 C 0.222656 -0.00390625 0.207031 0 0.1875 0 C 0.164062 0 0.144531 -0.00390625 0.125 -0.015625 C 0.113281 -0.0351562 0.109375 -0.0546875 0.109375 -0.078125 L 0.109375 -0.9375 C 0.109375 -0.96875 0.113281 -0.988281 0.125 -1 C 0.144531 -1.019531 0.171875 -1.03125 0.203125 -1.03125 C 0.210938 -1.03125 0.222656 -1.023438 0.234375 -1.015625 C 0.253906 -1.015625 0.269531 -1.007812 0.28125 -1 L 0.828125 -0.28125 L 0.8125 -0.265625 L 0.8125 -0.953125 C 0.8125 -0.972656 0.816406 -0.988281 0.828125 -1 C 0.847656 -1.019531 0.867188 -1.03125 0.890625 -1.03125 Z M 0.890625 -1.03125 "/></g></g></g><g fill="#e4e2dd" fill-opacity="1"><g transform="translate(62.041219, 27.30417)"><g><path d="M 1.0625 -0.515625 C 1.0625 -0.441406 1.046875 -0.375 1.015625 -0.3125 C 0.992188 -0.25 0.957031 -0.191406 0.90625 -0.140625 C 0.863281 -0.0859375 0.8125 -0.046875 0.75 -0.015625 C 0.695312 0.00390625 0.632812 0.015625 0.5625 0.015625 C 0.488281 0.015625 0.421875 0.00390625 0.359375 -0.015625 C 0.296875 -0.046875 0.238281 -0.0859375 0.1875 -0.140625 C 0.144531 -0.191406 0.113281 -0.25 0.09375 -0.3125 C 0.0703125 -0.375 0.0625 -0.441406 0.0625 -0.515625 C 0.0625 -0.585938 0.0703125 -0.65625 0.09375 -0.71875 C 0.113281 -0.78125 0.144531 -0.832031 0.1875 -0.875 C 0.238281 -0.925781 0.296875 -0.96875 0.359375 -1 C 0.421875 -1.03125 0.488281 -1.046875 0.5625 -1.046875 C 0.632812 -1.046875 0.695312 -1.03125 0.75 -1 C 0.8125 -0.96875 0.863281 -0.925781 0.90625 -0.875 C 0.957031 -0.832031 0.992188 -0.78125 1.015625 -0.71875 C 1.046875 -0.65625 1.0625 -0.585938 1.0625 -0.515625 Z M 0.859375 -0.515625 C 0.859375 -0.578125 0.84375 -0.632812 0.8125 -0.6875 C 0.789062 -0.738281 0.753906 -0.78125 0.703125 -0.8125 C 0.660156 -0.84375 0.613281 -0.859375 0.5625 -0.859375 C 0.5 -0.859375 0.441406 -0.84375 0.390625 -0.8125 C 0.347656 -0.78125 0.3125 -0.738281 0.28125 -0.6875 C 0.257812 -0.632812 0.25 -0.578125 0.25 -0.515625 C 0.25 -0.453125 0.257812 -0.390625 0.28125 -0.328125 C 0.3125 -0.273438 0.347656 -0.234375 0.390625 -0.203125 C 0.441406 -0.171875 0.5 -0.15625 0.5625 -0.15625 C 0.613281 -0.15625 0.660156 -0.171875 0.703125 -0.203125 C 0.753906 -0.234375 0.789062 -0.273438 0.8125 -0.328125 C 0.84375 -0.390625 0.859375 -0.453125 0.859375 -0.515625 Z M 0.859375 -0.515625 "/></g></g></g><g fill="#e4e2dd" fill-opacity="1"><g transform="translate(63.119051, 27.30417)"><g><path d="M 0.671875 -0.171875 C 0.703125 -0.171875 0.722656 -0.160156 0.734375 -0.140625 C 0.753906 -0.128906 0.765625 -0.109375 0.765625 -0.078125 C 0.765625 -0.0546875 0.753906 -0.0351562 0.734375 -0.015625 C 0.722656 -0.00390625 0.703125 0 0.671875 0 L 0.203125 0 C 0.171875 0 0.144531 -0.00390625 0.125 -0.015625 C 0.113281 -0.0351562 0.109375 -0.0625 0.109375 -0.09375 L 0.109375 -0.9375 C 0.109375 -0.96875 0.113281 -0.988281 0.125 -1 C 0.144531 -1.019531 0.171875 -1.03125 0.203125 -1.03125 C 0.222656 -1.03125 0.242188 -1.019531 0.265625 -1 C 0.285156 -0.988281 0.296875 -0.96875 0.296875 -0.9375 L 0.296875 -0.140625 L 0.265625 -0.171875 Z M 0.671875 -0.171875 "/></g></g></g><g fill="#e4e2dd" fill-opacity="1"><g transform="translate(63.907602, 27.30417)"><g><path d="M 1.0625 -0.515625 C 1.0625 -0.441406 1.046875 -0.375 1.015625 -0.3125 C 0.992188 -0.25 0.957031 -0.191406 0.90625 -0.140625 C 0.863281 -0.0859375 0.8125 -0.046875 0.75 -0.015625 C 0.695312 0.00390625 0.632812 0.015625 0.5625 0.015625 C 0.488281 0.015625 0.421875 0.00390625 0.359375 -0.015625 C 0.296875 -0.046875 0.238281 -0.0859375 0.1875 -0.140625 C 0.144531 -0.191406 0.113281 -0.25 0.09375 -0.3125 C 0.0703125 -0.375 0.0625 -0.441406 0.0625 -0.515625 C 0.0625 -0.585938 0.0703125 -0.65625 0.09375 -0.71875 C 0.113281 -0.78125 0.144531 -0.832031 0.1875 -0.875 C 0.238281 -0.925781 0.296875 -0.96875 0.359375 -1 C 0.421875 -1.03125 0.488281 -1.046875 0.5625 -1.046875 C 0.632812 -1.046875 0.695312 -1.03125 0.75 -1 C 0.8125 -0.96875 0.863281 -0.925781 0.90625 -0.875 C 0.957031 -0.832031 0.992188 -0.78125 1.015625 -0.71875 C 1.046875 -0.65625 1.0625 -0.585938 1.0625 -0.515625 Z M 0.859375 -0.515625 C 0.859375 -0.578125 0.84375 -0.632812 0.8125 -0.6875 C 0.789062 -0.738281 0.753906 -0.78125 0.703125 -0.8125 C 0.660156 -0.84375 0.613281 -0.859375 0.5625 -0.859375 C 0.5 -0.859375 0.441406 -0.84375 0.390625 -0.8125 C 0.347656 -0.78125 0.3125 -0.738281 0.28125 -0.6875 C 0.257812 -0.632812 0.25 -0.578125 0.25 -0.515625 C 0.25 -0.453125 0.257812 -0.390625 0.28125 -0.328125 C 0.3125 -0.273438 0.347656 -0.234375 0.390625 -0.203125 C 0.441406 -0.171875 0.5 -0.15625 0.5625 -0.15625 C 0.613281 -0.15625 0.660156 -0.171875 0.703125 -0.203125 C 0.753906 -0.234375 0.789062 -0.273438 0.8125 -0.328125 C 0.84375 -0.390625 0.859375 -0.453125 0.859375 -0.515625 Z M 0.859375 -0.515625 "/></g></g></g><g fill="#e4e2dd" fill-opacity="1"><g transform="translate(64.985434, 27.30417)"><g><path d="M 0.59375 0.015625 C 0.519531 0.015625 0.453125 0.00390625 0.390625 -0.015625 C 0.328125 -0.046875 0.269531 -0.0859375 0.21875 -0.140625 C 0.164062 -0.191406 0.125 -0.25 0.09375 -0.3125 C 0.0703125 -0.375 0.0625 -0.441406 0.0625 -0.515625 C 0.0625 -0.585938 0.0703125 -0.65625 0.09375 -0.71875 C 0.125 -0.78125 0.164062 -0.832031 0.21875 -0.875 C 0.269531 -0.925781 0.328125 -0.96875 0.390625 -1 C 0.453125 -1.03125 0.519531 -1.046875 0.59375 -1.046875 C 0.632812 -1.046875 0.675781 -1.039062 0.71875 -1.03125 C 0.769531 -1.019531 0.8125 -1.003906 0.84375 -0.984375 C 0.863281 -0.972656 0.875 -0.960938 0.875 -0.953125 C 0.882812 -0.941406 0.890625 -0.925781 0.890625 -0.90625 C 0.890625 -0.882812 0.878906 -0.863281 0.859375 -0.84375 C 0.847656 -0.832031 0.832031 -0.828125 0.8125 -0.828125 C 0.800781 -0.828125 0.789062 -0.828125 0.78125 -0.828125 C 0.769531 -0.828125 0.765625 -0.828125 0.765625 -0.828125 C 0.734375 -0.835938 0.703125 -0.84375 0.671875 -0.84375 C 0.648438 -0.851562 0.625 -0.859375 0.59375 -0.859375 C 0.53125 -0.859375 0.472656 -0.84375 0.421875 -0.8125 C 0.367188 -0.78125 0.328125 -0.738281 0.296875 -0.6875 C 0.265625 -0.632812 0.25 -0.578125 0.25 -0.515625 C 0.25 -0.453125 0.265625 -0.390625 0.296875 -0.328125 C 0.328125 -0.273438 0.367188 -0.234375 0.421875 -0.203125 C 0.472656 -0.171875 0.53125 -0.15625 0.59375 -0.15625 C 0.625 -0.15625 0.65625 -0.15625 0.6875 -0.15625 C 0.726562 -0.164062 0.757812 -0.175781 0.78125 -0.1875 L 0.765625 -0.15625 L 0.765625 -0.40625 L 0.796875 -0.375 L 0.625 -0.375 C 0.601562 -0.375 0.582031 -0.378906 0.5625 -0.390625 C 0.539062 -0.410156 0.53125 -0.4375 0.53125 -0.46875 C 0.53125 -0.488281 0.539062 -0.507812 0.5625 -0.53125 C 0.582031 -0.550781 0.601562 -0.5625 0.625 -0.5625 L 0.875 -0.5625 C 0.894531 -0.5625 0.910156 -0.550781 0.921875 -0.53125 C 0.941406 -0.507812 0.953125 -0.488281 0.953125 -0.46875 L 0.953125 -0.15625 C 0.953125 -0.132812 0.945312 -0.117188 0.9375 -0.109375 C 0.925781 -0.0976562 0.914062 -0.0859375 0.90625 -0.078125 C 0.863281 -0.046875 0.816406 -0.0195312 0.765625 0 C 0.710938 0.0078125 0.65625 0.015625 0.59375 0.015625 Z M 0.59375 0.015625 "/></g></g></g><g fill="#e4e2dd" fill-opacity="1"><g transform="translate(65.970756, 27.30417)"><g><path d="M 0.765625 -1.03125 C 0.785156 -1.03125 0.804688 -1.019531 0.828125 -1 C 0.847656 -0.988281 0.859375 -0.96875 0.859375 -0.9375 C 0.859375 -0.925781 0.851562 -0.914062 0.84375 -0.90625 C 0.84375 -0.90625 0.84375 -0.898438 0.84375 -0.890625 L 0.5 -0.40625 L 0.53125 -0.515625 L 0.53125 -0.09375 C 0.53125 -0.0625 0.519531 -0.0351562 0.5 -0.015625 C 0.488281 -0.00390625 0.46875 0 0.4375 0 C 0.414062 0 0.394531 -0.00390625 0.375 -0.015625 C 0.363281 -0.0351562 0.359375 -0.0625 0.359375 -0.09375 L 0.359375 -0.5 L 0.375 -0.453125 L 0.046875 -0.875 C 0.0351562 -0.882812 0.03125 -0.894531 0.03125 -0.90625 C 0.03125 -0.914062 0.03125 -0.925781 0.03125 -0.9375 C 0.03125 -0.96875 0.0390625 -0.988281 0.0625 -1 C 0.0820312 -1.019531 0.101562 -1.03125 0.125 -1.03125 C 0.144531 -1.03125 0.164062 -1.015625 0.1875 -0.984375 L 0.46875 -0.609375 L 0.4375 -0.609375 L 0.6875 -0.984375 C 0.707031 -1.015625 0.734375 -1.03125 0.765625 -1.03125 Z M 0.765625 -1.03125 "/></g></g></g><g fill="#e4e2dd" fill-opacity="1"><g transform="translate(23.958733, 65.072183)"><g><path d="M 0.484375 -0.796875 L 0.171875 -0.046875 C 0.160156 -0.0351562 0.148438 -0.0234375 0.140625 -0.015625 C 0.128906 -0.00390625 0.113281 0 0.09375 0 C 0.0625 0 0.0390625 -0.00390625 0.03125 -0.015625 C 0.0195312 -0.0234375 0.015625 -0.0390625 0.015625 -0.0625 C 0.015625 -0.0703125 0.015625 -0.0820312 0.015625 -0.09375 L 0.390625 -0.96875 C 0.390625 -0.988281 0.394531 -1.003906 0.40625 -1.015625 C 0.425781 -1.023438 0.445312 -1.03125 0.46875 -1.03125 C 0.488281 -1.03125 0.503906 -1.023438 0.515625 -1.015625 C 0.535156 -1.003906 0.550781 -0.988281 0.5625 -0.96875 L 0.921875 -0.109375 C 0.921875 -0.0976562 0.921875 -0.0859375 0.921875 -0.078125 C 0.921875 -0.0546875 0.910156 -0.0351562 0.890625 -0.015625 C 0.878906 -0.00390625 0.863281 0 0.84375 0 C 0.820312 0 0.800781 -0.00390625 0.78125 -0.015625 C 0.769531 -0.0234375 0.765625 -0.0351562 0.765625 -0.046875 L 0.4375 -0.78125 Z M 0.21875 -0.234375 L 0.296875 -0.40625 L 0.6875 -0.40625 L 0.71875 -0.234375 Z M 0.21875 -0.234375 "/></g></g></g><g fill="#e4e2dd" fill-opacity="1"><g transform="translate(24.860353, 65.072183)"><g><path d="M 0.296875 -0.09375 C 0.296875 -0.0625 0.285156 -0.0351562 0.265625 -0.015625 C 0.242188 -0.00390625 0.222656 0 0.203125 0 C 0.171875 0 0.144531 -0.00390625 0.125 -0.015625 C 0.113281 -0.0351562 0.109375 -0.0625 0.109375 -0.09375 L 0.109375 -0.9375 C 0.109375 -0.96875 0.113281 -0.988281 0.125 -1 C 0.144531 -1.019531 0.171875 -1.03125 0.203125 -1.03125 C 0.222656 -1.03125 0.242188 -1.019531 0.265625 -1 C 0.285156 -0.988281 0.296875 -0.96875 0.296875 -0.9375 Z M 0.296875 -0.09375 "/></g></g></g><g fill="#e4e2dd" fill-opacity="1"><g transform="translate(25.227462, 65.072183)"><g><path d="M 0.21875 0 C 0.1875 0 0.160156 -0.00390625 0.140625 -0.015625 C 0.117188 -0.0351562 0.109375 -0.0625 0.109375 -0.09375 L 0.109375 -0.9375 C 0.109375 -0.96875 0.113281 -0.988281 0.125 -1 C 0.144531 -1.019531 0.171875 -1.03125 0.203125 -1.03125 L 0.625 -1.03125 C 0.675781 -1.03125 0.722656 -1.015625 0.765625 -0.984375 C 0.804688 -0.960938 0.84375 -0.925781 0.875 -0.875 C 0.90625 -0.832031 0.921875 -0.78125 0.921875 -0.71875 C 0.921875 -0.675781 0.910156 -0.632812 0.890625 -0.59375 C 0.878906 -0.5625 0.859375 -0.53125 0.828125 -0.5 C 0.804688 -0.476562 0.78125 -0.457031 0.75 -0.4375 L 0.75 -0.46875 C 0.769531 -0.457031 0.789062 -0.441406 0.8125 -0.421875 C 0.832031 -0.398438 0.847656 -0.378906 0.859375 -0.359375 C 0.867188 -0.335938 0.875 -0.3125 0.875 -0.28125 C 0.875 -0.257812 0.875 -0.238281 0.875 -0.21875 C 0.882812 -0.195312 0.890625 -0.179688 0.890625 -0.171875 C 0.890625 -0.160156 0.898438 -0.148438 0.921875 -0.140625 C 0.941406 -0.128906 0.953125 -0.109375 0.953125 -0.078125 C 0.960938 -0.0546875 0.957031 -0.0390625 0.9375 -0.03125 C 0.925781 -0.0078125 0.910156 0 0.890625 0 C 0.878906 0 0.863281 0 0.84375 0 C 0.832031 0 0.820312 -0.00390625 0.8125 -0.015625 C 0.789062 -0.0234375 0.769531 -0.0390625 0.75 -0.0625 C 0.738281 -0.0820312 0.726562 -0.109375 0.71875 -0.140625 C 0.707031 -0.171875 0.703125 -0.210938 0.703125 -0.265625 C 0.703125 -0.273438 0.695312 -0.285156 0.6875 -0.296875 C 0.6875 -0.316406 0.679688 -0.332031 0.671875 -0.34375 C 0.660156 -0.351562 0.644531 -0.359375 0.625 -0.359375 C 0.613281 -0.367188 0.59375 -0.375 0.5625 -0.375 L 0.265625 -0.375 L 0.296875 -0.40625 L 0.296875 -0.09375 C 0.296875 -0.0625 0.285156 -0.0351562 0.265625 -0.015625 C 0.253906 -0.00390625 0.238281 0 0.21875 0 Z M 0.265625 -0.53125 L 0.609375 -0.53125 C 0.628906 -0.53125 0.644531 -0.535156 0.65625 -0.546875 C 0.675781 -0.566406 0.691406 -0.585938 0.703125 -0.609375 C 0.710938 -0.640625 0.71875 -0.671875 0.71875 -0.703125 C 0.71875 -0.742188 0.707031 -0.78125 0.6875 -0.8125 C 0.664062 -0.84375 0.640625 -0.859375 0.609375 -0.859375 L 0.28125 -0.859375 L 0.296875 -0.90625 L 0.296875 -0.484375 Z M 0.265625 -0.53125 "/></g></g></g><g fill="#e4e2dd" fill-opacity="1"><g transform="translate(26.199568, 65.072183)"><g/></g></g><g fill="#e4e2dd" fill-opacity="1"><g transform="translate(26.57402, 65.072183)"><g><path d="M 0.828125 -0.984375 C 0.859375 -0.960938 0.875 -0.9375 0.875 -0.90625 C 0.875 -0.882812 0.867188 -0.863281 0.859375 -0.84375 C 0.835938 -0.820312 0.816406 -0.8125 0.796875 -0.8125 C 0.785156 -0.8125 0.769531 -0.816406 0.75 -0.828125 C 0.71875 -0.835938 0.6875 -0.84375 0.65625 -0.84375 C 0.632812 -0.851562 0.613281 -0.859375 0.59375 -0.859375 C 0.539062 -0.859375 0.492188 -0.847656 0.453125 -0.828125 C 0.410156 -0.816406 0.375 -0.796875 0.34375 -0.765625 C 0.3125 -0.734375 0.285156 -0.695312 0.265625 -0.65625 C 0.253906 -0.613281 0.25 -0.566406 0.25 -0.515625 C 0.25 -0.453125 0.253906 -0.398438 0.265625 -0.359375 C 0.285156 -0.316406 0.3125 -0.28125 0.34375 -0.25 C 0.375 -0.21875 0.410156 -0.191406 0.453125 -0.171875 C 0.492188 -0.160156 0.539062 -0.15625 0.59375 -0.15625 C 0.613281 -0.15625 0.632812 -0.15625 0.65625 -0.15625 C 0.6875 -0.164062 0.71875 -0.179688 0.75 -0.203125 C 0.769531 -0.203125 0.785156 -0.203125 0.796875 -0.203125 C 0.816406 -0.203125 0.835938 -0.191406 0.859375 -0.171875 C 0.878906 -0.148438 0.882812 -0.125 0.875 -0.09375 C 0.875 -0.0703125 0.859375 -0.0546875 0.828125 -0.046875 C 0.804688 -0.0351562 0.78125 -0.0234375 0.75 -0.015625 C 0.726562 -0.00390625 0.703125 0 0.671875 0 C 0.640625 0.0078125 0.613281 0.015625 0.59375 0.015625 C 0.519531 0.015625 0.453125 0.00390625 0.390625 -0.015625 C 0.328125 -0.0351562 0.269531 -0.0664062 0.21875 -0.109375 C 0.164062 -0.160156 0.125 -0.21875 0.09375 -0.28125 C 0.0703125 -0.351562 0.0625 -0.429688 0.0625 -0.515625 C 0.0625 -0.585938 0.0703125 -0.65625 0.09375 -0.71875 C 0.125 -0.78125 0.160156 -0.832031 0.203125 -0.875 C 0.253906 -0.925781 0.3125 -0.960938 0.375 -0.984375 C 0.4375 -1.015625 0.507812 -1.03125 0.59375 -1.03125 C 0.632812 -1.03125 0.675781 -1.023438 0.71875 -1.015625 C 0.757812 -1.003906 0.796875 -0.992188 0.828125 -0.984375 Z M 0.828125 -0.984375 "/></g></g></g><g fill="#e4e2dd" fill-opacity="1"><g transform="translate(27.458019, 65.072183)"><g><path d="M 1.0625 -0.515625 C 1.0625 -0.441406 1.046875 -0.375 1.015625 -0.3125 C 0.992188 -0.25 0.957031 -0.191406 0.90625 -0.140625 C 0.863281 -0.0859375 0.8125 -0.046875 0.75 -0.015625 C 0.695312 0.00390625 0.632812 0.015625 0.5625 0.015625 C 0.488281 0.015625 0.421875 0.00390625 0.359375 -0.015625 C 0.296875 -0.046875 0.238281 -0.0859375 0.1875 -0.140625 C 0.144531 -0.191406 0.113281 -0.25 0.09375 -0.3125 C 0.0703125 -0.375 0.0625 -0.441406 0.0625 -0.515625 C 0.0625 -0.585938 0.0703125 -0.65625 0.09375 -0.71875 C 0.113281 -0.78125 0.144531 -0.832031 0.1875 -0.875 C 0.238281 -0.925781 0.296875 -0.96875 0.359375 -1 C 0.421875 -1.03125 0.488281 -1.046875 0.5625 -1.046875 C 0.632812 -1.046875 0.695312 -1.03125 0.75 -1 C 0.8125 -0.96875 0.863281 -0.925781 0.90625 -0.875 C 0.957031 -0.832031 0.992188 -0.78125 1.015625 -0.71875 C 1.046875 -0.65625 1.0625 -0.585938 1.0625 -0.515625 Z M 0.859375 -0.515625 C 0.859375 -0.578125 0.84375 -0.632812 0.8125 -0.6875 C 0.789062 -0.738281 0.753906 -0.78125 0.703125 -0.8125 C 0.660156 -0.84375 0.613281 -0.859375 0.5625 -0.859375 C 0.5 -0.859375 0.441406 -0.84375 0.390625 -0.8125 C 0.347656 -0.78125 0.3125 -0.738281 0.28125 -0.6875 C 0.257812 -0.632812 0.25 -0.578125 0.25 -0.515625 C 0.25 -0.453125 0.257812 -0.390625 0.28125 -0.328125 C 0.3125 -0.273438 0.347656 -0.234375 0.390625 -0.203125 C 0.441406 -0.171875 0.5 -0.15625 0.5625 -0.15625 C 0.613281 -0.15625 0.660156 -0.171875 0.703125 -0.203125 C 0.753906 -0.234375 0.789062 -0.273438 0.8125 -0.328125 C 0.84375 -0.390625 0.859375 -0.453125 0.859375 -0.515625 Z M 0.859375 -0.515625 "/></g></g></g><g fill="#e4e2dd" fill-opacity="1"><g transform="translate(28.535851, 65.072183)"><g><path d="M 0.890625 -1.03125 C 0.910156 -1.03125 0.925781 -1.019531 0.9375 -1 C 0.957031 -0.988281 0.96875 -0.972656 0.96875 -0.953125 L 0.96875 -0.09375 C 0.96875 -0.0625 0.957031 -0.0351562 0.9375 -0.015625 C 0.925781 -0.00390625 0.90625 0 0.875 0 C 0.863281 0 0.851562 0 0.84375 0 C 0.832031 -0.0078125 0.820312 -0.0195312 0.8125 -0.03125 L 0.234375 -0.765625 L 0.265625 -0.78125 L 0.265625 -0.078125 C 0.265625 -0.0546875 0.253906 -0.0351562 0.234375 -0.015625 C 0.222656 -0.00390625 0.207031 0 0.1875 0 C 0.164062 0 0.144531 -0.00390625 0.125 -0.015625 C 0.113281 -0.0351562 0.109375 -0.0546875 0.109375 -0.078125 L 0.109375 -0.9375 C 0.109375 -0.96875 0.113281 -0.988281 0.125 -1 C 0.144531 -1.019531 0.171875 -1.03125 0.203125 -1.03125 C 0.210938 -1.03125 0.222656 -1.023438 0.234375 -1.015625 C 0.253906 -1.015625 0.269531 -1.007812 0.28125 -1 L 0.828125 -0.28125 L 0.8125 -0.265625 L 0.8125 -0.953125 C 0.8125 -0.972656 0.816406 -0.988281 0.828125 -1 C 0.847656 -1.019531 0.867188 -1.03125 0.890625 -1.03125 Z M 0.890625 -1.03125 "/></g></g></g><g fill="#e4e2dd" fill-opacity="1"><g transform="translate(29.578442, 65.072183)"><g><path d="M 0.546875 -1.03125 C 0.617188 -1.03125 0.679688 -1.015625 0.734375 -0.984375 C 0.796875 -0.960938 0.84375 -0.925781 0.875 -0.875 C 0.914062 -0.832031 0.941406 -0.78125 0.953125 -0.71875 C 0.972656 -0.65625 0.984375 -0.585938 0.984375 -0.515625 C 0.984375 -0.421875 0.96875 -0.332031 0.9375 -0.25 C 0.90625 -0.175781 0.851562 -0.113281 0.78125 -0.0625 C 0.71875 -0.0195312 0.640625 0 0.546875 0 L 0.203125 0 C 0.171875 0 0.144531 -0.00390625 0.125 -0.015625 C 0.113281 -0.0351562 0.109375 -0.0625 0.109375 -0.09375 L 0.109375 -0.9375 C 0.109375 -0.96875 0.113281 -0.988281 0.125 -1 C 0.144531 -1.019531 0.171875 -1.03125 0.203125 -1.03125 Z M 0.53125 -0.171875 C 0.59375 -0.171875 0.644531 -0.1875 0.6875 -0.21875 C 0.726562 -0.25 0.753906 -0.289062 0.765625 -0.34375 C 0.785156 -0.394531 0.796875 -0.453125 0.796875 -0.515625 C 0.796875 -0.554688 0.789062 -0.597656 0.78125 -0.640625 C 0.769531 -0.679688 0.753906 -0.71875 0.734375 -0.75 C 0.710938 -0.78125 0.6875 -0.804688 0.65625 -0.828125 C 0.625 -0.847656 0.582031 -0.859375 0.53125 -0.859375 L 0.28125 -0.859375 L 0.296875 -0.875 L 0.296875 -0.15625 L 0.28125 -0.171875 Z M 0.53125 -0.171875 "/></g></g></g><g fill="#e4e2dd" fill-opacity="1"><g transform="translate(30.591663, 65.072183)"><g><path d="M 0.296875 -0.09375 C 0.296875 -0.0625 0.285156 -0.0351562 0.265625 -0.015625 C 0.242188 -0.00390625 0.222656 0 0.203125 0 C 0.171875 0 0.144531 -0.00390625 0.125 -0.015625 C 0.113281 -0.0351562 0.109375 -0.0625 0.109375 -0.09375 L 0.109375 -0.9375 C 0.109375 -0.96875 0.113281 -0.988281 0.125 -1 C 0.144531 -1.019531 0.171875 -1.03125 0.203125 -1.03125 C 0.222656 -1.03125 0.242188 -1.019531 0.265625 -1 C 0.285156 -0.988281 0.296875 -0.96875 0.296875 -0.9375 Z M 0.296875 -0.09375 "/></g></g></g><g fill="#e4e2dd" fill-opacity="1"><g transform="translate(30.958772, 65.072183)"><g><path d="M 0.453125 0 C 0.429688 0 0.410156 -0.00390625 0.390625 -0.015625 C 0.367188 -0.0351562 0.359375 -0.0625 0.359375 -0.09375 L 0.359375 -0.9375 L 0.5625 -0.9375 L 0.5625 -0.09375 C 0.5625 -0.0625 0.550781 -0.0351562 0.53125 -0.015625 C 0.507812 -0.00390625 0.484375 0 0.453125 0 Z M 0.140625 -0.859375 C 0.109375 -0.859375 0.0820312 -0.863281 0.0625 -0.875 C 0.0507812 -0.894531 0.046875 -0.914062 0.046875 -0.9375 C 0.046875 -0.96875 0.0507812 -0.988281 0.0625 -1 C 0.0820312 -1.019531 0.109375 -1.03125 0.140625 -1.03125 L 0.78125 -1.03125 C 0.8125 -1.03125 0.832031 -1.019531 0.84375 -1 C 0.863281 -0.988281 0.875 -0.96875 0.875 -0.9375 C 0.875 -0.914062 0.863281 -0.894531 0.84375 -0.875 C 0.832031 -0.863281 0.8125 -0.859375 0.78125 -0.859375 Z M 0.140625 -0.859375 "/></g></g></g><g fill="#e4e2dd" fill-opacity="1"><g transform="translate(31.841302, 65.072183)"><g><path d="M 0.296875 -0.09375 C 0.296875 -0.0625 0.285156 -0.0351562 0.265625 -0.015625 C 0.242188 -0.00390625 0.222656 0 0.203125 0 C 0.171875 0 0.144531 -0.00390625 0.125 -0.015625 C 0.113281 -0.0351562 0.109375 -0.0625 0.109375 -0.09375 L 0.109375 -0.9375 C 0.109375 -0.96875 0.113281 -0.988281 0.125 -1 C 0.144531 -1.019531 0.171875 -1.03125 0.203125 -1.03125 C 0.222656 -1.03125 0.242188 -1.019531 0.265625 -1 C 0.285156 -0.988281 0.296875 -0.96875 0.296875 -0.9375 Z M 0.296875 -0.09375 "/></g></g></g><g fill="#e4e2dd" fill-opacity="1"><g transform="translate(32.208411, 65.072183)"><g><path d="M 1.0625 -0.515625 C 1.0625 -0.441406 1.046875 -0.375 1.015625 -0.3125 C 0.992188 -0.25 0.957031 -0.191406 0.90625 -0.140625 C 0.863281 -0.0859375 0.8125 -0.046875 0.75 -0.015625 C 0.695312 0.00390625 0.632812 0.015625 0.5625 0.015625 C 0.488281 0.015625 0.421875 0.00390625 0.359375 -0.015625 C 0.296875 -0.046875 0.238281 -0.0859375 0.1875 -0.140625 C 0.144531 -0.191406 0.113281 -0.25 0.09375 -0.3125 C 0.0703125 -0.375 0.0625 -0.441406 0.0625 -0.515625 C 0.0625 -0.585938 0.0703125 -0.65625 0.09375 -0.71875 C 0.113281 -0.78125 0.144531 -0.832031 0.1875 -0.875 C 0.238281 -0.925781 0.296875 -0.96875 0.359375 -1 C 0.421875 -1.03125 0.488281 -1.046875 0.5625 -1.046875 C 0.632812 -1.046875 0.695312 -1.03125 0.75 -1 C 0.8125 -0.96875 0.863281 -0.925781 0.90625 -0.875 C 0.957031 -0.832031 0.992188 -0.78125 1.015625 -0.71875 C 1.046875 -0.65625 1.0625 -0.585938 1.0625 -0.515625 Z M 0.859375 -0.515625 C 0.859375 -0.578125 0.84375 -0.632812 0.8125 -0.6875 C 0.789062 -0.738281 0.753906 -0.78125 0.703125 -0.8125 C 0.660156 -0.84375 0.613281 -0.859375 0.5625 -0.859375 C 0.5 -0.859375 0.441406 -0.84375 0.390625 -0.8125 C 0.347656 -0.78125 0.3125 -0.738281 0.28125 -0.6875 C 0.257812 -0.632812 0.25 -0.578125 0.25 -0.515625 C 0.25 -0.453125 0.257812 -0.390625 0.28125 -0.328125 C 0.3125 -0.273438 0.347656 -0.234375 0.390625 -0.203125 C 0.441406 -0.171875 0.5 -0.15625 0.5625 -0.15625 C 0.613281 -0.15625 0.660156 -0.171875 0.703125 -0.203125 C 0.753906 -0.234375 0.789062 -0.273438 0.8125 -0.328125 C 0.84375 -0.390625 0.859375 -0.453125 0.859375 -0.515625 Z M 0.859375 -0.515625 "/></g></g></g><g fill="#e4e2dd" fill-opacity="1"><g transform="translate(33.286243, 65.072183)"><g><path d="M 0.890625 -1.03125 C 0.910156 -1.03125 0.925781 -1.019531 0.9375 -1 C 0.957031 -0.988281 0.96875 -0.972656 0.96875 -0.953125 L 0.96875 -0.09375 C 0.96875 -0.0625 0.957031 -0.0351562 0.9375 -0.015625 C 0.925781 -0.00390625 0.90625 0 0.875 0 C 0.863281 0 0.851562 0 0.84375 0 C 0.832031 -0.0078125 0.820312 -0.0195312 0.8125 -0.03125 L 0.234375 -0.765625 L 0.265625 -0.78125 L 0.265625 -0.078125 C 0.265625 -0.0546875 0.253906 -0.0351562 0.234375 -0.015625 C 0.222656 -0.00390625 0.207031 0 0.1875 0 C 0.164062 0 0.144531 -0.00390625 0.125 -0.015625 C 0.113281 -0.0351562 0.109375 -0.0546875 0.109375 -0.078125 L 0.109375 -0.9375 C 0.109375 -0.96875 0.113281 -0.988281 0.125 -1 C 0.144531 -1.019531 0.171875 -1.03125 0.203125 -1.03125 C 0.210938 -1.03125 0.222656 -1.023438 0.234375 -1.015625 C 0.253906 -1.015625 0.269531 -1.007812 0.28125 -1 L 0.828125 -0.28125 L 0.8125 -0.265625 L 0.8125 -0.953125 C 0.8125 -0.972656 0.816406 -0.988281 0.828125 -1 C 0.847656 -1.019531 0.867188 -1.03125 0.890625 -1.03125 Z M 0.890625 -1.03125 "/></g></g></g><g fill="#e4e2dd" fill-opacity="1"><g transform="translate(34.328833, 65.072183)"><g><path d="M 0.296875 -0.09375 C 0.296875 -0.0625 0.285156 -0.0351562 0.265625 -0.015625 C 0.242188 -0.00390625 0.222656 0 0.203125 0 C 0.171875 0 0.144531 -0.00390625 0.125 -0.015625 C 0.113281 -0.0351562 0.109375 -0.0625 0.109375 -0.09375 L 0.109375 -0.9375 C 0.109375 -0.96875 0.113281 -0.988281 0.125 -1 C 0.144531 -1.019531 0.171875 -1.03125 0.203125 -1.03125 C 0.222656 -1.03125 0.242188 -1.019531 0.265625 -1 C 0.285156 -0.988281 0.296875 -0.96875 0.296875 -0.9375 Z M 0.296875 -0.09375 "/></g></g></g><g fill="#e4e2dd" fill-opacity="1"><g transform="translate(34.695941, 65.072183)"><g><path d="M 0.890625 -1.03125 C 0.910156 -1.03125 0.925781 -1.019531 0.9375 -1 C 0.957031 -0.988281 0.96875 -0.972656 0.96875 -0.953125 L 0.96875 -0.09375 C 0.96875 -0.0625 0.957031 -0.0351562 0.9375 -0.015625 C 0.925781 -0.00390625 0.90625 0 0.875 0 C 0.863281 0 0.851562 0 0.84375 0 C 0.832031 -0.0078125 0.820312 -0.0195312 0.8125 -0.03125 L 0.234375 -0.765625 L 0.265625 -0.78125 L 0.265625 -0.078125 C 0.265625 -0.0546875 0.253906 -0.0351562 0.234375 -0.015625 C 0.222656 -0.00390625 0.207031 0 0.1875 0 C 0.164062 0 0.144531 -0.00390625 0.125 -0.015625 C 0.113281 -0.0351562 0.109375 -0.0546875 0.109375 -0.078125 L 0.109375 -0.9375 C 0.109375 -0.96875 0.113281 -0.988281 0.125 -1 C 0.144531 -1.019531 0.171875 -1.03125 0.203125 -1.03125 C 0.210938 -1.03125 0.222656 -1.023438 0.234375 -1.015625 C 0.253906 -1.015625 0.269531 -1.007812 0.28125 -1 L 0.828125 -0.28125 L 0.8125 -0.265625 L 0.8125 -0.953125 C 0.8125 -0.972656 0.816406 -0.988281 0.828125 -1 C 0.847656 -1.019531 0.867188 -1.03125 0.890625 -1.03125 Z M 0.890625 -1.03125 "/></g></g></g><g fill="#e4e2dd" fill-opacity="1"><g transform="translate(35.738532, 65.072183)"><g><path d="M 0.59375 0.015625 C 0.519531 0.015625 0.453125 0.00390625 0.390625 -0.015625 C 0.328125 -0.046875 0.269531 -0.0859375 0.21875 -0.140625 C 0.164062 -0.191406 0.125 -0.25 0.09375 -0.3125 C 0.0703125 -0.375 0.0625 -0.441406 0.0625 -0.515625 C 0.0625 -0.585938 0.0703125 -0.65625 0.09375 -0.71875 C 0.125 -0.78125 0.164062 -0.832031 0.21875 -0.875 C 0.269531 -0.925781 0.328125 -0.96875 0.390625 -1 C 0.453125 -1.03125 0.519531 -1.046875 0.59375 -1.046875 C 0.632812 -1.046875 0.675781 -1.039062 0.71875 -1.03125 C 0.769531 -1.019531 0.8125 -1.003906 0.84375 -0.984375 C 0.863281 -0.972656 0.875 -0.960938 0.875 -0.953125 C 0.882812 -0.941406 0.890625 -0.925781 0.890625 -0.90625 C 0.890625 -0.882812 0.878906 -0.863281 0.859375 -0.84375 C 0.847656 -0.832031 0.832031 -0.828125 0.8125 -0.828125 C 0.800781 -0.828125 0.789062 -0.828125 0.78125 -0.828125 C 0.769531 -0.828125 0.765625 -0.828125 0.765625 -0.828125 C 0.734375 -0.835938 0.703125 -0.84375 0.671875 -0.84375 C 0.648438 -0.851562 0.625 -0.859375 0.59375 -0.859375 C 0.53125 -0.859375 0.472656 -0.84375 0.421875 -0.8125 C 0.367188 -0.78125 0.328125 -0.738281 0.296875 -0.6875 C 0.265625 -0.632812 0.25 -0.578125 0.25 -0.515625 C 0.25 -0.453125 0.265625 -0.390625 0.296875 -0.328125 C 0.328125 -0.273438 0.367188 -0.234375 0.421875 -0.203125 C 0.472656 -0.171875 0.53125 -0.15625 0.59375 -0.15625 C 0.625 -0.15625 0.65625 -0.15625 0.6875 -0.15625 C 0.726562 -0.164062 0.757812 -0.175781 0.78125 -0.1875 L 0.765625 -0.15625 L 0.765625 -0.40625 L 0.796875 -0.375 L 0.625 -0.375 C 0.601562 -0.375 0.582031 -0.378906 0.5625 -0.390625 C 0.539062 -0.410156 0.53125 -0.4375 0.53125 -0.46875 C 0.53125 -0.488281 0.539062 -0.507812 0.5625 -0.53125 C 0.582031 -0.550781 0.601562 -0.5625 0.625 -0.5625 L 0.875 -0.5625 C 0.894531 -0.5625 0.910156 -0.550781 0.921875 -0.53125 C 0.941406 -0.507812 0.953125 -0.488281 0.953125 -0.46875 L 0.953125 -0.15625 C 0.953125 -0.132812 0.945312 -0.117188 0.9375 -0.109375 C 0.925781 -0.0976562 0.914062 -0.0859375 0.90625 -0.078125 C 0.863281 -0.046875 0.816406 -0.0195312 0.765625 0 C 0.710938 0.0078125 0.65625 0.015625 0.59375 0.015625 Z M 0.59375 0.015625 "/></g></g></g><g fill="#e4e2dd" fill-opacity="1"><g transform="translate(63.367599, 28.538892)"><g><path d="M 0.203125 -1.03125 L 0.6875 -1.03125 C 0.71875 -1.03125 0.738281 -1.019531 0.75 -1 C 0.769531 -0.988281 0.78125 -0.96875 0.78125 -0.9375 C 0.78125 -0.914062 0.769531 -0.894531 0.75 -0.875 C 0.738281 -0.863281 0.71875 -0.859375 0.6875 -0.859375 L 0.28125 -0.859375 L 0.296875 -0.890625 L 0.296875 -0.59375 L 0.28125 -0.609375 L 0.625 -0.609375 C 0.644531 -0.609375 0.664062 -0.597656 0.6875 -0.578125 C 0.707031 -0.566406 0.71875 -0.546875 0.71875 -0.515625 C 0.71875 -0.492188 0.707031 -0.472656 0.6875 -0.453125 C 0.664062 -0.441406 0.644531 -0.4375 0.625 -0.4375 L 0.28125 -0.4375 L 0.296875 -0.453125 L 0.296875 -0.15625 L 0.28125 -0.171875 L 0.6875 -0.171875 C 0.71875 -0.171875 0.738281 -0.160156 0.75 -0.140625 C 0.769531 -0.128906 0.78125 -0.109375 0.78125 -0.078125 C 0.78125 -0.0546875 0.769531 -0.0351562 0.75 -0.015625 C 0.738281 -0.00390625 0.71875 0 0.6875 0 L 0.203125 0 C 0.171875 0 0.144531 -0.00390625 0.125 -0.015625 C 0.113281 -0.0351562 0.109375 -0.0625 0.109375 -0.09375 L 0.109375 -0.9375 C 0.109375 -0.96875 0.113281 -0.988281 0.125 -1 C 0.144531 -1.019531 0.171875 -1.03125 0.203125 -1.03125 Z M 0.203125 -1.03125 "/></g></g></g><g fill="#e4e2dd" fill-opacity="1"><g transform="translate(64.138528, 28.538892)"><g><path d="M 0.4375 0.015625 C 0.375 0.015625 0.3125 0.0078125 0.25 0 C 0.195312 -0.0195312 0.144531 -0.0507812 0.09375 -0.09375 C 0.0820312 -0.113281 0.0703125 -0.128906 0.0625 -0.140625 C 0.0625 -0.148438 0.0625 -0.160156 0.0625 -0.171875 C 0.0625 -0.203125 0.0664062 -0.222656 0.078125 -0.234375 C 0.0976562 -0.253906 0.117188 -0.265625 0.140625 -0.265625 C 0.160156 -0.265625 0.175781 -0.257812 0.1875 -0.25 C 0.226562 -0.21875 0.265625 -0.191406 0.296875 -0.171875 C 0.335938 -0.160156 0.382812 -0.15625 0.4375 -0.15625 C 0.476562 -0.15625 0.515625 -0.160156 0.546875 -0.171875 C 0.578125 -0.179688 0.597656 -0.195312 0.609375 -0.21875 C 0.628906 -0.238281 0.640625 -0.257812 0.640625 -0.28125 C 0.640625 -0.3125 0.628906 -0.335938 0.609375 -0.359375 C 0.597656 -0.378906 0.570312 -0.394531 0.53125 -0.40625 C 0.5 -0.425781 0.453125 -0.4375 0.390625 -0.4375 C 0.335938 -0.445312 0.289062 -0.457031 0.25 -0.46875 C 0.21875 -0.488281 0.1875 -0.507812 0.15625 -0.53125 C 0.125 -0.5625 0.101562 -0.59375 0.09375 -0.625 C 0.0820312 -0.65625 0.078125 -0.691406 0.078125 -0.734375 C 0.078125 -0.804688 0.09375 -0.863281 0.125 -0.90625 C 0.15625 -0.945312 0.195312 -0.976562 0.25 -1 C 0.3125 -1.03125 0.375 -1.046875 0.4375 -1.046875 C 0.5 -1.046875 0.554688 -1.035156 0.609375 -1.015625 C 0.671875 -0.992188 0.71875 -0.96875 0.75 -0.9375 C 0.78125 -0.914062 0.796875 -0.890625 0.796875 -0.859375 C 0.796875 -0.835938 0.785156 -0.816406 0.765625 -0.796875 C 0.753906 -0.785156 0.734375 -0.78125 0.703125 -0.78125 C 0.691406 -0.78125 0.679688 -0.785156 0.671875 -0.796875 C 0.648438 -0.804688 0.625 -0.816406 0.59375 -0.828125 C 0.570312 -0.835938 0.546875 -0.847656 0.515625 -0.859375 C 0.492188 -0.867188 0.46875 -0.875 0.4375 -0.875 C 0.394531 -0.875 0.359375 -0.867188 0.328125 -0.859375 C 0.304688 -0.847656 0.285156 -0.832031 0.265625 -0.8125 C 0.253906 -0.789062 0.25 -0.769531 0.25 -0.75 C 0.25 -0.71875 0.253906 -0.691406 0.265625 -0.671875 C 0.285156 -0.648438 0.3125 -0.632812 0.34375 -0.625 C 0.375 -0.613281 0.414062 -0.601562 0.46875 -0.59375 C 0.519531 -0.582031 0.566406 -0.570312 0.609375 -0.5625 C 0.660156 -0.550781 0.703125 -0.53125 0.734375 -0.5 C 0.765625 -0.476562 0.785156 -0.445312 0.796875 -0.40625 C 0.804688 -0.375 0.8125 -0.335938 0.8125 -0.296875 C 0.8125 -0.234375 0.796875 -0.175781 0.765625 -0.125 C 0.734375 -0.0820312 0.6875 -0.046875 0.625 -0.015625 C 0.570312 0.00390625 0.507812 0.015625 0.4375 0.015625 Z M 0.4375 0.015625 "/></g></g></g><g fill="#e4e2dd" fill-opacity="1"><g transform="translate(64.946168, 28.538892)"><g><path d="M 0.453125 0 C 0.429688 0 0.410156 -0.00390625 0.390625 -0.015625 C 0.367188 -0.0351562 0.359375 -0.0625 0.359375 -0.09375 L 0.359375 -0.9375 L 0.5625 -0.9375 L 0.5625 -0.09375 C 0.5625 -0.0625 0.550781 -0.0351562 0.53125 -0.015625 C 0.507812 -0.00390625 0.484375 0 0.453125 0 Z M 0.140625 -0.859375 C 0.109375 -0.859375 0.0820312 -0.863281 0.0625 -0.875 C 0.0507812 -0.894531 0.046875 -0.914062 0.046875 -0.9375 C 0.046875 -0.96875 0.0507812 -0.988281 0.0625 -1 C 0.0820312 -1.019531 0.109375 -1.03125 0.140625 -1.03125 L 0.78125 -1.03125 C 0.8125 -1.03125 0.832031 -1.019531 0.84375 -1 C 0.863281 -0.988281 0.875 -0.96875 0.875 -0.9375 C 0.875 -0.914062 0.863281 -0.894531 0.84375 -0.875 C 0.832031 -0.863281 0.8125 -0.859375 0.78125 -0.859375 Z M 0.140625 -0.859375 "/></g></g></g><g fill="#e4e2dd" fill-opacity="1"><g transform="translate(65.796393, 28.538892)"><g><path d="M 0.546875 -1.03125 C 0.617188 -1.03125 0.679688 -1.015625 0.734375 -0.984375 C 0.796875 -0.960938 0.84375 -0.925781 0.875 -0.875 C 0.914062 -0.832031 0.941406 -0.78125 0.953125 -0.71875 C 0.972656 -0.65625 0.984375 -0.585938 0.984375 -0.515625 C 0.984375 -0.421875 0.96875 -0.332031 0.9375 -0.25 C 0.90625 -0.175781 0.851562 -0.113281 0.78125 -0.0625 C 0.71875 -0.0195312 0.640625 0 0.546875 0 L 0.203125 0 C 0.171875 0 0.144531 -0.00390625 0.125 -0.015625 C 0.113281 -0.0351562 0.109375 -0.0625 0.109375 -0.09375 L 0.109375 -0.9375 C 0.109375 -0.96875 0.113281 -0.988281 0.125 -1 C 0.144531 -1.019531 0.171875 -1.03125 0.203125 -1.03125 Z M 0.53125 -0.171875 C 0.59375 -0.171875 0.644531 -0.1875 0.6875 -0.21875 C 0.726562 -0.25 0.753906 -0.289062 0.765625 -0.34375 C 0.785156 -0.394531 0.796875 -0.453125 0.796875 -0.515625 C 0.796875 -0.554688 0.789062 -0.597656 0.78125 -0.640625 C 0.769531 -0.679688 0.753906 -0.71875 0.734375 -0.75 C 0.710938 -0.78125 0.6875 -0.804688 0.65625 -0.828125 C 0.625 -0.847656 0.582031 -0.859375 0.53125 -0.859375 L 0.28125 -0.859375 L 0.296875 -0.875 L 0.296875 -0.15625 L 0.28125 -0.171875 Z M 0.53125 -0.171875 "/></g></g></g><g fill="#e4e2dd" fill-opacity="1"><g transform="translate(63.692641, 29.762581)"><g><path d="M 0.671875 -0.15625 C 0.691406 -0.15625 0.707031 -0.144531 0.71875 -0.125 C 0.738281 -0.113281 0.75 -0.0976562 0.75 -0.078125 C 0.75 -0.0546875 0.738281 -0.0351562 0.71875 -0.015625 C 0.707031 -0.00390625 0.691406 0 0.671875 0 L 0.171875 0 C 0.148438 0 0.128906 -0.00390625 0.109375 -0.015625 C 0.0976562 -0.0351562 0.09375 -0.0546875 0.09375 -0.078125 C 0.09375 -0.109375 0.101562 -0.128906 0.125 -0.140625 L 0.4375 -0.484375 C 0.46875 -0.523438 0.492188 -0.566406 0.515625 -0.609375 C 0.546875 -0.648438 0.5625 -0.6875 0.5625 -0.71875 C 0.5625 -0.769531 0.546875 -0.804688 0.515625 -0.828125 C 0.484375 -0.859375 0.445312 -0.875 0.40625 -0.875 C 0.382812 -0.875 0.363281 -0.867188 0.34375 -0.859375 C 0.320312 -0.859375 0.300781 -0.847656 0.28125 -0.828125 C 0.269531 -0.816406 0.253906 -0.800781 0.234375 -0.78125 C 0.222656 -0.757812 0.210938 -0.742188 0.203125 -0.734375 C 0.191406 -0.734375 0.179688 -0.734375 0.171875 -0.734375 C 0.148438 -0.734375 0.128906 -0.742188 0.109375 -0.765625 C 0.0859375 -0.785156 0.078125 -0.804688 0.078125 -0.828125 C 0.078125 -0.835938 0.0820312 -0.847656 0.09375 -0.859375 C 0.101562 -0.878906 0.117188 -0.898438 0.140625 -0.921875 C 0.160156 -0.941406 0.1875 -0.960938 0.21875 -0.984375 C 0.25 -1.003906 0.28125 -1.019531 0.3125 -1.03125 C 0.34375 -1.039062 0.375 -1.046875 0.40625 -1.046875 C 0.476562 -1.046875 0.535156 -1.03125 0.578125 -1 C 0.628906 -0.976562 0.664062 -0.941406 0.6875 -0.890625 C 0.71875 -0.847656 0.734375 -0.789062 0.734375 -0.71875 C 0.734375 -0.664062 0.71875 -0.609375 0.6875 -0.546875 C 0.65625 -0.484375 0.613281 -0.421875 0.5625 -0.359375 L 0.359375 -0.140625 L 0.34375 -0.15625 Z M 0.671875 -0.15625 "/></g></g></g><g fill="#e4e2dd" fill-opacity="1"><g transform="translate(64.459166, 29.762581)"><g><path d="M 0.453125 0.015625 C 0.367188 0.015625 0.296875 -0.00390625 0.234375 -0.046875 C 0.179688 -0.0976562 0.140625 -0.160156 0.109375 -0.234375 C 0.078125 -0.316406 0.0625 -0.410156 0.0625 -0.515625 C 0.0625 -0.617188 0.078125 -0.707031 0.109375 -0.78125 C 0.140625 -0.863281 0.179688 -0.925781 0.234375 -0.96875 C 0.296875 -1.019531 0.367188 -1.046875 0.453125 -1.046875 C 0.535156 -1.046875 0.601562 -1.019531 0.65625 -0.96875 C 0.71875 -0.925781 0.765625 -0.863281 0.796875 -0.78125 C 0.828125 -0.707031 0.84375 -0.617188 0.84375 -0.515625 C 0.84375 -0.410156 0.828125 -0.316406 0.796875 -0.234375 C 0.765625 -0.160156 0.71875 -0.0976562 0.65625 -0.046875 C 0.601562 -0.00390625 0.535156 0.015625 0.453125 0.015625 Z M 0.453125 -0.15625 C 0.492188 -0.15625 0.53125 -0.164062 0.5625 -0.1875 C 0.59375 -0.21875 0.613281 -0.257812 0.625 -0.3125 C 0.644531 -0.363281 0.65625 -0.429688 0.65625 -0.515625 C 0.65625 -0.597656 0.644531 -0.660156 0.625 -0.703125 C 0.613281 -0.753906 0.59375 -0.789062 0.5625 -0.8125 C 0.53125 -0.84375 0.492188 -0.859375 0.453125 -0.859375 C 0.410156 -0.859375 0.375 -0.84375 0.34375 -0.8125 C 0.3125 -0.789062 0.285156 -0.753906 0.265625 -0.703125 C 0.253906 -0.660156 0.25 -0.597656 0.25 -0.515625 C 0.25 -0.429688 0.253906 -0.363281 0.265625 -0.3125 C 0.285156 -0.257812 0.3125 -0.21875 0.34375 -0.1875 C 0.375 -0.164062 0.410156 -0.15625 0.453125 -0.15625 Z M 0.453125 -0.15625 "/></g></g></g><g fill="#e4e2dd" fill-opacity="1"><g transform="translate(65.29177, 29.762581)"><g><path d="M 0.671875 -0.15625 C 0.691406 -0.15625 0.707031 -0.144531 0.71875 -0.125 C 0.738281 -0.113281 0.75 -0.0976562 0.75 -0.078125 C 0.75 -0.0546875 0.738281 -0.0351562 0.71875 -0.015625 C 0.707031 -0.00390625 0.691406 0 0.671875 0 L 0.171875 0 C 0.148438 0 0.128906 -0.00390625 0.109375 -0.015625 C 0.0976562 -0.0351562 0.09375 -0.0546875 0.09375 -0.078125 C 0.09375 -0.109375 0.101562 -0.128906 0.125 -0.140625 L 0.4375 -0.484375 C 0.46875 -0.523438 0.492188 -0.566406 0.515625 -0.609375 C 0.546875 -0.648438 0.5625 -0.6875 0.5625 -0.71875 C 0.5625 -0.769531 0.546875 -0.804688 0.515625 -0.828125 C 0.484375 -0.859375 0.445312 -0.875 0.40625 -0.875 C 0.382812 -0.875 0.363281 -0.867188 0.34375 -0.859375 C 0.320312 -0.859375 0.300781 -0.847656 0.28125 -0.828125 C 0.269531 -0.816406 0.253906 -0.800781 0.234375 -0.78125 C 0.222656 -0.757812 0.210938 -0.742188 0.203125 -0.734375 C 0.191406 -0.734375 0.179688 -0.734375 0.171875 -0.734375 C 0.148438 -0.734375 0.128906 -0.742188 0.109375 -0.765625 C 0.0859375 -0.785156 0.078125 -0.804688 0.078125 -0.828125 C 0.078125 -0.835938 0.0820312 -0.847656 0.09375 -0.859375 C 0.101562 -0.878906 0.117188 -0.898438 0.140625 -0.921875 C 0.160156 -0.941406 0.1875 -0.960938 0.21875 -0.984375 C 0.25 -1.003906 0.28125 -1.019531 0.3125 -1.03125 C 0.34375 -1.039062 0.375 -1.046875 0.40625 -1.046875 C 0.476562 -1.046875 0.535156 -1.03125 0.578125 -1 C 0.628906 -0.976562 0.664062 -0.941406 0.6875 -0.890625 C 0.71875 -0.847656 0.734375 -0.789062 0.734375 -0.71875 C 0.734375 -0.664062 0.71875 -0.609375 0.6875 -0.546875 C 0.65625 -0.484375 0.613281 -0.421875 0.5625 -0.359375 L 0.359375 -0.140625 L 0.34375 -0.15625 Z M 0.671875 -0.15625 "/></g></g></g><g fill="#e4e2dd" fill-opacity="1"><g transform="translate(66.058294, 29.762581)"><g><path d="M 0.171875 -0.203125 C 0.171875 -0.203125 0.175781 -0.203125 0.1875 -0.203125 C 0.195312 -0.203125 0.210938 -0.195312 0.234375 -0.1875 C 0.242188 -0.175781 0.257812 -0.164062 0.28125 -0.15625 C 0.3125 -0.144531 0.335938 -0.140625 0.359375 -0.140625 C 0.390625 -0.140625 0.421875 -0.144531 0.453125 -0.15625 C 0.484375 -0.175781 0.503906 -0.195312 0.515625 -0.21875 C 0.535156 -0.25 0.546875 -0.285156 0.546875 -0.328125 C 0.546875 -0.359375 0.535156 -0.382812 0.515625 -0.40625 C 0.503906 -0.4375 0.484375 -0.457031 0.453125 -0.46875 C 0.429688 -0.476562 0.410156 -0.484375 0.390625 -0.484375 C 0.359375 -0.484375 0.335938 -0.484375 0.328125 -0.484375 C 0.316406 -0.484375 0.300781 -0.476562 0.28125 -0.46875 C 0.269531 -0.46875 0.257812 -0.46875 0.25 -0.46875 C 0.21875 -0.46875 0.195312 -0.472656 0.1875 -0.484375 C 0.175781 -0.503906 0.171875 -0.523438 0.171875 -0.546875 C 0.171875 -0.554688 0.171875 -0.566406 0.171875 -0.578125 C 0.179688 -0.585938 0.191406 -0.601562 0.203125 -0.625 L 0.46875 -0.890625 L 0.5 -0.859375 L 0.140625 -0.859375 C 0.117188 -0.859375 0.0976562 -0.863281 0.078125 -0.875 C 0.0664062 -0.894531 0.0625 -0.914062 0.0625 -0.9375 C 0.0625 -0.957031 0.0664062 -0.972656 0.078125 -0.984375 C 0.0976562 -1.003906 0.117188 -1.015625 0.140625 -1.015625 L 0.59375 -1.015625 C 0.625 -1.015625 0.644531 -1.003906 0.65625 -0.984375 C 0.675781 -0.972656 0.6875 -0.957031 0.6875 -0.9375 C 0.6875 -0.914062 0.679688 -0.898438 0.671875 -0.890625 C 0.660156 -0.878906 0.648438 -0.867188 0.640625 -0.859375 L 0.390625 -0.578125 L 0.34375 -0.640625 C 0.351562 -0.640625 0.367188 -0.640625 0.390625 -0.640625 C 0.410156 -0.648438 0.425781 -0.65625 0.4375 -0.65625 C 0.5 -0.65625 0.550781 -0.640625 0.59375 -0.609375 C 0.632812 -0.578125 0.664062 -0.535156 0.6875 -0.484375 C 0.707031 -0.441406 0.71875 -0.394531 0.71875 -0.34375 C 0.71875 -0.269531 0.703125 -0.207031 0.671875 -0.15625 C 0.640625 -0.101562 0.59375 -0.0625 0.53125 -0.03125 C 0.476562 0 0.410156 0.015625 0.328125 0.015625 C 0.296875 0.015625 0.257812 0.0078125 0.21875 0 C 0.1875 -0.0078125 0.160156 -0.0195312 0.140625 -0.03125 C 0.109375 -0.0390625 0.0859375 -0.0507812 0.078125 -0.0625 C 0.078125 -0.0820312 0.078125 -0.0976562 0.078125 -0.109375 C 0.078125 -0.128906 0.0820312 -0.148438 0.09375 -0.171875 C 0.113281 -0.191406 0.140625 -0.203125 0.171875 -0.203125 Z M 0.171875 -0.203125 "/></g></g></g></svg>